<?xml version="1.0" encoding="utf-8"?>
<!-- Generator: Adobe Illustrator 23.1.0, SVG Export Plug-In . SVG Version: 6.00 Build 0)  -->
<svg version="1.1" id="Слой_1" xmlns="http://www.w3.org/2000/svg" xmlns:xlink="http://www.w3.org/1999/xlink" x="0px" y="0px"
	 viewBox="0 0 120 120" style="enable-background:new 0 0 120 120;" xml:space="preserve">
<style type="text/css">
	.st0{fill-rule:evenodd;clip-rule:evenodd;fill:url(#SVGID_1_);}
	.st1{fill:#FFFFFF;}
</style>
<title>Phone</title>
<g>
	<g id="Phone">
		<g id="bg">
			
				<linearGradient id="SVGID_1_" gradientUnits="userSpaceOnUse" x1="60" y1="2" x2="60" y2="122" gradientTransform="matrix(1 0 0 -1 0 122)">
				<stop  offset="0" style="stop-color:#1877F2"/>
				<stop  offset="0.7708" style="stop-color:#14C5FB"/>
			</linearGradient>
			<path class="st0" d="M28,0h64c15.5,0,28,12.5,28,28v64c0,15.5-12.5,28-28,28H28c-15.5,0-28-12.5-28-28V28C0,12.5,12.5,0,28,0z"/>
		</g>
	</g>
</g>
<g>
	<g>
		<path class="st1" d="M97.5,47.8l-4.3-17.1c-0.5-2.1-2.4-3.6-4.6-3.6H31.1c-2.2,0-4,1.5-4.6,3.6l-4.3,17.1c0,0.2-0.1,0.4-0.1,0.6
			c0,6.5,5,11.8,11.2,11.8c3.6,0,6.8-1.8,8.8-4.6c2.1,2.8,5.3,4.6,8.8,4.6s6.8-1.8,8.8-4.6c2.1,2.8,5.2,4.6,8.8,4.6
			c3.6,0,6.8-1.8,8.8-4.6c2.1,2.8,5.2,4.6,8.8,4.6c6.2,0,11.2-5.3,11.2-11.8C97.6,48.1,97.6,48,97.5,47.8z"/>
	</g>
</g>
<g>
	<g>
		<path class="st1" d="M86.4,64.8c-3.2,0-6.3-1-8.8-2.8c-5.2,3.6-12.5,3.6-17.7,0c-5.2,3.6-12.5,3.6-17.7,0
			c-2.6,1.8-5.6,2.8-8.8,2.8c-2.3,0-4.5-0.5-6.5-1.5v25c0,2.6,2.1,4.7,4.7,4.7h18.9V74.3h18.9v18.9h18.9c2.6,0,4.7-2.1,4.7-4.7v-25
			C90.9,64.3,88.7,64.8,86.4,64.8z"/>
	</g>
</g>
</svg>
