<?xml version="1.0" encoding="utf-8"?>
<!-- Generator: Adobe Illustrator 23.1.0, SVG Export Plug-In . SVG Version: 6.00 Build 0)  -->
<svg version="1.1" id="Слой_1" xmlns="http://www.w3.org/2000/svg" xmlns:xlink="http://www.w3.org/1999/xlink" x="0px" y="0px"
	 viewBox="0 0 200 200" style="enable-background:new 0 0 200 200;" xml:space="preserve">
<g>
	<path d="M87.4,87.2h-3.5V69.9h6.9c0.6,0,1.2,0.1,1.8,0.2s1.1,0.4,1.6,0.7s1,0.7,1.4,1.1s0.8,0.9,1.1,1.4c0.3,0.5,0.5,1.1,0.7,1.7
		c0.2,0.6,0.2,1.2,0.2,1.8c0,0.6-0.1,1.2-0.2,1.7c-0.1,0.6-0.4,1.1-0.6,1.6c-0.3,0.5-0.6,1-1,1.4c-0.4,0.4-0.9,0.8-1.4,1.1l1.9,4.5
		h-3.7l-1.5-3.5l-3.9,0V87.2z M87.4,73.3v6.9h3.5c0.5,0,0.9-0.1,1.3-0.3c0.4-0.2,0.8-0.4,1.1-0.7c0.3-0.3,0.6-0.7,0.7-1.1
		c0.2-0.4,0.3-0.9,0.3-1.3c0-0.5-0.1-0.9-0.3-1.3c-0.2-0.4-0.4-0.8-0.7-1.1c-0.3-0.3-0.7-0.6-1.1-0.7c-0.4-0.2-0.9-0.3-1.3-0.3H87.4
		z"/>
	<path d="M113.7,87.2h-3.5v-3.5h-6.9v3.5h-3.5V76.8c0-1,0.2-1.9,0.5-2.7s0.9-1.6,1.5-2.2s1.4-1.1,2.2-1.5s1.7-0.5,2.7-0.5
		c1,0,1.9,0.2,2.7,0.5s1.6,0.9,2.2,1.5c0.6,0.6,1.1,1.4,1.5,2.2s0.5,1.7,0.5,2.7V87.2z M110.2,80.3v-3.5c0-0.5-0.1-0.9-0.3-1.3
		c-0.2-0.4-0.4-0.8-0.7-1.1c-0.3-0.3-0.7-0.6-1.1-0.7c-0.4-0.2-0.9-0.3-1.3-0.3c-0.5,0-0.9,0.1-1.3,0.3c-0.4,0.2-0.8,0.4-1.1,0.7
		c-0.3,0.3-0.6,0.7-0.7,1.1c-0.2,0.4-0.3,0.9-0.3,1.3v3.5H110.2z"/>
	<path d="M130.5,85.4c-0.8,0.7-1.7,1.2-2.7,1.6c-1,0.4-2,0.6-3.1,0.6c-0.8,0-1.6-0.1-2.4-0.3c-0.8-0.2-1.5-0.5-2.1-0.9
		c-0.7-0.4-1.3-0.9-1.8-1.4c-0.5-0.5-1-1.2-1.4-1.8s-0.7-1.4-0.9-2.1c-0.2-0.8-0.3-1.6-0.3-2.4s0.1-1.6,0.3-2.4
		c0.2-0.8,0.5-1.5,0.9-2.1c0.4-0.7,0.9-1.3,1.4-1.8s1.2-1,1.8-1.4c0.7-0.4,1.4-0.7,2.1-0.9c0.8-0.2,1.6-0.3,2.4-0.3
		c1.1,0,2.1,0.2,3.1,0.5c1,0.4,1.9,0.9,2.7,1.6l-1.8,3c-0.5-0.5-1.1-1-1.8-1.3c-0.7-0.3-1.4-0.4-2.2-0.4c-0.8,0-1.5,0.1-2.2,0.4
		c-0.7,0.3-1.3,0.7-1.8,1.2c-0.5,0.5-0.9,1.1-1.2,1.8c-0.3,0.7-0.4,1.4-0.4,2.1c0,0.8,0.1,1.5,0.4,2.1s0.7,1.2,1.2,1.7
		c0.5,0.5,1.1,0.9,1.8,1.2s1.4,0.4,2.2,0.4c0.8,0,1.5-0.1,2.2-0.4c0.7-0.3,1.3-0.7,1.8-1.3L130.5,85.4z"/>
	<path d="M149,78.6c0,0.8-0.1,1.6-0.3,2.4c-0.2,0.8-0.5,1.5-0.9,2.1c-0.4,0.7-0.9,1.3-1.4,1.8c-0.5,0.5-1.2,1-1.8,1.4
		c-0.7,0.4-1.4,0.7-2.1,0.9s-1.6,0.3-2.4,0.3c-0.8,0-1.6-0.1-2.4-0.3c-0.8-0.2-1.5-0.5-2.1-0.9c-0.7-0.4-1.3-0.9-1.8-1.4
		c-0.5-0.5-1-1.2-1.4-1.8s-0.7-1.4-0.9-2.1c-0.2-0.8-0.3-1.6-0.3-2.4s0.1-1.6,0.3-2.4c0.2-0.8,0.5-1.5,0.9-2.1s0.9-1.3,1.4-1.8
		s1.2-1,1.8-1.4c0.7-0.4,1.4-0.7,2.1-0.9c0.8-0.2,1.6-0.3,2.4-0.3c0.8,0,1.6,0.1,2.4,0.3s1.5,0.5,2.1,0.9s1.3,0.9,1.8,1.4
		s1,1.2,1.4,1.8c0.4,0.7,0.7,1.4,0.9,2.1C148.9,77,149,77.8,149,78.6z M145.6,78.6c0-0.8-0.1-1.5-0.4-2.1c-0.3-0.7-0.7-1.3-1.2-1.8
		c-0.5-0.5-1.1-0.9-1.8-1.2c-0.7-0.3-1.4-0.4-2.1-0.4c-0.8,0-1.5,0.1-2.2,0.4c-0.7,0.3-1.3,0.7-1.8,1.2c-0.5,0.5-0.9,1.1-1.2,1.8
		c-0.3,0.7-0.4,1.4-0.4,2.1c0,0.8,0.1,1.5,0.4,2.1s0.7,1.2,1.2,1.7c0.5,0.5,1.1,0.9,1.8,1.2s1.4,0.4,2.2,0.4c0.8,0,1.5-0.1,2.1-0.4
		c0.7-0.3,1.3-0.7,1.8-1.2s0.9-1.1,1.2-1.7S145.6,79.3,145.6,78.6z"/>
	<path d="M168.3,78.6c0,0.8-0.1,1.6-0.3,2.4c-0.2,0.8-0.5,1.5-0.9,2.1c-0.4,0.7-0.9,1.3-1.4,1.8c-0.5,0.5-1.2,1-1.8,1.4
		c-0.7,0.4-1.4,0.7-2.1,0.9s-1.6,0.3-2.4,0.3c-0.8,0-1.6-0.1-2.4-0.3c-0.8-0.2-1.5-0.5-2.1-0.9c-0.7-0.4-1.3-0.9-1.8-1.4
		c-0.5-0.5-1-1.2-1.4-1.8s-0.7-1.4-0.9-2.1c-0.2-0.8-0.3-1.6-0.3-2.4s0.1-1.6,0.3-2.4c0.2-0.8,0.5-1.5,0.9-2.1s0.9-1.3,1.4-1.8
		s1.2-1,1.8-1.4c0.7-0.4,1.4-0.7,2.1-0.9c0.8-0.2,1.6-0.3,2.4-0.3c0.8,0,1.6,0.1,2.4,0.3s1.5,0.5,2.1,0.9s1.3,0.9,1.8,1.4
		s1,1.2,1.4,1.8c0.4,0.7,0.7,1.4,0.9,2.1C168.2,77,168.3,77.8,168.3,78.6z M164.8,78.6c0-0.8-0.1-1.5-0.4-2.1
		c-0.3-0.7-0.7-1.3-1.2-1.8c-0.5-0.5-1.1-0.9-1.8-1.2c-0.7-0.3-1.4-0.4-2.1-0.4c-0.8,0-1.5,0.1-2.2,0.4c-0.7,0.3-1.3,0.7-1.8,1.2
		c-0.5,0.5-0.9,1.1-1.2,1.8c-0.3,0.7-0.4,1.4-0.4,2.1c0,0.8,0.1,1.5,0.4,2.1s0.7,1.2,1.2,1.7c0.5,0.5,1.1,0.9,1.8,1.2
		s1.4,0.4,2.2,0.4c0.8,0,1.5-0.1,2.1-0.4c0.7-0.3,1.3-0.7,1.8-1.2s0.9-1.1,1.2-1.7S164.8,79.3,164.8,78.6z"/>
	<path d="M184.4,87.2h-3.7L174,75.8v11.4h-3.5V69.9h3.7l6.7,11.4V69.9h3.5V87.2z"/>
</g>
<g>
	<path d="M77.3,68C77.4,68,77.4,68,77.3,68c0.1-0.2,0.2-0.3,0.3-0.4c0.2-0.3,0.4-0.7,0.5-1c0.1-0.1,0.1-0.3,0.2-0.4
		c0-0.1,0.1-0.2,0.1-0.2c0,0,0-0.1,0-0.1l0,0c0,0,0,0,0,0c0-0.1,0.1-0.2,0.1-0.3c0-0.1,0.1-0.2,0.1-0.3c0-0.1,0.1-0.2,0.1-0.3
		c0-0.1,0.1-0.3,0.1-0.4c0.2-0.6,0.3-1.1,0.4-1.7c0.1-0.8,0.2-1.7,0.2-2.5v-0.1c0,0,0-0.1,0-0.1c0,0,0,0,0,0c0-0.1,0-0.1,0-0.2
		c0,0,0,0,0,0v0c0,0,0-0.1,0-0.1c0-0.1,0-0.1,0-0.1c0-0.1,0-0.1,0-0.2c0-0.1,0-0.2,0-0.3c0,0,0,0,0,0c0,0,0,0,0,0c0-0.1,0-0.3,0-0.4
		c0,0,0,0,0,0c0-0.2,0-0.3-0.1-0.5c0,0,0,0,0,0c0-0.2,0-0.3-0.1-0.5c0-0.1,0-0.2,0-0.2c0-0.2-0.1-0.3-0.1-0.5v0c0-0.1,0-0.2,0-0.2
		c0-0.1,0-0.2,0-0.2c0-0.1,0-0.2-0.1-0.3c0-0.1,0-0.1,0-0.2c0,0,0,0,0,0c0-0.1-0.1-0.2-0.1-0.3c0,0,0,0,0,0c0,0,0,0,0,0
		c0,0,0,0,0-0.1c0,0,0,0,0,0c0-0.1-0.1-0.2-0.1-0.3c0,0,0,0,0-0.1c0,0,0-0.1,0-0.1c0-0.1-0.1-0.3-0.1-0.4c0-0.1-0.1-0.2-0.1-0.3
		c-0.2-0.6-0.4-1.2-0.6-1.7c-0.1-0.2-0.1-0.4-0.2-0.5c0,0,0,0,0,0c-0.1-0.2-0.1-0.4-0.2-0.5c0,0,0,0,0,0c-0.1-0.3-0.3-0.7-0.4-1
		c0-0.1-0.1-0.2-0.1-0.2C77,50,77,49.9,76.9,49.7c-0.1-0.1-0.1-0.3-0.2-0.4c-0.1-0.1-0.1-0.3-0.2-0.4c-0.1-0.3-0.3-0.5-0.4-0.7
		C76,48,76,47.9,75.9,47.7c-0.1-0.2-0.2-0.4-0.3-0.5c0-0.1-0.1-0.1-0.1-0.2c-0.2-0.4-0.3-0.6-0.3-0.6c-8.9,2.6-13,9-13.9,10.7
		c-3.6-1.1-7.5-1.7-11.7-1.7c-0.1,0-0.3,0-0.4,0h0c-3.9,0.1-7.6,0.8-11,2.1c0,0-0.1-0.2-0.2-0.4c-0.9-1.7-5.1-8-13.9-10.7
		c0,0-0.1,0.2-0.3,0.6c0,0.1-0.1,0.1-0.1,0.2c-0.1,0.2-0.2,0.3-0.3,0.5c-0.1,0.1-0.2,0.3-0.3,0.5c-0.1,0.2-0.2,0.5-0.4,0.7
		c-0.1,0.1-0.1,0.3-0.2,0.4c-0.1,0.1-0.1,0.3-0.2,0.4C22.1,49.9,22,50,22,50.2c0,0.1-0.1,0.2-0.1,0.2c-0.1,0.3-0.3,0.6-0.4,1
		c0,0,0,0,0,0c-0.1,0.2-0.1,0.3-0.2,0.5c0,0,0,0,0,0c-0.1,0.2-0.1,0.4-0.2,0.5c-0.2,0.5-0.4,1.1-0.6,1.7c0,0.1-0.1,0.2-0.1,0.3
		c0,0.1-0.1,0.3-0.1,0.4c0,0,0,0.1,0,0.1c0,0,0,0,0,0.1c0,0.1-0.1,0.2-0.1,0.3c0,0,0,0,0,0c0,0,0,0,0,0.1c0,0,0,0,0,0c0,0,0,0,0,0
		c0,0.1-0.1,0.2-0.1,0.3c0,0,0,0,0,0c0,0.1,0,0.1,0,0.2c0,0.1,0,0.2-0.1,0.3c0,0.1,0,0.2,0,0.2c0,0.1,0,0.2,0,0.2v0
		c0,0.2-0.1,0.3-0.1,0.5c0,0.1,0,0.2,0,0.2c0,0.2,0,0.3-0.1,0.5c0,0,0,0,0,0c0,0.2,0,0.3-0.1,0.5c0,0,0,0,0,0c0,0.1,0,0.3,0,0.4
		c0,0,0,0,0,0c0,0,0,0,0,0c0,0.1,0,0.2,0,0.3c0,0.1,0,0.1,0,0.2c0,0.1,0,0.1,0,0.1c0,0.1,0,0.1,0,0.1v0c0,0,0,0,0,0
		c0,0.1,0,0.1,0,0.2c0,0,0,0,0,0c0,0,0,0.1,0,0.1v0.1c0,0.8,0.1,1.7,0.2,2.5c0.1,0.6,0.2,1.1,0.4,1.7c0,0.1,0.1,0.3,0.1,0.4
		c0,0.1,0.1,0.2,0.1,0.3c0,0.1,0.1,0.2,0.1,0.3c0,0.1,0.1,0.2,0.1,0.2c0,0,0,0,0,0c0,0,0,0,0,0c0,0,0,0.1,0,0.1
		c0,0.1,0.1,0.2,0.1,0.2c0.1,0.1,0.1,0.3,0.2,0.4c0.2,0.3,0.3,0.7,0.5,1c0.1,0.1,0.2,0.3,0.2,0.4c0,0,0,0,0,0
		c-2.3,3.3-3.7,7.1-3.7,11.1c0,13,13.8,23.5,31,23.7h0c0.1,0,0.3,0,0.4,0c17.4,0,31.5-10.6,31.5-23.7C81,75.1,79.7,71.3,77.3,68z
		 M49.3,82.2C49.3,82.2,49.3,82.2,49.3,82.2L49.3,82.2C49.4,82.2,49.4,82.2,49.3,82.2l0.2,0c0,0,0,0,0,0h0.1c0.1,0,0.1,0,0.2,0
		c1,0,2,0.3,2.8,0.6c1.2,0.6,2,1.5,2,2.6c0,1.8-2.2,3.2-5,3.2s-5-1.4-5-3.2c0,0,0-0.1,0-0.1c0-1,0.8-1.9,2-2.5
		C47.3,82.5,48.3,82.3,49.3,82.2z M24,63l-1-0.2c-0.5-0.1-0.8-0.6-0.7-1.1c0.1-0.5,0.6-0.8,1.1-0.7l0.6,0.1c0.1-0.7,0.2-1.5,0.4-2.1
		l-0.6-0.7c-0.3-0.4-0.3-1,0.1-1.3c0.4-0.3,0.9-0.3,1.3,0c0.8-1.6,1.7-2.9,2.6-3.8c1.1,2.1,2.2,4.5,2.9,6.9
		c-2.5,1.4-4.7,3.1-6.6,4.9C24.1,64.3,24,63.6,24,63z M49.2,96.3c-5.2-0.1-10-1.4-13.9-3.7c0,0,0,0,0,0c-4.4-2.6-7.7-6.3-9.3-10.7
		c0.7-2.1,1.9-4,3.4-5.8c0.2-0.2,0.3-0.4,0.5-0.5c0.8-0.9,1.7-1.7,2.7-2.5c0,0,0.1-0.1,0.1-0.1c0,0,0,0,0.1-0.1c0,0,0,0,0.1-0.1h0
		c2.2-1.7,4.7-3,7.5-3.9c3-1,6.2,1.2,6.2,4.4v9.2c-0.1,0-0.2,0-0.2,0c-0.1,0-0.3,0.1-0.4,0.1c-0.1,0-0.1,0-0.2,0.1
		c-0.1,0-0.2,0-0.3,0.1c-0.1,0-0.3,0.1-0.4,0.1c-0.1,0-0.2,0-0.2,0.1c-0.2,0-0.3,0.1-0.5,0.2c-0.3,0.1-0.6,0.2-0.9,0.4
		c-0.1,0.1-0.3,0.1-0.4,0.2c-0.1,0-0.1,0.1-0.2,0.1c-0.1,0.1-0.3,0.1-0.4,0.2c-2.3,1.3-3.8,3.2-3.8,5.3c0,2.1,1.5,4,3.8,5.3
		c0.1,0.1,0.3,0.1,0.4,0.2c0.1,0,0.1,0.1,0.2,0.1c0.1,0.1,0.3,0.1,0.4,0.2c0.3,0.1,0.6,0.2,0.9,0.4c0.2,0.1,0.3,0.1,0.5,0.2
		c0.1,0,0.2,0,0.2,0.1c0.1,0,0.2,0,0.2,0.1c0.2,0,0.3,0.1,0.5,0.1c0.2,0,0.3,0.1,0.5,0.1c0.2,0,0.3,0.1,0.5,0.1c0.1,0,0.2,0,0.3,0
		c0.2,0,0.3,0,0.5,0.1c0,0,0,0,0,0c0.1,0,0.2,0,0.4,0c0,0,0.1,0,0.1,0c0.1,0,0.2,0,0.4,0c0.1,0,0.3,0,0.4,0c0.1,0,0.1,0,0.2,0
		C49.1,96.3,49.2,96.3,49.2,96.3C49.2,96.3,49.2,96.3,49.2,96.3z M49.9,96.3c-0.1,0-0.3,0-0.4,0c-0.1,0-0.2,0-0.3,0
		c0.1,0,0.2,0,0.3,0C49.7,96.3,49.8,96.3,49.9,96.3c5.9-0.1,10.6-3.2,10.6-7c0-3.2-3.4-5.9-8-6.8v-9.2c0-3.2,3.1-5.4,6.2-4.4
		c6.9,2.3,12.3,7.1,14.4,13C70.2,90.1,60.9,96.2,49.9,96.3z M76,62.8l-1,0.2c0,0.6-0.1,1.3-0.3,2c-1.9-1.9-4.1-3.5-6.6-4.9
		c0.8-2.4,1.8-4.8,2.9-6.9c0.9,0.9,1.9,2.2,2.6,3.8c0.3-0.3,0.9-0.3,1.3,0c0.4,0.3,0.5,0.9,0.1,1.3l-0.6,0.7
		c0.2,0.7,0.3,1.4,0.4,2.1l0.6-0.1c0.5-0.1,1,0.2,1.1,0.7C76.9,62.1,76.5,62.6,76,62.8z"/>
</g>
</svg>
