<?xml version="1.0" encoding="utf-8"?>
<!-- Generator: Adobe Illustrator 21.1.0, SVG Export Plug-In . SVG Version: 6.00 Build 0)  -->
<svg version="1.1" id="Слой_1" xmlns="http://www.w3.org/2000/svg" xmlns:xlink="http://www.w3.org/1999/xlink" x="0px" y="0px"
	 viewBox="0 0 120 120" style="enable-background:new 0 0 120 120;" xml:space="preserve">
<style type="text/css">
	.st0{fill:url(#bg_1_);}
	.st1{fill:#FFFFFF;}
</style>
<title>Mail</title>
<g id="_x40_2x">
	<g id="Mail">
		
			<linearGradient id="bg_1_" gradientUnits="userSpaceOnUse" x1="-929.6833" y1="444.3167" x2="-929.6833" y2="445.3167" gradientTransform="matrix(120 0 0 120 111622 -53318)">
			<stop  offset="0" style="stop-color:#F7F440"/>
			<stop  offset="1" style="stop-color:#FF9C2E"/>
		</linearGradient>
		<path id="bg" class="st0" d="M28,0h64c15.5,0,28,12.5,28,28v64c0,15.5-12.5,28-28,28H28c-15.5,0-28-12.5-28-28V28
			C0,12.5,12.5,0,28,0z"/>
	</g>
</g>
<g>
	<path class="st1" d="M67.4,54c-0.5,0-0.9,0.3-0.9,0.8c-0.3,1.8-0.7,3.6-1.3,5.2c-1.2,3.2-3.1,5.6-5.6,7.2c-1.9,1.2-4.1,1.8-6.3,1.8
		c-4.2,0-8.5-2.3-11.3-4.1c-0.3-0.2-0.6-0.2-0.9-0.1c-0.7,0.3-1.4,0.5-2.1,0.7c-0.4,0.1-0.7,0.5-0.7,0.9v25.6c0,0.5,0.4,0.9,0.9,0.9
		h57.9c4.8,0,8.6-3.9,8.6-8.6V54.9c0-0.5-0.4-0.9-0.9-0.9H67.4z"/>
	<path class="st1" d="M39,36.5c0.7,0.2,1.5,0.4,2.1,0.7c0.3,0.1,0.6,0.1,0.9-0.1c2.8-1.8,7.1-4.1,11.3-4.1c2.2,0,4.4,0.6,6.3,1.8
		c2.5,1.6,4.3,4,5.6,7.2c0.6,1.6,1.1,3.4,1.3,5.2c0.1,0.5,0.5,0.8,0.9,0.8h37.4c0.5,0,0.9-0.4,0.9-0.9V35.6c0-4.8-3.9-8.6-8.6-8.6
		H39.2c-0.5,0-0.9,0.4-0.9,0.9v7.6C38.3,36,38.5,36.4,39,36.5L39,36.5z"/>
	<path class="st1" d="M32.3,35.6v-7.6c0-0.5-0.4-0.9-0.9-0.9h-2.4c-3.6,0-6.7,2.3-8,5.4c-0.2,0.5,0.1,1.1,0.6,1.2
		c2.7,0.8,5.2,2.2,7.1,3.4c0.3,0.2,0.6,0.2,0.9,0.1c0.7-0.3,1.4-0.5,2.1-0.7C32,36.4,32.3,36,32.3,35.6z"/>
	<path class="st1" d="M31.5,65.5c-0.7-0.2-1.5-0.4-2.1-0.7c-0.3-0.1-0.6-0.1-0.9,0.1c-2,1.3-4.7,2.8-7.6,3.6
		c-0.4,0.1-0.7,0.5-0.7,0.9v15c0,4.8,3.9,8.6,8.6,8.6h2.4c0.5,0,0.9-0.4,0.9-0.9V66.4C32.3,66,32,65.6,31.5,65.5L31.5,65.5z"/>
	<path class="st1" d="M59.5,44.2c-1.7-4.5-4.7-5.2-6.3-5.2c-3.4,0-7.7,2.9-9,3.8c-0.8,0.6-1.7,1.3-2.5,2c-1.6-1.7-4-2.8-6.5-2.8
		s-4.9,1.1-6.5,2.8c-0.8-0.7-1.7-1.4-2.5-2c-1.3-0.9-5.6-3.8-9-3.8c-1.6,0-4.5,0.7-6.3,5.2c-0.8,2-1.2,4.5-1.2,6.8s0.5,4.9,1.2,6.8
		c1.7,4.5,4.7,5.2,6.3,5.2c3.4,0,7.7-2.9,9-3.8c0.8-0.6,1.7-1.3,2.5-2c1.6,1.7,4,2.8,6.5,2.8s4.9-1.1,6.5-2.8c0.8,0.7,1.7,1.4,2.5,2
		c1.3,0.9,5.6,3.8,9,3.8c1.6,0,4.5-0.7,6.3-5.2c0.8-2,1.2-4.5,1.2-6.8S60.3,46.1,59.5,44.2L59.5,44.2z"/>
</g>
</svg>
