<?xml version="1.0" encoding="utf-8"?>
<!-- Generator: Adobe Illustrator 23.1.0, SVG Export Plug-In . SVG Version: 6.00 Build 0)  -->
<svg version="1.1" id="Слой_1" xmlns="http://www.w3.org/2000/svg" xmlns:xlink="http://www.w3.org/1999/xlink" x="0px" y="0px"
	 viewBox="0 0 120 120" style="enable-background:new 0 0 120 120;" xml:space="preserve">
<style type="text/css">
	.st0{fill-rule:evenodd;clip-rule:evenodd;fill:url(#SVGID_1_);}
	.st1{fill:#F9F9F9;}
</style>
<title>Phone</title>
<g>
	<g id="Phone">
		<g id="bg">
			<linearGradient id="SVGID_1_" gradientUnits="userSpaceOnUse" x1="60" y1="120" x2="60" y2="-9.094947e-13">
				<stop  offset="0" style="stop-color:#572685"/>
				<stop  offset="0.7708" style="stop-color:#0C2061"/>
			</linearGradient>
			<path class="st0" d="M28,0h64c15.5,0,28,12.5,28,28v64c0,15.5-12.5,28-28,28H28c-15.5,0-28-12.5-28-28V28C0,12.5,12.5,0,28,0z"/>
		</g>
	</g>
</g>
<g>
	<path class="st1" d="M88.1,51.6C88.1,51.6,88.1,51.6,88.1,51.6c0.1-0.2,0.2-0.3,0.3-0.4c0.2-0.3,0.4-0.7,0.5-1
		c0.1-0.1,0.1-0.3,0.2-0.4c0-0.1,0.1-0.2,0.1-0.2c0,0,0-0.1,0-0.1l0,0c0,0,0,0,0,0c0-0.1,0.1-0.2,0.1-0.3c0-0.1,0.1-0.2,0.1-0.3
		c0-0.1,0.1-0.2,0.1-0.3c0-0.1,0.1-0.3,0.1-0.4c0.2-0.6,0.3-1.1,0.4-1.7c0.1-0.8,0.2-1.7,0.2-2.5v-0.1c0,0,0-0.1,0-0.1c0,0,0,0,0,0
		c0-0.1,0-0.1,0-0.2c0,0,0,0,0,0v0c0,0,0-0.1,0-0.1c0-0.1,0-0.1,0-0.1c0-0.1,0-0.1,0-0.2c0-0.1,0-0.2,0-0.3c0,0,0,0,0,0c0,0,0,0,0,0
		c0-0.1,0-0.3,0-0.4c0,0,0,0,0,0c0-0.2,0-0.3-0.1-0.5c0,0,0,0,0,0c0-0.2,0-0.3-0.1-0.5c0-0.1,0-0.2,0-0.2c0-0.2-0.1-0.3-0.1-0.5v0
		c0-0.1,0-0.2,0-0.2c0-0.1,0-0.2,0-0.2c0-0.1,0-0.2-0.1-0.3c0-0.1,0-0.1,0-0.2c0,0,0,0,0,0c0-0.1-0.1-0.2-0.1-0.3c0,0,0,0,0,0
		c0,0,0,0,0,0c0,0,0,0,0-0.1c0,0,0,0,0,0c0-0.1-0.1-0.2-0.1-0.3c0,0,0,0,0-0.1c0,0,0-0.1,0-0.1c0-0.1-0.1-0.3-0.1-0.4
		c0-0.1-0.1-0.2-0.1-0.3c-0.2-0.6-0.4-1.2-0.6-1.7c-0.1-0.2-0.1-0.4-0.2-0.5c0,0,0,0,0,0c-0.1-0.2-0.1-0.4-0.2-0.5c0,0,0,0,0,0
		c-0.1-0.3-0.3-0.7-0.4-1c0-0.1-0.1-0.2-0.1-0.2c-0.1-0.2-0.1-0.3-0.2-0.4c-0.1-0.1-0.1-0.3-0.2-0.4c-0.1-0.1-0.1-0.3-0.2-0.4
		c-0.1-0.3-0.3-0.5-0.4-0.7c-0.1-0.2-0.2-0.3-0.3-0.5c-0.1-0.2-0.2-0.4-0.3-0.5c0-0.1-0.1-0.1-0.1-0.2C86,30.2,85.9,30,85.9,30
		c-8.9,2.6-13,9-13.9,10.7c-3.6-1.1-7.5-1.7-11.7-1.7c-0.1,0-0.3,0-0.4,0h0c-3.9,0.1-7.6,0.8-11,2.1c0,0-0.1-0.2-0.2-0.4
		c-0.9-1.7-5.1-8-13.9-10.7c0,0-0.1,0.2-0.3,0.6c0,0.1-0.1,0.1-0.1,0.2c-0.1,0.2-0.2,0.3-0.3,0.5c-0.1,0.1-0.2,0.3-0.3,0.5
		c-0.1,0.2-0.2,0.5-0.4,0.7c-0.1,0.1-0.1,0.3-0.2,0.4c-0.1,0.1-0.1,0.3-0.2,0.4c-0.1,0.1-0.1,0.3-0.2,0.4c0,0.1-0.1,0.2-0.1,0.2
		c-0.1,0.3-0.3,0.6-0.4,1c0,0,0,0,0,0c-0.1,0.2-0.1,0.3-0.2,0.5c0,0,0,0,0,0c-0.1,0.2-0.1,0.4-0.2,0.5c-0.2,0.5-0.4,1.1-0.6,1.7
		c0,0.1-0.1,0.2-0.1,0.3c0,0.1-0.1,0.3-0.1,0.4c0,0,0,0.1,0,0.1c0,0,0,0,0,0.1c0,0.1-0.1,0.2-0.1,0.3c0,0,0,0,0,0c0,0,0,0,0,0.1
		c0,0,0,0,0,0c0,0,0,0,0,0c0,0.1-0.1,0.2-0.1,0.3c0,0,0,0,0,0c0,0.1,0,0.1,0,0.2c0,0.1,0,0.2-0.1,0.3c0,0.1,0,0.2,0,0.2
		c0,0.1,0,0.2,0,0.2v0c0,0.2-0.1,0.3-0.1,0.5c0,0.1,0,0.2,0,0.2c0,0.2,0,0.3-0.1,0.5c0,0,0,0,0,0c0,0.2,0,0.3-0.1,0.5c0,0,0,0,0,0
		c0,0.1,0,0.3,0,0.4c0,0,0,0,0,0c0,0,0,0,0,0c0,0.1,0,0.2,0,0.3c0,0.1,0,0.1,0,0.2c0,0.1,0,0.1,0,0.1c0,0.1,0,0.1,0,0.1v0
		c0,0,0,0,0,0c0,0.1,0,0.1,0,0.2c0,0,0,0,0,0c0,0,0,0.1,0,0.1v0.1c0,0.8,0.1,1.7,0.2,2.5c0.1,0.6,0.2,1.1,0.4,1.7
		c0,0.1,0.1,0.3,0.1,0.4c0,0.1,0.1,0.2,0.1,0.3c0,0.1,0.1,0.2,0.1,0.3c0,0.1,0.1,0.2,0.1,0.2c0,0,0,0,0,0c0,0,0,0,0,0
		c0,0,0,0.1,0,0.1c0,0.1,0.1,0.2,0.1,0.2c0.1,0.1,0.1,0.3,0.2,0.4c0.2,0.3,0.3,0.7,0.5,1c0.1,0.1,0.2,0.3,0.2,0.4c0,0,0,0,0,0
		c-2.3,3.3-3.7,7.1-3.7,11.1c0,13,13.8,23.5,31,23.7h0c0.1,0,0.3,0,0.4,0c17.4,0,31.5-10.6,31.5-23.7C91.8,58.6,90.4,54.9,88.1,51.6
		z M60,65.8C60.1,65.8,60.1,65.8,60,65.8L60,65.8C60.1,65.8,60.1,65.8,60,65.8l0.2,0c0,0,0,0,0,0h0.1c0.1,0,0.1,0,0.2,0
		c1,0,2,0.3,2.8,0.6c1.2,0.6,2,1.5,2,2.6c0,1.8-2.2,3.2-5,3.2s-5-1.4-5-3.2c0,0,0-0.1,0-0.1c0-1,0.8-1.9,2-2.5
		C58.1,66.1,59,65.9,60,65.8z M34.8,46.6l-1-0.2c-0.5-0.1-0.8-0.6-0.7-1.1c0.1-0.5,0.6-0.8,1.1-0.7l0.6,0.1c0.1-0.7,0.2-1.5,0.4-2.1
		l-0.6-0.7c-0.3-0.4-0.3-1,0.1-1.3c0.4-0.3,0.9-0.3,1.3,0c0.8-1.6,1.7-2.9,2.6-3.8c1.1,2.1,2.2,4.5,2.9,6.9
		c-2.5,1.4-4.7,3.1-6.6,4.9C34.9,47.9,34.8,47.2,34.8,46.6z M59.9,79.9c-5.2-0.1-10-1.4-13.9-3.7c0,0,0,0,0,0
		c-4.4-2.6-7.7-6.3-9.3-10.7c0.7-2.1,1.9-4,3.4-5.8c0.2-0.2,0.3-0.4,0.5-0.5c0.8-0.9,1.7-1.7,2.7-2.5c0,0,0.1-0.1,0.1-0.1
		c0,0,0,0,0.1-0.1c0,0,0,0,0.1-0.1h0c2.2-1.7,4.7-3,7.5-3.9c3-1,6.2,1.2,6.2,4.4v9.2c-0.1,0-0.2,0-0.2,0c-0.1,0-0.3,0.1-0.4,0.1
		c-0.1,0-0.1,0-0.2,0.1c-0.1,0-0.2,0-0.3,0.1c-0.1,0-0.3,0.1-0.4,0.1c-0.1,0-0.2,0-0.2,0.1c-0.2,0-0.3,0.1-0.5,0.2
		c-0.3,0.1-0.6,0.2-0.9,0.4c-0.1,0.1-0.3,0.1-0.4,0.2c-0.1,0-0.1,0.1-0.2,0.1c-0.1,0.1-0.3,0.1-0.4,0.2c-2.3,1.3-3.8,3.2-3.8,5.3
		c0,2.1,1.5,4,3.8,5.3c0.1,0.1,0.3,0.1,0.4,0.2c0.1,0,0.1,0.1,0.2,0.1c0.1,0.1,0.3,0.1,0.4,0.2c0.3,0.1,0.6,0.2,0.9,0.4
		c0.2,0.1,0.3,0.1,0.5,0.2c0.1,0,0.2,0,0.2,0.1c0.1,0,0.2,0,0.2,0.1c0.2,0,0.3,0.1,0.5,0.1c0.2,0,0.3,0.1,0.5,0.1
		c0.2,0,0.3,0.1,0.5,0.1c0.1,0,0.2,0,0.3,0c0.2,0,0.3,0,0.5,0.1c0,0,0,0,0,0c0.1,0,0.2,0,0.4,0c0,0,0.1,0,0.1,0c0.1,0,0.2,0,0.4,0
		c0.1,0,0.3,0,0.4,0c0.1,0,0.1,0,0.2,0C59.9,79.9,59.9,79.9,59.9,79.9C60,79.9,60,79.9,59.9,79.9z M60.7,79.9c-0.1,0-0.3,0-0.4,0
		c-0.1,0-0.2,0-0.3,0c0.1,0,0.2,0,0.3,0C60.4,79.9,60.6,79.9,60.7,79.9c5.9-0.1,10.6-3.2,10.6-7c0-3.2-3.4-5.9-8-6.8v-9.2
		c0-3.2,3.1-5.4,6.2-4.4c6.9,2.3,12.3,7.1,14.4,13C80.9,73.7,71.7,79.7,60.7,79.9z M86.8,46.3l-1,0.2c0,0.6-0.1,1.3-0.3,2
		c-1.9-1.9-4.1-3.5-6.6-4.9c0.8-2.4,1.8-4.8,2.9-6.9c0.9,0.9,1.9,2.2,2.6,3.8c0.3-0.3,0.9-0.3,1.3,0c0.4,0.3,0.5,0.9,0.1,1.3
		l-0.6,0.7c0.2,0.7,0.3,1.4,0.4,2.1l0.6-0.1c0.5-0.1,1,0.2,1.1,0.7C87.6,45.7,87.3,46.2,86.8,46.3z"/>
</g>
</svg>
