<?xml version="1.0" encoding="utf-8"?>
<!-- Generator: Adobe Illustrator 23.1.0, SVG Export Plug-In . SVG Version: 6.00 Build 0)  -->
<svg version="1.1" id="Слой_1" xmlns="http://www.w3.org/2000/svg" xmlns:xlink="http://www.w3.org/1999/xlink" x="0px" y="0px"
	 viewBox="0 0 120 120" style="enable-background:new 0 0 120 120;" xml:space="preserve">
<style type="text/css">
	.st0{fill-rule:evenodd;clip-rule:evenodd;fill:url(#SVGID_1_);}
	.st1{fill:#FFFFFF;}
</style>
<title>Messages</title>
<g>
	<g id="Messages">
		<g id="bg">
			
				<linearGradient id="SVGID_1_" gradientUnits="userSpaceOnUse" x1="-434.8417" y1="458.175" x2="-434.8417" y2="457.175" gradientTransform="matrix(120 0 0 -120 52241 54981)">
				<stop  offset="0" style="stop-color:#4b6cb7"/>
				<stop  offset="1" style="stop-color:#182848"/>
			</linearGradient>
			<path class="st0" d="M28,0h64c15.5,0,28,12.5,28,28v64c0,15.5-12.5,28-28,28H28c-15.5,0-28-12.5-28-28V28C0,12.5,12.5,0,28,0z"/>
		</g>
		<path class="st1" d="M98.8,73.7c0-9.6-5.5-18.2-13.8-22.4C84.8,69.8,69.8,84.8,51.3,85c4.2,8.3,12.8,13.8,22.4,13.8
			c4.5,0,8.9-1.2,12.8-3.5l12.2,3.4l-3.4-12.2C97.6,82.6,98.8,78.2,98.8,73.7z"/>
		<path class="st1" d="M80.5,50.8c0-16.4-13.3-29.7-29.7-29.7S21.2,34.5,21.2,50.8c0,5.3,1.4,10.5,4.1,15.1l-4,14.5l14.5-4
			c4.6,2.7,9.7,4.1,15.1,4.1C67.2,80.5,80.5,67.2,80.5,50.8z M46.3,43.9h-4.6c0-5,4.1-9.1,9.1-9.1s9.1,4.1,9.1,9.1
			c0,2.5-1.1,5-3,6.7l-3.9,3.5v3.5h-4.6v-5.6l5.3-4.9c1-0.9,1.5-2.1,1.5-3.4c0-2.5-2-4.6-4.6-4.6C48.3,39.4,46.3,41.4,46.3,43.9z
			 M48.5,62.3h4.6v4.6h-4.6V62.3z"/>
	</g>
</g>
</svg>
