<?xml version="1.0" encoding="utf-8"?>
<!-- Generator: Adobe Illustrator 21.1.0, SVG Export Plug-In . SVG Version: 6.00 Build 0)  -->
<svg version="1.1" id="Слой_1" xmlns="http://www.w3.org/2000/svg" xmlns:xlink="http://www.w3.org/1999/xlink" x="0px" y="0px"
	 viewBox="0 0 120 120" style="enable-background:new 0 0 120 120;" xml:space="preserve">
<style type="text/css">
	.st0{fill:url(#bg_1_);}
	.st1{fill:#FFFFFF;}
</style>
<title>Mail</title>
<g id="_x40_2x">
	<g id="Mail">
		
			<linearGradient id="bg_1_" gradientUnits="userSpaceOnUse" x1="-891.0084" y1="597.0084" x2="-891.0084" y2="596.0084" gradientTransform="matrix(120 0 0 -120 106981 71641)">
			<stop  offset="0" style="stop-color:#FF6604"/>
			<stop  offset="1" style="stop-color:#FFA21B"/>
		</linearGradient>
		<path id="bg" class="st0" d="M28,0h64c15.5,0,28,12.5,28,28v64c0,15.5-12.5,28-28,28H28c-15.5,0-28-12.5-28-28V28
			C0,12.5,12.5,0,28,0z"/>
	</g>
</g>
<path class="st1" d="M109.9,82.8c-3.6-2.6-8.8-3.1-12.5-3.1h-0.8l-12.8-6c-1.6-0.7-3.4-1.1-5.1-1.1H67.4c-1.1,0-2.2,0.2-3.2,0.7
	l-11.8,5c-0.6,0.3-1.3,0.4-2,0.4h-0.8c-1.6,0-3,1.3-3,3v6.5c0,1.4,1,2.7,2.4,2.9l3.8,0.7c0.5,2.9,3,5.1,6,5.1c2.2,0,4.2-1.2,5.2-3.1
	h32.2c1,1.8,3,3.1,5.2,3.1c2.2,0,4.2-1.2,5.2-3.1h1.9c1.6,0,3-1.3,3-3v-4.8C111.7,84.7,111,83.5,109.9,82.8z M58.8,92.8
	c-1.1,0-2-0.9-2-2c0-1.1,0.9-2,2-2c1.1,0,2,0.9,2,2C60.8,91.9,59.9,92.8,58.8,92.8z M73.1,87.8c-0.3,0-0.7-0.2-0.9-0.4l-1.3-1.7h2.2
	c0.3,0,0.7,0.2,0.9,0.4l1.3,1.7H73.1z M74.5,79.7c-0.6,0-1.2-0.3-1.6-0.7L69,74.5h2.6l4.5,5.2H74.5z M78.6,79.7l-4.5-5.2h4.6
	c1.5,0,3,0.3,4.3,1l9.1,4.3H78.6z M101.5,92.8c-1.1,0-2-0.9-2-2c0-1.1,0.9-2,2-2c1.1,0,2,0.9,2,2C103.5,91.9,102.6,92.8,101.5,92.8z
	 M109.7,90.8c0,0.6-0.5,1.1-1.1,1.1h-1.2c0.1-0.3,0.1-0.7,0.1-1.1c0-0.4,0-0.7-0.1-1.1h2.3V90.8z"/>
<g>
	<g>
		<path class="st1" d="M39,27.9v-7.2c0-1.4-1.1-2.5-2.5-2.5c-1.4,0-2.5,1.1-2.5,2.5v7.2c0.8-0.1,1.6-0.2,2.5-0.2
			C37.4,27.7,38.2,27.8,39,27.9z"/>
	</g>
	<path class="st1" d="M104.9,70.5l-3.1-8.3c-0.4-1-1.4-1.7-2.5-1.6l-4.1,0.3L93.3,57c-0.4-0.9-1.4-1.4-2.4-1.4l-4.3,0.3L73,48
		c1.5-6.9-1.5-14.3-7.9-18c-1.4-0.8-3-1.4-4.5-1.8c1.7,1.5,3.2,3.3,4.4,5.4c2.3,4.1,3.3,8.7,2.8,13.3c-0.4,3.3-1.5,6.4-3.2,9.1
		l1.3,2.3c0.8-0.5,1.5-1.1,2.2-1.7l31.2,18c0.7,0.4,1.6,0.4,2.4,0.1l2.2-1.1C104.8,73.1,105.4,71.7,104.9,70.5L104.9,70.5z"/>
	<path class="st1" d="M63.5,64.3l-8.9,4.6l-4.4-7.6c1.4-1.1,2.6-2.4,3.7-3.9c2.8-3.8,4.3-8.2,4.3-12.9c0-5.2-1.9-10.2-5.3-14.2
		c-0.5-0.6-1-1.1-1.6-1.7c3.8,1.2,7.2,3.8,9.3,7.5c3.7,6.5,2.6,14.4-2.1,19.6L63.5,64.3z"/>
	<path class="st1" d="M53.2,44.4C53.2,36,47,29.1,39,27.9v7.3h0.8c1.3,0,2.5,1,2.6,2.4c0.1,1.4-1.1,2.6-2.5,2.6h-6.6
		c-1.3,0-2.5-1-2.6-2.4c-0.1-1.4,1.1-2.6,2.5-2.6h0.8v-7.3c-8,1.2-14.1,8.1-14.1,16.4c0,7.4,4.9,13.7,11.6,15.9v37.7
		c0,0.8,0.4,1.6,1.1,2.1l2,1.3c1.1,0.7,2.5,0.5,3.3-0.5l5.7-6.8c0.7-0.8,0.8-2.1,0.2-3l-2.3-3.4l2.4-3.6c0.6-0.8,0.6-1.9,0-2.8
		l-2.4-3.6V60.2C48.3,58.1,53.2,51.8,53.2,44.4L53.2,44.4z"/>
</g>
</svg>
