<?xml version="1.0" encoding="utf-8"?>
<!-- Generator: Adobe Illustrator 23.1.0, SVG Export Plug-In . SVG Version: 6.00 Build 0)  -->
<svg version="1.1" id="Слой_1" xmlns="http://www.w3.org/2000/svg" xmlns:xlink="http://www.w3.org/1999/xlink" x="0px" y="0px"
	 viewBox="0 0 512 512" style="enable-background:new 0 0 512 512;" xml:space="preserve">
<path d="M192,175.3l-24,256c-0.3,2.9,1,5.6,3.4,7.3l80,56c2.8,1.9,6.4,1.9,9.2,0l80-56c2.4-1.6,3.7-4.4,3.4-7.3l-24-256
	c-0.1-1.1-0.5-2.2-1-3.2l-30.3-52.9l30.9-92.6c1.4-4.2-0.9-8.7-5.1-10.1c-0.8-0.3-1.7-0.4-2.5-0.4H200c-4.4,0-8,3.6-8,8
	c0,0.9,0.1,1.7,0.4,2.5l30.9,92.6L193.1,172C192.5,173,192.1,174.1,192,175.3L192,175.3z M300.9,32l-26.7,80h-36.5l-26.7-80H300.9z
	 M236.6,128h38.7l28.8,50.5l23.4,249.6L256,478.2l-71.6-50.1l23.4-249.6L236.6,128z"/>
<path d="M239.8,186.3l15.4-30.7l-14.3-7.2l-16,32c-0.4,0.9-0.7,1.8-0.8,2.8l-8,80l15.9,1.6L239.8,186.3z"/>
<path d="M266.3,322.3l24-24l11.3,11.3l-24,24L266.3,322.3z"/>
<path d="M266.3,290.3l24-24l11.3,11.3l-24,24L266.3,290.3z"/>
</svg>
