<?xml version="1.0" encoding="utf-8"?>
<!-- Generator: Adobe Illustrator 21.1.0, SVG Export Plug-In . SVG Version: 6.00 Build 0)  -->
<svg version="1.1" id="Capa_1" xmlns="http://www.w3.org/2000/svg" xmlns:xlink="http://www.w3.org/1999/xlink" x="0px" y="0px"
	 viewBox="0 0 480 480" style="enable-background:new 0 0 480 480;" xml:space="preserve">
<g>
	<path d="M218,249.5l-0.2-0.4c-0.2-0.4-0.3-0.7-0.5-1.1H184c-7.5,0-14.7,3.6-19.2,9.6l-8,10.8c0.1,0.2,0.2,0.4,0.2,0.7
		c1.2,3.3,2.5,6.6,4.1,9.7c0.2,0.3,0.3,0.7,0.5,1c3.4,6.7,7.7,12.9,12.6,18.5c0.4,0.5,0.8,0.9,1.3,1.4c2.3,2.5,4.7,4.8,7.2,7
		c0.2,0.2,0.4,0.4,0.6,0.6c-0.1-0.7-0.1-1.5-0.2-2.2c0-0.7-0.1-1.4-0.1-2.1c0-0.8,0.1-1.7,0.1-2.6c0-0.7,0-1.4,0.1-2
		c0.1-0.9,0.2-1.7,0.4-2.6c0.1-0.6,0.2-1.3,0.3-1.9c0.2-0.9,0.5-1.7,0.7-2.6c0.2-0.6,0.3-1.2,0.5-1.8c0.3-0.9,0.7-1.7,1-2.5
		c0.2-0.6,0.4-1.1,0.7-1.7c0.4-0.9,0.9-1.8,1.4-2.5c0.3-0.5,0.5-1,0.8-1.5c0.5-0.9,1.2-1.8,1.8-2.6c0.3-0.4,0.5-0.8,0.8-1.2v-0.1
		c1-1.2,2-2.4,3.1-3.5l23.6-23.6C218.2,250.1,218.1,249.8,218,249.5z M194.7,206.1c-5.3-5.3-12.9-7.8-20.4-6.8l-13.2,1.9
		c-0.3,0.7-0.7,1.3-1,2c-0.8,1.8-1.6,3.6-2.3,5.5c-0.4,1.1-0.8,2.1-1.2,3.2c-0.7,2.1-1.3,4.1-1.8,6.3c-0.2,1-0.5,1.9-0.7,2.8
		c-0.5,2.3-0.9,4.7-1.2,7.1c-0.1,0.8-0.3,1.5-0.4,2.4c-0.4,3.2-0.5,6.4-0.5,9.6c0,2.5,0.2,5,0.4,7.5c0.4-0.5,0.9-1.1,1.4-1.6v0
		c0.5-0.6,0.8-1,1.4-1.6s1.3-1.2,1.8-1.7c0.6-0.5,1-0.9,1.6-1.4c0.6-0.5,1.4-1,2-1.5c0.6-0.4,1-0.8,1.7-1.2c0.7-0.5,1.4-0.8,2.2-1.3
		c0.6-0.3,1.2-0.7,1.8-1c0.8-0.4,1.6-0.7,2.4-1c0.6-0.3,1.2-0.6,1.8-0.8c0.8-0.3,1.7-0.6,2.6-0.8c0.6-0.2,1.2-0.4,1.8-0.5
		c1-0.2,2-0.4,3-0.5c0.5-0.1,1.1-0.2,1.6-0.3c1.5-0.2,3.1-0.3,4.6-0.3h33.4c0.1-0.4,0.3-0.7,0.5-1.1l0.2-0.4
		c0.1-0.2,0.2-0.5,0.4-0.8L194.7,206.1z M218.7,158.3l-4.6-2.3c-4,1.2-7.8,2.7-11.6,4.5l-0.4,0.2c-7.3,3.5-14,8-20.1,13.3
		c-0.4,0.3-0.8,0.8-1.2,1.1c-2.6,2.4-5.1,4.9-7.5,7.6c-0.2,0.2-0.4,0.4-0.6,0.6c0.5-0.1,1-0.1,1.5-0.1c1-0.1,2.1-0.2,3.1-0.2h0.4
		c0.2,0,0.4,0.1,0.6,0.1c2.3,0,4.7,0.3,6.9,0.7l0.4,0c2.3,0.5,4.6,1.2,6.8,2c0.4,0.1,0.7,0.3,1.1,0.4c2.1,0.9,4.1,2,6.1,3.2
		c0.3,0.2,0.6,0.4,0.9,0.7c2,1.3,3.9,2.9,5.6,4.6l23.6,23.6c0.3-0.1,0.6-0.2,0.8-0.3l0.4-0.2c0.4-0.2,0.7-0.3,1.1-0.5v-37.6
		C232,170.7,226.9,162.4,218.7,158.3z M245.9,326.3c-0.5-0.5-1-0.9-1.6-1.4c-0.6-0.6-1.2-1.3-1.7-1.8c-0.5-0.5-0.9-1-1.5-1.6
		s-1-1.4-1.5-2c-0.5-0.6-0.8-1-1.3-1.7c-0.4-0.7-0.8-1.5-1.2-2.2c-0.3-0.6-0.7-1.2-1-1.8c-0.4-0.8-0.7-1.6-1-2.4
		c-0.3-0.6-0.6-1.2-0.8-1.8c-0.3-0.8-0.6-1.7-0.8-2.6c-0.2-0.6-0.4-1.2-0.5-1.8c-0.2-1-0.4-1.9-0.5-2.9c-0.1-0.5-0.2-1-0.3-1.6
		c-0.2-1.5-0.3-3.1-0.3-4.6v-33.4c-0.4-0.1-0.8-0.3-1.1-0.5l-0.4-0.1c-0.3-0.1-0.6-0.2-0.8-0.4l-23.6,23.6
		c-5.3,5.4-7.8,12.9-6.8,20.4l1.9,13.3c0.6,0.3,1.1,0.5,1.7,0.8c2.6,1.2,5.2,2.3,7.9,3.2c0.7,0.3,1.4,0.6,2.1,0.8
		c3.4,1.1,6.9,2,10.4,2.7c0.7,0.1,1.4,0.2,2.1,0.3c2.8,0.5,5.7,0.8,8.5,1c1.1,0.1,2.2,0.2,3.4,0.2c2.9,0.1,5.9,0.1,8.8-0.2l0,0
		c0.5,0,1,0,1.5,0C247,327.2,246.5,326.7,245.9,326.3z M247.4,236.9c-0.3-0.5-0.6-1-1-1.5c-0.5-0.7-1.1-1.3-1.9-1.8
		c-0.5-0.4-0.9-0.7-1.5-1c-2-0.8-4.2-0.8-6.2,0c-0.5,0.3-1,0.6-1.5,1c-0.7,0.5-1.2,1-1.7,1.7v0c-0.4,0.5-0.8,1.1-1.1,1.7
		c-0.8,2-0.8,4.2,0,6.2c0.3,0.6,0.7,1.1,1.1,1.6c0.5,0.7,1.1,1.2,1.7,1.7c0.5,0.4,0.9,0.7,1.5,1c2,0.8,4.2,0.8,6.2,0
		c0.5-0.3,1-0.6,1.5-1c0.7-0.5,1.3-1.1,1.9-1.8c0.4-0.5,0.7-0.9,1-1.5C248.2,241.1,248.2,238.9,247.4,236.9z M280.7,174.4l-1.9-13.2
		c-0.6-0.3-1.2-0.6-1.9-0.9c-2-0.9-4.1-1.8-6.1-2.6c-1.1-0.4-2.1-0.8-3.2-1.2c-2.3-0.8-4.7-1.4-7.1-2c-0.8-0.2-1.7-0.5-2.5-0.6
		c-3.2-0.7-6.3-1.1-9.5-1.4c-1.1-0.1-2.3-0.1-3.4-0.2c-2.3-0.2-4.5-0.2-6.8-0.2c-0.4,0-0.8,0-1.2,0c0.2,0.2,0.4,0.5,0.6,0.7
		c1.2,1.3,2.4,2.8,3.4,4.3c0.2,0.4,0.5,0.8,0.8,1.1c1.2,1.9,2.2,3.9,3.1,5.9c0.2,0.5,0.4,1,0.5,1.6c0.6,1.7,1.1,3.4,1.5,5.1
		c0.2,0.6,0.3,1.3,0.4,1.9c0.4,2.3,0.6,4.6,0.7,7v37.6c0.4,0.1,0.7,0.3,1.1,0.5l0.4,0.2c0.3,0.1,0.6,0.2,0.8,0.4l23.6-23.6
		C279.3,189.4,281.8,181.9,280.7,174.4z M302.4,296.9H302c-2.4,0-4.7-0.3-7-0.7c-0.2,0-0.5-0.1-0.7-0.1c-2.3-0.5-4.5-1.1-6.7-2
		c-0.4-0.1-0.7-0.3-1.1-0.4c-2.1-0.9-4.2-2-6.1-3.2l-0.9-0.6c-2-1.4-3.9-2.9-5.6-4.6l-23.6-23.6c-0.3,0.1-0.6,0.2-0.8,0.4l-0.4,0.2
		c-0.4,0.2-0.7,0.3-1.1,0.5V296c0,7.5,3.6,14.7,9.6,19.2l10.7,8c0.2-0.1,0.4-0.2,0.7-0.2c3.3-1.2,6.6-2.5,9.7-4.1l1.1-0.5
		c6.7-3.4,12.9-7.6,18.5-12.6c0.5-0.4,1-0.9,1.5-1.3c2.4-2.2,4.7-4.6,6.9-7.1l0,0c0.2-0.2,0.4-0.5,0.6-0.7
		C305.7,296.8,304,296.9,302.4,296.9z M323,211c-1.2-3.3-2.5-6.6-4.1-9.7c-0.2-0.3-0.3-0.7-0.5-1.1c-3.4-6.7-7.7-12.9-12.7-18.5
		c-0.4-0.5-0.9-1-1.3-1.5c-2.2-2.4-4.6-4.7-7.1-6.9c-0.2-0.2-0.5-0.4-0.7-0.6c0.1,0.7,0.1,1.5,0.2,2.2c0,0.7,0.1,1.4,0.1,2.1
		c0,0.9,0,1.7-0.1,2.5c0,0.7,0,1.4-0.1,2.1c-0.1,0.8-0.2,1.7-0.4,2.5c-0.1,0.7-0.2,1.3-0.3,2c-0.2,0.9-0.4,1.7-0.7,2.5
		c-0.2,0.6-0.3,1.3-0.5,1.9c-0.3,0.8-0.6,1.6-0.9,2.4c-0.3,0.6-0.5,1.3-0.8,1.9c-0.4,0.8-0.8,1.5-1.2,2.3c-0.3,0.6-0.6,1.2-0.9,1.7
		c-0.5,0.8-1,1.6-1.6,2.4c-0.3,0.5-0.6,1-1,1.4c-1,1.2-2,2.4-3.1,3.5l-23.6,23.6c0.1,0.3,0.2,0.6,0.4,0.8l0.2,0.4
		c0.2,0.4,0.3,0.7,0.5,1.1H296c7.5,0,14.7-3.6,19.2-9.6l8-10.6l0-0.1C323.2,211.5,323.1,211.3,323,211z M327.6,232.6
		c-0.4,0.5-0.9,1.1-1.4,1.6l0-0.1c-0.5,0.6-0.8,1-1.4,1.6c-0.6,0.6-1.3,1.2-1.8,1.7c-0.5,0.5-1,0.9-1.6,1.5s-1.4,1-2,1.5
		c-0.6,0.4-1,0.8-1.7,1.3c-0.7,0.4-1.5,0.8-2.2,1.3c-0.6,0.3-1.2,0.7-1.8,1c-0.8,0.4-1.6,0.7-2.4,1c-0.6,0.3-1.2,0.6-1.8,0.8
		c-0.8,0.3-1.7,0.5-2.6,0.8c-0.6,0.2-1.2,0.4-1.8,0.5c-1,0.2-1.9,0.4-2.9,0.5c-0.5,0.1-1,0.2-1.6,0.3c-1.5,0.2-3.1,0.3-4.6,0.3
		h-33.4c-0.1,0.4-0.3,0.8-0.5,1.1l-0.2,0.4c-0.1,0.3-0.2,0.6-0.3,0.8l23.6,23.6c5.4,5.3,12.9,7.8,20.4,6.8l13.2-1.9
		c0.3-0.7,0.6-1.3,1-2c0.8-1.8,1.6-3.6,2.3-5.4c0.4-1,0.8-2.1,1.2-3.2c0.7-2,1.3-4.1,1.8-6.2c0.2-1,0.5-1.9,0.7-2.9
		c0.5-2.3,0.9-4.7,1.2-7.1c0.1-0.8,0.3-1.6,0.4-2.4c0.4-3.2,0.5-6.4,0.5-9.6C328,237.6,327.8,235.1,327.6,232.6z M327.6,232.6
		c-0.4,0.5-0.9,1.1-1.4,1.6l0-0.1c-0.5,0.6-0.8,1-1.4,1.6c-0.6,0.6-1.3,1.2-1.8,1.7c-0.5,0.5-1,0.9-1.6,1.5s-1.4,1-2,1.5
		c-0.6,0.4-1,0.8-1.7,1.3c-0.7,0.4-1.5,0.8-2.2,1.3c-0.6,0.3-1.2,0.7-1.8,1c-0.8,0.4-1.6,0.7-2.4,1c-0.6,0.3-1.2,0.6-1.8,0.8
		c-0.8,0.3-1.7,0.5-2.6,0.8c-0.6,0.2-1.2,0.4-1.8,0.5c-1,0.2-1.9,0.4-2.9,0.5c-0.5,0.1-1,0.2-1.6,0.3c-1.5,0.2-3.1,0.3-4.6,0.3
		h-33.4c-0.1,0.4-0.3,0.8-0.5,1.1l-0.2,0.4c-0.1,0.3-0.2,0.6-0.3,0.8l23.6,23.6c5.4,5.3,12.9,7.8,20.4,6.8l13.2-1.9
		c0.3-0.7,0.6-1.3,1-2c0.8-1.8,1.6-3.6,2.3-5.4c0.4-1,0.8-2.1,1.2-3.2c0.7-2,1.3-4.1,1.8-6.2c0.2-1,0.5-1.9,0.7-2.9
		c0.5-2.3,0.9-4.7,1.2-7.1c0.1-0.8,0.3-1.6,0.4-2.4c0.4-3.2,0.5-6.4,0.5-9.6C328,237.6,327.8,235.1,327.6,232.6z M323,211
		c-1.2-3.3-2.5-6.6-4.1-9.7c-0.2-0.3-0.3-0.7-0.5-1.1c-3.4-6.7-7.7-12.9-12.7-18.5c-0.4-0.5-0.9-1-1.3-1.5c-2.2-2.4-4.6-4.7-7.1-6.9
		c-0.2-0.2-0.5-0.4-0.7-0.6c0.1,0.7,0.1,1.5,0.2,2.2c0,0.7,0.1,1.4,0.1,2.1c0,0.9,0,1.7-0.1,2.5c0,0.7,0,1.4-0.1,2.1
		c-0.1,0.8-0.2,1.7-0.4,2.5c-0.1,0.7-0.2,1.3-0.3,2c-0.2,0.9-0.4,1.7-0.7,2.5c-0.2,0.6-0.3,1.3-0.5,1.9c-0.3,0.8-0.6,1.6-0.9,2.4
		c-0.3,0.6-0.5,1.3-0.8,1.9c-0.4,0.8-0.8,1.5-1.2,2.3c-0.3,0.6-0.6,1.2-0.9,1.7c-0.5,0.8-1,1.6-1.6,2.4c-0.3,0.5-0.6,1-1,1.4
		c-1,1.2-2,2.4-3.1,3.5l-23.6,23.6c0.1,0.3,0.2,0.6,0.4,0.8l0.2,0.4c0.2,0.4,0.3,0.7,0.5,1.1H296c7.5,0,14.7-3.6,19.2-9.6l8-10.6
		l0-0.1C323.2,211.5,323.1,211.3,323,211z M302.4,296.9H302c-2.4,0-4.7-0.3-7-0.7c-0.2,0-0.5-0.1-0.7-0.1c-2.3-0.5-4.5-1.1-6.7-2
		c-0.4-0.1-0.7-0.3-1.1-0.4c-2.1-0.9-4.2-2-6.1-3.2l-0.9-0.6c-2-1.4-3.9-2.9-5.6-4.6l-23.6-23.6c-0.3,0.1-0.6,0.2-0.8,0.4l-0.4,0.2
		c-0.4,0.2-0.7,0.3-1.1,0.5V296c0,7.5,3.6,14.7,9.6,19.2l10.7,8c0.2-0.1,0.4-0.2,0.7-0.2c3.3-1.2,6.6-2.5,9.7-4.1l1.1-0.5
		c6.7-3.4,12.9-7.6,18.5-12.6c0.5-0.4,1-0.9,1.5-1.3c2.4-2.2,4.7-4.6,6.9-7.1l0,0c0.2-0.2,0.4-0.5,0.6-0.7
		C305.7,296.8,304,296.9,302.4,296.9z M280.7,174.4l-1.9-13.2c-0.6-0.3-1.2-0.6-1.9-0.9c-2-0.9-4.1-1.8-6.1-2.6
		c-1.1-0.4-2.1-0.8-3.2-1.2c-2.3-0.8-4.7-1.4-7.1-2c-0.8-0.2-1.7-0.5-2.5-0.6c-3.2-0.7-6.3-1.1-9.5-1.4c-1.1-0.1-2.3-0.1-3.4-0.2
		c-2.3-0.2-4.5-0.2-6.8-0.2c-0.4,0-0.8,0-1.2,0c0.2,0.2,0.4,0.5,0.6,0.7c1.2,1.3,2.4,2.8,3.4,4.3c0.2,0.4,0.5,0.8,0.8,1.1
		c1.2,1.9,2.2,3.9,3.1,5.9c0.2,0.5,0.4,1,0.5,1.6c0.6,1.7,1.1,3.4,1.5,5.1c0.2,0.6,0.3,1.3,0.4,1.9c0.4,2.3,0.6,4.6,0.7,7v37.6
		c0.4,0.1,0.7,0.3,1.1,0.5l0.4,0.2c0.3,0.1,0.6,0.2,0.8,0.4l23.6-23.6C279.3,189.4,281.8,181.9,280.7,174.4z M247.4,236.9
		c-0.3-0.5-0.6-1-1-1.5c-0.5-0.7-1.1-1.3-1.9-1.8c-0.5-0.4-0.9-0.7-1.5-1c-2-0.8-4.2-0.8-6.2,0c-0.5,0.3-1,0.6-1.5,1
		c-0.7,0.5-1.2,1-1.7,1.7v0c-0.4,0.5-0.8,1.1-1.1,1.7c-0.8,2-0.8,4.2,0,6.2c0.3,0.6,0.7,1.1,1.1,1.6c0.5,0.7,1.1,1.2,1.7,1.7
		c0.5,0.4,0.9,0.7,1.5,1c2,0.8,4.2,0.8,6.2,0c0.5-0.3,1-0.6,1.5-1c0.7-0.5,1.3-1.1,1.9-1.8c0.4-0.5,0.7-0.9,1-1.5
		C248.2,241.1,248.2,238.9,247.4,236.9z M245.9,326.3c-0.5-0.5-1-0.9-1.6-1.4c-0.6-0.6-1.2-1.3-1.7-1.8c-0.5-0.5-0.9-1-1.5-1.6
		s-1-1.4-1.5-2c-0.5-0.6-0.8-1-1.3-1.7c-0.4-0.7-0.8-1.5-1.2-2.2c-0.3-0.6-0.7-1.2-1-1.8c-0.4-0.8-0.7-1.6-1-2.4
		c-0.3-0.6-0.6-1.2-0.8-1.8c-0.3-0.8-0.6-1.7-0.8-2.6c-0.2-0.6-0.4-1.2-0.5-1.8c-0.2-1-0.4-1.9-0.5-2.9c-0.1-0.5-0.2-1-0.3-1.6
		c-0.2-1.5-0.3-3.1-0.3-4.6v-33.4c-0.4-0.1-0.8-0.3-1.1-0.5l-0.4-0.1c-0.3-0.1-0.6-0.2-0.8-0.4l-23.6,23.6
		c-5.3,5.4-7.8,12.9-6.8,20.4l1.9,13.3c0.6,0.3,1.1,0.5,1.7,0.8c2.6,1.2,5.2,2.3,7.9,3.2c0.7,0.3,1.4,0.6,2.1,0.8
		c3.4,1.1,6.9,2,10.4,2.7c0.7,0.1,1.4,0.2,2.1,0.3c2.8,0.5,5.7,0.8,8.5,1c1.1,0.1,2.2,0.2,3.4,0.2c2.9,0.1,5.9,0.1,8.8-0.2l0,0
		c0.5,0,1,0,1.5,0C247,327.2,246.5,326.7,245.9,326.3z M218.7,158.3l-4.6-2.3c-4,1.2-7.8,2.7-11.6,4.5l-0.4,0.2
		c-7.3,3.5-14,8-20.1,13.3c-0.4,0.3-0.8,0.8-1.2,1.1c-2.6,2.4-5.1,4.9-7.5,7.6c-0.2,0.2-0.4,0.4-0.6,0.6c0.5-0.1,1-0.1,1.5-0.1
		c1-0.1,2.1-0.2,3.1-0.2h0.4c0.2,0,0.4,0.1,0.6,0.1c2.3,0,4.7,0.3,6.9,0.7l0.4,0c2.3,0.5,4.6,1.2,6.8,2c0.4,0.1,0.7,0.3,1.1,0.4
		c2.1,0.9,4.1,2,6.1,3.2c0.3,0.2,0.6,0.4,0.9,0.7c2,1.3,3.9,2.9,5.6,4.6l23.6,23.6c0.3-0.1,0.6-0.2,0.8-0.3l0.4-0.2
		c0.4-0.2,0.7-0.3,1.1-0.5v-37.6C232,170.7,226.9,162.4,218.7,158.3z M194.7,206.1c-5.3-5.3-12.9-7.8-20.4-6.8l-13.2,1.9
		c-0.3,0.7-0.7,1.3-1,2c-0.8,1.8-1.6,3.6-2.3,5.5c-0.4,1.1-0.8,2.1-1.2,3.2c-0.7,2.1-1.3,4.1-1.8,6.3c-0.2,1-0.5,1.9-0.7,2.8
		c-0.5,2.3-0.9,4.7-1.2,7.1c-0.1,0.8-0.3,1.5-0.4,2.4c-0.4,3.2-0.5,6.4-0.5,9.6c0,2.5,0.2,5,0.4,7.5c0.4-0.5,0.9-1.1,1.4-1.6v0
		c0.5-0.6,0.8-1,1.4-1.6s1.3-1.2,1.8-1.7c0.6-0.5,1-0.9,1.6-1.4c0.6-0.5,1.4-1,2-1.5c0.6-0.4,1-0.8,1.7-1.2c0.7-0.5,1.4-0.8,2.2-1.3
		c0.6-0.3,1.2-0.7,1.8-1c0.8-0.4,1.6-0.7,2.4-1c0.6-0.3,1.2-0.6,1.8-0.8c0.8-0.3,1.7-0.6,2.6-0.8c0.6-0.2,1.2-0.4,1.8-0.5
		c1-0.2,2-0.4,3-0.5c0.5-0.1,1.1-0.2,1.6-0.3c1.5-0.2,3.1-0.3,4.6-0.3h33.4c0.1-0.4,0.3-0.7,0.5-1.1l0.2-0.4
		c0.1-0.2,0.2-0.5,0.4-0.8L194.7,206.1z M218,249.5l-0.2-0.4c-0.2-0.4-0.3-0.7-0.5-1.1H184c-7.5,0-14.7,3.6-19.2,9.6l-8,10.8
		c0.1,0.2,0.2,0.4,0.2,0.7c1.2,3.3,2.5,6.6,4.1,9.7c0.2,0.3,0.3,0.7,0.5,1c3.4,6.7,7.7,12.9,12.6,18.5c0.4,0.5,0.8,0.9,1.3,1.4
		c2.3,2.5,4.7,4.8,7.2,7c0.2,0.2,0.4,0.4,0.6,0.6c-0.1-0.7-0.1-1.5-0.2-2.2c0-0.7-0.1-1.4-0.1-2.1c0-0.8,0.1-1.7,0.1-2.6
		c0-0.7,0-1.4,0.1-2c0.1-0.9,0.2-1.7,0.4-2.6c0.1-0.6,0.2-1.3,0.3-1.9c0.2-0.9,0.5-1.7,0.7-2.6c0.2-0.6,0.3-1.2,0.5-1.8
		c0.3-0.9,0.7-1.7,1-2.5c0.2-0.6,0.4-1.1,0.7-1.7c0.4-0.9,0.9-1.8,1.4-2.5c0.3-0.5,0.5-1,0.8-1.5c0.5-0.9,1.2-1.8,1.8-2.6
		c0.3-0.4,0.5-0.8,0.8-1.2v-0.1c1-1.2,2-2.4,3.1-3.5l23.6-23.6C218.2,250.1,218.1,249.8,218,249.5z M218,249.5l-0.2-0.4
		c-0.2-0.4-0.3-0.7-0.5-1.1H184c-7.5,0-14.7,3.6-19.2,9.6l-8,10.8c0.1,0.2,0.2,0.4,0.2,0.7c1.2,3.3,2.5,6.6,4.1,9.7
		c0.2,0.3,0.3,0.7,0.5,1c3.4,6.7,7.7,12.9,12.6,18.5c0.4,0.5,0.8,0.9,1.3,1.4c2.3,2.5,4.7,4.8,7.2,7c0.2,0.2,0.4,0.4,0.6,0.6
		c-0.1-0.7-0.1-1.5-0.2-2.2c0-0.7-0.1-1.4-0.1-2.1c0-0.8,0.1-1.7,0.1-2.6c0-0.7,0-1.4,0.1-2c0.1-0.9,0.2-1.7,0.4-2.6
		c0.1-0.6,0.2-1.3,0.3-1.9c0.2-0.9,0.5-1.7,0.7-2.6c0.2-0.6,0.3-1.2,0.5-1.8c0.3-0.9,0.7-1.7,1-2.5c0.2-0.6,0.4-1.1,0.7-1.7
		c0.4-0.9,0.9-1.8,1.4-2.5c0.3-0.5,0.5-1,0.8-1.5c0.5-0.9,1.2-1.8,1.8-2.6c0.3-0.4,0.5-0.8,0.8-1.2v-0.1c1-1.2,2-2.4,3.1-3.5
		l23.6-23.6C218.2,250.1,218.1,249.8,218,249.5z M194.7,206.1c-5.3-5.3-12.9-7.8-20.4-6.8l-13.2,1.9c-0.3,0.7-0.7,1.3-1,2
		c-0.8,1.8-1.6,3.6-2.3,5.5c-0.4,1.1-0.8,2.1-1.2,3.2c-0.7,2.1-1.3,4.1-1.8,6.3c-0.2,1-0.5,1.9-0.7,2.8c-0.5,2.3-0.9,4.7-1.2,7.1
		c-0.1,0.8-0.3,1.5-0.4,2.4c-0.4,3.2-0.5,6.4-0.5,9.6c0,2.5,0.2,5,0.4,7.5c0.4-0.5,0.9-1.1,1.4-1.6v0c0.5-0.6,0.8-1,1.4-1.6
		s1.3-1.2,1.8-1.7c0.6-0.5,1-0.9,1.6-1.4c0.6-0.5,1.4-1,2-1.5c0.6-0.4,1-0.8,1.7-1.2c0.7-0.5,1.4-0.8,2.2-1.3c0.6-0.3,1.2-0.7,1.8-1
		c0.8-0.4,1.6-0.7,2.4-1c0.6-0.3,1.2-0.6,1.8-0.8c0.8-0.3,1.7-0.6,2.6-0.8c0.6-0.2,1.2-0.4,1.8-0.5c1-0.2,2-0.4,3-0.5
		c0.5-0.1,1.1-0.2,1.6-0.3c1.5-0.2,3.1-0.3,4.6-0.3h33.4c0.1-0.4,0.3-0.7,0.5-1.1l0.2-0.4c0.1-0.2,0.2-0.5,0.4-0.8L194.7,206.1z
		 M218.7,158.3l-4.6-2.3c-4,1.2-7.8,2.7-11.6,4.5l-0.4,0.2c-7.3,3.5-14,8-20.1,13.3c-0.4,0.3-0.8,0.8-1.2,1.1
		c-2.6,2.4-5.1,4.9-7.5,7.6c-0.2,0.2-0.4,0.4-0.6,0.6c0.5-0.1,1-0.1,1.5-0.1c1-0.1,2.1-0.2,3.1-0.2h0.4c0.2,0,0.4,0.1,0.6,0.1
		c2.3,0,4.7,0.3,6.9,0.7l0.4,0c2.3,0.5,4.6,1.2,6.8,2c0.4,0.1,0.7,0.3,1.1,0.4c2.1,0.9,4.1,2,6.1,3.2c0.3,0.2,0.6,0.4,0.9,0.7
		c2,1.3,3.9,2.9,5.6,4.6l23.6,23.6c0.3-0.1,0.6-0.2,0.8-0.3l0.4-0.2c0.4-0.2,0.7-0.3,1.1-0.5v-37.6
		C232,170.7,226.9,162.4,218.7,158.3z M245.9,326.3c-0.5-0.5-1-0.9-1.6-1.4c-0.6-0.6-1.2-1.3-1.7-1.8c-0.5-0.5-0.9-1-1.5-1.6
		s-1-1.4-1.5-2c-0.5-0.6-0.8-1-1.3-1.7c-0.4-0.7-0.8-1.5-1.2-2.2c-0.3-0.6-0.7-1.2-1-1.8c-0.4-0.8-0.7-1.6-1-2.4
		c-0.3-0.6-0.6-1.2-0.8-1.8c-0.3-0.8-0.6-1.7-0.8-2.6c-0.2-0.6-0.4-1.2-0.5-1.8c-0.2-1-0.4-1.9-0.5-2.9c-0.1-0.5-0.2-1-0.3-1.6
		c-0.2-1.5-0.3-3.1-0.3-4.6v-33.4c-0.4-0.1-0.8-0.3-1.1-0.5l-0.4-0.1c-0.3-0.1-0.6-0.2-0.8-0.4l-23.6,23.6
		c-5.3,5.4-7.8,12.9-6.8,20.4l1.9,13.3c0.6,0.3,1.1,0.5,1.7,0.8c2.6,1.2,5.2,2.3,7.9,3.2c0.7,0.3,1.4,0.6,2.1,0.8
		c3.4,1.1,6.9,2,10.4,2.7c0.7,0.1,1.4,0.2,2.1,0.3c2.8,0.5,5.7,0.8,8.5,1c1.1,0.1,2.2,0.2,3.4,0.2c2.9,0.1,5.9,0.1,8.8-0.2l0,0
		c0.5,0,1,0,1.5,0C247,327.2,246.5,326.7,245.9,326.3z M247.4,236.9c-0.3-0.5-0.6-1-1-1.5c-0.5-0.7-1.1-1.3-1.9-1.8
		c-0.5-0.4-0.9-0.7-1.5-1c-2-0.8-4.2-0.8-6.2,0c-0.5,0.3-1,0.6-1.5,1c-0.7,0.5-1.2,1-1.7,1.7v0c-0.4,0.5-0.8,1.1-1.1,1.7
		c-0.8,2-0.8,4.2,0,6.2c0.3,0.6,0.7,1.1,1.1,1.6c0.5,0.7,1.1,1.2,1.7,1.7c0.5,0.4,0.9,0.7,1.5,1c2,0.8,4.2,0.8,6.2,0
		c0.5-0.3,1-0.6,1.5-1c0.7-0.5,1.3-1.1,1.9-1.8c0.4-0.5,0.7-0.9,1-1.5C248.2,241.1,248.2,238.9,247.4,236.9z M280.7,174.4l-1.9-13.2
		c-0.6-0.3-1.2-0.6-1.9-0.9c-2-0.9-4.1-1.8-6.1-2.6c-1.1-0.4-2.1-0.8-3.2-1.2c-2.3-0.8-4.7-1.4-7.1-2c-0.8-0.2-1.7-0.5-2.5-0.6
		c-3.2-0.7-6.3-1.1-9.5-1.4c-1.1-0.1-2.3-0.1-3.4-0.2c-2.3-0.2-4.5-0.2-6.8-0.2c-0.4,0-0.8,0-1.2,0c0.2,0.2,0.4,0.5,0.6,0.7
		c1.2,1.3,2.4,2.8,3.4,4.3c0.2,0.4,0.5,0.8,0.8,1.1c1.2,1.9,2.2,3.9,3.1,5.9c0.2,0.5,0.4,1,0.5,1.6c0.6,1.7,1.1,3.4,1.5,5.1
		c0.2,0.6,0.3,1.3,0.4,1.9c0.4,2.3,0.6,4.6,0.7,7v37.6c0.4,0.1,0.7,0.3,1.1,0.5l0.4,0.2c0.3,0.1,0.6,0.2,0.8,0.4l23.6-23.6
		C279.3,189.4,281.8,181.9,280.7,174.4z M302.4,296.9H302c-2.4,0-4.7-0.3-7-0.7c-0.2,0-0.5-0.1-0.7-0.1c-2.3-0.5-4.5-1.1-6.7-2
		c-0.4-0.1-0.7-0.3-1.1-0.4c-2.1-0.9-4.2-2-6.1-3.2l-0.9-0.6c-2-1.4-3.9-2.9-5.6-4.6l-23.6-23.6c-0.3,0.1-0.6,0.2-0.8,0.4l-0.4,0.2
		c-0.4,0.2-0.7,0.3-1.1,0.5V296c0,7.5,3.6,14.7,9.6,19.2l10.7,8c0.2-0.1,0.4-0.2,0.7-0.2c3.3-1.2,6.6-2.5,9.7-4.1l1.1-0.5
		c6.7-3.4,12.9-7.6,18.5-12.6c0.5-0.4,1-0.9,1.5-1.3c2.4-2.2,4.7-4.6,6.9-7.1l0,0c0.2-0.2,0.4-0.5,0.6-0.7
		C305.7,296.8,304,296.9,302.4,296.9z M323,211c-1.2-3.3-2.5-6.6-4.1-9.7c-0.2-0.3-0.3-0.7-0.5-1.1c-3.4-6.7-7.7-12.9-12.7-18.5
		c-0.4-0.5-0.9-1-1.3-1.5c-2.2-2.4-4.6-4.7-7.1-6.9c-0.2-0.2-0.5-0.4-0.7-0.6c0.1,0.7,0.1,1.5,0.2,2.2c0,0.7,0.1,1.4,0.1,2.1
		c0,0.9,0,1.7-0.1,2.5c0,0.7,0,1.4-0.1,2.1c-0.1,0.8-0.2,1.7-0.4,2.5c-0.1,0.7-0.2,1.3-0.3,2c-0.2,0.9-0.4,1.7-0.7,2.5
		c-0.2,0.6-0.3,1.3-0.5,1.9c-0.3,0.8-0.6,1.6-0.9,2.4c-0.3,0.6-0.5,1.3-0.8,1.9c-0.4,0.8-0.8,1.5-1.2,2.3c-0.3,0.6-0.6,1.2-0.9,1.7
		c-0.5,0.8-1,1.6-1.6,2.4c-0.3,0.5-0.6,1-1,1.4c-1,1.2-2,2.4-3.1,3.5l-23.6,23.6c0.1,0.3,0.2,0.6,0.4,0.8l0.2,0.4
		c0.2,0.4,0.3,0.7,0.5,1.1H296c7.5,0,14.7-3.6,19.2-9.6l8-10.6l0-0.1C323.2,211.5,323.1,211.3,323,211z M327.6,232.6
		c-0.4,0.5-0.9,1.1-1.4,1.6l0-0.1c-0.5,0.6-0.8,1-1.4,1.6c-0.6,0.6-1.3,1.2-1.8,1.7c-0.5,0.5-1,0.9-1.6,1.5s-1.4,1-2,1.5
		c-0.6,0.4-1,0.8-1.7,1.3c-0.7,0.4-1.5,0.8-2.2,1.3c-0.6,0.3-1.2,0.7-1.8,1c-0.8,0.4-1.6,0.7-2.4,1c-0.6,0.3-1.2,0.6-1.8,0.8
		c-0.8,0.3-1.7,0.5-2.6,0.8c-0.6,0.2-1.2,0.4-1.8,0.5c-1,0.2-1.9,0.4-2.9,0.5c-0.5,0.1-1,0.2-1.6,0.3c-1.5,0.2-3.1,0.3-4.6,0.3
		h-33.4c-0.1,0.4-0.3,0.8-0.5,1.1l-0.2,0.4c-0.1,0.3-0.2,0.6-0.3,0.8l23.6,23.6c5.4,5.3,12.9,7.8,20.4,6.8l13.2-1.9
		c0.3-0.7,0.6-1.3,1-2c0.8-1.8,1.6-3.6,2.3-5.4c0.4-1,0.8-2.1,1.2-3.2c0.7-2,1.3-4.1,1.8-6.2c0.2-1,0.5-1.9,0.7-2.9
		c0.5-2.3,0.9-4.7,1.2-7.1c0.1-0.8,0.3-1.6,0.4-2.4c0.4-3.2,0.5-6.4,0.5-9.6C328,237.6,327.8,235.1,327.6,232.6z M327.6,232.6
		c-0.4,0.5-0.9,1.1-1.4,1.6l0-0.1c-0.5,0.6-0.8,1-1.4,1.6c-0.6,0.6-1.3,1.2-1.8,1.7c-0.5,0.5-1,0.9-1.6,1.5s-1.4,1-2,1.5
		c-0.6,0.4-1,0.8-1.7,1.3c-0.7,0.4-1.5,0.8-2.2,1.3c-0.6,0.3-1.2,0.7-1.8,1c-0.8,0.4-1.6,0.7-2.4,1c-0.6,0.3-1.2,0.6-1.8,0.8
		c-0.8,0.3-1.7,0.5-2.6,0.8c-0.6,0.2-1.2,0.4-1.8,0.5c-1,0.2-1.9,0.4-2.9,0.5c-0.5,0.1-1,0.2-1.6,0.3c-1.5,0.2-3.1,0.3-4.6,0.3
		h-33.4c-0.1,0.4-0.3,0.8-0.5,1.1l-0.2,0.4c-0.1,0.3-0.2,0.6-0.3,0.8l23.6,23.6c5.4,5.3,12.9,7.8,20.4,6.8l13.2-1.9
		c0.3-0.7,0.6-1.3,1-2c0.8-1.8,1.6-3.6,2.3-5.4c0.4-1,0.8-2.1,1.2-3.2c0.7-2,1.3-4.1,1.8-6.2c0.2-1,0.5-1.9,0.7-2.9
		c0.5-2.3,0.9-4.7,1.2-7.1c0.1-0.8,0.3-1.6,0.4-2.4c0.4-3.2,0.5-6.4,0.5-9.6C328,237.6,327.8,235.1,327.6,232.6z M323,211
		c-1.2-3.3-2.5-6.6-4.1-9.7c-0.2-0.3-0.3-0.7-0.5-1.1c-3.4-6.7-7.7-12.9-12.7-18.5c-0.4-0.5-0.9-1-1.3-1.5c-2.2-2.4-4.6-4.7-7.1-6.9
		c-0.2-0.2-0.5-0.4-0.7-0.6c0.1,0.7,0.1,1.5,0.2,2.2c0,0.7,0.1,1.4,0.1,2.1c0,0.9,0,1.7-0.1,2.5c0,0.7,0,1.4-0.1,2.1
		c-0.1,0.8-0.2,1.7-0.4,2.5c-0.1,0.7-0.2,1.3-0.3,2c-0.2,0.9-0.4,1.7-0.7,2.5c-0.2,0.6-0.3,1.3-0.5,1.9c-0.3,0.8-0.6,1.6-0.9,2.4
		c-0.3,0.6-0.5,1.3-0.8,1.9c-0.4,0.8-0.8,1.5-1.2,2.3c-0.3,0.6-0.6,1.2-0.9,1.7c-0.5,0.8-1,1.6-1.6,2.4c-0.3,0.5-0.6,1-1,1.4
		c-1,1.2-2,2.4-3.1,3.5l-23.6,23.6c0.1,0.3,0.2,0.6,0.4,0.8l0.2,0.4c0.2,0.4,0.3,0.7,0.5,1.1H296c7.5,0,14.7-3.6,19.2-9.6l8-10.6
		l0-0.1C323.2,211.5,323.1,211.3,323,211z M302.4,296.9H302c-2.4,0-4.7-0.3-7-0.7c-0.2,0-0.5-0.1-0.7-0.1c-2.3-0.5-4.5-1.1-6.7-2
		c-0.4-0.1-0.7-0.3-1.1-0.4c-2.1-0.9-4.2-2-6.1-3.2l-0.9-0.6c-2-1.4-3.9-2.9-5.6-4.6l-23.6-23.6c-0.3,0.1-0.6,0.2-0.8,0.4l-0.4,0.2
		c-0.4,0.2-0.7,0.3-1.1,0.5V296c0,7.5,3.6,14.7,9.6,19.2l10.7,8c0.2-0.1,0.4-0.2,0.7-0.2c3.3-1.2,6.6-2.5,9.7-4.1l1.1-0.5
		c6.7-3.4,12.9-7.6,18.5-12.6c0.5-0.4,1-0.9,1.5-1.3c2.4-2.2,4.7-4.6,6.9-7.1l0,0c0.2-0.2,0.4-0.5,0.6-0.7
		C305.7,296.8,304,296.9,302.4,296.9z M280.7,174.4l-1.9-13.2c-0.6-0.3-1.2-0.6-1.9-0.9c-2-0.9-4.1-1.8-6.1-2.6
		c-1.1-0.4-2.1-0.8-3.2-1.2c-2.3-0.8-4.7-1.4-7.1-2c-0.8-0.2-1.7-0.5-2.5-0.6c-3.2-0.7-6.3-1.1-9.5-1.4c-1.1-0.1-2.3-0.1-3.4-0.2
		c-2.3-0.2-4.5-0.2-6.8-0.2c-0.4,0-0.8,0-1.2,0c0.2,0.2,0.4,0.5,0.6,0.7c1.2,1.3,2.4,2.8,3.4,4.3c0.2,0.4,0.5,0.8,0.8,1.1
		c1.2,1.9,2.2,3.9,3.1,5.9c0.2,0.5,0.4,1,0.5,1.6c0.6,1.7,1.1,3.4,1.5,5.1c0.2,0.6,0.3,1.3,0.4,1.9c0.4,2.3,0.6,4.6,0.7,7v37.6
		c0.4,0.1,0.7,0.3,1.1,0.5l0.4,0.2c0.3,0.1,0.6,0.2,0.8,0.4l23.6-23.6C279.3,189.4,281.8,181.9,280.7,174.4z M247.4,236.9
		c-0.3-0.5-0.6-1-1-1.5c-0.5-0.7-1.1-1.3-1.9-1.8c-0.5-0.4-0.9-0.7-1.5-1c-2-0.8-4.2-0.8-6.2,0c-0.5,0.3-1,0.6-1.5,1
		c-0.7,0.5-1.2,1-1.7,1.7v0c-0.4,0.5-0.8,1.1-1.1,1.7c-0.8,2-0.8,4.2,0,6.2c0.3,0.6,0.7,1.1,1.1,1.6c0.5,0.7,1.1,1.2,1.7,1.7
		c0.5,0.4,0.9,0.7,1.5,1c2,0.8,4.2,0.8,6.2,0c0.5-0.3,1-0.6,1.5-1c0.7-0.5,1.3-1.1,1.9-1.8c0.4-0.5,0.7-0.9,1-1.5
		C248.2,241.1,248.2,238.9,247.4,236.9z M245.9,326.3c-0.5-0.5-1-0.9-1.6-1.4c-0.6-0.6-1.2-1.3-1.7-1.8c-0.5-0.5-0.9-1-1.5-1.6
		s-1-1.4-1.5-2c-0.5-0.6-0.8-1-1.3-1.7c-0.4-0.7-0.8-1.5-1.2-2.2c-0.3-0.6-0.7-1.2-1-1.8c-0.4-0.8-0.7-1.6-1-2.4
		c-0.3-0.6-0.6-1.2-0.8-1.8c-0.3-0.8-0.6-1.7-0.8-2.6c-0.2-0.6-0.4-1.2-0.5-1.8c-0.2-1-0.4-1.9-0.5-2.9c-0.1-0.5-0.2-1-0.3-1.6
		c-0.2-1.5-0.3-3.1-0.3-4.6v-33.4c-0.4-0.1-0.8-0.3-1.1-0.5l-0.4-0.1c-0.3-0.1-0.6-0.2-0.8-0.4l-23.6,23.6
		c-5.3,5.4-7.8,12.9-6.8,20.4l1.9,13.3c0.6,0.3,1.1,0.5,1.7,0.8c2.6,1.2,5.2,2.3,7.9,3.2c0.7,0.3,1.4,0.6,2.1,0.8
		c3.4,1.1,6.9,2,10.4,2.7c0.7,0.1,1.4,0.2,2.1,0.3c2.8,0.5,5.7,0.8,8.5,1c1.1,0.1,2.2,0.2,3.4,0.2c2.9,0.1,5.9,0.1,8.8-0.2l0,0
		c0.5,0,1,0,1.5,0C247,327.2,246.5,326.7,245.9,326.3z M218.7,158.3l-4.6-2.3c-4,1.2-7.8,2.7-11.6,4.5l-0.4,0.2
		c-7.3,3.5-14,8-20.1,13.3c-0.4,0.3-0.8,0.8-1.2,1.1c-2.6,2.4-5.1,4.9-7.5,7.6c-0.2,0.2-0.4,0.4-0.6,0.6c0.5-0.1,1-0.1,1.5-0.1
		c1-0.1,2.1-0.2,3.1-0.2h0.4c0.2,0,0.4,0.1,0.6,0.1c2.3,0,4.7,0.3,6.9,0.7l0.4,0c2.3,0.5,4.6,1.2,6.8,2c0.4,0.1,0.7,0.3,1.1,0.4
		c2.1,0.9,4.1,2,6.1,3.2c0.3,0.2,0.6,0.4,0.9,0.7c2,1.3,3.9,2.9,5.6,4.6l23.6,23.6c0.3-0.1,0.6-0.2,0.8-0.3l0.4-0.2
		c0.4-0.2,0.7-0.3,1.1-0.5v-37.6C232,170.7,226.9,162.4,218.7,158.3z M194.7,206.1c-5.3-5.3-12.9-7.8-20.4-6.8l-13.2,1.9
		c-0.3,0.7-0.7,1.3-1,2c-0.8,1.8-1.6,3.6-2.3,5.5c-0.4,1.1-0.8,2.1-1.2,3.2c-0.7,2.1-1.3,4.1-1.8,6.3c-0.2,1-0.5,1.9-0.7,2.8
		c-0.5,2.3-0.9,4.7-1.2,7.1c-0.1,0.8-0.3,1.5-0.4,2.4c-0.4,3.2-0.5,6.4-0.5,9.6c0,2.5,0.2,5,0.4,7.5c0.4-0.5,0.9-1.1,1.4-1.6v0
		c0.5-0.6,0.8-1,1.4-1.6s1.3-1.2,1.8-1.7c0.6-0.5,1-0.9,1.6-1.4c0.6-0.5,1.4-1,2-1.5c0.6-0.4,1-0.8,1.7-1.2c0.7-0.5,1.4-0.8,2.2-1.3
		c0.6-0.3,1.2-0.7,1.8-1c0.8-0.4,1.6-0.7,2.4-1c0.6-0.3,1.2-0.6,1.8-0.8c0.8-0.3,1.7-0.6,2.6-0.8c0.6-0.2,1.2-0.4,1.8-0.5
		c1-0.2,2-0.4,3-0.5c0.5-0.1,1.1-0.2,1.6-0.3c1.5-0.2,3.1-0.3,4.6-0.3h33.4c0.1-0.4,0.3-0.7,0.5-1.1l0.2-0.4
		c0.1-0.2,0.2-0.5,0.4-0.8L194.7,206.1z M218,249.5l-0.2-0.4c-0.2-0.4-0.3-0.7-0.5-1.1H184c-7.5,0-14.7,3.6-19.2,9.6l-8,10.8
		c0.1,0.2,0.2,0.4,0.2,0.7c1.2,3.3,2.5,6.6,4.1,9.7c0.2,0.3,0.3,0.7,0.5,1c3.4,6.7,7.7,12.9,12.6,18.5c0.4,0.5,0.8,0.9,1.3,1.4
		c2.3,2.5,4.7,4.8,7.2,7c0.2,0.2,0.4,0.4,0.6,0.6c-0.1-0.7-0.1-1.5-0.2-2.2c0-0.7-0.1-1.4-0.1-2.1c0-0.8,0.1-1.7,0.1-2.6
		c0-0.7,0-1.4,0.1-2c0.1-0.9,0.2-1.7,0.4-2.6c0.1-0.6,0.2-1.3,0.3-1.9c0.2-0.9,0.5-1.7,0.7-2.6c0.2-0.6,0.3-1.2,0.5-1.8
		c0.3-0.9,0.7-1.7,1-2.5c0.2-0.6,0.4-1.1,0.7-1.7c0.4-0.9,0.9-1.8,1.4-2.5c0.3-0.5,0.5-1,0.8-1.5c0.5-0.9,1.2-1.8,1.8-2.6
		c0.3-0.4,0.5-0.8,0.8-1.2v-0.1c1-1.2,2-2.4,3.1-3.5l23.6-23.6C218.2,250.1,218.1,249.8,218,249.5z M120,419.5
		c-0.2-0.1-0.4-0.3-0.7-0.5c-3.5-2.4-7-5-10.4-7.6c-1.4-1.1-2.8-2.2-4.2-3.3c-2.8-2.2-5.5-4.5-8.2-6.9c-1.5-1.4-3-2.8-4.5-4.2
		c-2.3-2.2-4.6-4.4-6.8-6.7c-1.2-1.3-2.5-2.6-3.7-3.9c-2.9-3.1-5.7-6.3-8.3-9.5c-0.8-1-1.5-1.9-2.3-2.9c-2.3-2.9-4.5-5.8-6.7-8.8
		c-0.7-1-1.4-1.9-2-2.9c-2.7-3.9-5.2-7.8-7.6-11.9c-0.3-0.5-0.5-1-0.8-1.4c-2.4-4.1-4.7-8.3-6.8-12.6l-0.3-0.7
		c-2.3-4.7-4.5-9.5-6.5-14.3V432h80L120,419.5z M218,249.5l-0.2-0.4c-0.2-0.4-0.3-0.7-0.5-1.1H184c-7.5,0-14.7,3.6-19.2,9.6l-8,10.8
		c0.1,0.2,0.2,0.4,0.2,0.7c1.2,3.3,2.5,6.6,4.1,9.7c0.2,0.3,0.3,0.7,0.5,1c3.4,6.7,7.7,12.9,12.6,18.5c0.4,0.5,0.8,0.9,1.3,1.4
		c2.3,2.5,4.7,4.8,7.2,7c0.2,0.2,0.4,0.4,0.6,0.6c-0.1-0.7-0.1-1.5-0.2-2.2c0-0.7-0.1-1.4-0.1-2.1c0-0.8,0.1-1.7,0.1-2.6
		c0-0.7,0-1.4,0.1-2c0.1-0.9,0.2-1.7,0.4-2.6c0.1-0.6,0.2-1.3,0.3-1.9c0.2-0.9,0.5-1.7,0.7-2.6c0.2-0.6,0.3-1.2,0.5-1.8
		c0.3-0.9,0.7-1.7,1-2.5c0.2-0.6,0.4-1.1,0.7-1.7c0.4-0.9,0.9-1.8,1.4-2.5c0.3-0.5,0.5-1,0.8-1.5c0.5-0.9,1.2-1.8,1.8-2.6
		c0.3-0.4,0.5-0.8,0.8-1.2v-0.1c1-1.2,2-2.4,3.1-3.5l23.6-23.6C218.2,250.1,218.1,249.8,218,249.5z M194.7,206.1
		c-5.3-5.3-12.9-7.8-20.4-6.8l-13.2,1.9c-0.3,0.7-0.7,1.3-1,2c-0.8,1.8-1.6,3.6-2.3,5.5c-0.4,1.1-0.8,2.1-1.2,3.2
		c-0.7,2.1-1.3,4.1-1.8,6.3c-0.2,1-0.5,1.9-0.7,2.8c-0.5,2.3-0.9,4.7-1.2,7.1c-0.1,0.8-0.3,1.5-0.4,2.4c-0.4,3.2-0.5,6.4-0.5,9.6
		c0,2.5,0.2,5,0.4,7.5c0.4-0.5,0.9-1.1,1.4-1.6v0c0.5-0.6,0.8-1,1.4-1.6s1.3-1.2,1.8-1.7c0.6-0.5,1-0.9,1.6-1.4c0.6-0.5,1.4-1,2-1.5
		c0.6-0.4,1-0.8,1.7-1.2c0.7-0.5,1.4-0.8,2.2-1.3c0.6-0.3,1.2-0.7,1.8-1c0.8-0.4,1.6-0.7,2.4-1c0.6-0.3,1.2-0.6,1.8-0.8
		c0.8-0.3,1.7-0.6,2.6-0.8c0.6-0.2,1.2-0.4,1.8-0.5c1-0.2,2-0.4,3-0.5c0.5-0.1,1.1-0.2,1.6-0.3c1.5-0.2,3.1-0.3,4.6-0.3h33.4
		c0.1-0.4,0.3-0.7,0.5-1.1l0.2-0.4c0.1-0.2,0.2-0.5,0.4-0.8L194.7,206.1z M218.7,158.3l-4.6-2.3c-4,1.2-7.8,2.7-11.6,4.5l-0.4,0.2
		c-7.3,3.5-14,8-20.1,13.3c-0.4,0.3-0.8,0.8-1.2,1.1c-2.6,2.4-5.1,4.9-7.5,7.6c-0.2,0.2-0.4,0.4-0.6,0.6c0.5-0.1,1-0.1,1.5-0.1
		c1-0.1,2.1-0.2,3.1-0.2h0.4c0.2,0,0.4,0.1,0.6,0.1c2.3,0,4.7,0.3,6.9,0.7l0.4,0c2.3,0.5,4.6,1.2,6.8,2c0.4,0.1,0.7,0.3,1.1,0.4
		c2.1,0.9,4.1,2,6.1,3.2c0.3,0.2,0.6,0.4,0.9,0.7c2,1.3,3.9,2.9,5.6,4.6l23.6,23.6c0.3-0.1,0.6-0.2,0.8-0.3l0.4-0.2
		c0.4-0.2,0.7-0.3,1.1-0.5v-37.6C232,170.7,226.9,162.4,218.7,158.3z M245.9,326.3c-0.5-0.5-1-0.9-1.6-1.4c-0.6-0.6-1.2-1.3-1.7-1.8
		c-0.5-0.5-0.9-1-1.5-1.6s-1-1.4-1.5-2c-0.5-0.6-0.8-1-1.3-1.7c-0.4-0.7-0.8-1.5-1.2-2.2c-0.3-0.6-0.7-1.2-1-1.8
		c-0.4-0.8-0.7-1.6-1-2.4c-0.3-0.6-0.6-1.2-0.8-1.8c-0.3-0.8-0.6-1.7-0.8-2.6c-0.2-0.6-0.4-1.2-0.5-1.8c-0.2-1-0.4-1.9-0.5-2.9
		c-0.1-0.5-0.2-1-0.3-1.6c-0.2-1.5-0.3-3.1-0.3-4.6v-33.4c-0.4-0.1-0.8-0.3-1.1-0.5l-0.4-0.1c-0.3-0.1-0.6-0.2-0.8-0.4l-23.6,23.6
		c-5.3,5.4-7.8,12.9-6.8,20.4l1.9,13.3c0.6,0.3,1.1,0.5,1.7,0.8c2.6,1.2,5.2,2.3,7.9,3.2c0.7,0.3,1.4,0.6,2.1,0.8
		c3.4,1.1,6.9,2,10.4,2.7c0.7,0.1,1.4,0.2,2.1,0.3c2.8,0.5,5.7,0.8,8.5,1c1.1,0.1,2.2,0.2,3.4,0.2c2.9,0.1,5.9,0.1,8.8-0.2l0,0
		c0.5,0,1,0,1.5,0C247,327.2,246.5,326.7,245.9,326.3z M247.4,236.9c-0.3-0.5-0.6-1-1-1.5c-0.5-0.7-1.1-1.3-1.9-1.8
		c-0.5-0.4-0.9-0.7-1.5-1c-2-0.8-4.2-0.8-6.2,0c-0.5,0.3-1,0.6-1.5,1c-0.7,0.5-1.2,1-1.7,1.7v0c-0.4,0.5-0.8,1.1-1.1,1.7
		c-0.8,2-0.8,4.2,0,6.2c0.3,0.6,0.7,1.1,1.1,1.6c0.5,0.7,1.1,1.2,1.7,1.7c0.5,0.4,0.9,0.7,1.5,1c2,0.8,4.2,0.8,6.2,0
		c0.5-0.3,1-0.6,1.5-1c0.7-0.5,1.3-1.1,1.9-1.8c0.4-0.5,0.7-0.9,1-1.5C248.2,241.1,248.2,238.9,247.4,236.9z M280.7,174.4l-1.9-13.2
		c-0.6-0.3-1.2-0.6-1.9-0.9c-2-0.9-4.1-1.8-6.1-2.6c-1.1-0.4-2.1-0.8-3.2-1.2c-2.3-0.8-4.7-1.4-7.1-2c-0.8-0.2-1.7-0.5-2.5-0.6
		c-3.2-0.7-6.3-1.1-9.5-1.4c-1.1-0.1-2.3-0.1-3.4-0.2c-2.3-0.2-4.5-0.2-6.8-0.2c-0.4,0-0.8,0-1.2,0c0.2,0.2,0.4,0.5,0.6,0.7
		c1.2,1.3,2.4,2.8,3.4,4.3c0.2,0.4,0.5,0.8,0.8,1.1c1.2,1.9,2.2,3.9,3.1,5.9c0.2,0.5,0.4,1,0.5,1.6c0.6,1.7,1.1,3.4,1.5,5.1
		c0.2,0.6,0.3,1.3,0.4,1.9c0.4,2.3,0.6,4.6,0.7,7v37.6c0.4,0.1,0.7,0.3,1.1,0.5l0.4,0.2c0.3,0.1,0.6,0.2,0.8,0.4l23.6-23.6
		C279.3,189.4,281.8,181.9,280.7,174.4z M302.4,296.9H302c-2.4,0-4.7-0.3-7-0.7c-0.2,0-0.5-0.1-0.7-0.1c-2.3-0.5-4.5-1.1-6.7-2
		c-0.4-0.1-0.7-0.3-1.1-0.4c-2.1-0.9-4.2-2-6.1-3.2l-0.9-0.6c-2-1.4-3.9-2.9-5.6-4.6l-23.6-23.6c-0.3,0.1-0.6,0.2-0.8,0.4l-0.4,0.2
		c-0.4,0.2-0.7,0.3-1.1,0.5V296c0,7.5,3.6,14.7,9.6,19.2l10.7,8c0.2-0.1,0.4-0.2,0.7-0.2c3.3-1.2,6.6-2.5,9.7-4.1l1.1-0.5
		c6.7-3.4,12.9-7.6,18.5-12.6c0.5-0.4,1-0.9,1.5-1.3c2.4-2.2,4.7-4.6,6.9-7.1l0,0c0.2-0.2,0.4-0.5,0.6-0.7
		C305.7,296.8,304,296.9,302.4,296.9z M323,211c-1.2-3.3-2.5-6.6-4.1-9.7c-0.2-0.3-0.3-0.7-0.5-1.1c-3.4-6.7-7.7-12.9-12.7-18.5
		c-0.4-0.5-0.9-1-1.3-1.5c-2.2-2.4-4.6-4.7-7.1-6.9c-0.2-0.2-0.5-0.4-0.7-0.6c0.1,0.7,0.1,1.5,0.2,2.2c0,0.7,0.1,1.4,0.1,2.1
		c0,0.9,0,1.7-0.1,2.5c0,0.7,0,1.4-0.1,2.1c-0.1,0.8-0.2,1.7-0.4,2.5c-0.1,0.7-0.2,1.3-0.3,2c-0.2,0.9-0.4,1.7-0.7,2.5
		c-0.2,0.6-0.3,1.3-0.5,1.9c-0.3,0.8-0.6,1.6-0.9,2.4c-0.3,0.6-0.5,1.3-0.8,1.9c-0.4,0.8-0.8,1.5-1.2,2.3c-0.3,0.6-0.6,1.2-0.9,1.7
		c-0.5,0.8-1,1.6-1.6,2.4c-0.3,0.5-0.6,1-1,1.4c-1,1.2-2,2.4-3.1,3.5l-23.6,23.6c0.1,0.3,0.2,0.6,0.4,0.8l0.2,0.4
		c0.2,0.4,0.3,0.7,0.5,1.1H296c7.5,0,14.7-3.6,19.2-9.6l8-10.6l0-0.1C323.2,211.5,323.1,211.3,323,211z M327.6,232.6
		c-0.4,0.5-0.9,1.1-1.4,1.6l0-0.1c-0.5,0.6-0.8,1-1.4,1.6c-0.6,0.6-1.3,1.2-1.8,1.7c-0.5,0.5-1,0.9-1.6,1.5s-1.4,1-2,1.5
		c-0.6,0.4-1,0.8-1.7,1.3c-0.7,0.4-1.5,0.8-2.2,1.3c-0.6,0.3-1.2,0.7-1.8,1c-0.8,0.4-1.6,0.7-2.4,1c-0.6,0.3-1.2,0.6-1.8,0.8
		c-0.8,0.3-1.7,0.5-2.6,0.8c-0.6,0.2-1.2,0.4-1.8,0.5c-1,0.2-1.9,0.4-2.9,0.5c-0.5,0.1-1,0.2-1.6,0.3c-1.5,0.2-3.1,0.3-4.6,0.3
		h-33.4c-0.1,0.4-0.3,0.8-0.5,1.1l-0.2,0.4c-0.1,0.3-0.2,0.6-0.3,0.8l23.6,23.6c5.4,5.3,12.9,7.8,20.4,6.8l13.2-1.9
		c0.3-0.7,0.6-1.3,1-2c0.8-1.8,1.6-3.6,2.3-5.4c0.4-1,0.8-2.1,1.2-3.2c0.7-2,1.3-4.1,1.8-6.2c0.2-1,0.5-1.9,0.7-2.9
		c0.5-2.3,0.9-4.7,1.2-7.1c0.1-0.8,0.3-1.6,0.4-2.4c0.4-3.2,0.5-6.4,0.5-9.6C328,237.6,327.8,235.1,327.6,232.6z M323,211
		c-1.2-3.3-2.5-6.6-4.1-9.7c-0.2-0.3-0.3-0.7-0.5-1.1c-3.4-6.7-7.7-12.9-12.7-18.5c-0.4-0.5-0.9-1-1.3-1.5c-2.2-2.4-4.6-4.7-7.1-6.9
		c-0.2-0.2-0.5-0.4-0.7-0.6c0.1,0.7,0.1,1.5,0.2,2.2c0,0.7,0.1,1.4,0.1,2.1c0,0.9,0,1.7-0.1,2.5c0,0.7,0,1.4-0.1,2.1
		c-0.1,0.8-0.2,1.7-0.4,2.5c-0.1,0.7-0.2,1.3-0.3,2c-0.2,0.9-0.4,1.7-0.7,2.5c-0.2,0.6-0.3,1.3-0.5,1.9c-0.3,0.8-0.6,1.6-0.9,2.4
		c-0.3,0.6-0.5,1.3-0.8,1.9c-0.4,0.8-0.8,1.5-1.2,2.3c-0.3,0.6-0.6,1.2-0.9,1.7c-0.5,0.8-1,1.6-1.6,2.4c-0.3,0.5-0.6,1-1,1.4
		c-1,1.2-2,2.4-3.1,3.5l-23.6,23.6c0.1,0.3,0.2,0.6,0.4,0.8l0.2,0.4c0.2,0.4,0.3,0.7,0.5,1.1H296c7.5,0,14.7-3.6,19.2-9.6l8-10.6
		l0-0.1C323.2,211.5,323.1,211.3,323,211z M302.4,296.9H302c-2.4,0-4.7-0.3-7-0.7c-0.2,0-0.5-0.1-0.7-0.1c-2.3-0.5-4.5-1.1-6.7-2
		c-0.4-0.1-0.7-0.3-1.1-0.4c-2.1-0.9-4.2-2-6.1-3.2l-0.9-0.6c-2-1.4-3.9-2.9-5.6-4.6l-23.6-23.6c-0.3,0.1-0.6,0.2-0.8,0.4l-0.4,0.2
		c-0.4,0.2-0.7,0.3-1.1,0.5V296c0,7.5,3.6,14.7,9.6,19.2l10.7,8c0.2-0.1,0.4-0.2,0.7-0.2c3.3-1.2,6.6-2.5,9.7-4.1l1.1-0.5
		c6.7-3.4,12.9-7.6,18.5-12.6c0.5-0.4,1-0.9,1.5-1.3c2.4-2.2,4.7-4.6,6.9-7.1l0,0c0.2-0.2,0.4-0.5,0.6-0.7
		C305.7,296.8,304,296.9,302.4,296.9z M280.7,174.4l-1.9-13.2c-0.6-0.3-1.2-0.6-1.9-0.9c-2-0.9-4.1-1.8-6.1-2.6
		c-1.1-0.4-2.1-0.8-3.2-1.2c-2.3-0.8-4.7-1.4-7.1-2c-0.8-0.2-1.7-0.5-2.5-0.6c-3.2-0.7-6.3-1.1-9.5-1.4c-1.1-0.1-2.3-0.1-3.4-0.2
		c-2.3-0.2-4.5-0.2-6.8-0.2c-0.4,0-0.8,0-1.2,0c0.2,0.2,0.4,0.5,0.6,0.7c1.2,1.3,2.4,2.8,3.4,4.3c0.2,0.4,0.5,0.8,0.8,1.1
		c1.2,1.9,2.2,3.9,3.1,5.9c0.2,0.5,0.4,1,0.5,1.6c0.6,1.7,1.1,3.4,1.5,5.1c0.2,0.6,0.3,1.3,0.4,1.9c0.4,2.3,0.6,4.6,0.7,7v37.6
		c0.4,0.1,0.7,0.3,1.1,0.5l0.4,0.2c0.3,0.1,0.6,0.2,0.8,0.4l23.6-23.6C279.3,189.4,281.8,181.9,280.7,174.4z M247.4,236.9
		c-0.3-0.5-0.6-1-1-1.5c-0.5-0.7-1.1-1.3-1.9-1.8c-0.5-0.4-0.9-0.7-1.5-1c-2-0.8-4.2-0.8-6.2,0c-0.5,0.3-1,0.6-1.5,1
		c-0.7,0.5-1.2,1-1.7,1.7v0c-0.4,0.5-0.8,1.1-1.1,1.7c-0.8,2-0.8,4.2,0,6.2c0.3,0.6,0.7,1.1,1.1,1.6c0.5,0.7,1.1,1.2,1.7,1.7
		c0.5,0.4,0.9,0.7,1.5,1c2,0.8,4.2,0.8,6.2,0c0.5-0.3,1-0.6,1.5-1c0.7-0.5,1.3-1.1,1.9-1.8c0.4-0.5,0.7-0.9,1-1.5
		C248.2,241.1,248.2,238.9,247.4,236.9z M245.9,326.3c-0.5-0.5-1-0.9-1.6-1.4c-0.6-0.6-1.2-1.3-1.7-1.8c-0.5-0.5-0.9-1-1.5-1.6
		s-1-1.4-1.5-2c-0.5-0.6-0.8-1-1.3-1.7c-0.4-0.7-0.8-1.5-1.2-2.2c-0.3-0.6-0.7-1.2-1-1.8c-0.4-0.8-0.7-1.6-1-2.4
		c-0.3-0.6-0.6-1.2-0.8-1.8c-0.3-0.8-0.6-1.7-0.8-2.6c-0.2-0.6-0.4-1.2-0.5-1.8c-0.2-1-0.4-1.9-0.5-2.9c-0.1-0.5-0.2-1-0.3-1.6
		c-0.2-1.5-0.3-3.1-0.3-4.6v-33.4c-0.4-0.1-0.8-0.3-1.1-0.5l-0.4-0.1c-0.3-0.1-0.6-0.2-0.8-0.4l-23.6,23.6
		c-5.3,5.4-7.8,12.9-6.8,20.4l1.9,13.3c0.6,0.3,1.1,0.5,1.7,0.8c2.6,1.2,5.2,2.3,7.9,3.2c0.7,0.3,1.4,0.6,2.1,0.8
		c3.4,1.1,6.9,2,10.4,2.7c0.7,0.1,1.4,0.2,2.1,0.3c2.8,0.5,5.7,0.8,8.5,1c1.1,0.1,2.2,0.2,3.4,0.2c2.9,0.1,5.9,0.1,8.8-0.2l0,0
		c0.5,0,1,0,1.5,0C247,327.2,246.5,326.7,245.9,326.3z M218.7,158.3l-4.6-2.3c-4,1.2-7.8,2.7-11.6,4.5l-0.4,0.2
		c-7.3,3.5-14,8-20.1,13.3c-0.4,0.3-0.8,0.8-1.2,1.1c-2.6,2.4-5.1,4.9-7.5,7.6c-0.2,0.2-0.4,0.4-0.6,0.6c0.5-0.1,1-0.1,1.5-0.1
		c1-0.1,2.1-0.2,3.1-0.2h0.4c0.2,0,0.4,0.1,0.6,0.1c2.3,0,4.7,0.3,6.9,0.7l0.4,0c2.3,0.5,4.6,1.2,6.8,2c0.4,0.1,0.7,0.3,1.1,0.4
		c2.1,0.9,4.1,2,6.1,3.2c0.3,0.2,0.6,0.4,0.9,0.7c2,1.3,3.9,2.9,5.6,4.6l23.6,23.6c0.3-0.1,0.6-0.2,0.8-0.3l0.4-0.2
		c0.4-0.2,0.7-0.3,1.1-0.5v-37.6C232,170.7,226.9,162.4,218.7,158.3z M194.7,206.1c-5.3-5.3-12.9-7.8-20.4-6.8l-13.2,1.9
		c-0.3,0.7-0.7,1.3-1,2c-0.8,1.8-1.6,3.6-2.3,5.5c-0.4,1.1-0.8,2.1-1.2,3.2c-0.7,2.1-1.3,4.1-1.8,6.3c-0.2,1-0.5,1.9-0.7,2.8
		c-0.5,2.3-0.9,4.7-1.2,7.1c-0.1,0.8-0.3,1.5-0.4,2.4c-0.4,3.2-0.5,6.4-0.5,9.6c0,2.5,0.2,5,0.4,7.5c0.4-0.5,0.9-1.1,1.4-1.6v0
		c0.5-0.6,0.8-1,1.4-1.6s1.3-1.2,1.8-1.7c0.6-0.5,1-0.9,1.6-1.4c0.6-0.5,1.4-1,2-1.5c0.6-0.4,1-0.8,1.7-1.2c0.7-0.5,1.4-0.8,2.2-1.3
		c0.6-0.3,1.2-0.7,1.8-1c0.8-0.4,1.6-0.7,2.4-1c0.6-0.3,1.2-0.6,1.8-0.8c0.8-0.3,1.7-0.6,2.6-0.8c0.6-0.2,1.2-0.4,1.8-0.5
		c1-0.2,2-0.4,3-0.5c0.5-0.1,1.1-0.2,1.6-0.3c1.5-0.2,3.1-0.3,4.6-0.3h33.4c0.1-0.4,0.3-0.7,0.5-1.1l0.2-0.4
		c0.1-0.2,0.2-0.5,0.4-0.8L194.7,206.1z M218,249.5l-0.2-0.4c-0.2-0.4-0.3-0.7-0.5-1.1H184c-7.5,0-14.7,3.6-19.2,9.6l-8,10.8
		c0.1,0.2,0.2,0.4,0.2,0.7c1.2,3.3,2.5,6.6,4.1,9.7c0.2,0.3,0.3,0.7,0.5,1c3.4,6.7,7.7,12.9,12.6,18.5c0.4,0.5,0.8,0.9,1.3,1.4
		c2.3,2.5,4.7,4.8,7.2,7c0.2,0.2,0.4,0.4,0.6,0.6c-0.1-0.7-0.1-1.5-0.2-2.2c0-0.7-0.1-1.4-0.1-2.1c0-0.8,0.1-1.7,0.1-2.6
		c0-0.7,0-1.4,0.1-2c0.1-0.9,0.2-1.7,0.4-2.6c0.1-0.6,0.2-1.3,0.3-1.9c0.2-0.9,0.5-1.7,0.7-2.6c0.2-0.6,0.3-1.2,0.5-1.8
		c0.3-0.9,0.7-1.7,1-2.5c0.2-0.6,0.4-1.1,0.7-1.7c0.4-0.9,0.9-1.8,1.4-2.5c0.3-0.5,0.5-1,0.8-1.5c0.5-0.9,1.2-1.8,1.8-2.6
		c0.3-0.4,0.5-0.8,0.8-1.2v-0.1c1-1.2,2-2.4,3.1-3.5l23.6-23.6C218.2,250.1,218.1,249.8,218,249.5z M327.6,232.6
		c-0.4,0.5-0.9,1.1-1.4,1.6l0-0.1c-0.5,0.6-0.8,1-1.4,1.6c-0.6,0.6-1.3,1.2-1.8,1.7c-0.5,0.5-1,0.9-1.6,1.5s-1.4,1-2,1.5
		c-0.6,0.4-1,0.8-1.7,1.3c-0.7,0.4-1.5,0.8-2.2,1.3c-0.6,0.3-1.2,0.7-1.8,1c-0.8,0.4-1.6,0.7-2.4,1c-0.6,0.3-1.2,0.6-1.8,0.8
		c-0.8,0.3-1.7,0.5-2.6,0.8c-0.6,0.2-1.2,0.4-1.8,0.5c-1,0.2-1.9,0.4-2.9,0.5c-0.5,0.1-1,0.2-1.6,0.3c-1.5,0.2-3.1,0.3-4.6,0.3
		h-33.4c-0.1,0.4-0.3,0.8-0.5,1.1l-0.2,0.4c-0.1,0.3-0.2,0.6-0.3,0.8l23.6,23.6c5.4,5.3,12.9,7.8,20.4,6.8l13.2-1.9
		c0.3-0.7,0.6-1.3,1-2c0.8-1.8,1.6-3.6,2.3-5.4c0.4-1,0.8-2.1,1.2-3.2c0.7-2,1.3-4.1,1.8-6.2c0.2-1,0.5-1.9,0.7-2.9
		c0.5-2.3,0.9-4.7,1.2-7.1c0.1-0.8,0.3-1.6,0.4-2.4c0.4-3.2,0.5-6.4,0.5-9.6C328,237.6,327.8,235.1,327.6,232.6z M218,249.5
		l-0.2-0.4c-0.2-0.4-0.3-0.7-0.5-1.1H184c-7.5,0-14.7,3.6-19.2,9.6l-8,10.8c0.1,0.2,0.2,0.4,0.2,0.7c1.2,3.3,2.5,6.6,4.1,9.7
		c0.2,0.3,0.3,0.7,0.5,1c3.4,6.7,7.7,12.9,12.6,18.5c0.4,0.5,0.8,0.9,1.3,1.4c2.3,2.5,4.7,4.8,7.2,7c0.2,0.2,0.4,0.4,0.6,0.6
		c-0.1-0.7-0.1-1.5-0.2-2.2c0-0.7-0.1-1.4-0.1-2.1c0-0.8,0.1-1.7,0.1-2.6c0-0.7,0-1.4,0.1-2c0.1-0.9,0.2-1.7,0.4-2.6
		c0.1-0.6,0.2-1.3,0.3-1.9c0.2-0.9,0.5-1.7,0.7-2.6c0.2-0.6,0.3-1.2,0.5-1.8c0.3-0.9,0.7-1.7,1-2.5c0.2-0.6,0.4-1.1,0.7-1.7
		c0.4-0.9,0.9-1.8,1.4-2.5c0.3-0.5,0.5-1,0.8-1.5c0.5-0.9,1.2-1.8,1.8-2.6c0.3-0.4,0.5-0.8,0.8-1.2v-0.1c1-1.2,2-2.4,3.1-3.5
		l23.6-23.6C218.2,250.1,218.1,249.8,218,249.5z M194.7,206.1c-5.3-5.3-12.9-7.8-20.4-6.8l-13.2,1.9c-0.3,0.7-0.7,1.3-1,2
		c-0.8,1.8-1.6,3.6-2.3,5.5c-0.4,1.1-0.8,2.1-1.2,3.2c-0.7,2.1-1.3,4.1-1.8,6.3c-0.2,1-0.5,1.9-0.7,2.8c-0.5,2.3-0.9,4.7-1.2,7.1
		c-0.1,0.8-0.3,1.5-0.4,2.4c-0.4,3.2-0.5,6.4-0.5,9.6c0,2.5,0.2,5,0.4,7.5c0.4-0.5,0.9-1.1,1.4-1.6v0c0.5-0.6,0.8-1,1.4-1.6
		s1.3-1.2,1.8-1.7c0.6-0.5,1-0.9,1.6-1.4c0.6-0.5,1.4-1,2-1.5c0.6-0.4,1-0.8,1.7-1.2c0.7-0.5,1.4-0.8,2.2-1.3c0.6-0.3,1.2-0.7,1.8-1
		c0.8-0.4,1.6-0.7,2.4-1c0.6-0.3,1.2-0.6,1.8-0.8c0.8-0.3,1.7-0.6,2.6-0.8c0.6-0.2,1.2-0.4,1.8-0.5c1-0.2,2-0.4,3-0.5
		c0.5-0.1,1.1-0.2,1.6-0.3c1.5-0.2,3.1-0.3,4.6-0.3h33.4c0.1-0.4,0.3-0.7,0.5-1.1l0.2-0.4c0.1-0.2,0.2-0.5,0.4-0.8L194.7,206.1z
		 M218.7,158.3l-4.6-2.3c-4,1.2-7.8,2.7-11.6,4.5l-0.4,0.2c-7.3,3.5-14,8-20.1,13.3c-0.4,0.3-0.8,0.8-1.2,1.1
		c-2.6,2.4-5.1,4.9-7.5,7.6c-0.2,0.2-0.4,0.4-0.6,0.6c0.5-0.1,1-0.1,1.5-0.1c1-0.1,2.1-0.2,3.1-0.2h0.4c0.2,0,0.4,0.1,0.6,0.1
		c2.3,0,4.7,0.3,6.9,0.7l0.4,0c2.3,0.5,4.6,1.2,6.8,2c0.4,0.1,0.7,0.3,1.1,0.4c2.1,0.9,4.1,2,6.1,3.2c0.3,0.2,0.6,0.4,0.9,0.7
		c2,1.3,3.9,2.9,5.6,4.6l23.6,23.6c0.3-0.1,0.6-0.2,0.8-0.3l0.4-0.2c0.4-0.2,0.7-0.3,1.1-0.5v-37.6
		C232,170.7,226.9,162.4,218.7,158.3z M245.9,326.3c-0.5-0.5-1-0.9-1.6-1.4c-0.6-0.6-1.2-1.3-1.7-1.8c-0.5-0.5-0.9-1-1.5-1.6
		s-1-1.4-1.5-2c-0.5-0.6-0.8-1-1.3-1.7c-0.4-0.7-0.8-1.5-1.2-2.2c-0.3-0.6-0.7-1.2-1-1.8c-0.4-0.8-0.7-1.6-1-2.4
		c-0.3-0.6-0.6-1.2-0.8-1.8c-0.3-0.8-0.6-1.7-0.8-2.6c-0.2-0.6-0.4-1.2-0.5-1.8c-0.2-1-0.4-1.9-0.5-2.9c-0.1-0.5-0.2-1-0.3-1.6
		c-0.2-1.5-0.3-3.1-0.3-4.6v-33.4c-0.4-0.1-0.8-0.3-1.1-0.5l-0.4-0.1c-0.3-0.1-0.6-0.2-0.8-0.4l-23.6,23.6
		c-5.3,5.4-7.8,12.9-6.8,20.4l1.9,13.3c0.6,0.3,1.1,0.5,1.7,0.8c2.6,1.2,5.2,2.3,7.9,3.2c0.7,0.3,1.4,0.6,2.1,0.8
		c3.4,1.1,6.9,2,10.4,2.7c0.7,0.1,1.4,0.2,2.1,0.3c2.8,0.5,5.7,0.8,8.5,1c1.1,0.1,2.2,0.2,3.4,0.2c2.9,0.1,5.9,0.1,8.8-0.2l0,0
		c0.5,0,1,0,1.5,0C247,327.2,246.5,326.7,245.9,326.3z M247.4,236.9c-0.3-0.5-0.6-1-1-1.5c-0.5-0.7-1.1-1.3-1.9-1.8
		c-0.5-0.4-0.9-0.7-1.5-1c-2-0.8-4.2-0.8-6.2,0c-0.5,0.3-1,0.6-1.5,1c-0.7,0.5-1.2,1-1.7,1.7v0c-0.4,0.5-0.8,1.1-1.1,1.7
		c-0.8,2-0.8,4.2,0,6.2c0.3,0.6,0.7,1.1,1.1,1.6c0.5,0.7,1.1,1.2,1.7,1.7c0.5,0.4,0.9,0.7,1.5,1c2,0.8,4.2,0.8,6.2,0
		c0.5-0.3,1-0.6,1.5-1c0.7-0.5,1.3-1.1,1.9-1.8c0.4-0.5,0.7-0.9,1-1.5C248.2,241.1,248.2,238.9,247.4,236.9z M280.7,174.4l-1.9-13.2
		c-0.6-0.3-1.2-0.6-1.9-0.9c-2-0.9-4.1-1.8-6.1-2.6c-1.1-0.4-2.1-0.8-3.2-1.2c-2.3-0.8-4.7-1.4-7.1-2c-0.8-0.2-1.7-0.5-2.5-0.6
		c-3.2-0.7-6.3-1.1-9.5-1.4c-1.1-0.1-2.3-0.1-3.4-0.2c-2.3-0.2-4.5-0.2-6.8-0.2c-0.4,0-0.8,0-1.2,0c0.2,0.2,0.4,0.5,0.6,0.7
		c1.2,1.3,2.4,2.8,3.4,4.3c0.2,0.4,0.5,0.8,0.8,1.1c1.2,1.9,2.2,3.9,3.1,5.9c0.2,0.5,0.4,1,0.5,1.6c0.6,1.7,1.1,3.4,1.5,5.1
		c0.2,0.6,0.3,1.3,0.4,1.9c0.4,2.3,0.6,4.6,0.7,7v37.6c0.4,0.1,0.7,0.3,1.1,0.5l0.4,0.2c0.3,0.1,0.6,0.2,0.8,0.4l23.6-23.6
		C279.3,189.4,281.8,181.9,280.7,174.4z M302.4,296.9H302c-2.4,0-4.7-0.3-7-0.7c-0.2,0-0.5-0.1-0.7-0.1c-2.3-0.5-4.5-1.1-6.7-2
		c-0.4-0.1-0.7-0.3-1.1-0.4c-2.1-0.9-4.2-2-6.1-3.2l-0.9-0.6c-2-1.4-3.9-2.9-5.6-4.6l-23.6-23.6c-0.3,0.1-0.6,0.2-0.8,0.4l-0.4,0.2
		c-0.4,0.2-0.7,0.3-1.1,0.5V296c0,7.5,3.6,14.7,9.6,19.2l10.7,8c0.2-0.1,0.4-0.2,0.7-0.2c3.3-1.2,6.6-2.5,9.7-4.1l1.1-0.5
		c6.7-3.4,12.9-7.6,18.5-12.6c0.5-0.4,1-0.9,1.5-1.3c2.4-2.2,4.7-4.6,6.9-7.1l0,0c0.2-0.2,0.4-0.5,0.6-0.7
		C305.7,296.8,304,296.9,302.4,296.9z M323,211c-1.2-3.3-2.5-6.6-4.1-9.7c-0.2-0.3-0.3-0.7-0.5-1.1c-3.4-6.7-7.7-12.9-12.7-18.5
		c-0.4-0.5-0.9-1-1.3-1.5c-2.2-2.4-4.6-4.7-7.1-6.9c-0.2-0.2-0.5-0.4-0.7-0.6c0.1,0.7,0.1,1.5,0.2,2.2c0,0.7,0.1,1.4,0.1,2.1
		c0,0.9,0,1.7-0.1,2.5c0,0.7,0,1.4-0.1,2.1c-0.1,0.8-0.2,1.7-0.4,2.5c-0.1,0.7-0.2,1.3-0.3,2c-0.2,0.9-0.4,1.7-0.7,2.5
		c-0.2,0.6-0.3,1.3-0.5,1.9c-0.3,0.8-0.6,1.6-0.9,2.4c-0.3,0.6-0.5,1.3-0.8,1.9c-0.4,0.8-0.8,1.5-1.2,2.3c-0.3,0.6-0.6,1.2-0.9,1.7
		c-0.5,0.8-1,1.6-1.6,2.4c-0.3,0.5-0.6,1-1,1.4c-1,1.2-2,2.4-3.1,3.5l-23.6,23.6c0.1,0.3,0.2,0.6,0.4,0.8l0.2,0.4
		c0.2,0.4,0.3,0.7,0.5,1.1H296c7.5,0,14.7-3.6,19.2-9.6l8-10.6l0-0.1C323.2,211.5,323.1,211.3,323,211z M327.6,232.6
		c-0.4,0.5-0.9,1.1-1.4,1.6l0-0.1c-0.5,0.6-0.8,1-1.4,1.6c-0.6,0.6-1.3,1.2-1.8,1.7c-0.5,0.5-1,0.9-1.6,1.5s-1.4,1-2,1.5
		c-0.6,0.4-1,0.8-1.7,1.3c-0.7,0.4-1.5,0.8-2.2,1.3c-0.6,0.3-1.2,0.7-1.8,1c-0.8,0.4-1.6,0.7-2.4,1c-0.6,0.3-1.2,0.6-1.8,0.8
		c-0.8,0.3-1.7,0.5-2.6,0.8c-0.6,0.2-1.2,0.4-1.8,0.5c-1,0.2-1.9,0.4-2.9,0.5c-0.5,0.1-1,0.2-1.6,0.3c-1.5,0.2-3.1,0.3-4.6,0.3
		h-33.4c-0.1,0.4-0.3,0.8-0.5,1.1l-0.2,0.4c-0.1,0.3-0.2,0.6-0.3,0.8l23.6,23.6c5.4,5.3,12.9,7.8,20.4,6.8l13.2-1.9
		c0.3-0.7,0.6-1.3,1-2c0.8-1.8,1.6-3.6,2.3-5.4c0.4-1,0.8-2.1,1.2-3.2c0.7-2,1.3-4.1,1.8-6.2c0.2-1,0.5-1.9,0.7-2.9
		c0.5-2.3,0.9-4.7,1.2-7.1c0.1-0.8,0.3-1.6,0.4-2.4c0.4-3.2,0.5-6.4,0.5-9.6C328,237.6,327.8,235.1,327.6,232.6z M262,230.5l0.2,0.4
		c0.2,0.4,0.3,0.7,0.5,1.1H296c7.5,0,14.7-3.6,19.2-9.6l8-10.6l0-0.1c0-0.2-0.2-0.4-0.3-0.7c-1.2-3.3-2.5-6.6-4.1-9.7
		c-0.2-0.3-0.3-0.7-0.5-1.1c-3.4-6.7-7.7-12.9-12.7-18.5c-0.4-0.5-0.9-1-1.3-1.5c-2.2-2.4-4.6-4.7-7.1-6.9c-0.2-0.2-0.5-0.4-0.7-0.6
		c0.1,0.7,0.1,1.5,0.2,2.2c0,0.7,0.1,1.4,0.1,2.1c0,0.9,0,1.7-0.1,2.5c0,0.7,0,1.4-0.1,2.1c-0.1,0.8-0.2,1.7-0.4,2.5
		c-0.1,0.7-0.2,1.3-0.3,2c-0.2,0.9-0.4,1.7-0.7,2.5c-0.2,0.6-0.3,1.3-0.5,1.9c-0.3,0.8-0.6,1.6-0.9,2.4c-0.3,0.6-0.5,1.3-0.8,1.9
		c-0.4,0.8-0.8,1.5-1.2,2.3c-0.3,0.6-0.6,1.2-0.9,1.7c-0.5,0.8-1,1.6-1.6,2.4c-0.3,0.5-0.6,1-1,1.4c-1,1.2-2,2.4-3.1,3.5l-23.6,23.6
		C261.8,229.9,261.9,230.2,262,230.5z M302,296.9c-2.4,0-4.7-0.3-7-0.7c-0.2,0-0.5-0.1-0.7-0.1c-2.3-0.5-4.5-1.1-6.7-2
		c-0.4-0.1-0.7-0.3-1.1-0.4c-2.1-0.9-4.2-2-6.1-3.2l-0.9-0.6c-2-1.4-3.9-2.9-5.6-4.6l-23.6-23.6c-0.3,0.1-0.6,0.2-0.8,0.4l-0.4,0.2
		c-0.4,0.2-0.7,0.3-1.1,0.5V296c0,7.5,3.6,14.7,9.6,19.2l10.7,8c0.2-0.1,0.4-0.2,0.7-0.2c3.3-1.2,6.6-2.5,9.7-4.1l1.1-0.5
		c6.7-3.4,12.9-7.6,18.5-12.6c0.5-0.4,1-0.9,1.5-1.3c2.4-2.2,4.7-4.6,6.9-7.1l0,0c0.2-0.2,0.4-0.5,0.6-0.7c-1.6,0.2-3.2,0.3-4.8,0.3
		H302z M241,157.1c0.2,0.4,0.5,0.8,0.8,1.1c1.2,1.9,2.2,3.9,3.1,5.9c0.2,0.5,0.4,1,0.5,1.6c0.6,1.7,1.1,3.4,1.5,5.1
		c0.2,0.6,0.3,1.3,0.4,1.9c0.4,2.3,0.6,4.6,0.7,7v37.6c0.4,0.1,0.7,0.3,1.1,0.5l0.4,0.2c0.3,0.1,0.6,0.2,0.8,0.4l23.6-23.6
		c5.3-5.3,7.8-12.9,6.8-20.4l-1.9-13.2c-0.6-0.3-1.2-0.6-1.9-0.9c-2-0.9-4.1-1.8-6.1-2.6c-1.1-0.4-2.1-0.8-3.2-1.2
		c-2.3-0.8-4.7-1.4-7.1-2c-0.8-0.2-1.7-0.5-2.5-0.6c-3.2-0.7-6.3-1.1-9.5-1.4c-1.1-0.1-2.3-0.1-3.4-0.2c-2.3-0.2-4.5-0.2-6.8-0.2
		c-0.4,0-0.8,0-1.2,0c0.2,0.2,0.4,0.5,0.6,0.7C238.8,154.2,239.9,155.7,241,157.1z M232.6,243.1c0.3,0.6,0.7,1.1,1.1,1.6
		c0.5,0.7,1.1,1.2,1.7,1.7c0.5,0.4,0.9,0.7,1.5,1c2,0.8,4.2,0.8,6.2,0c0.5-0.3,1-0.6,1.5-1c0.7-0.5,1.3-1.1,1.9-1.8
		c0.4-0.5,0.7-0.9,1-1.5c0.8-2,0.8-4.2,0-6.2c-0.3-0.5-0.6-1-1-1.5c-0.5-0.7-1.1-1.3-1.9-1.8c-0.5-0.4-0.9-0.7-1.5-1
		c-2-0.8-4.2-0.8-6.2,0c-0.5,0.3-1,0.6-1.5,1c-0.7,0.5-1.2,1-1.7,1.7v0c-0.4,0.5-0.8,1.1-1.1,1.7
		C231.8,238.9,231.8,241.2,232.6,243.1z M244.3,324.8c-0.6-0.6-1.2-1.3-1.7-1.8c-0.5-0.5-0.9-1-1.5-1.6s-1-1.4-1.5-2
		c-0.5-0.6-0.8-1-1.3-1.7c-0.4-0.7-0.8-1.5-1.2-2.2c-0.3-0.6-0.7-1.2-1-1.8c-0.4-0.8-0.7-1.6-1-2.4c-0.3-0.6-0.6-1.2-0.8-1.8
		c-0.3-0.8-0.6-1.7-0.8-2.6c-0.2-0.6-0.4-1.2-0.5-1.8c-0.2-1-0.4-1.9-0.5-2.9c-0.1-0.5-0.2-1-0.3-1.6c-0.2-1.5-0.3-3.1-0.3-4.6
		v-33.4c-0.4-0.1-0.8-0.3-1.1-0.5l-0.4-0.1c-0.3-0.1-0.6-0.2-0.8-0.4l-23.6,23.6c-5.3,5.4-7.8,12.9-6.8,20.4l1.9,13.3
		c0.6,0.3,1.1,0.5,1.7,0.8c2.6,1.2,5.2,2.3,7.9,3.2c0.7,0.3,1.4,0.6,2.1,0.8c3.4,1.1,6.9,2,10.4,2.7c0.7,0.1,1.4,0.2,2.1,0.3
		c2.8,0.5,5.7,0.8,8.5,1c1.1,0.1,2.2,0.2,3.4,0.2c2.9,0.1,5.9,0.1,8.8-0.2l0,0c0.5,0,1,0,1.5,0c-0.6-0.4-1.1-0.9-1.6-1.4
		C245.4,325.8,244.9,325.4,244.3,324.8z M177.3,183.1h0.4c0.2,0,0.4,0.1,0.6,0.1c2.3,0,4.7,0.3,6.9,0.7l0.4,0c2.3,0.5,4.6,1.2,6.8,2
		c0.4,0.1,0.7,0.3,1.1,0.4c2.1,0.9,4.1,2,6.1,3.2c0.3,0.2,0.6,0.4,0.9,0.7c2,1.3,3.9,2.9,5.6,4.6l23.6,23.6c0.3-0.1,0.6-0.2,0.8-0.3
		l0.4-0.2c0.4-0.2,0.7-0.3,1.1-0.5v-37.6c0-9.1-5.1-17.4-13.3-21.5l-4.6-2.3c-4,1.2-7.8,2.7-11.6,4.5l-0.4,0.2
		c-7.3,3.5-14,8-20.1,13.3c-0.4,0.3-0.8,0.8-1.2,1.1c-2.6,2.4-5.1,4.9-7.5,7.6c-0.2,0.2-0.4,0.4-0.6,0.6c0.5-0.1,1-0.1,1.5-0.1
		C175.2,183.2,176.3,183.1,177.3,183.1z M158.6,241.2c0.6-0.5,1.4-1,2-1.5c0.6-0.4,1-0.8,1.7-1.2c0.7-0.5,1.4-0.8,2.2-1.3
		c0.6-0.3,1.2-0.7,1.8-1c0.8-0.4,1.6-0.7,2.4-1c0.6-0.3,1.2-0.6,1.8-0.8c0.8-0.3,1.7-0.6,2.6-0.8c0.6-0.2,1.2-0.4,1.8-0.5
		c1-0.2,2-0.4,3-0.5c0.5-0.1,1.1-0.2,1.6-0.3c1.5-0.2,3.1-0.3,4.6-0.3h33.4c0.1-0.4,0.3-0.7,0.5-1.1l0.2-0.4
		c0.1-0.2,0.2-0.5,0.4-0.8l-23.6-23.6c-5.3-5.3-12.9-7.8-20.4-6.8l-13.2,1.9c-0.3,0.7-0.7,1.3-1,2c-0.8,1.8-1.6,3.6-2.3,5.5
		c-0.4,1.1-0.8,2.1-1.2,3.2c-0.7,2.1-1.3,4.1-1.8,6.3c-0.2,1-0.5,1.9-0.7,2.8c-0.5,2.3-0.9,4.7-1.2,7.1c-0.1,0.8-0.3,1.5-0.4,2.4
		c-0.4,3.2-0.5,6.4-0.5,9.6c0,2.5,0.2,5,0.4,7.5c0.4-0.5,0.9-1.1,1.4-1.6v0c0.5-0.6,0.8-1,1.4-1.6s1.3-1.2,1.8-1.7
		C157.5,242.1,157.9,241.7,158.6,241.2z M218,249.5l-0.2-0.4c-0.2-0.4-0.3-0.7-0.5-1.1H184c-7.5,0-14.7,3.6-19.2,9.6l-8,10.8
		c0.1,0.2,0.2,0.4,0.2,0.7c1.2,3.3,2.5,6.6,4.1,9.7c0.2,0.3,0.3,0.7,0.5,1c3.4,6.7,7.7,12.9,12.6,18.5c0.4,0.5,0.8,0.9,1.3,1.4
		c2.3,2.5,4.7,4.8,7.2,7c0.2,0.2,0.4,0.4,0.6,0.6c-0.1-0.7-0.1-1.5-0.2-2.2c0-0.7-0.1-1.4-0.1-2.1c0-0.8,0.1-1.7,0.1-2.6
		c0-0.7,0-1.4,0.1-2c0.1-0.9,0.2-1.7,0.4-2.6c0.1-0.6,0.2-1.3,0.3-1.9c0.2-0.9,0.5-1.7,0.7-2.6c0.2-0.6,0.3-1.2,0.5-1.8
		c0.3-0.9,0.7-1.7,1-2.5c0.2-0.6,0.4-1.1,0.7-1.7c0.4-0.9,0.9-1.8,1.4-2.5c0.3-0.5,0.5-1,0.8-1.5c0.5-0.9,1.2-1.8,1.8-2.6
		c0.3-0.4,0.5-0.8,0.8-1.2v-0.1c1-1.2,2-2.4,3.1-3.5l23.6-23.6C218.2,250.1,218.1,249.8,218,249.5z M326.2,234.2L326.2,234.2
		c-0.5,0.5-0.8,0.9-1.4,1.5c-0.6,0.6-1.3,1.2-1.8,1.7c-0.5,0.5-1,0.9-1.6,1.5s-1.4,1-2,1.5c-0.6,0.4-1,0.8-1.7,1.3
		c-0.7,0.4-1.5,0.8-2.2,1.3c-0.6,0.3-1.2,0.7-1.8,1c-0.8,0.4-1.6,0.7-2.4,1c-0.6,0.3-1.2,0.6-1.8,0.8c-0.8,0.3-1.7,0.5-2.6,0.8
		c-0.6,0.2-1.2,0.4-1.8,0.5c-1,0.2-1.9,0.4-2.9,0.5c-0.5,0.1-1,0.2-1.6,0.3c-1.5,0.2-3.1,0.3-4.6,0.3h-33.4
		c-0.1,0.4-0.3,0.8-0.5,1.1l-0.2,0.4c-0.1,0.3-0.2,0.6-0.3,0.8l23.6,23.6c5.4,5.3,12.9,7.8,20.4,6.8l13.2-1.9c0.3-0.7,0.6-1.3,1-2
		c0.8-1.8,1.6-3.6,2.3-5.4c0.4-1,0.8-2.1,1.2-3.2c0.7-2,1.3-4.1,1.8-6.2c0.2-1,0.5-1.9,0.7-2.9c0.5-2.3,0.9-4.7,1.2-7.1
		c0.1-0.8,0.3-1.6,0.4-2.4c0.4-3.2,0.5-6.4,0.5-9.6c0-2.5-0.2-5-0.4-7.5C327.2,233.1,326.7,233.7,326.2,234.2z M240,120
		c-66.3,0-120,53.7-120,120s53.7,120,120,120s120-53.7,120-120C359.9,173.8,306.2,120.1,240,120z M342.8,255.3c-0.4,3-1,6-1.7,8.9
		c-0.3,1.1-0.6,2.3-0.9,3.4c-0.8,2.9-1.7,5.7-2.8,8.5c-0.4,1-0.7,2-1.1,3c-1.5,3.6-3.1,7.2-5,10.6c-0.1,0.1-0.1,0.2-0.2,0.3
		c-1,1.8-2.1,3.4-3.2,5.1c-0.7,1.1-1.3,2.2-2,3.2c-1,1.4-2,2.7-3,4.1c-1.1,1.4-2.1,2.8-3.2,4.1c-0.7,0.9-1.5,1.7-2.3,2.5
		c-1.5,1.7-3.1,3.5-4.8,5.1c-0.5,0.5-0.9,0.8-1.4,1.3c-2,1.9-4.1,3.8-6.3,5.6c-0.2,0.2-0.5,0.3-0.7,0.5c-2.4,1.9-5,3.8-7.6,5.5
		c-0.2,0.1-0.3,0.2-0.5,0.3c-2.7,1.7-5.4,3.4-8.3,4.9l-0.7,0.3c-2.8,1.4-5.6,2.7-8.5,3.9c-0.4,0.2-0.8,0.3-1.2,0.4
		c-2.8,1.1-5.6,2.1-8.5,2.9l-0.2,0.1c-1.5,0.4-3,0.8-4.6,1.2c-2.1,0.5-4.3,1-6.5,1.4c-1.8,0.3-3.6,0.6-5.5,0.8
		c-1.1,0.1-2.2,0.3-3.4,0.4c-3,0.3-6.1,0.5-9.1,0.5c-4.1,0-8.1-0.3-12.1-0.8c-1.1-0.1-2.1-0.3-3.2-0.5c-3-0.4-5.9-1-8.8-1.7
		c-1.2-0.3-2.3-0.6-3.4-0.9c-2.9-0.8-5.7-1.7-8.5-2.8c-1-0.4-2-0.7-3-1.1c-3.6-1.5-7.2-3.1-10.6-5c-0.1,0-0.2-0.1-0.3-0.1
		c-1.6-0.9-3.1-1.9-4.6-2.8c-1.2-0.8-2.4-1.4-3.7-2.3c-1.3-0.9-2.5-1.8-3.7-2.8c-1.5-1.1-3.1-2.2-4.5-3.4c-0.8-0.6-1.5-1.4-2.2-2
		c-1.8-1.6-3.7-3.3-5.4-5c-0.4-0.3-0.7-0.8-1-1.1c-2-2.1-4-4.3-5.8-6.5c-0.1-0.2-0.3-0.4-0.4-0.5c-2-2.5-3.9-5.1-5.6-7.8
		c-0.1-0.1-0.1-0.2-0.2-0.3c-1.8-2.7-3.4-5.5-4.9-8.4c-0.1-0.2-0.2-0.4-0.3-0.6c-1.4-2.8-2.8-5.6-3.9-8.5c-0.2-0.3-0.3-0.8-0.4-1.1
		c-1.1-2.8-2.1-5.6-3-8.5l-0.1-0.2c-0.4-1.5-0.8-3-1.2-4.6c-0.5-2.1-1-4.3-1.4-6.5c-0.3-1.8-0.6-3.6-0.8-5.5
		c-0.1-1.1-0.3-2.2-0.4-3.4c-0.3-3-0.5-6.1-0.5-9.1c0-4,0.3-8.1,0.8-12.1c0.1-1.1,0.3-2.1,0.5-3.2c0.5-3,1-6,1.7-8.9
		c0.3-1.2,0.6-2.3,0.9-3.4c0.8-2.9,1.7-5.7,2.8-8.5c0.4-1,0.7-2,1.1-3c1.5-3.6,3.1-7.2,5-10.6c0.1-0.1,0.1-0.2,0.2-0.3
		c0.8-1.4,1.6-2.5,2.5-4c0.9-1.5,1.7-3,2.7-4.4c0.9-1.3,1.8-2.5,2.8-3.7c1.1-1.5,2.3-3.1,3.5-4.6c0.8-0.9,1.6-1.8,2.4-2.7
		c1.5-1.7,3.1-3.4,4.7-5c0.6-0.6,1.2-1.1,1.9-1.7c2-1.8,4-3.6,6-5.3c0.4-0.3,0.9-0.6,1.3-1c2.4-1.8,4.8-3.5,7.3-5.1
		c0.3-0.2,0.6-0.4,0.9-0.5c2.6-1.7,5.4-3.2,8.2-4.6c0.2-0.1,0.5-0.2,0.7-0.4c2.9-1.4,5.8-2.7,8.8-3.9l0.8-0.3c3-1.2,6.1-2.2,9.2-3
		l0.3-0.1c0.2,0,0.4-0.1,0.6-0.1c2.9-0.8,5.9-1.4,8.9-2c0.6-0.1,1.2-0.2,1.8-0.3c2.6-0.4,5.2-0.8,7.9-1c1.2-0.1,2.4-0.1,3.6-0.2
		c1.5-0.1,3-0.2,4.5-0.2c0.6,0,1.1,0.1,1.7,0.1c1.7,0,3.5,0.1,5.1,0.3c1.6,0.1,3.3,0.2,4.9,0.4c1.9,0.2,3.9,0.6,5.8,0.9
		c1.4,0.2,2.8,0.4,4.2,0.7c2,0.4,4,1,6,1.5c1.2,0.3,2.5,0.6,3.7,1c2.1,0.7,4.2,1.5,6.3,2.3c1,0.4,2.1,0.7,3.1,1.2
		c2.4,1,4.7,2.2,7,3.3c0.7,0.3,1.3,0.6,2,1c0.1,0.1,0.2,0.1,0.4,0.2c1.6,0.9,3.1,1.9,4.7,2.9c1.2,0.7,2.4,1.4,3.6,2.2
		c1.3,0.9,2.5,1.9,3.8,2.9c1.5,1.1,3,2.2,4.4,3.3c0.8,0.7,1.5,1.4,2.3,2.1c1.8,1.6,3.6,3.2,5.3,4.9c0.4,0.4,0.8,0.8,1.1,1.2
		c2,2.1,3.9,4.2,5.7,6.5c0.2,0.2,0.3,0.4,0.5,0.6c2,2.5,3.8,5,5.6,7.7c0.1,0.1,0.2,0.3,0.2,0.4c1.8,2.7,3.4,5.5,4.9,8.3
		c0.1,0.2,0.2,0.5,0.3,0.7c1.4,2.8,2.7,5.6,3.9,8.5c0.2,0.4,0.3,0.8,0.4,1.2c1.1,2.8,2.1,5.6,2.9,8.5l0.1,0.2c0.4,1.5,0.8,3,1.2,4.6
		c0.5,2.1,1,4.3,1.4,6.5c0.3,1.8,0.6,3.6,0.8,5.5c0.1,1.1,0.3,2.2,0.4,3.4c0.3,3,0.5,6.1,0.5,9.1c0,4-0.3,8.1-0.7,12.1
		C343.2,253.2,343,254.2,342.8,255.3z M262,230.5l0.2,0.4c0.2,0.4,0.3,0.7,0.5,1.1H296c7.5,0,14.7-3.6,19.2-9.6l8-10.6l0-0.1
		c0-0.2-0.2-0.4-0.3-0.7c-1.2-3.3-2.5-6.6-4.1-9.7c-0.2-0.3-0.3-0.7-0.5-1.1c-3.4-6.7-7.7-12.9-12.7-18.5c-0.4-0.5-0.9-1-1.3-1.5
		c-2.2-2.4-4.6-4.7-7.1-6.9c-0.2-0.2-0.5-0.4-0.7-0.6c0.1,0.7,0.1,1.5,0.2,2.2c0,0.7,0.1,1.4,0.1,2.1c0,0.9,0,1.7-0.1,2.5
		c0,0.7,0,1.4-0.1,2.1c-0.1,0.8-0.2,1.7-0.4,2.5c-0.1,0.7-0.2,1.3-0.3,2c-0.2,0.9-0.4,1.7-0.7,2.5c-0.2,0.6-0.3,1.3-0.5,1.9
		c-0.3,0.8-0.6,1.6-0.9,2.4c-0.3,0.6-0.5,1.3-0.8,1.9c-0.4,0.8-0.8,1.5-1.2,2.3c-0.3,0.6-0.6,1.2-0.9,1.7c-0.5,0.8-1,1.6-1.6,2.4
		c-0.3,0.5-0.6,1-1,1.4c-1,1.2-2,2.4-3.1,3.5l-23.6,23.6C261.8,229.9,261.9,230.2,262,230.5z M302,296.9c-2.4,0-4.7-0.3-7-0.7
		c-0.2,0-0.5-0.1-0.7-0.1c-2.3-0.5-4.5-1.1-6.7-2c-0.4-0.1-0.7-0.3-1.1-0.4c-2.1-0.9-4.2-2-6.1-3.2l-0.9-0.6c-2-1.4-3.9-2.9-5.6-4.6
		l-23.6-23.6c-0.3,0.1-0.6,0.2-0.8,0.4l-0.4,0.2c-0.4,0.2-0.7,0.3-1.1,0.5V296c0,7.5,3.6,14.7,9.6,19.2l10.7,8
		c0.2-0.1,0.4-0.2,0.7-0.2c3.3-1.2,6.6-2.5,9.7-4.1l1.1-0.5c6.7-3.4,12.9-7.6,18.5-12.6c0.5-0.4,1-0.9,1.5-1.3
		c2.4-2.2,4.7-4.6,6.9-7.1l0,0c0.2-0.2,0.4-0.5,0.6-0.7c-1.6,0.2-3.2,0.3-4.8,0.3H302z M241,157.1c0.2,0.4,0.5,0.8,0.8,1.1
		c1.2,1.9,2.2,3.9,3.1,5.9c0.2,0.5,0.4,1,0.5,1.6c0.6,1.7,1.1,3.4,1.5,5.1c0.2,0.6,0.3,1.3,0.4,1.9c0.4,2.3,0.6,4.6,0.7,7v37.6
		c0.4,0.1,0.7,0.3,1.1,0.5l0.4,0.2c0.3,0.1,0.6,0.2,0.8,0.4l23.6-23.6c5.3-5.3,7.8-12.9,6.8-20.4l-1.9-13.2
		c-0.6-0.3-1.2-0.6-1.9-0.9c-2-0.9-4.1-1.8-6.1-2.6c-1.1-0.4-2.1-0.8-3.2-1.2c-2.3-0.8-4.7-1.4-7.1-2c-0.8-0.2-1.7-0.5-2.5-0.6
		c-3.2-0.7-6.3-1.1-9.5-1.4c-1.1-0.1-2.3-0.1-3.4-0.2c-2.3-0.2-4.5-0.2-6.8-0.2c-0.4,0-0.8,0-1.2,0c0.2,0.2,0.4,0.5,0.6,0.7
		C238.8,154.2,239.9,155.7,241,157.1z M232.6,243.1c0.3,0.6,0.7,1.1,1.1,1.6c0.5,0.7,1.1,1.2,1.7,1.7c0.5,0.4,0.9,0.7,1.5,1
		c2,0.8,4.2,0.8,6.2,0c0.5-0.3,1-0.6,1.5-1c0.7-0.5,1.3-1.1,1.9-1.8c0.4-0.5,0.7-0.9,1-1.5c0.8-2,0.8-4.2,0-6.2
		c-0.3-0.5-0.6-1-1-1.5c-0.5-0.7-1.1-1.3-1.9-1.8c-0.5-0.4-0.9-0.7-1.5-1c-2-0.8-4.2-0.8-6.2,0c-0.5,0.3-1,0.6-1.5,1
		c-0.7,0.5-1.2,1-1.7,1.7v0c-0.4,0.5-0.8,1.1-1.1,1.7C231.8,238.9,231.8,241.2,232.6,243.1z M244.3,324.8c-0.6-0.6-1.2-1.3-1.7-1.8
		c-0.5-0.5-0.9-1-1.5-1.6s-1-1.4-1.5-2c-0.5-0.6-0.8-1-1.3-1.7c-0.4-0.7-0.8-1.5-1.2-2.2c-0.3-0.6-0.7-1.2-1-1.8
		c-0.4-0.8-0.7-1.6-1-2.4c-0.3-0.6-0.6-1.2-0.8-1.8c-0.3-0.8-0.6-1.7-0.8-2.6c-0.2-0.6-0.4-1.2-0.5-1.8c-0.2-1-0.4-1.9-0.5-2.9
		c-0.1-0.5-0.2-1-0.3-1.6c-0.2-1.5-0.3-3.1-0.3-4.6v-33.4c-0.4-0.1-0.8-0.3-1.1-0.5l-0.4-0.1c-0.3-0.1-0.6-0.2-0.8-0.4l-23.6,23.6
		c-5.3,5.4-7.8,12.9-6.8,20.4l1.9,13.3c0.6,0.3,1.1,0.5,1.7,0.8c2.6,1.2,5.2,2.3,7.9,3.2c0.7,0.3,1.4,0.6,2.1,0.8
		c3.4,1.1,6.9,2,10.4,2.7c0.7,0.1,1.4,0.2,2.1,0.3c2.8,0.5,5.7,0.8,8.5,1c1.1,0.1,2.2,0.2,3.4,0.2c2.9,0.1,5.9,0.1,8.8-0.2l0,0
		c0.5,0,1,0,1.5,0c-0.6-0.4-1.1-0.9-1.6-1.4C245.4,325.8,244.9,325.4,244.3,324.8z M177.3,183.1h0.4c0.2,0,0.4,0.1,0.6,0.1
		c2.3,0,4.7,0.3,6.9,0.7l0.4,0c2.3,0.5,4.6,1.2,6.8,2c0.4,0.1,0.7,0.3,1.1,0.4c2.1,0.9,4.1,2,6.1,3.2c0.3,0.2,0.6,0.4,0.9,0.7
		c2,1.3,3.9,2.9,5.6,4.6l23.6,23.6c0.3-0.1,0.6-0.2,0.8-0.3l0.4-0.2c0.4-0.2,0.7-0.3,1.1-0.5v-37.6c0-9.1-5.1-17.4-13.3-21.5
		l-4.6-2.3c-4,1.2-7.8,2.7-11.6,4.5l-0.4,0.2c-7.3,3.5-14,8-20.1,13.3c-0.4,0.3-0.8,0.8-1.2,1.1c-2.6,2.4-5.1,4.9-7.5,7.6
		c-0.2,0.2-0.4,0.4-0.6,0.6c0.5-0.1,1-0.1,1.5-0.1C175.2,183.2,176.3,183.1,177.3,183.1z M158.6,241.2c0.6-0.5,1.4-1,2-1.5
		c0.6-0.4,1-0.8,1.7-1.2c0.7-0.5,1.4-0.8,2.2-1.3c0.6-0.3,1.2-0.7,1.8-1c0.8-0.4,1.6-0.7,2.4-1c0.6-0.3,1.2-0.6,1.8-0.8
		c0.8-0.3,1.7-0.6,2.6-0.8c0.6-0.2,1.2-0.4,1.8-0.5c1-0.2,2-0.4,3-0.5c0.5-0.1,1.1-0.2,1.6-0.3c1.5-0.2,3.1-0.3,4.6-0.3h33.4
		c0.1-0.4,0.3-0.7,0.5-1.1l0.2-0.4c0.1-0.2,0.2-0.5,0.4-0.8l-23.6-23.6c-5.3-5.3-12.9-7.8-20.4-6.8l-13.2,1.9c-0.3,0.7-0.7,1.3-1,2
		c-0.8,1.8-1.6,3.6-2.3,5.5c-0.4,1.1-0.8,2.1-1.2,3.2c-0.7,2.1-1.3,4.1-1.8,6.3c-0.2,1-0.5,1.9-0.7,2.8c-0.5,2.3-0.9,4.7-1.2,7.1
		c-0.1,0.8-0.3,1.5-0.4,2.4c-0.4,3.2-0.5,6.4-0.5,9.6c0,2.5,0.2,5,0.4,7.5c0.4-0.5,0.9-1.1,1.4-1.6v0c0.5-0.6,0.8-1,1.4-1.6
		s1.3-1.2,1.8-1.7C157.5,242.1,157.9,241.7,158.6,241.2z M218,249.5l-0.2-0.4c-0.2-0.4-0.3-0.7-0.5-1.1H184
		c-7.5,0-14.7,3.6-19.2,9.6l-8,10.8c0.1,0.2,0.2,0.4,0.2,0.7c1.2,3.3,2.5,6.6,4.1,9.7c0.2,0.3,0.3,0.7,0.5,1
		c3.4,6.7,7.7,12.9,12.6,18.5c0.4,0.5,0.8,0.9,1.3,1.4c2.3,2.5,4.7,4.8,7.2,7c0.2,0.2,0.4,0.4,0.6,0.6c-0.1-0.7-0.1-1.5-0.2-2.2
		c0-0.7-0.1-1.4-0.1-2.1c0-0.8,0.1-1.7,0.1-2.6c0-0.7,0-1.4,0.1-2c0.1-0.9,0.2-1.7,0.4-2.6c0.1-0.6,0.2-1.3,0.3-1.9
		c0.2-0.9,0.5-1.7,0.7-2.6c0.2-0.6,0.3-1.2,0.5-1.8c0.3-0.9,0.7-1.7,1-2.5c0.2-0.6,0.4-1.1,0.7-1.7c0.4-0.9,0.9-1.8,1.4-2.5
		c0.3-0.5,0.5-1,0.8-1.5c0.5-0.9,1.2-1.8,1.8-2.6c0.3-0.4,0.5-0.8,0.8-1.2v-0.1c1-1.2,2-2.4,3.1-3.5l23.6-23.6
		C218.2,250.1,218.1,249.8,218,249.5z M327.6,232.6c-0.4,0.5-0.9,1.1-1.4,1.6l0-0.1c-0.5,0.6-0.8,1-1.4,1.6
		c-0.6,0.6-1.3,1.2-1.8,1.7c-0.5,0.5-1,0.9-1.6,1.5s-1.4,1-2,1.5c-0.6,0.4-1,0.8-1.7,1.3c-0.7,0.4-1.5,0.8-2.2,1.3
		c-0.6,0.3-1.2,0.7-1.8,1c-0.8,0.4-1.6,0.7-2.4,1c-0.6,0.3-1.2,0.6-1.8,0.8c-0.8,0.3-1.7,0.5-2.6,0.8c-0.6,0.2-1.2,0.4-1.8,0.5
		c-1,0.2-1.9,0.4-2.9,0.5c-0.5,0.1-1,0.2-1.6,0.3c-1.5,0.2-3.1,0.3-4.6,0.3h-33.4c-0.1,0.4-0.3,0.8-0.5,1.1l-0.2,0.4
		c-0.1,0.3-0.2,0.6-0.3,0.8l23.6,23.6c5.4,5.3,12.9,7.8,20.4,6.8l13.2-1.9c0.3-0.7,0.6-1.3,1-2c0.8-1.8,1.6-3.6,2.3-5.4
		c0.4-1,0.8-2.1,1.2-3.2c0.7-2,1.3-4.1,1.8-6.2c0.2-1,0.5-1.9,0.7-2.9c0.5-2.3,0.9-4.7,1.2-7.1c0.1-0.8,0.3-1.6,0.4-2.4
		c0.4-3.2,0.5-6.4,0.5-9.6C328,237.6,327.8,235.1,327.6,232.6z M218,249.5l-0.2-0.4c-0.2-0.4-0.3-0.7-0.5-1.1H184
		c-7.5,0-14.7,3.6-19.2,9.6l-8,10.8c0.1,0.2,0.2,0.4,0.2,0.7c1.2,3.3,2.5,6.6,4.1,9.7c0.2,0.3,0.3,0.7,0.5,1
		c3.4,6.7,7.7,12.9,12.6,18.5c0.4,0.5,0.8,0.9,1.3,1.4c2.3,2.5,4.7,4.8,7.2,7c0.2,0.2,0.4,0.4,0.6,0.6c-0.1-0.7-0.1-1.5-0.2-2.2
		c0-0.7-0.1-1.4-0.1-2.1c0-0.8,0.1-1.7,0.1-2.6c0-0.7,0-1.4,0.1-2c0.1-0.9,0.2-1.7,0.4-2.6c0.1-0.6,0.2-1.3,0.3-1.9
		c0.2-0.9,0.5-1.7,0.7-2.6c0.2-0.6,0.3-1.2,0.5-1.8c0.3-0.9,0.7-1.7,1-2.5c0.2-0.6,0.4-1.1,0.7-1.7c0.4-0.9,0.9-1.8,1.4-2.5
		c0.3-0.5,0.5-1,0.8-1.5c0.5-0.9,1.2-1.8,1.8-2.6c0.3-0.4,0.5-0.8,0.8-1.2v-0.1c1-1.2,2-2.4,3.1-3.5l23.6-23.6
		C218.2,250.1,218.1,249.8,218,249.5z M194.7,206.1c-5.3-5.3-12.9-7.8-20.4-6.8l-13.2,1.9c-0.3,0.7-0.7,1.3-1,2
		c-0.8,1.8-1.6,3.6-2.3,5.5c-0.4,1.1-0.8,2.1-1.2,3.2c-0.7,2.1-1.3,4.1-1.8,6.3c-0.2,1-0.5,1.9-0.7,2.8c-0.5,2.3-0.9,4.7-1.2,7.1
		c-0.1,0.8-0.3,1.5-0.4,2.4c-0.4,3.2-0.5,6.4-0.5,9.6c0,2.5,0.2,5,0.4,7.5c0.4-0.5,0.9-1.1,1.4-1.6v0c0.5-0.6,0.8-1,1.4-1.6
		s1.3-1.2,1.8-1.7c0.6-0.5,1-0.9,1.6-1.4c0.6-0.5,1.4-1,2-1.5c0.6-0.4,1-0.8,1.7-1.2c0.7-0.5,1.4-0.8,2.2-1.3c0.6-0.3,1.2-0.7,1.8-1
		c0.8-0.4,1.6-0.7,2.4-1c0.6-0.3,1.2-0.6,1.8-0.8c0.8-0.3,1.7-0.6,2.6-0.8c0.6-0.2,1.2-0.4,1.8-0.5c1-0.2,2-0.4,3-0.5
		c0.5-0.1,1.1-0.2,1.6-0.3c1.5-0.2,3.1-0.3,4.6-0.3h33.4c0.1-0.4,0.3-0.7,0.5-1.1l0.2-0.4c0.1-0.2,0.2-0.5,0.4-0.8L194.7,206.1z
		 M218.7,158.3l-4.6-2.3c-4,1.2-7.8,2.7-11.6,4.5l-0.4,0.2c-7.3,3.5-14,8-20.1,13.3c-0.4,0.3-0.8,0.8-1.2,1.1
		c-2.6,2.4-5.1,4.9-7.5,7.6c-0.2,0.2-0.4,0.4-0.6,0.6c0.5-0.1,1-0.1,1.5-0.1c1-0.1,2.1-0.2,3.1-0.2h0.4c0.2,0,0.4,0.1,0.6,0.1
		c2.3,0,4.7,0.3,6.9,0.7l0.4,0c2.3,0.5,4.6,1.2,6.8,2c0.4,0.1,0.7,0.3,1.1,0.4c2.1,0.9,4.1,2,6.1,3.2c0.3,0.2,0.6,0.4,0.9,0.7
		c2,1.3,3.9,2.9,5.6,4.6l23.6,23.6c0.3-0.1,0.6-0.2,0.8-0.3l0.4-0.2c0.4-0.2,0.7-0.3,1.1-0.5v-37.6
		C232,170.7,226.9,162.4,218.7,158.3z M245.9,326.3c-0.5-0.5-1-0.9-1.6-1.4c-0.6-0.6-1.2-1.3-1.7-1.8c-0.5-0.5-0.9-1-1.5-1.6
		s-1-1.4-1.5-2c-0.5-0.6-0.8-1-1.3-1.7c-0.4-0.7-0.8-1.5-1.2-2.2c-0.3-0.6-0.7-1.2-1-1.8c-0.4-0.8-0.7-1.6-1-2.4
		c-0.3-0.6-0.6-1.2-0.8-1.8c-0.3-0.8-0.6-1.7-0.8-2.6c-0.2-0.6-0.4-1.2-0.5-1.8c-0.2-1-0.4-1.9-0.5-2.9c-0.1-0.5-0.2-1-0.3-1.6
		c-0.2-1.5-0.3-3.1-0.3-4.6v-33.4c-0.4-0.1-0.8-0.3-1.1-0.5l-0.4-0.1c-0.3-0.1-0.6-0.2-0.8-0.4l-23.6,23.6
		c-5.3,5.4-7.8,12.9-6.8,20.4l1.9,13.3c0.6,0.3,1.1,0.5,1.7,0.8c2.6,1.2,5.2,2.3,7.9,3.2c0.7,0.3,1.4,0.6,2.1,0.8
		c3.4,1.1,6.9,2,10.4,2.7c0.7,0.1,1.4,0.2,2.1,0.3c2.8,0.5,5.7,0.8,8.5,1c1.1,0.1,2.2,0.2,3.4,0.2c2.9,0.1,5.9,0.1,8.8-0.2l0,0
		c0.5,0,1,0,1.5,0C247,327.2,246.5,326.7,245.9,326.3z M247.4,236.9c-0.3-0.5-0.6-1-1-1.5c-0.5-0.7-1.1-1.3-1.9-1.8
		c-0.5-0.4-0.9-0.7-1.5-1c-2-0.8-4.2-0.8-6.2,0c-0.5,0.3-1,0.6-1.5,1c-0.7,0.5-1.2,1-1.7,1.7v0c-0.4,0.5-0.8,1.1-1.1,1.7
		c-0.8,2-0.8,4.2,0,6.2c0.3,0.6,0.7,1.1,1.1,1.6c0.5,0.7,1.1,1.2,1.7,1.7c0.5,0.4,0.9,0.7,1.5,1c2,0.8,4.2,0.8,6.2,0
		c0.5-0.3,1-0.6,1.5-1c0.7-0.5,1.3-1.1,1.9-1.8c0.4-0.5,0.7-0.9,1-1.5C248.2,241.1,248.2,238.9,247.4,236.9z M280.7,174.4l-1.9-13.2
		c-0.6-0.3-1.2-0.6-1.9-0.9c-2-0.9-4.1-1.8-6.1-2.6c-1.1-0.4-2.1-0.8-3.2-1.2c-2.3-0.8-4.7-1.4-7.1-2c-0.8-0.2-1.7-0.5-2.5-0.6
		c-3.2-0.7-6.3-1.1-9.5-1.4c-1.1-0.1-2.3-0.1-3.4-0.2c-2.3-0.2-4.5-0.2-6.8-0.2c-0.4,0-0.8,0-1.2,0c0.2,0.2,0.4,0.5,0.6,0.7
		c1.2,1.3,2.4,2.8,3.4,4.3c0.2,0.4,0.5,0.8,0.8,1.1c1.2,1.9,2.2,3.9,3.1,5.9c0.2,0.5,0.4,1,0.5,1.6c0.6,1.7,1.1,3.4,1.5,5.1
		c0.2,0.6,0.3,1.3,0.4,1.9c0.4,2.3,0.6,4.6,0.7,7v37.6c0.4,0.1,0.7,0.3,1.1,0.5l0.4,0.2c0.3,0.1,0.6,0.2,0.8,0.4l23.6-23.6
		C279.3,189.4,281.8,181.9,280.7,174.4z M302.4,296.9H302c-2.4,0-4.7-0.3-7-0.7c-0.2,0-0.5-0.1-0.7-0.1c-2.3-0.5-4.5-1.1-6.7-2
		c-0.4-0.1-0.7-0.3-1.1-0.4c-2.1-0.9-4.2-2-6.1-3.2l-0.9-0.6c-2-1.4-3.9-2.9-5.6-4.6l-23.6-23.6c-0.3,0.1-0.6,0.2-0.8,0.4l-0.4,0.2
		c-0.4,0.2-0.7,0.3-1.1,0.5V296c0,7.5,3.6,14.7,9.6,19.2l10.7,8c0.2-0.1,0.4-0.2,0.7-0.2c3.3-1.2,6.6-2.5,9.7-4.1l1.1-0.5
		c6.7-3.4,12.9-7.6,18.5-12.6c0.5-0.4,1-0.9,1.5-1.3c2.4-2.2,4.7-4.6,6.9-7.1l0,0c0.2-0.2,0.4-0.5,0.6-0.7
		C305.7,296.8,304,296.9,302.4,296.9z M323,211c-1.2-3.3-2.5-6.6-4.1-9.7c-0.2-0.3-0.3-0.7-0.5-1.1c-3.4-6.7-7.7-12.9-12.7-18.5
		c-0.4-0.5-0.9-1-1.3-1.5c-2.2-2.4-4.6-4.7-7.1-6.9c-0.2-0.2-0.5-0.4-0.7-0.6c0.1,0.7,0.1,1.5,0.2,2.2c0,0.7,0.1,1.4,0.1,2.1
		c0,0.9,0,1.7-0.1,2.5c0,0.7,0,1.4-0.1,2.1c-0.1,0.8-0.2,1.7-0.4,2.5c-0.1,0.7-0.2,1.3-0.3,2c-0.2,0.9-0.4,1.7-0.7,2.5
		c-0.2,0.6-0.3,1.3-0.5,1.9c-0.3,0.8-0.6,1.6-0.9,2.4c-0.3,0.6-0.5,1.3-0.8,1.9c-0.4,0.8-0.8,1.5-1.2,2.3c-0.3,0.6-0.6,1.2-0.9,1.7
		c-0.5,0.8-1,1.6-1.6,2.4c-0.3,0.5-0.6,1-1,1.4c-1,1.2-2,2.4-3.1,3.5l-23.6,23.6c0.1,0.3,0.2,0.6,0.4,0.8l0.2,0.4
		c0.2,0.4,0.3,0.7,0.5,1.1H296c7.5,0,14.7-3.6,19.2-9.6l8-10.6l0-0.1C323.2,211.5,323.1,211.3,323,211z M327.6,232.6
		c-0.4,0.5-0.9,1.1-1.4,1.6l0-0.1c-0.5,0.6-0.8,1-1.4,1.6c-0.6,0.6-1.3,1.2-1.8,1.7c-0.5,0.5-1,0.9-1.6,1.5s-1.4,1-2,1.5
		c-0.6,0.4-1,0.8-1.7,1.3c-0.7,0.4-1.5,0.8-2.2,1.3c-0.6,0.3-1.2,0.7-1.8,1c-0.8,0.4-1.6,0.7-2.4,1c-0.6,0.3-1.2,0.6-1.8,0.8
		c-0.8,0.3-1.7,0.5-2.6,0.8c-0.6,0.2-1.2,0.4-1.8,0.5c-1,0.2-1.9,0.4-2.9,0.5c-0.5,0.1-1,0.2-1.6,0.3c-1.5,0.2-3.1,0.3-4.6,0.3
		h-33.4c-0.1,0.4-0.3,0.8-0.5,1.1l-0.2,0.4c-0.1,0.3-0.2,0.6-0.3,0.8l23.6,23.6c5.4,5.3,12.9,7.8,20.4,6.8l13.2-1.9
		c0.3-0.7,0.6-1.3,1-2c0.8-1.8,1.6-3.6,2.3-5.4c0.4-1,0.8-2.1,1.2-3.2c0.7-2,1.3-4.1,1.8-6.2c0.2-1,0.5-1.9,0.7-2.9
		c0.5-2.3,0.9-4.7,1.2-7.1c0.1-0.8,0.3-1.6,0.4-2.4c0.4-3.2,0.5-6.4,0.5-9.6C328,237.6,327.8,235.1,327.6,232.6z M323,211
		c-1.2-3.3-2.5-6.6-4.1-9.7c-0.2-0.3-0.3-0.7-0.5-1.1c-3.4-6.7-7.7-12.9-12.7-18.5c-0.4-0.5-0.9-1-1.3-1.5c-2.2-2.4-4.6-4.7-7.1-6.9
		c-0.2-0.2-0.5-0.4-0.7-0.6c0.1,0.7,0.1,1.5,0.2,2.2c0,0.7,0.1,1.4,0.1,2.1c0,0.9,0,1.7-0.1,2.5c0,0.7,0,1.4-0.1,2.1
		c-0.1,0.8-0.2,1.7-0.4,2.5c-0.1,0.7-0.2,1.3-0.3,2c-0.2,0.9-0.4,1.7-0.7,2.5c-0.2,0.6-0.3,1.3-0.5,1.9c-0.3,0.8-0.6,1.6-0.9,2.4
		c-0.3,0.6-0.5,1.3-0.8,1.9c-0.4,0.8-0.8,1.5-1.2,2.3c-0.3,0.6-0.6,1.2-0.9,1.7c-0.5,0.8-1,1.6-1.6,2.4c-0.3,0.5-0.6,1-1,1.4
		c-1,1.2-2,2.4-3.1,3.5l-23.6,23.6c0.1,0.3,0.2,0.6,0.4,0.8l0.2,0.4c0.2,0.4,0.3,0.7,0.5,1.1H296c7.5,0,14.7-3.6,19.2-9.6l8-10.6
		l0-0.1C323.2,211.5,323.1,211.3,323,211z M302.4,296.9H302c-2.4,0-4.7-0.3-7-0.7c-0.2,0-0.5-0.1-0.7-0.1c-2.3-0.5-4.5-1.1-6.7-2
		c-0.4-0.1-0.7-0.3-1.1-0.4c-2.1-0.9-4.2-2-6.1-3.2l-0.9-0.6c-2-1.4-3.9-2.9-5.6-4.6l-23.6-23.6c-0.3,0.1-0.6,0.2-0.8,0.4l-0.4,0.2
		c-0.4,0.2-0.7,0.3-1.1,0.5V296c0,7.5,3.6,14.7,9.6,19.2l10.7,8c0.2-0.1,0.4-0.2,0.7-0.2c3.3-1.2,6.6-2.5,9.7-4.1l1.1-0.5
		c6.7-3.4,12.9-7.6,18.5-12.6c0.5-0.4,1-0.9,1.5-1.3c2.4-2.2,4.7-4.6,6.9-7.1l0,0c0.2-0.2,0.4-0.5,0.6-0.7
		C305.7,296.8,304,296.9,302.4,296.9z M280.7,174.4l-1.9-13.2c-0.6-0.3-1.2-0.6-1.9-0.9c-2-0.9-4.1-1.8-6.1-2.6
		c-1.1-0.4-2.1-0.8-3.2-1.2c-2.3-0.8-4.7-1.4-7.1-2c-0.8-0.2-1.7-0.5-2.5-0.6c-3.2-0.7-6.3-1.1-9.5-1.4c-1.1-0.1-2.3-0.1-3.4-0.2
		c-2.3-0.2-4.5-0.2-6.8-0.2c-0.4,0-0.8,0-1.2,0c0.2,0.2,0.4,0.5,0.6,0.7c1.2,1.3,2.4,2.8,3.4,4.3c0.2,0.4,0.5,0.8,0.8,1.1
		c1.2,1.9,2.2,3.9,3.1,5.9c0.2,0.5,0.4,1,0.5,1.6c0.6,1.7,1.1,3.4,1.5,5.1c0.2,0.6,0.3,1.3,0.4,1.9c0.4,2.3,0.6,4.6,0.7,7v37.6
		c0.4,0.1,0.7,0.3,1.1,0.5l0.4,0.2c0.3,0.1,0.6,0.2,0.8,0.4l23.6-23.6C279.3,189.4,281.8,181.9,280.7,174.4z M247.4,236.9
		c-0.3-0.5-0.6-1-1-1.5c-0.5-0.7-1.1-1.3-1.9-1.8c-0.5-0.4-0.9-0.7-1.5-1c-2-0.8-4.2-0.8-6.2,0c-0.5,0.3-1,0.6-1.5,1
		c-0.7,0.5-1.2,1-1.7,1.7v0c-0.4,0.5-0.8,1.1-1.1,1.7c-0.8,2-0.8,4.2,0,6.2c0.3,0.6,0.7,1.1,1.1,1.6c0.5,0.7,1.1,1.2,1.7,1.7
		c0.5,0.4,0.9,0.7,1.5,1c2,0.8,4.2,0.8,6.2,0c0.5-0.3,1-0.6,1.5-1c0.7-0.5,1.3-1.1,1.9-1.8c0.4-0.5,0.7-0.9,1-1.5
		C248.2,241.1,248.2,238.9,247.4,236.9z M245.9,326.3c-0.5-0.5-1-0.9-1.6-1.4c-0.6-0.6-1.2-1.3-1.7-1.8c-0.5-0.5-0.9-1-1.5-1.6
		s-1-1.4-1.5-2c-0.5-0.6-0.8-1-1.3-1.7c-0.4-0.7-0.8-1.5-1.2-2.2c-0.3-0.6-0.7-1.2-1-1.8c-0.4-0.8-0.7-1.6-1-2.4
		c-0.3-0.6-0.6-1.2-0.8-1.8c-0.3-0.8-0.6-1.7-0.8-2.6c-0.2-0.6-0.4-1.2-0.5-1.8c-0.2-1-0.4-1.9-0.5-2.9c-0.1-0.5-0.2-1-0.3-1.6
		c-0.2-1.5-0.3-3.1-0.3-4.6v-33.4c-0.4-0.1-0.8-0.3-1.1-0.5l-0.4-0.1c-0.3-0.1-0.6-0.2-0.8-0.4l-23.6,23.6
		c-5.3,5.4-7.8,12.9-6.8,20.4l1.9,13.3c0.6,0.3,1.1,0.5,1.7,0.8c2.6,1.2,5.2,2.3,7.9,3.2c0.7,0.3,1.4,0.6,2.1,0.8
		c3.4,1.1,6.9,2,10.4,2.7c0.7,0.1,1.4,0.2,2.1,0.3c2.8,0.5,5.7,0.8,8.5,1c1.1,0.1,2.2,0.2,3.4,0.2c2.9,0.1,5.9,0.1,8.8-0.2l0,0
		c0.5,0,1,0,1.5,0C247,327.2,246.5,326.7,245.9,326.3z M218.7,158.3l-4.6-2.3c-4,1.2-7.8,2.7-11.6,4.5l-0.4,0.2
		c-7.3,3.5-14,8-20.1,13.3c-0.4,0.3-0.8,0.8-1.2,1.1c-2.6,2.4-5.1,4.9-7.5,7.6c-0.2,0.2-0.4,0.4-0.6,0.6c0.5-0.1,1-0.1,1.5-0.1
		c1-0.1,2.1-0.2,3.1-0.2h0.4c0.2,0,0.4,0.1,0.6,0.1c2.3,0,4.7,0.3,6.9,0.7l0.4,0c2.3,0.5,4.6,1.2,6.8,2c0.4,0.1,0.7,0.3,1.1,0.4
		c2.1,0.9,4.1,2,6.1,3.2c0.3,0.2,0.6,0.4,0.9,0.7c2,1.3,3.9,2.9,5.6,4.6l23.6,23.6c0.3-0.1,0.6-0.2,0.8-0.3l0.4-0.2
		c0.4-0.2,0.7-0.3,1.1-0.5v-37.6C232,170.7,226.9,162.4,218.7,158.3z M194.7,206.1c-5.3-5.3-12.9-7.8-20.4-6.8l-13.2,1.9
		c-0.3,0.7-0.7,1.3-1,2c-0.8,1.8-1.6,3.6-2.3,5.5c-0.4,1.1-0.8,2.1-1.2,3.2c-0.7,2.1-1.3,4.1-1.8,6.3c-0.2,1-0.5,1.9-0.7,2.8
		c-0.5,2.3-0.9,4.7-1.2,7.1c-0.1,0.8-0.3,1.5-0.4,2.4c-0.4,3.2-0.5,6.4-0.5,9.6c0,2.5,0.2,5,0.4,7.5c0.4-0.5,0.9-1.1,1.4-1.6v0
		c0.5-0.6,0.8-1,1.4-1.6s1.3-1.2,1.8-1.7c0.6-0.5,1-0.9,1.6-1.4c0.6-0.5,1.4-1,2-1.5c0.6-0.4,1-0.8,1.7-1.2c0.7-0.5,1.4-0.8,2.2-1.3
		c0.6-0.3,1.2-0.7,1.8-1c0.8-0.4,1.6-0.7,2.4-1c0.6-0.3,1.2-0.6,1.8-0.8c0.8-0.3,1.7-0.6,2.6-0.8c0.6-0.2,1.2-0.4,1.8-0.5
		c1-0.2,2-0.4,3-0.5c0.5-0.1,1.1-0.2,1.6-0.3c1.5-0.2,3.1-0.3,4.6-0.3h33.4c0.1-0.4,0.3-0.7,0.5-1.1l0.2-0.4
		c0.1-0.2,0.2-0.5,0.4-0.8L194.7,206.1z M218,249.5l-0.2-0.4c-0.2-0.4-0.3-0.7-0.5-1.1H184c-7.5,0-14.7,3.6-19.2,9.6l-8,10.8
		c0.1,0.2,0.2,0.4,0.2,0.7c1.2,3.3,2.5,6.6,4.1,9.7c0.2,0.3,0.3,0.7,0.5,1c3.4,6.7,7.7,12.9,12.6,18.5c0.4,0.5,0.8,0.9,1.3,1.4
		c2.3,2.5,4.7,4.8,7.2,7c0.2,0.2,0.4,0.4,0.6,0.6c-0.1-0.7-0.1-1.5-0.2-2.2c0-0.7-0.1-1.4-0.1-2.1c0-0.8,0.1-1.7,0.1-2.6
		c0-0.7,0-1.4,0.1-2c0.1-0.9,0.2-1.7,0.4-2.6c0.1-0.6,0.2-1.3,0.3-1.9c0.2-0.9,0.5-1.7,0.7-2.6c0.2-0.6,0.3-1.2,0.5-1.8
		c0.3-0.9,0.7-1.7,1-2.5c0.2-0.6,0.4-1.1,0.7-1.7c0.4-0.9,0.9-1.8,1.4-2.5c0.3-0.5,0.5-1,0.8-1.5c0.5-0.9,1.2-1.8,1.8-2.6
		c0.3-0.4,0.5-0.8,0.8-1.2v-0.1c1-1.2,2-2.4,3.1-3.5l23.6-23.6C218.2,250.1,218.1,249.8,218,249.5z M327.6,232.6
		c-0.4,0.5-0.9,1.1-1.4,1.6l0-0.1c-0.5,0.6-0.8,1-1.4,1.6c-0.6,0.6-1.3,1.2-1.8,1.7c-0.5,0.5-1,0.9-1.6,1.5s-1.4,1-2,1.5
		c-0.6,0.4-1,0.8-1.7,1.3c-0.7,0.4-1.5,0.8-2.2,1.3c-0.6,0.3-1.2,0.7-1.8,1c-0.8,0.4-1.6,0.7-2.4,1c-0.6,0.3-1.2,0.6-1.8,0.8
		c-0.8,0.3-1.7,0.5-2.6,0.8c-0.6,0.2-1.2,0.4-1.8,0.5c-1,0.2-1.9,0.4-2.9,0.5c-0.5,0.1-1,0.2-1.6,0.3c-1.5,0.2-3.1,0.3-4.6,0.3
		h-33.4c-0.1,0.4-0.3,0.8-0.5,1.1l-0.2,0.4c-0.1,0.3-0.2,0.6-0.3,0.8l23.6,23.6c5.4,5.3,12.9,7.8,20.4,6.8l13.2-1.9
		c0.3-0.7,0.6-1.3,1-2c0.8-1.8,1.6-3.6,2.3-5.4c0.4-1,0.8-2.1,1.2-3.2c0.7-2,1.3-4.1,1.8-6.2c0.2-1,0.5-1.9,0.7-2.9
		c0.5-2.3,0.9-4.7,1.2-7.1c0.1-0.8,0.3-1.6,0.4-2.4c0.4-3.2,0.5-6.4,0.5-9.6C328,237.6,327.8,235.1,327.6,232.6z M433.8,396.6
		l-12-40c-0.8,1.2-1.6,2.4-2.4,3.6l-0.8,1.1c-15.3,22.6-34.8,42-57.3,57.3l-1.1,0.8c-1.2,0.8-2.4,1.6-3.6,2.4l40,12
		c5.6,1.7,11.6,1.7,17.2,0C429.6,429.1,438.6,412.4,433.8,396.6z M419.5,152h-76c43.3,50.9,43.3,125.8,0,176.7
		c-48.8,57.4-134.8,64.3-192.2,15.5C93.9,295.4,87,209.4,135.8,152c48.8-57.4,134.9-64.3,192.2-15.5V136h72V40H240
		c-32.8,0-65.2,8.1-94.1,23.6c-3.6,1.9-7,3.9-10.4,6c-1.5,0.9-2.9,1.9-4.4,2.8c-2.1,1.3-4.1,2.8-6.1,4.2c-2.8,2-5.6,4-8.3,6.2
		c-1.5,1.1-2.9,2.3-4.4,3.5c-2,1.7-4,3.4-6,5.2c-0.9,0.8-1.7,1.6-2.6,2.4c-3.5,3.2-6.8,6.6-10,10c-0.8,0.9-1.6,1.7-2.4,2.6
		c-1.8,2-3.5,3.9-5.2,6c-1.2,1.4-2.3,2.9-3.5,4.4c-2.1,2.7-4.2,5.5-6.2,8.3c-1.4,2-2.8,4.1-4.2,6.1c-0.9,1.4-1.9,2.9-2.8,4.4
		c-2.1,3.4-4.1,6.9-6,10.4C48.1,174.8,40,207.2,40,240c0,2.6,0.1,5.1,0.2,7.7c1.1,28.1,8.1,55.7,20.6,81l0.2,0.5
		c1.5,3.1,3.2,6.2,4.9,9.2c0.4,0.7,0.8,1.4,1.2,2.1c1.5,2.5,3,5,4.6,7.4c0.5,0.8,1,1.7,1.6,2.5c1.7,2.5,3.4,5,5.2,7.4
		c0.4,0.6,0.9,1.2,1.3,1.8c2,2.8,4.2,5.5,6.4,8.1c1.1,1.3,2.2,2.6,3.4,3.9c1.2,1.4,2.4,2.7,3.6,4.1c1.3,1.4,2.6,2.8,4,4.2
		c1.1,1.2,2.3,2.3,3.5,3.5c1.4,1.4,2.8,2.8,4.3,4.1c1.2,1.1,2.5,2.2,3.8,3.3c2.4,2.1,4.8,4.1,7.3,6c1.6,1.3,3.2,2.6,4.9,3.8
		c1.4,1,2.8,2,4.2,3c1.7,1.2,3.3,2.3,5,3.5c61.1,40.3,139.4,43.9,203.9,9.4c3.6-1.9,7-3.9,10.4-6c1.5-0.9,2.9-1.9,4.4-2.8
		c2.1-1.3,4.1-2.8,6.1-4.2c2.8-2,5.6-4,8.3-6.2c1.5-1.1,2.9-2.3,4.4-3.5c2-1.7,4-3.4,6-5.2c0.9-0.8,1.7-1.6,2.6-2.4
		c3.5-3.2,6.8-6.6,10-10c0.8-0.9,1.6-1.7,2.4-2.6c1.8-2,3.5-3.9,5.2-6c1.2-1.4,2.3-2.9,3.5-4.4c2.1-2.7,4.2-5.5,6.2-8.3
		c1.4-2,2.8-4.1,4.2-6.1c0.9-1.4,1.9-2.9,2.8-4.4c2.1-3.4,4.1-6.9,6-10.4c15.5-28.9,23.6-61.3,23.6-94.1
		C440.1,209.5,433,179.4,419.5,152z M256,56h16v16h-16V56z M72,240H56c0.1-101.6,82.4-183.9,184-184v16
		C147.3,72.1,72.1,147.3,72,240z M416,40v96h48V40H416z M218,249.5l-0.2-0.4c-0.2-0.4-0.3-0.7-0.5-1.1H184c-7.5,0-14.7,3.6-19.2,9.6
		l-8,10.8c0.1,0.2,0.2,0.4,0.2,0.7c1.2,3.3,2.5,6.6,4.1,9.7c0.2,0.3,0.3,0.7,0.5,1c3.4,6.7,7.7,12.9,12.6,18.5
		c0.4,0.5,0.8,0.9,1.3,1.4c2.3,2.5,4.7,4.8,7.2,7c0.2,0.2,0.4,0.4,0.6,0.6c-0.1-0.7-0.1-1.5-0.2-2.2c0-0.7-0.1-1.4-0.1-2.1
		c0-0.8,0.1-1.7,0.1-2.6c0-0.7,0-1.4,0.1-2c0.1-0.9,0.2-1.7,0.4-2.6c0.1-0.6,0.2-1.3,0.3-1.9c0.2-0.9,0.5-1.7,0.7-2.6
		c0.2-0.6,0.3-1.2,0.5-1.8c0.3-0.9,0.7-1.7,1-2.5c0.2-0.6,0.4-1.1,0.7-1.7c0.4-0.9,0.9-1.8,1.4-2.5c0.3-0.5,0.5-1,0.8-1.5
		c0.5-0.9,1.2-1.8,1.8-2.6c0.3-0.4,0.5-0.8,0.8-1.2v-0.1c1-1.2,2-2.4,3.1-3.5l23.6-23.6C218.2,250.1,218.1,249.8,218,249.5z
		 M194.7,206.1c-5.3-5.3-12.9-7.8-20.4-6.8l-13.2,1.9c-0.3,0.7-0.7,1.3-1,2c-0.8,1.8-1.6,3.6-2.3,5.5c-0.4,1.1-0.8,2.1-1.2,3.2
		c-0.7,2.1-1.3,4.1-1.8,6.3c-0.2,1-0.5,1.9-0.7,2.8c-0.5,2.3-0.9,4.7-1.2,7.1c-0.1,0.8-0.3,1.5-0.4,2.4c-0.4,3.2-0.5,6.4-0.5,9.6
		c0,2.5,0.2,5,0.4,7.5c0.4-0.5,0.9-1.1,1.4-1.6v0c0.5-0.6,0.8-1,1.4-1.6s1.3-1.2,1.8-1.7c0.6-0.5,1-0.9,1.6-1.4c0.6-0.5,1.4-1,2-1.5
		c0.6-0.4,1-0.8,1.7-1.2c0.7-0.5,1.4-0.8,2.2-1.3c0.6-0.3,1.2-0.7,1.8-1c0.8-0.4,1.6-0.7,2.4-1c0.6-0.3,1.2-0.6,1.8-0.8
		c0.8-0.3,1.7-0.6,2.6-0.8c0.6-0.2,1.2-0.4,1.8-0.5c1-0.2,2-0.4,3-0.5c0.5-0.1,1.1-0.2,1.6-0.3c1.5-0.2,3.1-0.3,4.6-0.3h33.4
		c0.1-0.4,0.3-0.7,0.5-1.1l0.2-0.4c0.1-0.2,0.2-0.5,0.4-0.8L194.7,206.1z M218.7,158.3l-4.6-2.3c-4,1.2-7.8,2.7-11.6,4.5l-0.4,0.2
		c-7.3,3.5-14,8-20.1,13.3c-0.4,0.3-0.8,0.8-1.2,1.1c-2.6,2.4-5.1,4.9-7.5,7.6c-0.2,0.2-0.4,0.4-0.6,0.6c0.5-0.1,1-0.1,1.5-0.1
		c1-0.1,2.1-0.2,3.1-0.2h0.4c0.2,0,0.4,0.1,0.6,0.1c2.3,0,4.7,0.3,6.9,0.7l0.4,0c2.3,0.5,4.6,1.2,6.8,2c0.4,0.1,0.7,0.3,1.1,0.4
		c2.1,0.9,4.1,2,6.1,3.2c0.3,0.2,0.6,0.4,0.9,0.7c2,1.3,3.9,2.9,5.6,4.6l23.6,23.6c0.3-0.1,0.6-0.2,0.8-0.3l0.4-0.2
		c0.4-0.2,0.7-0.3,1.1-0.5v-37.6C232,170.7,226.9,162.4,218.7,158.3z M245.9,326.3c-0.5-0.5-1-0.9-1.6-1.4c-0.6-0.6-1.2-1.3-1.7-1.8
		c-0.5-0.5-0.9-1-1.5-1.6s-1-1.4-1.5-2c-0.5-0.6-0.8-1-1.3-1.7c-0.4-0.7-0.8-1.5-1.2-2.2c-0.3-0.6-0.7-1.2-1-1.8
		c-0.4-0.8-0.7-1.6-1-2.4c-0.3-0.6-0.6-1.2-0.8-1.8c-0.3-0.8-0.6-1.7-0.8-2.6c-0.2-0.6-0.4-1.2-0.5-1.8c-0.2-1-0.4-1.9-0.5-2.9
		c-0.1-0.5-0.2-1-0.3-1.6c-0.2-1.5-0.3-3.1-0.3-4.6v-33.4c-0.4-0.1-0.8-0.3-1.1-0.5l-0.4-0.1c-0.3-0.1-0.6-0.2-0.8-0.4l-23.6,23.6
		c-5.3,5.4-7.8,12.9-6.8,20.4l1.9,13.3c0.6,0.3,1.1,0.5,1.7,0.8c2.6,1.2,5.2,2.3,7.9,3.2c0.7,0.3,1.4,0.6,2.1,0.8
		c3.4,1.1,6.9,2,10.4,2.7c0.7,0.1,1.4,0.2,2.1,0.3c2.8,0.5,5.7,0.8,8.5,1c1.1,0.1,2.2,0.2,3.4,0.2c2.9,0.1,5.9,0.1,8.8-0.2l0,0
		c0.5,0,1,0,1.5,0C247,327.2,246.5,326.7,245.9,326.3z M247.4,236.9c-0.3-0.5-0.6-1-1-1.5c-0.5-0.7-1.1-1.3-1.9-1.8
		c-0.5-0.4-0.9-0.7-1.5-1c-2-0.8-4.2-0.8-6.2,0c-0.5,0.3-1,0.6-1.5,1c-0.7,0.5-1.2,1-1.7,1.7v0c-0.4,0.5-0.8,1.1-1.1,1.7
		c-0.8,2-0.8,4.2,0,6.2c0.3,0.6,0.7,1.1,1.1,1.6c0.5,0.7,1.1,1.2,1.7,1.7c0.5,0.4,0.9,0.7,1.5,1c2,0.8,4.2,0.8,6.2,0
		c0.5-0.3,1-0.6,1.5-1c0.7-0.5,1.3-1.1,1.9-1.8c0.4-0.5,0.7-0.9,1-1.5C248.2,241.1,248.2,238.9,247.4,236.9z M280.7,174.4l-1.9-13.2
		c-0.6-0.3-1.2-0.6-1.9-0.9c-2-0.9-4.1-1.8-6.1-2.6c-1.1-0.4-2.1-0.8-3.2-1.2c-2.3-0.8-4.7-1.4-7.1-2c-0.8-0.2-1.7-0.5-2.5-0.6
		c-3.2-0.7-6.3-1.1-9.5-1.4c-1.1-0.1-2.3-0.1-3.4-0.2c-2.3-0.2-4.5-0.2-6.8-0.2c-0.4,0-0.8,0-1.2,0c0.2,0.2,0.4,0.5,0.6,0.7
		c1.2,1.3,2.4,2.8,3.4,4.3c0.2,0.4,0.5,0.8,0.8,1.1c1.2,1.9,2.2,3.9,3.1,5.9c0.2,0.5,0.4,1,0.5,1.6c0.6,1.7,1.1,3.4,1.5,5.1
		c0.2,0.6,0.3,1.3,0.4,1.9c0.4,2.3,0.6,4.6,0.7,7v37.6c0.4,0.1,0.7,0.3,1.1,0.5l0.4,0.2c0.3,0.1,0.6,0.2,0.8,0.4l23.6-23.6
		C279.3,189.4,281.8,181.9,280.7,174.4z M302.4,296.9H302c-2.4,0-4.7-0.3-7-0.7c-0.2,0-0.5-0.1-0.7-0.1c-2.3-0.5-4.5-1.1-6.7-2
		c-0.4-0.1-0.7-0.3-1.1-0.4c-2.1-0.9-4.2-2-6.1-3.2l-0.9-0.6c-2-1.4-3.9-2.9-5.6-4.6l-23.6-23.6c-0.3,0.1-0.6,0.2-0.8,0.4l-0.4,0.2
		c-0.4,0.2-0.7,0.3-1.1,0.5V296c0,7.5,3.6,14.7,9.6,19.2l10.7,8c0.2-0.1,0.4-0.2,0.7-0.2c3.3-1.2,6.6-2.5,9.7-4.1l1.1-0.5
		c6.7-3.4,12.9-7.6,18.5-12.6c0.5-0.4,1-0.9,1.5-1.3c2.4-2.2,4.7-4.6,6.9-7.1l0,0c0.2-0.2,0.4-0.5,0.6-0.7
		C305.7,296.8,304,296.9,302.4,296.9z M323,211c-1.2-3.3-2.5-6.6-4.1-9.7c-0.2-0.3-0.3-0.7-0.5-1.1c-3.4-6.7-7.7-12.9-12.7-18.5
		c-0.4-0.5-0.9-1-1.3-1.5c-2.2-2.4-4.6-4.7-7.1-6.9c-0.2-0.2-0.5-0.4-0.7-0.6c0.1,0.7,0.1,1.5,0.2,2.2c0,0.7,0.1,1.4,0.1,2.1
		c0,0.9,0,1.7-0.1,2.5c0,0.7,0,1.4-0.1,2.1c-0.1,0.8-0.2,1.7-0.4,2.5c-0.1,0.7-0.2,1.3-0.3,2c-0.2,0.9-0.4,1.7-0.7,2.5
		c-0.2,0.6-0.3,1.3-0.5,1.9c-0.3,0.8-0.6,1.6-0.9,2.4c-0.3,0.6-0.5,1.3-0.8,1.9c-0.4,0.8-0.8,1.5-1.2,2.3c-0.3,0.6-0.6,1.2-0.9,1.7
		c-0.5,0.8-1,1.6-1.6,2.4c-0.3,0.5-0.6,1-1,1.4c-1,1.2-2,2.4-3.1,3.5l-23.6,23.6c0.1,0.3,0.2,0.6,0.4,0.8l0.2,0.4
		c0.2,0.4,0.3,0.7,0.5,1.1H296c7.5,0,14.7-3.6,19.2-9.6l8-10.6l0-0.1C323.2,211.5,323.1,211.3,323,211z M327.6,232.6
		c-0.4,0.5-0.9,1.1-1.4,1.6l0-0.1c-0.5,0.6-0.8,1-1.4,1.6c-0.6,0.6-1.3,1.2-1.8,1.7c-0.5,0.5-1,0.9-1.6,1.5s-1.4,1-2,1.5
		c-0.6,0.4-1,0.8-1.7,1.3c-0.7,0.4-1.5,0.8-2.2,1.3c-0.6,0.3-1.2,0.7-1.8,1c-0.8,0.4-1.6,0.7-2.4,1c-0.6,0.3-1.2,0.6-1.8,0.8
		c-0.8,0.3-1.7,0.5-2.6,0.8c-0.6,0.2-1.2,0.4-1.8,0.5c-1,0.2-1.9,0.4-2.9,0.5c-0.5,0.1-1,0.2-1.6,0.3c-1.5,0.2-3.1,0.3-4.6,0.3
		h-33.4c-0.1,0.4-0.3,0.8-0.5,1.1l-0.2,0.4c-0.1,0.3-0.2,0.6-0.3,0.8l23.6,23.6c5.4,5.3,12.9,7.8,20.4,6.8l13.2-1.9
		c0.3-0.7,0.6-1.3,1-2c0.8-1.8,1.6-3.6,2.3-5.4c0.4-1,0.8-2.1,1.2-3.2c0.7-2,1.3-4.1,1.8-6.2c0.2-1,0.5-1.9,0.7-2.9
		c0.5-2.3,0.9-4.7,1.2-7.1c0.1-0.8,0.3-1.6,0.4-2.4c0.4-3.2,0.5-6.4,0.5-9.6C328,237.6,327.8,235.1,327.6,232.6z M327.6,232.6
		c-0.4,0.5-0.9,1.1-1.4,1.6l0-0.1c-0.5,0.6-0.8,1-1.4,1.6c-0.6,0.6-1.3,1.2-1.8,1.7c-0.5,0.5-1,0.9-1.6,1.5s-1.4,1-2,1.5
		c-0.6,0.4-1,0.8-1.7,1.3c-0.7,0.4-1.5,0.8-2.2,1.3c-0.6,0.3-1.2,0.7-1.8,1c-0.8,0.4-1.6,0.7-2.4,1c-0.6,0.3-1.2,0.6-1.8,0.8
		c-0.8,0.3-1.7,0.5-2.6,0.8c-0.6,0.2-1.2,0.4-1.8,0.5c-1,0.2-1.9,0.4-2.9,0.5c-0.5,0.1-1,0.2-1.6,0.3c-1.5,0.2-3.1,0.3-4.6,0.3
		h-33.4c-0.1,0.4-0.3,0.8-0.5,1.1l-0.2,0.4c-0.1,0.3-0.2,0.6-0.3,0.8l23.6,23.6c5.4,5.3,12.9,7.8,20.4,6.8l13.2-1.9
		c0.3-0.7,0.6-1.3,1-2c0.8-1.8,1.6-3.6,2.3-5.4c0.4-1,0.8-2.1,1.2-3.2c0.7-2,1.3-4.1,1.8-6.2c0.2-1,0.5-1.9,0.7-2.9
		c0.5-2.3,0.9-4.7,1.2-7.1c0.1-0.8,0.3-1.6,0.4-2.4c0.4-3.2,0.5-6.4,0.5-9.6C328,237.6,327.8,235.1,327.6,232.6z M323,211
		c-1.2-3.3-2.5-6.6-4.1-9.7c-0.2-0.3-0.3-0.7-0.5-1.1c-3.4-6.7-7.7-12.9-12.7-18.5c-0.4-0.5-0.9-1-1.3-1.5c-2.2-2.4-4.6-4.7-7.1-6.9
		c-0.2-0.2-0.5-0.4-0.7-0.6c0.1,0.7,0.1,1.5,0.2,2.2c0,0.7,0.1,1.4,0.1,2.1c0,0.9,0,1.7-0.1,2.5c0,0.7,0,1.4-0.1,2.1
		c-0.1,0.8-0.2,1.7-0.4,2.5c-0.1,0.7-0.2,1.3-0.3,2c-0.2,0.9-0.4,1.7-0.7,2.5c-0.2,0.6-0.3,1.3-0.5,1.9c-0.3,0.8-0.6,1.6-0.9,2.4
		c-0.3,0.6-0.5,1.3-0.8,1.9c-0.4,0.8-0.8,1.5-1.2,2.3c-0.3,0.6-0.6,1.2-0.9,1.7c-0.5,0.8-1,1.6-1.6,2.4c-0.3,0.5-0.6,1-1,1.4
		c-1,1.2-2,2.4-3.1,3.5l-23.6,23.6c0.1,0.3,0.2,0.6,0.4,0.8l0.2,0.4c0.2,0.4,0.3,0.7,0.5,1.1H296c7.5,0,14.7-3.6,19.2-9.6l8-10.6
		l0-0.1C323.2,211.5,323.1,211.3,323,211z M302.4,296.9H302c-2.4,0-4.7-0.3-7-0.7c-0.2,0-0.5-0.1-0.7-0.1c-2.3-0.5-4.5-1.1-6.7-2
		c-0.4-0.1-0.7-0.3-1.1-0.4c-2.1-0.9-4.2-2-6.1-3.2l-0.9-0.6c-2-1.4-3.9-2.9-5.6-4.6l-23.6-23.6c-0.3,0.1-0.6,0.2-0.8,0.4l-0.4,0.2
		c-0.4,0.2-0.7,0.3-1.1,0.5V296c0,7.5,3.6,14.7,9.6,19.2l10.7,8c0.2-0.1,0.4-0.2,0.7-0.2c3.3-1.2,6.6-2.5,9.7-4.1l1.1-0.5
		c6.7-3.4,12.9-7.6,18.5-12.6c0.5-0.4,1-0.9,1.5-1.3c2.4-2.2,4.7-4.6,6.9-7.1l0,0c0.2-0.2,0.4-0.5,0.6-0.7
		C305.7,296.8,304,296.9,302.4,296.9z M280.7,174.4l-1.9-13.2c-0.6-0.3-1.2-0.6-1.9-0.9c-2-0.9-4.1-1.8-6.1-2.6
		c-1.1-0.4-2.1-0.8-3.2-1.2c-2.3-0.8-4.7-1.4-7.1-2c-0.8-0.2-1.7-0.5-2.5-0.6c-3.2-0.7-6.3-1.1-9.5-1.4c-1.1-0.1-2.3-0.1-3.4-0.2
		c-2.3-0.2-4.5-0.2-6.8-0.2c-0.4,0-0.8,0-1.2,0c0.2,0.2,0.4,0.5,0.6,0.7c1.2,1.3,2.4,2.8,3.4,4.3c0.2,0.4,0.5,0.8,0.8,1.1
		c1.2,1.9,2.2,3.9,3.1,5.9c0.2,0.5,0.4,1,0.5,1.6c0.6,1.7,1.1,3.4,1.5,5.1c0.2,0.6,0.3,1.3,0.4,1.9c0.4,2.3,0.6,4.6,0.7,7v37.6
		c0.4,0.1,0.7,0.3,1.1,0.5l0.4,0.2c0.3,0.1,0.6,0.2,0.8,0.4l23.6-23.6C279.3,189.4,281.8,181.9,280.7,174.4z M247.4,236.9
		c-0.3-0.5-0.6-1-1-1.5c-0.5-0.7-1.1-1.3-1.9-1.8c-0.5-0.4-0.9-0.7-1.5-1c-2-0.8-4.2-0.8-6.2,0c-0.5,0.3-1,0.6-1.5,1
		c-0.7,0.5-1.2,1-1.7,1.7v0c-0.4,0.5-0.8,1.1-1.1,1.7c-0.8,2-0.8,4.2,0,6.2c0.3,0.6,0.7,1.1,1.1,1.6c0.5,0.7,1.1,1.2,1.7,1.7
		c0.5,0.4,0.9,0.7,1.5,1c2,0.8,4.2,0.8,6.2,0c0.5-0.3,1-0.6,1.5-1c0.7-0.5,1.3-1.1,1.9-1.8c0.4-0.5,0.7-0.9,1-1.5
		C248.2,241.1,248.2,238.9,247.4,236.9z M245.9,326.3c-0.5-0.5-1-0.9-1.6-1.4c-0.6-0.6-1.2-1.3-1.7-1.8c-0.5-0.5-0.9-1-1.5-1.6
		s-1-1.4-1.5-2c-0.5-0.6-0.8-1-1.3-1.7c-0.4-0.7-0.8-1.5-1.2-2.2c-0.3-0.6-0.7-1.2-1-1.8c-0.4-0.8-0.7-1.6-1-2.4
		c-0.3-0.6-0.6-1.2-0.8-1.8c-0.3-0.8-0.6-1.7-0.8-2.6c-0.2-0.6-0.4-1.2-0.5-1.8c-0.2-1-0.4-1.9-0.5-2.9c-0.1-0.5-0.2-1-0.3-1.6
		c-0.2-1.5-0.3-3.1-0.3-4.6v-33.4c-0.4-0.1-0.8-0.3-1.1-0.5l-0.4-0.1c-0.3-0.1-0.6-0.2-0.8-0.4l-23.6,23.6
		c-5.3,5.4-7.8,12.9-6.8,20.4l1.9,13.3c0.6,0.3,1.1,0.5,1.7,0.8c2.6,1.2,5.2,2.3,7.9,3.2c0.7,0.3,1.4,0.6,2.1,0.8
		c3.4,1.1,6.9,2,10.4,2.7c0.7,0.1,1.4,0.2,2.1,0.3c2.8,0.5,5.7,0.8,8.5,1c1.1,0.1,2.2,0.2,3.4,0.2c2.9,0.1,5.9,0.1,8.8-0.2l0,0
		c0.5,0,1,0,1.5,0C247,327.2,246.5,326.7,245.9,326.3z M218.7,158.3l-4.6-2.3c-4,1.2-7.8,2.7-11.6,4.5l-0.4,0.2
		c-7.3,3.5-14,8-20.1,13.3c-0.4,0.3-0.8,0.8-1.2,1.1c-2.6,2.4-5.1,4.9-7.5,7.6c-0.2,0.2-0.4,0.4-0.6,0.6c0.5-0.1,1-0.1,1.5-0.1
		c1-0.1,2.1-0.2,3.1-0.2h0.4c0.2,0,0.4,0.1,0.6,0.1c2.3,0,4.7,0.3,6.9,0.7l0.4,0c2.3,0.5,4.6,1.2,6.8,2c0.4,0.1,0.7,0.3,1.1,0.4
		c2.1,0.9,4.1,2,6.1,3.2c0.3,0.2,0.6,0.4,0.9,0.7c2,1.3,3.9,2.9,5.6,4.6l23.6,23.6c0.3-0.1,0.6-0.2,0.8-0.3l0.4-0.2
		c0.4-0.2,0.7-0.3,1.1-0.5v-37.6C232,170.7,226.9,162.4,218.7,158.3z M194.7,206.1c-5.3-5.3-12.9-7.8-20.4-6.8l-13.2,1.9
		c-0.3,0.7-0.7,1.3-1,2c-0.8,1.8-1.6,3.6-2.3,5.5c-0.4,1.1-0.8,2.1-1.2,3.2c-0.7,2.1-1.3,4.1-1.8,6.3c-0.2,1-0.5,1.9-0.7,2.8
		c-0.5,2.3-0.9,4.7-1.2,7.1c-0.1,0.8-0.3,1.5-0.4,2.4c-0.4,3.2-0.5,6.4-0.5,9.6c0,2.5,0.2,5,0.4,7.5c0.4-0.5,0.9-1.1,1.4-1.6v0
		c0.5-0.6,0.8-1,1.4-1.6s1.3-1.2,1.8-1.7c0.6-0.5,1-0.9,1.6-1.4c0.6-0.5,1.4-1,2-1.5c0.6-0.4,1-0.8,1.7-1.2c0.7-0.5,1.4-0.8,2.2-1.3
		c0.6-0.3,1.2-0.7,1.8-1c0.8-0.4,1.6-0.7,2.4-1c0.6-0.3,1.2-0.6,1.8-0.8c0.8-0.3,1.7-0.6,2.6-0.8c0.6-0.2,1.2-0.4,1.8-0.5
		c1-0.2,2-0.4,3-0.5c0.5-0.1,1.1-0.2,1.6-0.3c1.5-0.2,3.1-0.3,4.6-0.3h33.4c0.1-0.4,0.3-0.7,0.5-1.1l0.2-0.4
		c0.1-0.2,0.2-0.5,0.4-0.8L194.7,206.1z M218,249.5l-0.2-0.4c-0.2-0.4-0.3-0.7-0.5-1.1H184c-7.5,0-14.7,3.6-19.2,9.6l-8,10.8
		c0.1,0.2,0.2,0.4,0.2,0.7c1.2,3.3,2.5,6.6,4.1,9.7c0.2,0.3,0.3,0.7,0.5,1c3.4,6.7,7.7,12.9,12.6,18.5c0.4,0.5,0.8,0.9,1.3,1.4
		c2.3,2.5,4.7,4.8,7.2,7c0.2,0.2,0.4,0.4,0.6,0.6c-0.1-0.7-0.1-1.5-0.2-2.2c0-0.7-0.1-1.4-0.1-2.1c0-0.8,0.1-1.7,0.1-2.6
		c0-0.7,0-1.4,0.1-2c0.1-0.9,0.2-1.7,0.4-2.6c0.1-0.6,0.2-1.3,0.3-1.9c0.2-0.9,0.5-1.7,0.7-2.6c0.2-0.6,0.3-1.2,0.5-1.8
		c0.3-0.9,0.7-1.7,1-2.5c0.2-0.6,0.4-1.1,0.7-1.7c0.4-0.9,0.9-1.8,1.4-2.5c0.3-0.5,0.5-1,0.8-1.5c0.5-0.9,1.2-1.8,1.8-2.6
		c0.3-0.4,0.5-0.8,0.8-1.2v-0.1c1-1.2,2-2.4,3.1-3.5l23.6-23.6C218.2,250.1,218.1,249.8,218,249.5z M218,249.5l-0.2-0.4
		c-0.2-0.4-0.3-0.7-0.5-1.1H184c-7.5,0-14.7,3.6-19.2,9.6l-8,10.8c0.1,0.2,0.2,0.4,0.2,0.7c1.2,3.3,2.5,6.6,4.1,9.7
		c0.2,0.3,0.3,0.7,0.5,1c3.4,6.7,7.7,12.9,12.6,18.5c0.4,0.5,0.8,0.9,1.3,1.4c2.3,2.5,4.7,4.8,7.2,7c0.2,0.2,0.4,0.4,0.6,0.6
		c-0.1-0.7-0.1-1.5-0.2-2.2c0-0.7-0.1-1.4-0.1-2.1c0-0.8,0.1-1.7,0.1-2.6c0-0.7,0-1.4,0.1-2c0.1-0.9,0.2-1.7,0.4-2.6
		c0.1-0.6,0.2-1.3,0.3-1.9c0.2-0.9,0.5-1.7,0.7-2.6c0.2-0.6,0.3-1.2,0.5-1.8c0.3-0.9,0.7-1.7,1-2.5c0.2-0.6,0.4-1.1,0.7-1.7
		c0.4-0.9,0.9-1.8,1.4-2.5c0.3-0.5,0.5-1,0.8-1.5c0.5-0.9,1.2-1.8,1.8-2.6c0.3-0.4,0.5-0.8,0.8-1.2v-0.1c1-1.2,2-2.4,3.1-3.5
		l23.6-23.6C218.2,250.1,218.1,249.8,218,249.5z M194.7,206.1c-5.3-5.3-12.9-7.8-20.4-6.8l-13.2,1.9c-0.3,0.7-0.7,1.3-1,2
		c-0.8,1.8-1.6,3.6-2.3,5.5c-0.4,1.1-0.8,2.1-1.2,3.2c-0.7,2.1-1.3,4.1-1.8,6.3c-0.2,1-0.5,1.9-0.7,2.8c-0.5,2.3-0.9,4.7-1.2,7.1
		c-0.1,0.8-0.3,1.5-0.4,2.4c-0.4,3.2-0.5,6.4-0.5,9.6c0,2.5,0.2,5,0.4,7.5c0.4-0.5,0.9-1.1,1.4-1.6v0c0.5-0.6,0.8-1,1.4-1.6
		s1.3-1.2,1.8-1.7c0.6-0.5,1-0.9,1.6-1.4c0.6-0.5,1.4-1,2-1.5c0.6-0.4,1-0.8,1.7-1.2c0.7-0.5,1.4-0.8,2.2-1.3c0.6-0.3,1.2-0.7,1.8-1
		c0.8-0.4,1.6-0.7,2.4-1c0.6-0.3,1.2-0.6,1.8-0.8c0.8-0.3,1.7-0.6,2.6-0.8c0.6-0.2,1.2-0.4,1.8-0.5c1-0.2,2-0.4,3-0.5
		c0.5-0.1,1.1-0.2,1.6-0.3c1.5-0.2,3.1-0.3,4.6-0.3h33.4c0.1-0.4,0.3-0.7,0.5-1.1l0.2-0.4c0.1-0.2,0.2-0.5,0.4-0.8L194.7,206.1z
		 M218.7,158.3l-4.6-2.3c-4,1.2-7.8,2.7-11.6,4.5l-0.4,0.2c-7.3,3.5-14,8-20.1,13.3c-0.4,0.3-0.8,0.8-1.2,1.1
		c-2.6,2.4-5.1,4.9-7.5,7.6c-0.2,0.2-0.4,0.4-0.6,0.6c0.5-0.1,1-0.1,1.5-0.1c1-0.1,2.1-0.2,3.1-0.2h0.4c0.2,0,0.4,0.1,0.6,0.1
		c2.3,0,4.7,0.3,6.9,0.7l0.4,0c2.3,0.5,4.6,1.2,6.8,2c0.4,0.1,0.7,0.3,1.1,0.4c2.1,0.9,4.1,2,6.1,3.2c0.3,0.2,0.6,0.4,0.9,0.7
		c2,1.3,3.9,2.9,5.6,4.6l23.6,23.6c0.3-0.1,0.6-0.2,0.8-0.3l0.4-0.2c0.4-0.2,0.7-0.3,1.1-0.5v-37.6
		C232,170.7,226.9,162.4,218.7,158.3z M245.9,326.3c-0.5-0.5-1-0.9-1.6-1.4c-0.6-0.6-1.2-1.3-1.7-1.8c-0.5-0.5-0.9-1-1.5-1.6
		s-1-1.4-1.5-2c-0.5-0.6-0.8-1-1.3-1.7c-0.4-0.7-0.8-1.5-1.2-2.2c-0.3-0.6-0.7-1.2-1-1.8c-0.4-0.8-0.7-1.6-1-2.4
		c-0.3-0.6-0.6-1.2-0.8-1.8c-0.3-0.8-0.6-1.7-0.8-2.6c-0.2-0.6-0.4-1.2-0.5-1.8c-0.2-1-0.4-1.9-0.5-2.9c-0.1-0.5-0.2-1-0.3-1.6
		c-0.2-1.5-0.3-3.1-0.3-4.6v-33.4c-0.4-0.1-0.8-0.3-1.1-0.5l-0.4-0.1c-0.3-0.1-0.6-0.2-0.8-0.4l-23.6,23.6
		c-5.3,5.4-7.8,12.9-6.8,20.4l1.9,13.3c0.6,0.3,1.1,0.5,1.7,0.8c2.6,1.2,5.2,2.3,7.9,3.2c0.7,0.3,1.4,0.6,2.1,0.8
		c3.4,1.1,6.9,2,10.4,2.7c0.7,0.1,1.4,0.2,2.1,0.3c2.8,0.5,5.7,0.8,8.5,1c1.1,0.1,2.2,0.2,3.4,0.2c2.9,0.1,5.9,0.1,8.8-0.2l0,0
		c0.5,0,1,0,1.5,0C247,327.2,246.5,326.7,245.9,326.3z M247.4,236.9c-0.3-0.5-0.6-1-1-1.5c-0.5-0.7-1.1-1.3-1.9-1.8
		c-0.5-0.4-0.9-0.7-1.5-1c-2-0.8-4.2-0.8-6.2,0c-0.5,0.3-1,0.6-1.5,1c-0.7,0.5-1.2,1-1.7,1.7v0c-0.4,0.5-0.8,1.1-1.1,1.7
		c-0.8,2-0.8,4.2,0,6.2c0.3,0.6,0.7,1.1,1.1,1.6c0.5,0.7,1.1,1.2,1.7,1.7c0.5,0.4,0.9,0.7,1.5,1c2,0.8,4.2,0.8,6.2,0
		c0.5-0.3,1-0.6,1.5-1c0.7-0.5,1.3-1.1,1.9-1.8c0.4-0.5,0.7-0.9,1-1.5C248.2,241.1,248.2,238.9,247.4,236.9z M280.7,174.4l-1.9-13.2
		c-0.6-0.3-1.2-0.6-1.9-0.9c-2-0.9-4.1-1.8-6.1-2.6c-1.1-0.4-2.1-0.8-3.2-1.2c-2.3-0.8-4.7-1.4-7.1-2c-0.8-0.2-1.7-0.5-2.5-0.6
		c-3.2-0.7-6.3-1.1-9.5-1.4c-1.1-0.1-2.3-0.1-3.4-0.2c-2.3-0.2-4.5-0.2-6.8-0.2c-0.4,0-0.8,0-1.2,0c0.2,0.2,0.4,0.5,0.6,0.7
		c1.2,1.3,2.4,2.8,3.4,4.3c0.2,0.4,0.5,0.8,0.8,1.1c1.2,1.9,2.2,3.9,3.1,5.9c0.2,0.5,0.4,1,0.5,1.6c0.6,1.7,1.1,3.4,1.5,5.1
		c0.2,0.6,0.3,1.3,0.4,1.9c0.4,2.3,0.6,4.6,0.7,7v37.6c0.4,0.1,0.7,0.3,1.1,0.5l0.4,0.2c0.3,0.1,0.6,0.2,0.8,0.4l23.6-23.6
		C279.3,189.4,281.8,181.9,280.7,174.4z M302.4,296.9H302c-2.4,0-4.7-0.3-7-0.7c-0.2,0-0.5-0.1-0.7-0.1c-2.3-0.5-4.5-1.1-6.7-2
		c-0.4-0.1-0.7-0.3-1.1-0.4c-2.1-0.9-4.2-2-6.1-3.2l-0.9-0.6c-2-1.4-3.9-2.9-5.6-4.6l-23.6-23.6c-0.3,0.1-0.6,0.2-0.8,0.4l-0.4,0.2
		c-0.4,0.2-0.7,0.3-1.1,0.5V296c0,7.5,3.6,14.7,9.6,19.2l10.7,8c0.2-0.1,0.4-0.2,0.7-0.2c3.3-1.2,6.6-2.5,9.7-4.1l1.1-0.5
		c6.7-3.4,12.9-7.6,18.5-12.6c0.5-0.4,1-0.9,1.5-1.3c2.4-2.2,4.7-4.6,6.9-7.1l0,0c0.2-0.2,0.4-0.5,0.6-0.7
		C305.7,296.8,304,296.9,302.4,296.9z M323,211c-1.2-3.3-2.5-6.6-4.1-9.7c-0.2-0.3-0.3-0.7-0.5-1.1c-3.4-6.7-7.7-12.9-12.7-18.5
		c-0.4-0.5-0.9-1-1.3-1.5c-2.2-2.4-4.6-4.7-7.1-6.9c-0.2-0.2-0.5-0.4-0.7-0.6c0.1,0.7,0.1,1.5,0.2,2.2c0,0.7,0.1,1.4,0.1,2.1
		c0,0.9,0,1.7-0.1,2.5c0,0.7,0,1.4-0.1,2.1c-0.1,0.8-0.2,1.7-0.4,2.5c-0.1,0.7-0.2,1.3-0.3,2c-0.2,0.9-0.4,1.7-0.7,2.5
		c-0.2,0.6-0.3,1.3-0.5,1.9c-0.3,0.8-0.6,1.6-0.9,2.4c-0.3,0.6-0.5,1.3-0.8,1.9c-0.4,0.8-0.8,1.5-1.2,2.3c-0.3,0.6-0.6,1.2-0.9,1.7
		c-0.5,0.8-1,1.6-1.6,2.4c-0.3,0.5-0.6,1-1,1.4c-1,1.2-2,2.4-3.1,3.5l-23.6,23.6c0.1,0.3,0.2,0.6,0.4,0.8l0.2,0.4
		c0.2,0.4,0.3,0.7,0.5,1.1H296c7.5,0,14.7-3.6,19.2-9.6l8-10.6l0-0.1C323.2,211.5,323.1,211.3,323,211z M327.6,232.6
		c-0.4,0.5-0.9,1.1-1.4,1.6l0-0.1c-0.5,0.6-0.8,1-1.4,1.6c-0.6,0.6-1.3,1.2-1.8,1.7c-0.5,0.5-1,0.9-1.6,1.5s-1.4,1-2,1.5
		c-0.6,0.4-1,0.8-1.7,1.3c-0.7,0.4-1.5,0.8-2.2,1.3c-0.6,0.3-1.2,0.7-1.8,1c-0.8,0.4-1.6,0.7-2.4,1c-0.6,0.3-1.2,0.6-1.8,0.8
		c-0.8,0.3-1.7,0.5-2.6,0.8c-0.6,0.2-1.2,0.4-1.8,0.5c-1,0.2-1.9,0.4-2.9,0.5c-0.5,0.1-1,0.2-1.6,0.3c-1.5,0.2-3.1,0.3-4.6,0.3
		h-33.4c-0.1,0.4-0.3,0.8-0.5,1.1l-0.2,0.4c-0.1,0.3-0.2,0.6-0.3,0.8l23.6,23.6c5.4,5.3,12.9,7.8,20.4,6.8l13.2-1.9
		c0.3-0.7,0.6-1.3,1-2c0.8-1.8,1.6-3.6,2.3-5.4c0.4-1,0.8-2.1,1.2-3.2c0.7-2,1.3-4.1,1.8-6.2c0.2-1,0.5-1.9,0.7-2.9
		c0.5-2.3,0.9-4.7,1.2-7.1c0.1-0.8,0.3-1.6,0.4-2.4c0.4-3.2,0.5-6.4,0.5-9.6C328,237.6,327.8,235.1,327.6,232.6z M327.6,232.6
		c-0.4,0.5-0.9,1.1-1.4,1.6l0-0.1c-0.5,0.6-0.8,1-1.4,1.6c-0.6,0.6-1.3,1.2-1.8,1.7c-0.5,0.5-1,0.9-1.6,1.5s-1.4,1-2,1.5
		c-0.6,0.4-1,0.8-1.7,1.3c-0.7,0.4-1.5,0.8-2.2,1.3c-0.6,0.3-1.2,0.7-1.8,1c-0.8,0.4-1.6,0.7-2.4,1c-0.6,0.3-1.2,0.6-1.8,0.8
		c-0.8,0.3-1.7,0.5-2.6,0.8c-0.6,0.2-1.2,0.4-1.8,0.5c-1,0.2-1.9,0.4-2.9,0.5c-0.5,0.1-1,0.2-1.6,0.3c-1.5,0.2-3.1,0.3-4.6,0.3
		h-33.4c-0.1,0.4-0.3,0.8-0.5,1.1l-0.2,0.4c-0.1,0.3-0.2,0.6-0.3,0.8l23.6,23.6c5.4,5.3,12.9,7.8,20.4,6.8l13.2-1.9
		c0.3-0.7,0.6-1.3,1-2c0.8-1.8,1.6-3.6,2.3-5.4c0.4-1,0.8-2.1,1.2-3.2c0.7-2,1.3-4.1,1.8-6.2c0.2-1,0.5-1.9,0.7-2.9
		c0.5-2.3,0.9-4.7,1.2-7.1c0.1-0.8,0.3-1.6,0.4-2.4c0.4-3.2,0.5-6.4,0.5-9.6C328,237.6,327.8,235.1,327.6,232.6z M323,211
		c-1.2-3.3-2.5-6.6-4.1-9.7c-0.2-0.3-0.3-0.7-0.5-1.1c-3.4-6.7-7.7-12.9-12.7-18.5c-0.4-0.5-0.9-1-1.3-1.5c-2.2-2.4-4.6-4.7-7.1-6.9
		c-0.2-0.2-0.5-0.4-0.7-0.6c0.1,0.7,0.1,1.5,0.2,2.2c0,0.7,0.1,1.4,0.1,2.1c0,0.9,0,1.7-0.1,2.5c0,0.7,0,1.4-0.1,2.1
		c-0.1,0.8-0.2,1.7-0.4,2.5c-0.1,0.7-0.2,1.3-0.3,2c-0.2,0.9-0.4,1.7-0.7,2.5c-0.2,0.6-0.3,1.3-0.5,1.9c-0.3,0.8-0.6,1.6-0.9,2.4
		c-0.3,0.6-0.5,1.3-0.8,1.9c-0.4,0.8-0.8,1.5-1.2,2.3c-0.3,0.6-0.6,1.2-0.9,1.7c-0.5,0.8-1,1.6-1.6,2.4c-0.3,0.5-0.6,1-1,1.4
		c-1,1.2-2,2.4-3.1,3.5l-23.6,23.6c0.1,0.3,0.2,0.6,0.4,0.8l0.2,0.4c0.2,0.4,0.3,0.7,0.5,1.1H296c7.5,0,14.7-3.6,19.2-9.6l8-10.6
		l0-0.1C323.2,211.5,323.1,211.3,323,211z M302.4,296.9H302c-2.4,0-4.7-0.3-7-0.7c-0.2,0-0.5-0.1-0.7-0.1c-2.3-0.5-4.5-1.1-6.7-2
		c-0.4-0.1-0.7-0.3-1.1-0.4c-2.1-0.9-4.2-2-6.1-3.2l-0.9-0.6c-2-1.4-3.9-2.9-5.6-4.6l-23.6-23.6c-0.3,0.1-0.6,0.2-0.8,0.4l-0.4,0.2
		c-0.4,0.2-0.7,0.3-1.1,0.5V296c0,7.5,3.6,14.7,9.6,19.2l10.7,8c0.2-0.1,0.4-0.2,0.7-0.2c3.3-1.2,6.6-2.5,9.7-4.1l1.1-0.5
		c6.7-3.4,12.9-7.6,18.5-12.6c0.5-0.4,1-0.9,1.5-1.3c2.4-2.2,4.7-4.6,6.9-7.1l0,0c0.2-0.2,0.4-0.5,0.6-0.7
		C305.7,296.8,304,296.9,302.4,296.9z M280.7,174.4l-1.9-13.2c-0.6-0.3-1.2-0.6-1.9-0.9c-2-0.9-4.1-1.8-6.1-2.6
		c-1.1-0.4-2.1-0.8-3.2-1.2c-2.3-0.8-4.7-1.4-7.1-2c-0.8-0.2-1.7-0.5-2.5-0.6c-3.2-0.7-6.3-1.1-9.5-1.4c-1.1-0.1-2.3-0.1-3.4-0.2
		c-2.3-0.2-4.5-0.2-6.8-0.2c-0.4,0-0.8,0-1.2,0c0.2,0.2,0.4,0.5,0.6,0.7c1.2,1.3,2.4,2.8,3.4,4.3c0.2,0.4,0.5,0.8,0.8,1.1
		c1.2,1.9,2.2,3.9,3.1,5.9c0.2,0.5,0.4,1,0.5,1.6c0.6,1.7,1.1,3.4,1.5,5.1c0.2,0.6,0.3,1.3,0.4,1.9c0.4,2.3,0.6,4.6,0.7,7v37.6
		c0.4,0.1,0.7,0.3,1.1,0.5l0.4,0.2c0.3,0.1,0.6,0.2,0.8,0.4l23.6-23.6C279.3,189.4,281.8,181.9,280.7,174.4z M247.4,236.9
		c-0.3-0.5-0.6-1-1-1.5c-0.5-0.7-1.1-1.3-1.9-1.8c-0.5-0.4-0.9-0.7-1.5-1c-2-0.8-4.2-0.8-6.2,0c-0.5,0.3-1,0.6-1.5,1
		c-0.7,0.5-1.2,1-1.7,1.7v0c-0.4,0.5-0.8,1.1-1.1,1.7c-0.8,2-0.8,4.2,0,6.2c0.3,0.6,0.7,1.1,1.1,1.6c0.5,0.7,1.1,1.2,1.7,1.7
		c0.5,0.4,0.9,0.7,1.5,1c2,0.8,4.2,0.8,6.2,0c0.5-0.3,1-0.6,1.5-1c0.7-0.5,1.3-1.1,1.9-1.8c0.4-0.5,0.7-0.9,1-1.5
		C248.2,241.1,248.2,238.9,247.4,236.9z M245.9,326.3c-0.5-0.5-1-0.9-1.6-1.4c-0.6-0.6-1.2-1.3-1.7-1.8c-0.5-0.5-0.9-1-1.5-1.6
		s-1-1.4-1.5-2c-0.5-0.6-0.8-1-1.3-1.7c-0.4-0.7-0.8-1.5-1.2-2.2c-0.3-0.6-0.7-1.2-1-1.8c-0.4-0.8-0.7-1.6-1-2.4
		c-0.3-0.6-0.6-1.2-0.8-1.8c-0.3-0.8-0.6-1.7-0.8-2.6c-0.2-0.6-0.4-1.2-0.5-1.8c-0.2-1-0.4-1.9-0.5-2.9c-0.1-0.5-0.2-1-0.3-1.6
		c-0.2-1.5-0.3-3.1-0.3-4.6v-33.4c-0.4-0.1-0.8-0.3-1.1-0.5l-0.4-0.1c-0.3-0.1-0.6-0.2-0.8-0.4l-23.6,23.6
		c-5.3,5.4-7.8,12.9-6.8,20.4l1.9,13.3c0.6,0.3,1.1,0.5,1.7,0.8c2.6,1.2,5.2,2.3,7.9,3.2c0.7,0.3,1.4,0.6,2.1,0.8
		c3.4,1.1,6.9,2,10.4,2.7c0.7,0.1,1.4,0.2,2.1,0.3c2.8,0.5,5.7,0.8,8.5,1c1.1,0.1,2.2,0.2,3.4,0.2c2.9,0.1,5.9,0.1,8.8-0.2l0,0
		c0.5,0,1,0,1.5,0C247,327.2,246.5,326.7,245.9,326.3z M218.7,158.3l-4.6-2.3c-4,1.2-7.8,2.7-11.6,4.5l-0.4,0.2
		c-7.3,3.5-14,8-20.1,13.3c-0.4,0.3-0.8,0.8-1.2,1.1c-2.6,2.4-5.1,4.9-7.5,7.6c-0.2,0.2-0.4,0.4-0.6,0.6c0.5-0.1,1-0.1,1.5-0.1
		c1-0.1,2.1-0.2,3.1-0.2h0.4c0.2,0,0.4,0.1,0.6,0.1c2.3,0,4.7,0.3,6.9,0.7l0.4,0c2.3,0.5,4.6,1.2,6.8,2c0.4,0.1,0.7,0.3,1.1,0.4
		c2.1,0.9,4.1,2,6.1,3.2c0.3,0.2,0.6,0.4,0.9,0.7c2,1.3,3.9,2.9,5.6,4.6l23.6,23.6c0.3-0.1,0.6-0.2,0.8-0.3l0.4-0.2
		c0.4-0.2,0.7-0.3,1.1-0.5v-37.6C232,170.7,226.9,162.4,218.7,158.3z M194.7,206.1c-5.3-5.3-12.9-7.8-20.4-6.8l-13.2,1.9
		c-0.3,0.7-0.7,1.3-1,2c-0.8,1.8-1.6,3.6-2.3,5.5c-0.4,1.1-0.8,2.1-1.2,3.2c-0.7,2.1-1.3,4.1-1.8,6.3c-0.2,1-0.5,1.9-0.7,2.8
		c-0.5,2.3-0.9,4.7-1.2,7.1c-0.1,0.8-0.3,1.5-0.4,2.4c-0.4,3.2-0.5,6.4-0.5,9.6c0,2.5,0.2,5,0.4,7.5c0.4-0.5,0.9-1.1,1.4-1.6v0
		c0.5-0.6,0.8-1,1.4-1.6s1.3-1.2,1.8-1.7c0.6-0.5,1-0.9,1.6-1.4c0.6-0.5,1.4-1,2-1.5c0.6-0.4,1-0.8,1.7-1.2c0.7-0.5,1.4-0.8,2.2-1.3
		c0.6-0.3,1.2-0.7,1.8-1c0.8-0.4,1.6-0.7,2.4-1c0.6-0.3,1.2-0.6,1.8-0.8c0.8-0.3,1.7-0.6,2.6-0.8c0.6-0.2,1.2-0.4,1.8-0.5
		c1-0.2,2-0.4,3-0.5c0.5-0.1,1.1-0.2,1.6-0.3c1.5-0.2,3.1-0.3,4.6-0.3h33.4c0.1-0.4,0.3-0.7,0.5-1.1l0.2-0.4
		c0.1-0.2,0.2-0.5,0.4-0.8L194.7,206.1z M218,249.5l-0.2-0.4c-0.2-0.4-0.3-0.7-0.5-1.1H184c-7.5,0-14.7,3.6-19.2,9.6l-8,10.8
		c0.1,0.2,0.2,0.4,0.2,0.7c1.2,3.3,2.5,6.6,4.1,9.7c0.2,0.3,0.3,0.7,0.5,1c3.4,6.7,7.7,12.9,12.6,18.5c0.4,0.5,0.8,0.9,1.3,1.4
		c2.3,2.5,4.7,4.8,7.2,7c0.2,0.2,0.4,0.4,0.6,0.6c-0.1-0.7-0.1-1.5-0.2-2.2c0-0.7-0.1-1.4-0.1-2.1c0-0.8,0.1-1.7,0.1-2.6
		c0-0.7,0-1.4,0.1-2c0.1-0.9,0.2-1.7,0.4-2.6c0.1-0.6,0.2-1.3,0.3-1.9c0.2-0.9,0.5-1.7,0.7-2.6c0.2-0.6,0.3-1.2,0.5-1.8
		c0.3-0.9,0.7-1.7,1-2.5c0.2-0.6,0.4-1.1,0.7-1.7c0.4-0.9,0.9-1.8,1.4-2.5c0.3-0.5,0.5-1,0.8-1.5c0.5-0.9,1.2-1.8,1.8-2.6
		c0.3-0.4,0.5-0.8,0.8-1.2v-0.1c1-1.2,2-2.4,3.1-3.5l23.6-23.6C218.2,250.1,218.1,249.8,218,249.5z M218,249.5l-0.2-0.4
		c-0.2-0.4-0.3-0.7-0.5-1.1H184c-7.5,0-14.7,3.6-19.2,9.6l-8,10.8c0.1,0.2,0.2,0.4,0.2,0.7c1.2,3.3,2.5,6.6,4.1,9.7
		c0.2,0.3,0.3,0.7,0.5,1c3.4,6.7,7.7,12.9,12.6,18.5c0.4,0.5,0.8,0.9,1.3,1.4c2.3,2.5,4.7,4.8,7.2,7c0.2,0.2,0.4,0.4,0.6,0.6
		c-0.1-0.7-0.1-1.5-0.2-2.2c0-0.7-0.1-1.4-0.1-2.1c0-0.8,0.1-1.7,0.1-2.6c0-0.7,0-1.4,0.1-2c0.1-0.9,0.2-1.7,0.4-2.6
		c0.1-0.6,0.2-1.3,0.3-1.9c0.2-0.9,0.5-1.7,0.7-2.6c0.2-0.6,0.3-1.2,0.5-1.8c0.3-0.9,0.7-1.7,1-2.5c0.2-0.6,0.4-1.1,0.7-1.7
		c0.4-0.9,0.9-1.8,1.4-2.5c0.3-0.5,0.5-1,0.8-1.5c0.5-0.9,1.2-1.8,1.8-2.6c0.3-0.4,0.5-0.8,0.8-1.2v-0.1c1-1.2,2-2.4,3.1-3.5
		l23.6-23.6C218.2,250.1,218.1,249.8,218,249.5z M194.7,206.1c-5.3-5.3-12.9-7.8-20.4-6.8l-13.2,1.9c-0.3,0.7-0.7,1.3-1,2
		c-0.8,1.8-1.6,3.6-2.3,5.5c-0.4,1.1-0.8,2.1-1.2,3.2c-0.7,2.1-1.3,4.1-1.8,6.3c-0.2,1-0.5,1.9-0.7,2.8c-0.5,2.3-0.9,4.7-1.2,7.1
		c-0.1,0.8-0.3,1.5-0.4,2.4c-0.4,3.2-0.5,6.4-0.5,9.6c0,2.5,0.2,5,0.4,7.5c0.4-0.5,0.9-1.1,1.4-1.6v0c0.5-0.6,0.8-1,1.4-1.6
		s1.3-1.2,1.8-1.7c0.6-0.5,1-0.9,1.6-1.4c0.6-0.5,1.4-1,2-1.5c0.6-0.4,1-0.8,1.7-1.2c0.7-0.5,1.4-0.8,2.2-1.3c0.6-0.3,1.2-0.7,1.8-1
		c0.8-0.4,1.6-0.7,2.4-1c0.6-0.3,1.2-0.6,1.8-0.8c0.8-0.3,1.7-0.6,2.6-0.8c0.6-0.2,1.2-0.4,1.8-0.5c1-0.2,2-0.4,3-0.5
		c0.5-0.1,1.1-0.2,1.6-0.3c1.5-0.2,3.1-0.3,4.6-0.3h33.4c0.1-0.4,0.3-0.7,0.5-1.1l0.2-0.4c0.1-0.2,0.2-0.5,0.4-0.8L194.7,206.1z
		 M218.7,158.3l-4.6-2.3c-4,1.2-7.8,2.7-11.6,4.5l-0.4,0.2c-7.3,3.5-14,8-20.1,13.3c-0.4,0.3-0.8,0.8-1.2,1.1
		c-2.6,2.4-5.1,4.9-7.5,7.6c-0.2,0.2-0.4,0.4-0.6,0.6c0.5-0.1,1-0.1,1.5-0.1c1-0.1,2.1-0.2,3.1-0.2h0.4c0.2,0,0.4,0.1,0.6,0.1
		c2.3,0,4.7,0.3,6.9,0.7l0.4,0c2.3,0.5,4.6,1.2,6.8,2c0.4,0.1,0.7,0.3,1.1,0.4c2.1,0.9,4.1,2,6.1,3.2c0.3,0.2,0.6,0.4,0.9,0.7
		c2,1.3,3.9,2.9,5.6,4.6l23.6,23.6c0.3-0.1,0.6-0.2,0.8-0.3l0.4-0.2c0.4-0.2,0.7-0.3,1.1-0.5v-37.6
		C232,170.7,226.9,162.4,218.7,158.3z M245.9,326.3c-0.5-0.5-1-0.9-1.6-1.4c-0.6-0.6-1.2-1.3-1.7-1.8c-0.5-0.5-0.9-1-1.5-1.6
		s-1-1.4-1.5-2c-0.5-0.6-0.8-1-1.3-1.7c-0.4-0.7-0.8-1.5-1.2-2.2c-0.3-0.6-0.7-1.2-1-1.8c-0.4-0.8-0.7-1.6-1-2.4
		c-0.3-0.6-0.6-1.2-0.8-1.8c-0.3-0.8-0.6-1.7-0.8-2.6c-0.2-0.6-0.4-1.2-0.5-1.8c-0.2-1-0.4-1.9-0.5-2.9c-0.1-0.5-0.2-1-0.3-1.6
		c-0.2-1.5-0.3-3.1-0.3-4.6v-33.4c-0.4-0.1-0.8-0.3-1.1-0.5l-0.4-0.1c-0.3-0.1-0.6-0.2-0.8-0.4l-23.6,23.6
		c-5.3,5.4-7.8,12.9-6.8,20.4l1.9,13.3c0.6,0.3,1.1,0.5,1.7,0.8c2.6,1.2,5.2,2.3,7.9,3.2c0.7,0.3,1.4,0.6,2.1,0.8
		c3.4,1.1,6.9,2,10.4,2.7c0.7,0.1,1.4,0.2,2.1,0.3c2.8,0.5,5.7,0.8,8.5,1c1.1,0.1,2.2,0.2,3.4,0.2c2.9,0.1,5.9,0.1,8.8-0.2l0,0
		c0.5,0,1,0,1.5,0C247,327.2,246.5,326.7,245.9,326.3z M247.4,236.9c-0.3-0.5-0.6-1-1-1.5c-0.5-0.7-1.1-1.3-1.9-1.8
		c-0.5-0.4-0.9-0.7-1.5-1c-2-0.8-4.2-0.8-6.2,0c-0.5,0.3-1,0.6-1.5,1c-0.7,0.5-1.2,1-1.7,1.7v0c-0.4,0.5-0.8,1.1-1.1,1.7
		c-0.8,2-0.8,4.2,0,6.2c0.3,0.6,0.7,1.1,1.1,1.6c0.5,0.7,1.1,1.2,1.7,1.7c0.5,0.4,0.9,0.7,1.5,1c2,0.8,4.2,0.8,6.2,0
		c0.5-0.3,1-0.6,1.5-1c0.7-0.5,1.3-1.1,1.9-1.8c0.4-0.5,0.7-0.9,1-1.5C248.2,241.1,248.2,238.9,247.4,236.9z M280.7,174.4l-1.9-13.2
		c-0.6-0.3-1.2-0.6-1.9-0.9c-2-0.9-4.1-1.8-6.1-2.6c-1.1-0.4-2.1-0.8-3.2-1.2c-2.3-0.8-4.7-1.4-7.1-2c-0.8-0.2-1.7-0.5-2.5-0.6
		c-3.2-0.7-6.3-1.1-9.5-1.4c-1.1-0.1-2.3-0.1-3.4-0.2c-2.3-0.2-4.5-0.2-6.8-0.2c-0.4,0-0.8,0-1.2,0c0.2,0.2,0.4,0.5,0.6,0.7
		c1.2,1.3,2.4,2.8,3.4,4.3c0.2,0.4,0.5,0.8,0.8,1.1c1.2,1.9,2.2,3.9,3.1,5.9c0.2,0.5,0.4,1,0.5,1.6c0.6,1.7,1.1,3.4,1.5,5.1
		c0.2,0.6,0.3,1.3,0.4,1.9c0.4,2.3,0.6,4.6,0.7,7v37.6c0.4,0.1,0.7,0.3,1.1,0.5l0.4,0.2c0.3,0.1,0.6,0.2,0.8,0.4l23.6-23.6
		C279.3,189.4,281.8,181.9,280.7,174.4z M302.4,296.9H302c-2.4,0-4.7-0.3-7-0.7c-0.2,0-0.5-0.1-0.7-0.1c-2.3-0.5-4.5-1.1-6.7-2
		c-0.4-0.1-0.7-0.3-1.1-0.4c-2.1-0.9-4.2-2-6.1-3.2l-0.9-0.6c-2-1.4-3.9-2.9-5.6-4.6l-23.6-23.6c-0.3,0.1-0.6,0.2-0.8,0.4l-0.4,0.2
		c-0.4,0.2-0.7,0.3-1.1,0.5V296c0,7.5,3.6,14.7,9.6,19.2l10.7,8c0.2-0.1,0.4-0.2,0.7-0.2c3.3-1.2,6.6-2.5,9.7-4.1l1.1-0.5
		c6.7-3.4,12.9-7.6,18.5-12.6c0.5-0.4,1-0.9,1.5-1.3c2.4-2.2,4.7-4.6,6.9-7.1l0,0c0.2-0.2,0.4-0.5,0.6-0.7
		C305.7,296.8,304,296.9,302.4,296.9z M323,211c-1.2-3.3-2.5-6.6-4.1-9.7c-0.2-0.3-0.3-0.7-0.5-1.1c-3.4-6.7-7.7-12.9-12.7-18.5
		c-0.4-0.5-0.9-1-1.3-1.5c-2.2-2.4-4.6-4.7-7.1-6.9c-0.2-0.2-0.5-0.4-0.7-0.6c0.1,0.7,0.1,1.5,0.2,2.2c0,0.7,0.1,1.4,0.1,2.1
		c0,0.9,0,1.7-0.1,2.5c0,0.7,0,1.4-0.1,2.1c-0.1,0.8-0.2,1.7-0.4,2.5c-0.1,0.7-0.2,1.3-0.3,2c-0.2,0.9-0.4,1.7-0.7,2.5
		c-0.2,0.6-0.3,1.3-0.5,1.9c-0.3,0.8-0.6,1.6-0.9,2.4c-0.3,0.6-0.5,1.3-0.8,1.9c-0.4,0.8-0.8,1.5-1.2,2.3c-0.3,0.6-0.6,1.2-0.9,1.7
		c-0.5,0.8-1,1.6-1.6,2.4c-0.3,0.5-0.6,1-1,1.4c-1,1.2-2,2.4-3.1,3.5l-23.6,23.6c0.1,0.3,0.2,0.6,0.4,0.8l0.2,0.4
		c0.2,0.4,0.3,0.7,0.5,1.1H296c7.5,0,14.7-3.6,19.2-9.6l8-10.6l0-0.1C323.2,211.5,323.1,211.3,323,211z M327.6,232.6
		c-0.4,0.5-0.9,1.1-1.4,1.6l0-0.1c-0.5,0.6-0.8,1-1.4,1.6c-0.6,0.6-1.3,1.2-1.8,1.7c-0.5,0.5-1,0.9-1.6,1.5s-1.4,1-2,1.5
		c-0.6,0.4-1,0.8-1.7,1.3c-0.7,0.4-1.5,0.8-2.2,1.3c-0.6,0.3-1.2,0.7-1.8,1c-0.8,0.4-1.6,0.7-2.4,1c-0.6,0.3-1.2,0.6-1.8,0.8
		c-0.8,0.3-1.7,0.5-2.6,0.8c-0.6,0.2-1.2,0.4-1.8,0.5c-1,0.2-1.9,0.4-2.9,0.5c-0.5,0.1-1,0.2-1.6,0.3c-1.5,0.2-3.1,0.3-4.6,0.3
		h-33.4c-0.1,0.4-0.3,0.8-0.5,1.1l-0.2,0.4c-0.1,0.3-0.2,0.6-0.3,0.8l23.6,23.6c5.4,5.3,12.9,7.8,20.4,6.8l13.2-1.9
		c0.3-0.7,0.6-1.3,1-2c0.8-1.8,1.6-3.6,2.3-5.4c0.4-1,0.8-2.1,1.2-3.2c0.7-2,1.3-4.1,1.8-6.2c0.2-1,0.5-1.9,0.7-2.9
		c0.5-2.3,0.9-4.7,1.2-7.1c0.1-0.8,0.3-1.6,0.4-2.4c0.4-3.2,0.5-6.4,0.5-9.6C328,237.6,327.8,235.1,327.6,232.6z M327.6,232.6
		c-0.4,0.5-0.9,1.1-1.4,1.6l0-0.1c-0.5,0.6-0.8,1-1.4,1.6c-0.6,0.6-1.3,1.2-1.8,1.7c-0.5,0.5-1,0.9-1.6,1.5s-1.4,1-2,1.5
		c-0.6,0.4-1,0.8-1.7,1.3c-0.7,0.4-1.5,0.8-2.2,1.3c-0.6,0.3-1.2,0.7-1.8,1c-0.8,0.4-1.6,0.7-2.4,1c-0.6,0.3-1.2,0.6-1.8,0.8
		c-0.8,0.3-1.7,0.5-2.6,0.8c-0.6,0.2-1.2,0.4-1.8,0.5c-1,0.2-1.9,0.4-2.9,0.5c-0.5,0.1-1,0.2-1.6,0.3c-1.5,0.2-3.1,0.3-4.6,0.3
		h-33.4c-0.1,0.4-0.3,0.8-0.5,1.1l-0.2,0.4c-0.1,0.3-0.2,0.6-0.3,0.8l23.6,23.6c5.4,5.3,12.9,7.8,20.4,6.8l13.2-1.9
		c0.3-0.7,0.6-1.3,1-2c0.8-1.8,1.6-3.6,2.3-5.4c0.4-1,0.8-2.1,1.2-3.2c0.7-2,1.3-4.1,1.8-6.2c0.2-1,0.5-1.9,0.7-2.9
		c0.5-2.3,0.9-4.7,1.2-7.1c0.1-0.8,0.3-1.6,0.4-2.4c0.4-3.2,0.5-6.4,0.5-9.6C328,237.6,327.8,235.1,327.6,232.6z M323,211
		c-1.2-3.3-2.5-6.6-4.1-9.7c-0.2-0.3-0.3-0.7-0.5-1.1c-3.4-6.7-7.7-12.9-12.7-18.5c-0.4-0.5-0.9-1-1.3-1.5c-2.2-2.4-4.6-4.7-7.1-6.9
		c-0.2-0.2-0.5-0.4-0.7-0.6c0.1,0.7,0.1,1.5,0.2,2.2c0,0.7,0.1,1.4,0.1,2.1c0,0.9,0,1.7-0.1,2.5c0,0.7,0,1.4-0.1,2.1
		c-0.1,0.8-0.2,1.7-0.4,2.5c-0.1,0.7-0.2,1.3-0.3,2c-0.2,0.9-0.4,1.7-0.7,2.5c-0.2,0.6-0.3,1.3-0.5,1.9c-0.3,0.8-0.6,1.6-0.9,2.4
		c-0.3,0.6-0.5,1.3-0.8,1.9c-0.4,0.8-0.8,1.5-1.2,2.3c-0.3,0.6-0.6,1.2-0.9,1.7c-0.5,0.8-1,1.6-1.6,2.4c-0.3,0.5-0.6,1-1,1.4
		c-1,1.2-2,2.4-3.1,3.5l-23.6,23.6c0.1,0.3,0.2,0.6,0.4,0.8l0.2,0.4c0.2,0.4,0.3,0.7,0.5,1.1H296c7.5,0,14.7-3.6,19.2-9.6l8-10.6
		l0-0.1C323.2,211.5,323.1,211.3,323,211z M302.4,296.9H302c-2.4,0-4.7-0.3-7-0.7c-0.2,0-0.5-0.1-0.7-0.1c-2.3-0.5-4.5-1.1-6.7-2
		c-0.4-0.1-0.7-0.3-1.1-0.4c-2.1-0.9-4.2-2-6.1-3.2l-0.9-0.6c-2-1.4-3.9-2.9-5.6-4.6l-23.6-23.6c-0.3,0.1-0.6,0.2-0.8,0.4l-0.4,0.2
		c-0.4,0.2-0.7,0.3-1.1,0.5V296c0,7.5,3.6,14.7,9.6,19.2l10.7,8c0.2-0.1,0.4-0.2,0.7-0.2c3.3-1.2,6.6-2.5,9.7-4.1l1.1-0.5
		c6.7-3.4,12.9-7.6,18.5-12.6c0.5-0.4,1-0.9,1.5-1.3c2.4-2.2,4.7-4.6,6.9-7.1l0,0c0.2-0.2,0.4-0.5,0.6-0.7
		C305.7,296.8,304,296.9,302.4,296.9z M280.7,174.4l-1.9-13.2c-0.6-0.3-1.2-0.6-1.9-0.9c-2-0.9-4.1-1.8-6.1-2.6
		c-1.1-0.4-2.1-0.8-3.2-1.2c-2.3-0.8-4.7-1.4-7.1-2c-0.8-0.2-1.7-0.5-2.5-0.6c-3.2-0.7-6.3-1.1-9.5-1.4c-1.1-0.1-2.3-0.1-3.4-0.2
		c-2.3-0.2-4.5-0.2-6.8-0.2c-0.4,0-0.8,0-1.2,0c0.2,0.2,0.4,0.5,0.6,0.7c1.2,1.3,2.4,2.8,3.4,4.3c0.2,0.4,0.5,0.8,0.8,1.1
		c1.2,1.9,2.2,3.9,3.1,5.9c0.2,0.5,0.4,1,0.5,1.6c0.6,1.7,1.1,3.4,1.5,5.1c0.2,0.6,0.3,1.3,0.4,1.9c0.4,2.3,0.6,4.6,0.7,7v37.6
		c0.4,0.1,0.7,0.3,1.1,0.5l0.4,0.2c0.3,0.1,0.6,0.2,0.8,0.4l23.6-23.6C279.3,189.4,281.8,181.9,280.7,174.4z M247.4,236.9
		c-0.3-0.5-0.6-1-1-1.5c-0.5-0.7-1.1-1.3-1.9-1.8c-0.5-0.4-0.9-0.7-1.5-1c-2-0.8-4.2-0.8-6.2,0c-0.5,0.3-1,0.6-1.5,1
		c-0.7,0.5-1.2,1-1.7,1.7v0c-0.4,0.5-0.8,1.1-1.1,1.7c-0.8,2-0.8,4.2,0,6.2c0.3,0.6,0.7,1.1,1.1,1.6c0.5,0.7,1.1,1.2,1.7,1.7
		c0.5,0.4,0.9,0.7,1.5,1c2,0.8,4.2,0.8,6.2,0c0.5-0.3,1-0.6,1.5-1c0.7-0.5,1.3-1.1,1.9-1.8c0.4-0.5,0.7-0.9,1-1.5
		C248.2,241.1,248.2,238.9,247.4,236.9z M245.9,326.3c-0.5-0.5-1-0.9-1.6-1.4c-0.6-0.6-1.2-1.3-1.7-1.8c-0.5-0.5-0.9-1-1.5-1.6
		s-1-1.4-1.5-2c-0.5-0.6-0.8-1-1.3-1.7c-0.4-0.7-0.8-1.5-1.2-2.2c-0.3-0.6-0.7-1.2-1-1.8c-0.4-0.8-0.7-1.6-1-2.4
		c-0.3-0.6-0.6-1.2-0.8-1.8c-0.3-0.8-0.6-1.7-0.8-2.6c-0.2-0.6-0.4-1.2-0.5-1.8c-0.2-1-0.4-1.9-0.5-2.9c-0.1-0.5-0.2-1-0.3-1.6
		c-0.2-1.5-0.3-3.1-0.3-4.6v-33.4c-0.4-0.1-0.8-0.3-1.1-0.5l-0.4-0.1c-0.3-0.1-0.6-0.2-0.8-0.4l-23.6,23.6
		c-5.3,5.4-7.8,12.9-6.8,20.4l1.9,13.3c0.6,0.3,1.1,0.5,1.7,0.8c2.6,1.2,5.2,2.3,7.9,3.2c0.7,0.3,1.4,0.6,2.1,0.8
		c3.4,1.1,6.9,2,10.4,2.7c0.7,0.1,1.4,0.2,2.1,0.3c2.8,0.5,5.7,0.8,8.5,1c1.1,0.1,2.2,0.2,3.4,0.2c2.9,0.1,5.9,0.1,8.8-0.2l0,0
		c0.5,0,1,0,1.5,0C247,327.2,246.5,326.7,245.9,326.3z M218.7,158.3l-4.6-2.3c-4,1.2-7.8,2.7-11.6,4.5l-0.4,0.2
		c-7.3,3.5-14,8-20.1,13.3c-0.4,0.3-0.8,0.8-1.2,1.1c-2.6,2.4-5.1,4.9-7.5,7.6c-0.2,0.2-0.4,0.4-0.6,0.6c0.5-0.1,1-0.1,1.5-0.1
		c1-0.1,2.1-0.2,3.1-0.2h0.4c0.2,0,0.4,0.1,0.6,0.1c2.3,0,4.7,0.3,6.9,0.7l0.4,0c2.3,0.5,4.6,1.2,6.8,2c0.4,0.1,0.7,0.3,1.1,0.4
		c2.1,0.9,4.1,2,6.1,3.2c0.3,0.2,0.6,0.4,0.9,0.7c2,1.3,3.9,2.9,5.6,4.6l23.6,23.6c0.3-0.1,0.6-0.2,0.8-0.3l0.4-0.2
		c0.4-0.2,0.7-0.3,1.1-0.5v-37.6C232,170.7,226.9,162.4,218.7,158.3z M194.7,206.1c-5.3-5.3-12.9-7.8-20.4-6.8l-13.2,1.9
		c-0.3,0.7-0.7,1.3-1,2c-0.8,1.8-1.6,3.6-2.3,5.5c-0.4,1.1-0.8,2.1-1.2,3.2c-0.7,2.1-1.3,4.1-1.8,6.3c-0.2,1-0.5,1.9-0.7,2.8
		c-0.5,2.3-0.9,4.7-1.2,7.1c-0.1,0.8-0.3,1.5-0.4,2.4c-0.4,3.2-0.5,6.4-0.5,9.6c0,2.5,0.2,5,0.4,7.5c0.4-0.5,0.9-1.1,1.4-1.6v0
		c0.5-0.6,0.8-1,1.4-1.6s1.3-1.2,1.8-1.7c0.6-0.5,1-0.9,1.6-1.4c0.6-0.5,1.4-1,2-1.5c0.6-0.4,1-0.8,1.7-1.2c0.7-0.5,1.4-0.8,2.2-1.3
		c0.6-0.3,1.2-0.7,1.8-1c0.8-0.4,1.6-0.7,2.4-1c0.6-0.3,1.2-0.6,1.8-0.8c0.8-0.3,1.7-0.6,2.6-0.8c0.6-0.2,1.2-0.4,1.8-0.5
		c1-0.2,2-0.4,3-0.5c0.5-0.1,1.1-0.2,1.6-0.3c1.5-0.2,3.1-0.3,4.6-0.3h33.4c0.1-0.4,0.3-0.7,0.5-1.1l0.2-0.4
		c0.1-0.2,0.2-0.5,0.4-0.8L194.7,206.1z M218,249.5l-0.2-0.4c-0.2-0.4-0.3-0.7-0.5-1.1H184c-7.5,0-14.7,3.6-19.2,9.6l-8,10.8
		c0.1,0.2,0.2,0.4,0.2,0.7c1.2,3.3,2.5,6.6,4.1,9.7c0.2,0.3,0.3,0.7,0.5,1c3.4,6.7,7.7,12.9,12.6,18.5c0.4,0.5,0.8,0.9,1.3,1.4
		c2.3,2.5,4.7,4.8,7.2,7c0.2,0.2,0.4,0.4,0.6,0.6c-0.1-0.7-0.1-1.5-0.2-2.2c0-0.7-0.1-1.4-0.1-2.1c0-0.8,0.1-1.7,0.1-2.6
		c0-0.7,0-1.4,0.1-2c0.1-0.9,0.2-1.7,0.4-2.6c0.1-0.6,0.2-1.3,0.3-1.9c0.2-0.9,0.5-1.7,0.7-2.6c0.2-0.6,0.3-1.2,0.5-1.8
		c0.3-0.9,0.7-1.7,1-2.5c0.2-0.6,0.4-1.1,0.7-1.7c0.4-0.9,0.9-1.8,1.4-2.5c0.3-0.5,0.5-1,0.8-1.5c0.5-0.9,1.2-1.8,1.8-2.6
		c0.3-0.4,0.5-0.8,0.8-1.2v-0.1c1-1.2,2-2.4,3.1-3.5l23.6-23.6C218.2,250.1,218.1,249.8,218,249.5z"/>
</g>
<path d="M400,400h16v16h-16V400z"/>
<path d="M464,0v24H240c-33.8,0-67.2,7.9-97.3,23.3L88,30.8c-24.3-7.3-49.9,6.5-57.2,30.7c-2.6,8.6-2.6,17.8,0,26.4l16.4,54.7
	C32,172.9,24,206.2,24,240c0,2.4,0.1,4.7,0.2,7.1c-0.1,0.3-0.1,0.6-0.2,0.9v216H0v16h160v-16h-24v-34.8
	c62.4,34.4,137.8,35.7,201.3,3.5l54.7,16.4c24.3,7.3,49.9-6.5,57.2-30.7c2.6-8.6,2.6-17.8,0-26.4l-16.4-54.7
	C448,307.1,456,273.8,456,240c0-30.3-6.4-60.3-18.7-88H464v24h16V0H464z M472,144h-47.5c0.5,1.1,1.1,2.1,1.6,3.2
	c0.4,0.8,0.8,1.6,1.2,2.4c0,0.1,0.1,0.2,0.1,0.2c0.4,0.9,0.8,1.7,1.2,2.6c0.7,1.6,1.4,3.1,2.1,4.7c0.1,0.2,0.2,0.4,0.3,0.6
	c0.3,0.6,0.5,1.2,0.8,1.8c0.4,0.9,0.7,1.7,1.1,2.6c0.8,1.9,1.5,3.8,2.2,5.7c0.5,1.4,1,2.7,1.5,4.1c7.6,21.9,11.5,44.9,11.5,68.2
	c0,34.9-8.6,67.8-23.8,96.6l17.3,57.6c4,13.3,0.4,27.8-9.5,37.7c-9.8,9.9-24.3,13.5-37.7,9.5l-57.6-17.3
	c-28.9,15.3-61.9,23.9-96.9,23.9c-41.2,0-79.6-12-111.9-32.7V464h-8v-16H40v16h-8V248h0.1c-0.1-2.7-0.2-5.3-0.2-8
	c0-34.9,8.6-67.9,23.9-96.8L38.5,85.7c-4-13.3-0.4-27.8,9.5-37.7c9.8-9.9,24.3-13.5,37.7-9.5l57.6,17.3C172.2,40.6,205.1,32,240,32
	h232V144z"/>
<path d="M123.4,58.2c-1.2,0.8-2.4,1.6-3.6,2.4l-1.1,0.8c-22.6,15.3-42,34.8-57.3,57.3l-0.8,1.1c-0.8,1.2-1.6,2.4-2.4,3.6l-12-40
	c-4.8-15.8,4.2-32.5,20-37.2c5.6-1.7,11.6-1.7,17.2,0L123.4,58.2z"/>
</svg>
