<?xml version="1.0" encoding="iso-8859-1"?>
<!-- Generator: Adobe Illustrator 19.0.0, SVG Export Plug-In . SVG Version: 6.00 Build 0)  -->
<svg version="1.1" id="Layer_1" xmlns="http://www.w3.org/2000/svg" xmlns:xlink="http://www.w3.org/1999/xlink" x="0px" y="0px"
	 viewBox="0 0 512 512" style="enable-background:new 0 0 512 512;" xml:space="preserve">
<g>
	<g>
		<path d="M424.918,85.675c-21.649-6.323-32.939,15.462-40.644,30.387l-41.609,95.565c-6.776-8.926-17.203-15.36-29.978-15.36
			c-12.442,0-23.031,5.316-30.097,14.148c-7.859-13.491-20.881-22.682-34.97-22.682c-12.177,0-23.185,5.137-30.976,13.355
			L196.08,41.737C192.103,5.419,170.685,0,158.269,0c-22.562,0-38.938,17.946-38.912,43.298l17.067,238.933
			c0.341,4.702,4.471,8.226,9.139,7.876c4.702-0.341,8.226-4.437,7.876-9.139L136.398,42.667c0-12.74,6.767-25.6,21.871-25.6
			c4.437,0,17.937,0,20.873,26.752l25.6,196.267c0.597,4.369,4.523,7.543,8.815,7.381c4.403-0.188,7.936-3.686,8.166-8.09
			c0,0,0.299-5.854,0.299-8.977c0-14.114,11.486-25.6,25.6-25.6c13.158,0,25.6,16.589,25.6,34.133c0,4.71,3.823,8.533,8.533,8.533
			s8.533-3.823,8.533-8.533c0-12.331,7.014-25.6,22.4-25.6c12.484,0,20.437,12.1,21.385,20.83c0.418,3.849,3.371,6.929,7.194,7.518
			c3.823,0.58,7.569-1.476,9.114-5.026l49.297-113.271c10.368-20.036,15.002-22.929,20.471-21.325
			c3.84,1.118,8.627,2.517,5.905,15.915c-0.247,1.109-25.062,111.386-33.34,162.261c-2.611,16.009-4.395,35.49-6.468,58.044
			c-4.335,47.275-9.694,105.685-25.651,156.655H168.893c-9.429-41.225-31.249-91.332-64.939-149.111
			c-3.644-6.255-7.305-12.373-10.94-18.321c-9.293-15.249-10.394-35.507-2.671-49.263c3.507-6.255,10.419-13.705,23.39-13.705
			c4.71,0,8.533-3.823,8.533-8.533s-3.823-8.533-8.533-8.533c-16.563,0-30.157,7.962-38.272,22.409
			c-10.769,19.192-9.574,45.918,2.995,66.517c3.575,5.854,7.168,11.878,10.752,18.031c34.628,59.383,56.303,110.097,64.427,150.716
			c0.794,3.994,4.301,6.861,8.363,6.861h204.8c3.678,0,6.938-2.347,8.098-5.837c18.056-54.17,23.765-116.352,28.348-166.323
			c2.039-22.238,3.797-41.446,6.306-56.858c8.201-50.372,32.904-160.154,33.195-161.434C447.6,97.604,435.73,88.832,424.918,85.675z
			"/>
	</g>
</g>
<g>
</g>
<g>
</g>
<g>
</g>
<g>
</g>
<g>
</g>
<g>
</g>
<g>
</g>
<g>
</g>
<g>
</g>
<g>
</g>
<g>
</g>
<g>
</g>
<g>
</g>
<g>
</g>
<g>
</g>
</svg>
