<?xml version="1.0" encoding="utf-8"?>
<!-- Generator: Adobe Illustrator 23.1.0, SVG Export Plug-In . SVG Version: 6.00 Build 0)  -->
<svg version="1.1" id="Слой_1" xmlns="http://www.w3.org/2000/svg" xmlns:xlink="http://www.w3.org/1999/xlink" x="0px" y="0px"
	 viewBox="0 0 512 512" style="enable-background:new 0 0 512 512;" xml:space="preserve">
<g>
	<path d="M486,317.5c3.9,0,7-3.1,7-7v-56c0-3.9-3.1-7-7-7h-18V231c0-2.8-1.7-5.3-4.2-6.4c-44.3-19.2-46.7-114.7-37.7-170.5
		c0.6-3.5-1.6-6.8-4.9-7.8l-91.2-27c-3.7-1.1-7.6,1-8.7,4.7c-0.1,0.4-0.2,0.8-0.2,1.2c-0.3,3-9,74.2-64.9,74.2s-64.6-71.1-64.9-74.2
		c-0.4-3.8-3.9-6.6-7.7-6.2c-0.4,0-0.8,0.1-1.2,0.2l-91.2,27c-3.4,1-5.5,4.3-4.9,7.8c8.9,55.7,6.5,151.3-37.7,170.5
		c-2.6,1.1-4.2,3.6-4.2,6.4v16.5H26c-3.9,0-7,3.1-7,7v56c0,3.9,3.1,7,7,7h18v28H26c-3.9,0-7,3.1-7,7v56c0,3.9,3.1,7,7,7h18V438
		c0,30.3,22.3,55,49.8,55h324.4c27.5,0,49.8-24.7,49.8-55v-22.5h18c3.9,0,7-3.1,7-7v-56c0-3.9-3.1-7-7-7h-18v-28H486z M479,303.5
		h-82v-42h82V303.5z M33,261.5h82v42H33V261.5z M33,359.5h82v42H33V359.5z M479,401.5h-82v-42h82V401.5z M454,345.5h-64
		c-3.9,0-7,3.1-7,7v56c0,3.9,3.1,7,7,7h64V438c0,22.6-16.1,41-35.8,41H93.8C74.1,479,58,460.6,58,438v-22.5h64c3.9,0,7-3.1,7-7v-56
		c0-3.9-3.1-7-7-7H58v-28h64c3.9,0,7-3.1,7-7v-56c0-3.9-3.1-7-7-7H58v-12.1c49.7-26.7,50.2-123.6,42.7-177.4l77.7-23
		c5.9,31,27.5,78.4,77.6,78.4S327.7,66,333.6,35l77.7,23c-7.5,53.8-7,150.7,42.7,177.4v12.1h-64c-3.9,0-7,3.1-7,7v56
		c0,3.9,3.1,7,7,7h64V345.5z"/>
	<path d="M331.5,165.3h-151c-3.9,0-7,3.1-7,7v138.2c0,3.9,3.1,7,7,7h151c3.9,0,7-3.1,7-7V172.3C338.5,168.5,335.4,165.3,331.5,165.3
		z M324.5,303.5h-137V179.3h137V303.5z"/>
	<path d="M331.5,345.5h-151c-3.9,0-7,3.1-7,7s3.1,7,7,7h151c3.9,0,7-3.1,7-7S335.4,345.5,331.5,345.5z"/>
	<path d="M331.5,376.9h-151c-3.9,0-7,3.1-7,7s3.1,7,7,7h151c3.9,0,7-3.1,7-7S335.4,376.9,331.5,376.9z"/>
	<path d="M331.5,408.2h-151c-3.9,0-7,3.1-7,7s3.1,7,7,7h151c3.9,0,7-3.1,7-7S335.4,408.2,331.5,408.2z"/>
</g>
</svg>
