<?xml version="1.0" encoding="utf-8"?>
<!-- Generator: Adobe Illustrator 23.1.0, SVG Export Plug-In . SVG Version: 6.00 Build 0)  -->
<svg version="1.1" id="Capa_1" xmlns="http://www.w3.org/2000/svg" xmlns:xlink="http://www.w3.org/1999/xlink" x="0px" y="0px"
	 viewBox="0 0 468.3 468.3" style="enable-background:new 0 0 468.3 468.3;" xml:space="preserve">
<path d="M75.1,129.3c-0.9-1-2.2-1.6-3.9-1.8c-1-0.1-3.9-0.2-8.8-0.2h-5.9v11.8h6.7c4,0,6.5,0,7.5-0.2c1.8-0.2,3.1-0.8,4.1-1.8
	s1.5-2.3,1.5-4C76.4,131.6,75.9,130.3,75.1,129.3z M77.1,150.6c-0.7-1.1-1.8-1.8-3.2-2.3c-1.4-0.5-4.4-0.7-9.1-0.7h-8.3v13.6H66
	c3.7,0,6-0.1,7-0.3c1.5-0.3,2.8-1,3.7-2c1-1.1,1.4-2.5,1.4-4.3C78.3,153,77.9,151.7,77.1,150.6z M117.5,130.7l-6.9,18.9h13.9
	L117.5,130.7z M117.5,130.7l-6.9,18.9h13.9L117.5,130.7z M77.1,150.6c-0.7-1.1-1.8-1.8-3.2-2.3c-1.4-0.5-4.4-0.7-9.1-0.7h-8.3v13.6
	H66c3.7,0,6-0.1,7-0.3c1.5-0.3,2.8-1,3.7-2c1-1.1,1.4-2.5,1.4-4.3C78.3,153,77.9,151.7,77.1,150.6z M75.1,129.3
	c-0.9-1-2.2-1.6-3.9-1.8c-1-0.1-3.9-0.2-8.8-0.2h-5.9v11.8h6.7c4,0,6.5,0,7.5-0.2c1.8-0.2,3.1-0.8,4.1-1.8s1.5-2.3,1.5-4
	C76.4,131.6,75.9,130.3,75.1,129.3z M75.1,129.3c-0.9-1-2.2-1.6-3.9-1.8c-1-0.1-3.9-0.2-8.8-0.2h-5.9v11.8h6.7c4,0,6.5,0,7.5-0.2
	c1.8-0.2,3.1-0.8,4.1-1.8s1.5-2.3,1.5-4C76.4,131.6,75.9,130.3,75.1,129.3z M77.1,150.6c-0.7-1.1-1.8-1.8-3.2-2.3
	c-1.4-0.5-4.4-0.7-9.1-0.7h-8.3v13.6H66c3.7,0,6-0.1,7-0.3c1.5-0.3,2.8-1,3.7-2c1-1.1,1.4-2.5,1.4-4.3
	C78.3,153,77.9,151.7,77.1,150.6z M117.5,130.7l-6.9,18.9h13.9L117.5,130.7z M117.5,130.7l-6.9,18.9h13.9L117.5,130.7z M77.1,150.6
	c-0.7-1.1-1.8-1.8-3.2-2.3c-1.4-0.5-4.4-0.7-9.1-0.7h-8.3v13.6H66c3.7,0,6-0.1,7-0.3c1.5-0.3,2.8-1,3.7-2c1-1.1,1.4-2.5,1.4-4.3
	C78.3,153,77.9,151.7,77.1,150.6z M70.7,138.9c1.8-0.2,3.1-0.8,4.1-1.8s1.5-2.3,1.5-4c0-1.6-0.4-2.8-1.3-3.8s-2.2-1.6-3.9-1.8
	c-1-0.1-3.9-0.2-8.8-0.2h-5.9v11.8h6.7C67.3,139.1,69.8,139,70.7,138.9z M440.1,72.5H28.2C12.6,72.5,0,85.1,0,100.7v266.8
	c0,15.6,12.6,28.2,28.2,28.2h411.9c15.6,0,28.2-12.6,28.2-28.2V100.7C468.3,85.1,455.7,72.5,440.1,72.5z M324.7,151.2
	c0-7.2,5.8-13.1,13.1-13.1h72.1c7.2,0,13.1,5.8,13.1,13.1v46c0,7.2-5.9,13.1-13.1,13.1h-72.1c-7.2,0-13.1-5.8-13.1-13.1V151.2z
	 M200.2,118.9h10.3v22.6l20.7-22.6H245l-19.1,19.8l20.2,31h-13.3l-14-23.9l-8.3,8.5v15.4h-10.3L200.2,118.9L200.2,118.9z
	 M65.3,349.4H25.5v-24.8h39.8V349.4z M87.3,161.7c-1.1,2.2-2.5,3.9-4.4,5.2s-4.2,2.1-6.9,2.4c-1.7,0.2-5.8,0.3-12.4,0.3H46.3v-50.8
	h20.3c4,0,7,0.2,9,0.5s3.7,1,5.3,2.1c1.6,1.1,2.9,2.5,3.9,4.3s1.6,3.8,1.6,6c0,2.4-0.6,4.6-1.9,6.5c-1.3,2-3,3.5-5.2,4.5
	c3.1,0.9,5.5,2.4,7.1,4.6c1.7,2.2,2.5,4.7,2.5,7.7C88.9,157.3,88.3,159.5,87.3,161.7z M112.2,118.9H123l20.3,50.8h-11.2l-4.4-11.5
	h-20.3l-4.2,11.5H92.4L112.2,118.9z M160.3,349.4H97.7v-24.8h62.7L160.3,349.4L160.3,349.4z M158.4,136.6v33.1h-9.5v-50.8h10
	l20.8,33.9v-33.9h9.5v50.8h-10.3L158.4,136.6z M250.1,349.4h-70.8v-24.8h70.8V349.4z M356,349.4h-82.5v-24.8H356V349.4z
	 M442.7,349.4h-59.6v-24.8h59.6V349.4z M117.5,130.7l-6.9,18.9h13.9L117.5,130.7z M73.9,148.3c-1.4-0.5-4.4-0.7-9.1-0.7h-8.3v13.6
	H66c3.7,0,6-0.1,7-0.3c1.5-0.3,2.8-1,3.7-2c1-1.1,1.4-2.5,1.4-4.3c0-1.5-0.4-2.8-1.1-3.9C76.4,149.5,75.3,148.8,73.9,148.3z
	 M70.7,138.9c1.8-0.2,3.1-0.8,4.1-1.8s1.5-2.3,1.5-4c0-1.6-0.4-2.8-1.3-3.8s-2.2-1.6-3.9-1.8c-1-0.1-3.9-0.2-8.8-0.2h-5.9v11.8h6.7
	C67.3,139.1,69.8,139,70.7,138.9z M75.1,129.3c-0.9-1-2.2-1.6-3.9-1.8c-1-0.1-3.9-0.2-8.8-0.2h-5.9v11.8h6.7c4,0,6.5,0,7.5-0.2
	c1.8-0.2,3.1-0.8,4.1-1.8s1.5-2.3,1.5-4C76.4,131.6,75.9,130.3,75.1,129.3z M77.1,150.6c-0.7-1.1-1.8-1.8-3.2-2.3
	c-1.4-0.5-4.4-0.7-9.1-0.7h-8.3v13.6H66c3.7,0,6-0.1,7-0.3c1.5-0.3,2.8-1,3.7-2c1-1.1,1.4-2.5,1.4-4.3
	C78.3,153,77.9,151.7,77.1,150.6z M117.5,130.7l-6.9,18.9h13.9L117.5,130.7z M117.5,130.7l-6.9,18.9h13.9L117.5,130.7z M77.1,150.6
	c-0.7-1.1-1.8-1.8-3.2-2.3c-1.4-0.5-4.4-0.7-9.1-0.7h-8.3v13.6H66c3.7,0,6-0.1,7-0.3c1.5-0.3,2.8-1,3.7-2c1-1.1,1.4-2.5,1.4-4.3
	C78.3,153,77.9,151.7,77.1,150.6z M75.1,129.3c-0.9-1-2.2-1.6-3.9-1.8c-1-0.1-3.9-0.2-8.8-0.2h-5.9v11.8h6.7c4,0,6.5,0,7.5-0.2
	c1.8-0.2,3.1-0.8,4.1-1.8s1.5-2.3,1.5-4C76.4,131.6,75.9,130.3,75.1,129.3z M75.1,129.3c-0.9-1-2.2-1.6-3.9-1.8
	c-1-0.1-3.9-0.2-8.8-0.2h-5.9v11.8h6.7c4,0,6.5,0,7.5-0.2c1.8-0.2,3.1-0.8,4.1-1.8s1.5-2.3,1.5-4C76.4,131.6,75.9,130.3,75.1,129.3z
	 M77.1,150.6c-0.7-1.1-1.8-1.8-3.2-2.3c-1.4-0.5-4.4-0.7-9.1-0.7h-8.3v13.6H66c3.7,0,6-0.1,7-0.3c1.5-0.3,2.8-1,3.7-2
	c1-1.1,1.4-2.5,1.4-4.3C78.3,153,77.9,151.7,77.1,150.6z M77.1,150.6c-0.7-1.1-1.8-1.8-3.2-2.3c-1.4-0.5-4.4-0.7-9.1-0.7h-8.3v13.6
	H66c3.7,0,6-0.1,7-0.3c1.5-0.3,2.8-1,3.7-2c1-1.1,1.4-2.5,1.4-4.3C78.3,153,77.9,151.7,77.1,150.6z M75.1,129.3
	c-0.9-1-2.2-1.6-3.9-1.8c-1-0.1-3.9-0.2-8.8-0.2h-5.9v11.8h6.7c4,0,6.5,0,7.5-0.2c1.8-0.2,3.1-0.8,4.1-1.8s1.5-2.3,1.5-4
	C76.4,131.6,75.9,130.3,75.1,129.3z"/>
</svg>
