<svg height="512pt" viewBox="0 0 512 512.00025" width="512pt" xmlns="http://www.w3.org/2000/svg"><path d="m396.425781 268.34375h59.996094v143.65625h-59.996094zm0 0"/><path d="m282.808594 268.34375h60v143.65625h-60zm0 0"/><path d="m169.191406 268.34375h60v143.65625h-60zm0 0"/><path d="m55.578125 268.34375h59.996094v143.65625h-59.996094zm0 0"/><path d="m476.425781 223.34375v-15h-440.847656v15c0 8.285156 6.714844 15 15 15h410.847656c8.28125 0 15-6.714844 15-15zm0 0"/><path d="m496.992188 442h-481.976563c-8.285156 0-15 6.714844-15 15v40c0 8.285156 6.714844 15 15 15h481.976563c8.285156 0 15-6.714844 15-15v-40c0-8.285156-6.714844-15-15-15zm0 0"/><path d="m15 178.34375h482c6.710938 0 12.605469-4.457031 14.433594-10.914062 1.824218-6.457032-.855469-13.34375-6.570313-16.859376l-241-148.34375c-4.820312-2.96875-10.902343-2.96875-15.726562 0l-241 148.34375c-5.714844 3.519532-8.394531 10.402344-6.566407 16.859376 1.828126 6.457031 7.722657 10.914062 14.429688 10.914062zm230.804688-90.117188h20.394531c8.285156 0 15 6.714844 15 15 0 8.285157-6.714844 15-15 15h-20.394531c-8.285157 0-15-6.714843-15-15 0-8.285156 6.714843-15 15-15zm0 0"/></svg>