<?xml version="1.0" encoding="iso-8859-1"?>
<!-- Generator: Adobe Illustrator 19.0.0, SVG Export Plug-In . SVG Version: 6.00 Build 0)  -->
<svg xmlns="http://www.w3.org/2000/svg" xmlns:xlink="http://www.w3.org/1999/xlink" version="1.1" id="Layer_1" x="0px" y="0px" viewBox="0 0 512.041 512.041" style="enable-background:new 0 0 512.041 512.041;" xml:space="preserve" width="512" height="512">
<g>
	<path d="M503.606,150.285c8.099-15.438,10.466-33.594,6.666-51.126c-3.921-18.086-14.052-33.411-28.453-43.101   c-0.112-0.078-0.271-0.183-0.473-0.305c-8.178-4.928-18.984,0.187-20.513,9.549c-2.037,12.477-7.23,28.145-20.397,31.937   c-11.174,3.218-21.279-2.191-33.793-18.085c-2.562-3.255-7.277-3.816-10.532-1.254c-3.254,2.563-3.816,7.278-1.254,10.532   c6.59,8.371,24.097,30.605,49.73,23.221c15.912-4.583,26.495-19.034,30.688-41.852c21.422,15.962,28.232,48.386,15.048,73.514   c-15.643,29.817-54.472,37.066-85.006,37.888c-41.49,1.118-81.325-16.183-112.965-42.229c-8.004-6.588-14.819-14.388-22.673-21.121   c-7.748-6.643-19.581-6.634-27.317,0c-4.295,3.683-7.982,8.127-12.179,11.943c-31.085,28.259-70.121,49.432-112.989,51.318   c-4.138,0.182-7.345,3.684-7.163,7.822c0.182,4.138,3.687,7.354,7.822,7.163c25.007-1.1,50.045-8.189,73.832-20.619   c13.042,22.679,37.488,36.946,64.336,36.946c26.826,0,51.254-14.243,64.304-36.889c26.017,13.602,53.507,20.737,81.06,20.737   c22.161,0,45.224-3.309,65.491-12.657c13.281,15.51,38.08,54.689,8.647,106.842c0,0-7.447-10.337-7.471-10.371   c-6.901-9.58-22.16-3.458-21.127,8.108c1.738,19.469-0.648,46.726-21.151,68.125c0,0-7.349-10.202-7.373-10.235   c-6.758-9.382-21.745-3.777-21.161,7.611c0.977,19.025-4.428,46.522-35.113,70.838c0,0-14.087-19.434-14.118-19.477   c-6.139-8.47-19.581-4.868-21.034,5.346c-2.885,20.29-15.981,57.759-70.954,83.26c-54.972-25.501-68.069-62.969-70.954-83.259   c-1.454-10.223-14.904-13.801-21.034-5.346l-14.118,19.477c-30.683-24.315-36.09-51.812-35.113-70.837   c0.586-11.409-14.395-17.004-21.161-7.612l-7.372,10.235c-20.503-21.398-22.889-48.656-21.151-68.125   c1.035-11.592-14.199-17.727-21.128-8.11l-7.47,10.371c-29.436-52.156-4.632-91.336,8.648-106.844   c5.374,2.475,11.228,4.578,17.488,6.341c8.091,2.278,16.384,3.854,24.727,4.855c3.753,0.45,7.378-2.109,8.217-5.825   c0.963-4.266-2.094-8.552-6.425-9.074c-25.474-3.066-54.748-12.376-67.456-36.598C8.547,118.212,15.327,85.83,36.767,69.805   c4.193,22.816,14.776,37.266,30.689,41.849c28.436,8.187,48.278-20.776,62.462-40.552c11.448-15.961,23.287-32.466,39.688-42.817   c28.391-17.919,58.548-12.886,80.67,13.466c2.972,3.541,8.517,3.541,11.489,0.001c22.121-26.353,52.278-31.387,80.67-13.467   c14.604,9.217,25.597,23.404,34.755,35.979c2.439,3.349,7.13,4.085,10.478,1.647c3.348-2.438,4.086-7.129,1.648-10.478   c-9.976-13.698-22.029-29.203-38.874-39.835c-32.397-20.446-67.9-16.374-94.42,10.223C229.5-0.775,193.997-4.848,161.6,15.599   c-18.877,11.914-31.583,29.629-43.871,46.76c-10.18,14.19-24.751,41.037-46.124,34.88c-13.166-3.792-18.359-19.46-20.396-31.935   c-1.527-9.353-12.346-14.48-20.508-9.554c-0.208,0.125-0.367,0.23-0.405,0.257C15.821,65.747,5.69,81.073,1.77,99.159   c-3.801,17.532-1.434,35.688,6.665,51.126c5.367,10.229,13.271,18.866,23.477,25.803c-6.966,8.569-15.514,21.669-20.412,38.677   c-8.285,28.771-3.339,58.287,14.698,87.729c4.313,7.04,14.627,7.649,19.503,0.882l3.985-5.533   c-0.002,20.256,4.982,49.369,28.992,72.078c5.079,4.804,13.399,4,17.477-1.66l3.723-5.168c1.239,20.142,9.716,50.02,43.776,75.556   c5.154,3.864,12.638,2.649,16.391-2.53l11.575-15.968c2.364,10.502,7.18,24.021,16.901,38.097   c14.483,20.971,36.17,37.965,64.459,50.508c1.776,0.787,4.116,0.87,6.08,0c28.289-12.543,49.976-29.537,64.459-50.508   c9.721-14.076,14.536-27.596,16.901-38.098c0,0,11.558,15.945,11.575,15.968c3.762,5.19,11.249,6.385,16.39,2.531   c34.062-25.539,42.539-55.417,43.778-75.559c0,0,3.722,5.168,3.723,5.169c3.998,5.551,12.347,6.512,17.477,1.661   c24.01-22.709,28.994-51.823,28.991-72.079c0,0,3.983,5.529,3.986,5.534c4.884,6.781,15.19,6.156,19.502-0.883   c18.038-29.441,22.984-58.957,14.699-87.729c-4.889-16.978-13.417-30.063-20.375-38.633   C490.331,169.21,498.209,160.571,503.606,150.285z M256.021,197.427c-21.396,0-40.87-11.318-51.273-29.318   c13.772-8.533,26.936-18.847,39.297-30.774c2.585-2.491,5.119-5.038,7.598-7.634c2.366-2.478,6.394-2.475,8.755,0   c5.272,5.521,10.796,10.796,16.521,15.844c9.475,8.354,19.649,15.893,30.374,22.565   C296.89,186.109,277.417,197.427,256.021,197.427z"/>
</g>















</svg>
