<?xml version="1.0" encoding="utf-8"?>
<!-- Generator: Adobe Illustrator 21.1.0, SVG Export Plug-In . SVG Version: 6.00 Build 0)  -->
<svg version="1.1" id="Capa_1" xmlns="http://www.w3.org/2000/svg" xmlns:xlink="http://www.w3.org/1999/xlink" x="0px" y="0px"
	 viewBox="0 0 469.3 469.3" style="enable-background:new 0 0 469.3 469.3;" xml:space="preserve">
<style type="text/css">
	.st0{fill:none;stroke:#000;stroke-width:8;stroke-miterlimit:10;}
	.st1{fill:#000;}
</style>
<g>
	<g>
		<g>
			<path class="st0" d="M234.7,182.2c-28.9,0-52.5,23.5-52.5,52.5s23.5,52.5,52.5,52.5s52.5-23.5,52.5-52.5S263.6,182.2,234.7,182.2
				z"/>
			<path class="st0" d="M234.7,129.8c-69.9,0-129.7,43.5-153.9,104.9c24.2,61.4,83.9,104.9,153.9,104.9c70,0,129.7-43.5,153.9-104.9
				C364.3,173.3,304.7,129.8,234.7,129.8z M234.7,304.6c-38.6,0-69.9-31.3-69.9-69.9s31.3-69.9,69.9-69.9s69.9,31.3,69.9,69.9
				S273.3,304.6,234.7,304.6z"/>
		</g>
	</g>
</g>
<path class="st1" d="M438.8,108l-44.7-8.7c-92-17.8-186.8-15.8-278,5.9l-49.3,10.3V29l88.1,0.9c33.7,0.4,76.5,0.5,118.4,4
	c60.2,5,117.1,29.9,161.8,70.6L438.8,108z"/>
</svg>
