<?xml version="1.0" encoding="utf-8"?>
<!-- Generator: Adobe Illustrator 23.1.0, SVG Export Plug-In . SVG Version: 6.00 Build 0)  -->
<svg version="1.1" id="Слой_1" xmlns="http://www.w3.org/2000/svg" xmlns:xlink="http://www.w3.org/1999/xlink" x="0px" y="0px"
	 viewBox="0 0 480 480" style="enable-background:new 0 0 480 480;" xml:space="preserve">
<path d="M391.5,82.7H226.1c-48.8,0-88.5,39.7-88.5,88.5v55.5c0,7.6,1,14.8,2.9,22H60.2c-33.9,0-60.7,14.8-60.7,33
	c0,18.2,26.8,33,60.7,33h127.2c0.5,15.3,12.9,27.7,27.7,27.7h16.3c14.8,0,27.3-12.4,27.7-27.7h132.4c48.8,0,88.5-39.7,88.5-88.5v-55
	C480,122.4,440.3,82.7,391.5,82.7z M112.8,303.6H60.2c-29.2,0-49.7-11.5-49.7-22s20.6-22.5,49.7-22.5h52.6V303.6z M129.1,303.6h-11
	v-44.5h11V303.6z M145.8,303.6h-11v-44.5h11V303.6z M162.5,303.6h-11v-44.5h11V303.6z M178.8,303.6h-11v-44.5h11V303.6z
	 M187.4,303.6h-2.9v-44.5h2.9V303.6z M189.3,239.1c-16.3-8.6-23.9-18.2-23.9-40.2c0-27.7,28.7-49.7,60.7-49.7H392
	c32,0,60.7,27.7,60.7,49.7S425,248.6,392,248.6H259.1c-0.5-15.8-12.9-27.7-27.7-27.7h-16.7C203.2,220.9,193.1,228.5,189.3,239.1z
	 M247.6,316.5L247.6,316.5c-0.5,2.9-1.4,5.7-3.3,7.6c-2.9,4.3-7.6,7.2-13.4,7.2h-16.7c-8.6,0-15.8-7.2-16.7-16.7c0-0.5,0-1,0-1
	v-64.1c0-0.5,0-1,0-1c0-1.4,0.5-3.3,1-4.8c2.4-6.7,8.6-12,15.8-12h17.2c1.9,0,4.3,0.5,6.2,1.4c5.7,2.4,10,8.6,10.5,15.3h-16.7v66.5
	h16.7C248.1,315.1,248.1,315.5,247.6,316.5z M245.2,259.1v44h-2.9v-44H245.2z M262,303.6h-11v-44.5h11V303.6z M278.2,303.6h-11
	v-44.5h11V303.6z M295,303.6h-11v-44.5h11V303.6z M311.7,303.6h-11v-44.5h11V303.6z M328,303.6h-11v-44.5h11V303.6z M344.7,303.6
	h-11v-44.5h11V303.6z M361.4,303.6h-11v-44.5h11V303.6z M377.7,303.6h-11v-44.5h11V303.6z M394.4,259.1v44c-1,0-1.9,0-2.9,0h-8.1
	v-44h8.1C392.5,259.1,393.5,259.1,394.4,259.1L394.4,259.1z M469,226.1c0,39.7-30.1,72.7-68.8,77v-44c29.6-2.9,63.6-27.3,63.6-60.2
	c0-16.7-10-31.6-23.9-43c-13.9-11.5-32-18.2-47.8-18.2H226.1c-32,0-71.7,22-71.7,60.7c0,13.9,3.8,24.4,9.1,32
	c5.3,8.1,12.9,13.4,20.1,17.7H152c-1.9-7.2-3.3-14.8-3.3-22v-55c0-42.6,34.9-77.5,77.5-77.5H392c42.6,0,77.5,34.9,77.5,77.5v55H469z
	"/>
</svg>
