<?xml version="1.0" encoding="utf-8"?>
<!-- Generator: Adobe Illustrator 23.1.0, SVG Export Plug-In . SVG Version: 6.00 Build 0)  -->
<svg version="1.1" id="Слой_1" xmlns="http://www.w3.org/2000/svg" xmlns:xlink="http://www.w3.org/1999/xlink" x="0px" y="0px"
	 viewBox="0 0 384 384" style="enable-background:new 0 0 384 384;" xml:space="preserve">
<style type="text/css">
	.st0{fill:#FCE638;}
</style>
<path class="st0" d="M192,384c105.9,0,192-86.1,192-192c0-18.3-2.6-36.3-7.6-53.5c-2.5-8.5-11.3-13.4-19.8-10.9
	c-8.5,2.5-13.3,11.4-10.9,19.8c4.2,14.3,6.3,29.3,6.3,44.5c0,88.2-71.8,160-160,160S32,280.2,32,192S103.8,32,192,32
	c32.1,0,62.9,9.4,89.2,27.1c7.3,4.9,17.3,3,22.2-4.3c4.9-7.3,3-17.3-4.3-22.2C267.5,11.3,230.5,0,192,0C86.1,0,0,86.1,0,192
	S86.1,384,192,384z"/>
<path class="st0" d="M356.7,36.7L192,201.4l-52.7-52.7c-6.2-6.2-16.4-6.2-22.6,0c-6.2,6.2-6.2,16.4,0,22.6l64,64
	c3.1,3.1,7.2,4.7,11.3,4.7s8.2-1.6,11.3-4.7l176-176c6.2-6.2,6.2-16.4,0-22.6C373.1,30.4,362.9,30.4,356.7,36.7z"/>
</svg>
