<?xml version="1.0" encoding="utf-8"?>
<!-- Generator: Adobe Illustrator 21.1.0, SVG Export Plug-In . SVG Version: 6.00 Build 0)  -->
<svg version="1.1" id="Layer_1" xmlns="http://www.w3.org/2000/svg" xmlns:xlink="http://www.w3.org/1999/xlink" x="0px" y="0px"
	 viewBox="0 0 512 512" style="enable-background:new 0 0 512 512;" xml:space="preserve">
<style type="text/css">
	.st0{fill:#9B9B9B;}
</style>
<g>
	<g>
		<path class="st0" d="M223.7,377.9c-8.2-4.9-17.5-6.1-25.6-7.2L90,356.6c-4.1-0.5-7.9,2.4-8.4,6.5s2.4,7.9,6.5,8.4l108.1,14.1
			c7,0.9,14.3,1.9,19.8,5.2c8,4.8,12.7,14.5,17.5,25.7c1.6,3.8,6,5.6,9.8,3.9c3.8-1.6,5.6-6,3.9-9.8
			C242.7,400,236.5,385.6,223.7,377.9L223.7,377.9z"/>
		<path class="st0" d="M395.5,72.6c-1.6,0-3.1,0.5-4.3,1.4c-1.2,0.9-2.2,2.1-2.8,3.6c-6,17.1-14.2,33.4-24.4,48.8
			c-6.6,9.7-13.5,21-20.5,32.1v22.9l-1.3,32.7c-0.6,15.1-1.3,32.2,2.3,48.7c0.9,4,4.8,6.6,8.9,5.7c4-0.9,6.6-4.9,5.7-8.9
			c-3.2-14.6-2.5-30.6-2-44.8l2.2-54.3l17.2-25.7c11-16.4,19.7-33.8,26.1-52.2C404.3,77.7,400.7,72.6,395.5,72.6z M168.3,175.2
			v-22.9c-7.2-10.6-14.4-21.7-21.4-32.4c-2.3-3.5-6.9-4.4-10.4-2.2c-3.5,2.3-4.4,6.9-2.2,10.4c4.8,7.3,7.7,11,18,25.3l2.4,61.2
			c0.8,19,1.6,40.7-6.4,58.6C143,285,128,306.8,87.8,319.7c-26.1,8.4-55.2,11.3-82.5,19.4c-3.1,1-5.3,3.9-5.3,7.3v137.1
			c0,4.1,3.4,7.5,7.5,7.5c2,0,3.9-0.8,5.3-2.2c1.4-1.4,2.2-3.2,2.2-5.3V352c25.4-6.8,51.7-9.7,77.4-17.9
			c34-10.9,58.7-30.3,69.6-54.7c9.5-21.1,8.6-44.6,7.8-65.3L168.3,175.2z M131.7,92.8c-2.3-5-4.5-10.1-6.4-15.2
			c-1.1-2.9-3.9-4.8-7-4.8c-4.3,0-7.5,3.5-7.5,7.4c0,0.9,0.2,1.8,0.5,2.7c2.1,5.5,4.4,10.9,6.8,16.3c1.8,3.8,6.2,5.4,10,3.6
			C131.8,101,133.5,96.5,131.7,92.8z"/>
		<path class="st1" d="M343.5,158.5v22.9c-0.9,0.9-1.9,1.9-2.8,3c-13.9,15.2-31.9,43.6-50.9,43.6h-62.2c-21.4,0-41.9-30.4-56.3-49
			c-1-1.3-2-2.6-3-3.8v-22.9c1,1.5,2,3,3,4.5c21,30.6,41.4,56.1,56.3,56.1h62.2c16.7,0,34.2-24,50.9-50
			C341.6,161.4,342.6,159.9,343.5,158.5z"/>
		<path class="st0" d="M512,346.4v137.1c0,4.1-3.4,7.5-7.5,7.5l0,0c-4.1,0-7.5-3.4-7.5-7.5V352c-25.3-6.8-51.8-9.7-77.4-17.9
			c-18.6-6-44.3-17.7-60.8-39.7c-2.5-3.3-1.8-8,1.5-10.5s8-1.8,10.5,1.5c14.1,18.8,36.8,29.1,53.4,34.4c26.3,8.4,55,11.3,82.5,19.4
			C509.8,340.1,512,343,512,346.4z"/>
		<path class="st0" d="M287.9,377.9c-12.9,7.7-19,22.1-23.5,32.6c-1.6,3.8,0.1,8.2,3.9,9.8c3.8,1.6,8.2-0.1,9.8-3.9
			c4.8-11.2,9.4-20.9,17.5-25.7c5.6-3.3,12.8-4.3,19.8-5.2l108.1-14.1c4.1-0.5,7-4.3,6.5-8.4s-4.3-7-8.4-6.5l-108.1,14.1
			C305.4,371.8,296.2,373,287.9,377.9z"/>
	</g>
</g>
</svg>
