<?xml version="1.0" encoding="utf-8"?>
<!-- Generator: Adobe Illustrator 21.1.0, SVG Export Plug-In . SVG Version: 6.00 Build 0)  -->
<svg version="1.1" id="icon" xmlns="http://www.w3.org/2000/svg" xmlns:xlink="http://www.w3.org/1999/xlink" x="0px" y="0px"
	 viewBox="0 0 512 512" style="enable-background:new 0 0 512 512;" xml:space="preserve">
<style type="text/css">
	.st0{fill:none;stroke:#000000;stroke-width:44;stroke-linecap:round;stroke-miterlimit:10;}
</style>
<g>
	<g>
		<g>
			<path d="M74.5,154.8c20.4,29.9,123,180,139.1,196.2c11.7,11.7,27.1,17.5,42.4,17.5c15.4,0,30.7-5.8,42.4-17.5
				c23.4-23.4,23.4-61.5,0-84.9C282.3,249.9,132.2,147.4,102.3,127c-7.9-5.4-18.6-4.4-25.4,2.4C70.1,136.2,69.1,146.8,74.5,154.8z
				 M168.8,221.3c52.4,36.4,95.1,66.8,101.3,73c7.8,7.8,7.8,20.5,0,28.3c-7.8,7.8-20.5,7.8-28.3,0
				C235.7,316.4,205.3,273.8,168.8,221.3z"/>
			<path d="M393,410.7c-4.8,9.9-0.7,21.9,9.2,26.7l41,20c2.8,1.4,5.8,2,8.8,2c6.5,0,12.8-3.2,16.6-8.9C497,408.2,512,359,512,308.5
				c0-68.4-26.6-132.7-75-181c-48.4-48.4-112.6-75-181-75c-36.7,0-72.1,7.6-105.2,22.6c-10.1,4.5-14.5,16.4-10,26.5
				c4.5,10.1,16.4,14.5,26.5,10c21.9-9.9,44.9-15.9,68.8-18.1v30.1c0,11,9,20,20,20c11,0,20-9,20-20V93.4
				c69.5,6.4,129.6,45.9,164.3,102.5l-27.9,13.4c-10,4.8-14.2,16.7-9.4,26.7c3.4,7.2,10.6,11.4,18,11.4c2.9,0,5.8-0.6,8.6-2
				l28.3-13.6c9.1,23.8,14.1,49.7,14.1,76.7c0,36.8-9.5,72.8-27.5,105.1l-24.7-12C409.8,396.7,397.9,400.8,393,410.7z"/>
			<path d="M0,308.5c0,50.5,15,99.7,43.4,142.1c3.8,5.7,10.1,8.9,16.6,8.9c2.9,0,5.8-0.6,8.6-1.9l42-20c10-4.7,14.2-16.7,9.5-26.7
				c-4.8-10-16.7-14.2-26.7-9.5l-25.8,12.3C49.5,381.4,40,345.4,40,308.5c0-30.9,6.4-60.8,19-88.8c4.5-10.1,0.1-21.9-10-26.5
				c-10.1-4.5-21.9-0.1-26.5,10C7.6,236.4,0,271.8,0,308.5z"/>
		</g>
	</g>
</g>
<line class="st0" x1="107" y1="29" x2="193.5" y2="162"/>
</svg>
