<?xml version="1.0" encoding="utf-8"?>
<!-- Generator: Adobe Illustrator 23.1.0, SVG Export Plug-In . SVG Version: 6.00 Build 0)  -->
<svg version="1.1" id="Слой_1" xmlns="http://www.w3.org/2000/svg" xmlns:xlink="http://www.w3.org/1999/xlink" x="0px" y="0px"
	 viewBox="0 0 512 512" style="enable-background:new 0 0 512 512;" xml:space="preserve">
<g id="Outline_copy">
	<g>
		<path d="M350.9,101.6c-5.3-4.7-12.5-6.8-19.5-5.7c-11.8,2.3-20.3,12.8-20,24.9v103.1h-20.2c9.7-10.9,13.9-25.6,11.5-40
			c-3.4-19.2-18-34.4-37-38.6c-14.3-3-29.1,0.5-40.5,9.7c-17.8,14.5-22.9,39.5-12.2,59.8l-23.4-8l-6.2-56
			c-0.9-12.6-11.3-22.5-23.9-22.9l0,0c-6.8,0-13.2,2.9-17.8,8c-4.6,5-6.9,11.8-6.2,18.6l8,72c1,9.2,7.3,17,16,20l48,16.7v62.5
			l-41,41.2c-4.5,4.5-7,10.6-7,17V455c-0.3,12.1,8.2,22.6,20,24.9c13.1,2.2,25.5-6.6,27.7-19.7c0.2-1.4,0.4-2.9,0.3-4.3v-62.1
			l41.7-41.9h6.3V487c-0.3,12.1,8.2,22.6,20,24.9c1.3,0.1,2.7,0.1,4,0c13.3,0,24-10.7,24-24v-192c0-4.4-3.6-8-8-8s-8,3.6-8,8v192
			c0.1,4.4-3.5,8.1-7.9,8.1c-0.5,0-1,0-1.5-0.1c-4-1-6.8-4.7-6.6-8.8V343.9c0-4.4-3.6-8-8-8h-17.7c-2.1,0-4.2,0.8-5.7,2.3
			l-46.3,46.6c-1.5,1.5-2.3,3.6-2.3,5.7v65.4c0.1,4.4-3.5,8.1-7.9,8.1c-0.5,0-1,0-1.5-0.1c-4-1-6.8-4.7-6.6-8.8v-71.2
			c0-2.1,0.8-4.2,2.3-5.7l43.4-43.5c1.5-1.5,2.3-3.6,2.3-5.7v-71.4c0-3.4-2.1-6.5-5.4-7.6l-53.3-18.6c-2.9-1-4.9-3.6-5.3-6.6l-8-72
			c-0.3-2.2,0.4-4.5,1.9-6.2c1.5-1.7,3.7-2.7,6-2.7c4.2,0.4,7.6,3.8,8,8l6.7,61.1c0.4,3.1,2.4,5.6,5.4,6.6l46.5,16
			c1.1,0.4,2.1,1,2.9,1.8c1.5,1.4,3.5,2.2,5.5,2.2h5c4.4,0,8-3.6,8-8v-3.4c0-3.2-1.9-6.1-4.8-7.4c-16.2-7.1-23.6-25.9-16.5-42.1
			s25.9-23.6,42.1-16.5s23.6,25.9,16.5,42.1c-3.2,7.4-9.1,13.3-16.5,16.5c-2.9,1.3-4.8,4.2-4.8,7.4v3.5c0,4.4,3.6,8,8,8h40
			c8.8,0,16-7.2,16-16V120.8c-0.2-4.1,2.6-7.8,6.6-8.8c2.4-0.4,4.8,0.3,6.6,1.8c1.8,1.5,2.8,3.7,2.8,6.1v104c0,17.7-14.3,32-32,32
			h-16c-4.4,0-8,3.6-8,8s3.6,8,8,8h16c26.5,0,48-21.5,48-48v-104C359.3,112.9,356.2,106.2,350.9,101.6z"/>
		<path d="M265.9,103c3.8,2.5,8.3,3.8,12.9,3.8c8.2-0.1,15.8-4.1,20.3-10.9l0,0l21.4-33.8l33.8,21.5c1.3,0.8,2.8,1.3,4.3,1.3
			c2.7,0,5.3-1.4,6.7-3.7l17.2-27c1.3-1.8,1.8-4.1,1.3-6.3c-0.5-2.1-1.8-3.9-3.5-5l-40.6-25.7c-3.7-2.4-8.7-1.3-11,2.4l-16.8,27
			l-14.1,21.5c-1.7-2.2-3.7-4-6-5.5c-11.5-6.7-26.1-2.8-32.8,8.7C252.7,82.1,255.7,95.9,265.9,103L265.9,103z M337.9,35l27,17.2
			l-8.7,13.5l-27-17.2L337.9,35z M271.8,78.6c1.5-2.3,4.1-3.7,6.8-3.7c1.5,0,3,0.4,4.3,1.2c1.8,1.2,3,3,3.4,5c0.5,2.1,0.1,4.2-1,6
			l0,0c-2.4,3.7-7.3,4.8-11,2.5c0,0,0,0,0,0C270.6,87.2,269.5,82.3,271.8,78.6C271.8,78.6,271.8,78.6,271.8,78.6z"/>
		<path d="M111.8,90.6c2.4,11,12.1,18.8,23.4,18.9c1.7,0,3.5-0.2,5.2-0.6c6.2-1.4,11.6-5.1,15-10.5l0,0L181.3,58
			c2.4-3.7,1.3-8.7-2.4-11c-3.7-2.4-8.7-1.3-11,2.4l-13.8,21.4c-1.6-2.2-3.6-4-5.9-5.5c-11.2-7.1-26-3.9-33.1,7.3
			C111.5,77.9,110.4,84.4,111.8,90.6z M128.5,81.2c1.1-1.8,3-3.1,5-3.5c0.6-0.1,1.2-0.1,1.8,0c4.4,0,8,3.6,7.9,8.1
			c0,1.5-0.4,2.9-1.2,4.2l0,0c-1.1,1.8-3,3.1-5,3.5c-4.3,0.9-8.6-1.8-9.5-6.1c-0.4-2.1-0.1-4.2,1-6V81.2z"/>
		<path d="M223.8,80c4.4,0,8-3.6,8-8V40c0-4.4-3.6-8-8-8s-8,3.6-8,8v32C215.8,76.4,219.4,80,223.8,80z"/>
		<circle cx="103.8" cy="32" r="8"/>
	</g>
</g>
</svg>
