<?xml version="1.0" encoding="utf-8"?>
<!-- Generator: Adobe Illustrator 23.1.0, SVG Export Plug-In . SVG Version: 6.00 Build 0)  -->
<svg version="1.1" id="Слой_1" xmlns="http://www.w3.org/2000/svg" xmlns:xlink="http://www.w3.org/1999/xlink" x="0px" y="0px"
	 viewBox="0 0 100 100" style="enable-background:new 0 0 100 100;" xml:space="preserve">
<circle cx="18.1" cy="14.6" r="9"/>
<path d="M81.9,23.6c-4.4,0-8.1,3.2-8.9,7.4c0,0,0,0,0,0l-2.5,13.2L56,50.3c-2.1,0.9-3.1,3.3-2.2,5.4c0.7,1.6,2.2,2.6,3.8,2.6
	c0.5,0,1.1-0.1,1.6-0.3l15-6.3v0l1.6-0.7c1.3-0.6,2.3-1.7,2.5-3.2l1.5-9h2.8l-1.6,9.5c-0.4,2.4-2,4.3-4.2,5.3l-2.5,1l2.6,38.4
	c0,3.8,3.1,6.9,6.9,6.9c3.8,0,6.9-3.1,6.9-6.9V32.6C91,27.7,86.9,23.6,81.9,23.6z"/>
<g>
	<polygon points="45.4,48.5 37.7,51.7 38.2,53 38.6,54.1 46.3,50.9 	"/>
	<path d="M47.6,54l-0.2-0.5l-7.7,3.2l0.2,0.5c0.7,1.6,2.2,2.6,3.9,2.6c0.5,0,1.1-0.1,1.6-0.3C47.5,58.5,48.5,56.1,47.6,54z"/>
	<path d="M29.4,38.9h3l4.2,10.2l7.7-3.2l-6.7-16.5c0,0,0,0,0,0c-1.3-3.4-4.6-5.8-8.4-5.8c-5,0-9,4-9,9c0,0.4,0,0.8,0.1,1.1l4.1,59.3
		c0,3.8,3.1,6.9,6.9,6.9c3.8,0,6.9-3.1,6.9-6.9V59.7c-0.3-0.5-0.6-1-0.9-1.5L29.4,38.9z"/>
</g>
<path d="M67.4,11.1c0,0.2,0,0.5,0,0.7c0,5,4,9,9,9c5,0,9-4,9-9c0-0.2,0-0.5,0-0.7H67.4z"/>
<path d="M85.4,12.1c0-0.2,0-0.5,0-0.7c0-5-4-9-9-9c-5,0-9,4-9,9c0,0.2,0,0.5,0,0.7H85.4z"/>
</svg>
