<svg height="512pt" viewBox="0 -1 512 512" width="512pt" xmlns="http://www.w3.org/2000/svg"><path d="m136.535156 416.496094h-76.800781c-4.714844 0-8.535156 3.820312-8.535156 8.53125 0 4.714844 3.820312 8.535156 8.535156 8.535156h76.800781c4.710938 0 8.53125-3.820312 8.53125-8.535156 0-4.710938-3.820312-8.53125-8.53125-8.53125zm0 0"/><path d="m486.398438 245.828125h-145.066407v-170.667969c-.015625-14.128906-11.464843-25.582031-25.597656-25.597656h-8.535156v-32.496094c-.003907-5.050781-2.242188-9.84375-6.117188-13.085937-3.871093-3.242188-8.984375-4.601563-13.957031-3.714844l-271.582031 49.433594-.058594.023437c-8.75.796875-15.4570312 8.121094-15.484375 16.90625v426.667969c.0117188 9.417969 7.644531 17.054687 17.066406 17.066406h469.332032c14.132812-.015625 25.585937-11.46875 25.601562-25.601562v-213.332031c-.015625-14.132813-11.46875-25.585938-25.601562-25.601563zm-196.265626-228.761719v32.496094h-178.53125zm-273.066406 49.5625h298.667969c4.710937.003906 8.527344 3.820313 8.53125 8.53125v170.667969h-48.046875c11.03125-34.019531 4.890625-71.277344-16.46875-99.957031-.074219-.144532-.070312-.300782-.152344-.441406-.324218-.449219-.691406-.859376-1.101562-1.234376-20.910156-27.375-53.390625-43.4375-87.839844-43.433593-34.449219.003906-66.925781 16.066406-87.832031 43.445312-.40625.371094-.773438.777344-1.09375 1.222657-.085938.140624-.078125.296874-.152344.441406-24.070313 32.363281-28.609375 75.269531-11.84375 111.953125 16.765625 36.6875 52.175781 61.332031 92.398437 64.316406v60.222656h-102.398437c-4.714844 0-8.535156 3.820313-8.535156 8.53125 0 4.714844 3.820312 8.535157 8.535156 8.535157h102.398437v85.332031c.03125 2.914062.5625 5.800781 1.574219 8.535156h-146.640625zm210.542969 179.199219c1.410156-8.46875 2.265625-17.019531 2.566406-25.601563h33.90625c-.8125 8.777344-2.847656 17.390626-6.046875 25.601563zm2.566406-42.667969c-.40625-11.167968-1.757812-22.285156-4.046875-33.226562 8.027344-2.335938 15.835938-5.367188 23.335938-9.066406 8.242187 12.699218 13.265625 27.21875 14.636718 42.292968zm-68.042969 100.109375c-10.117187-4.949219-19.484374-18.277343-25.871093-37.257812 8.546875-1.5625 17.191406-2.523438 25.871093-2.878907zm0-57.203125c-10.167968.386719-20.296874 1.535156-30.292968 3.441406-1.976563-9.648437-3.175782-19.441406-3.582032-29.28125h33.875zm-33.917968-42.90625c.386718-9.828125 1.582031-19.609375 3.570312-29.246094 10.019532 1.898438 20.160156 3.039063 30.347656 3.414063v25.832031zm33.917968-83.054687v40.152343c-8.667968-.367187-17.300781-1.332031-25.835937-2.894531 6.488281-19.070312 16.023437-32.261719 25.835937-37.257812zm17.066407 57.222656c10.1875-.378906 20.332031-1.519531 30.347656-3.414063 1.992187 9.632813 3.1875 19.417969 3.570313 29.246094h-33.917969zm0-17.070313v-40.152343c9.8125 4.996093 19.347656 18.1875 25.835937 37.257812-8.535156 1.5625-17.167968 2.527344-25.835937 2.894531zm42.480469-6.824218c-3.015626-9.601563-7.25-18.773438-12.605469-27.292969 11.117187 5.019531 21.152343 12.148437 29.550781 20.992187-5.496094 2.488282-11.15625 4.59375-16.945312 6.292969zm-102.027344 0c-5.785156-1.703125-11.449219-3.808594-16.941406-6.296875 8.394531-8.847657 18.429687-15.976563 29.546874-20.992188-5.355468 8.515625-9.589843 17.683594-12.605468 27.28125zm-27.785156 7.441406c7.5 3.695312 15.308593 6.730469 23.339843 9.0625-2.289062 10.941406-3.644531 22.054688-4.046875 33.222656h-33.925781c1.367187-15.074218 6.390625-29.59375 14.632813-42.292968zm19.328124 59.351562c.425782 11.183594 1.785157 22.308594 4.058594 33.265626-8.089844 2.3125-15.953125 5.347656-23.5 9.0625-8.222656-12.714844-13.214844-27.242188-14.546875-42.328126zm8.375 49.773438c3.015626 9.597656 7.265626 18.765625 12.644532 27.273438-11.164063-4.972657-21.238282-12.097657-29.644532-20.964844 5.511719-2.496094 11.191407-4.605469 17-6.308594zm68.164063-24.171875c-1.367187.027344-2.730469.164063-4.074219.410156-1.460937-.082031-2.980468-.082031-4.460937-.140625v-25.871094h33.910156c-.34375 8.59375-1.316406 17.152344-2.910156 25.601563zm307.199219 238.933594c-.003906 4.710937-3.824219 8.527343-8.535156 8.535156h-298.664063c-4.710937-.007813-8.53125-3.824219-8.535156-8.535156v-213.332031c.003906-4.710938 3.824219-8.53125 8.535156-8.535157h298.664063c4.710937.003907 8.53125 3.824219 8.535156 8.535157zm0 0"/><path d="m469.332031 279.960938h-264.53125c-4.714843 0-8.535156 3.820312-8.535156 8.535156 0 4.710937 3.820313 8.53125 8.535156 8.53125h264.53125c4.714844 0 8.535157-3.820313 8.535157-8.53125 0-4.714844-3.820313-8.535156-8.535157-8.535156zm0 0"/><path d="m298.667969 314.09375h-85.335938c-9.417969.011719-17.054687 7.648438-17.066406 17.066406v102.402344c.011719 9.421875 7.648437 17.054688 17.066406 17.066406h85.335938c9.417969-.011718 17.054687-7.644531 17.066406-17.066406v-102.402344c-.011719-9.417968-7.648437-17.054687-17.066406-17.066406zm0 17.066406.003906 72.289063c-5.445313-3.851563-11.472656-6.816407-17.847656-8.789063 8.335937-12.460937 6.140625-29.167968-5.128907-39.054687-11.269531-9.886719-28.121093-9.886719-39.390624 0-11.269532 9.886719-13.464844 26.59375-5.128907 39.054687-6.375 1.96875-12.394531 4.933594-17.84375 8.785156v-72.285156zm-55.46875 46.933594c0-7.066406 5.730469-12.796875 12.800781-12.796875s12.800781 5.730469 12.800781 12.796875c0 7.070312-5.730469 12.800781-12.800781 12.800781-7.066406-.007812-12.792969-5.734375-12.800781-12.800781zm-29.867188 55.46875c0-13.875 19.542969-25.601562 42.667969-25.601562s42.667969 11.726562 42.667969 25.601562zm0 0"/><path d="m460.800781 314.09375h-110.933593c-4.714844 0-8.535157 3.820312-8.535157 8.535156 0 4.710938 3.820313 8.53125 8.535157 8.53125h110.933593c4.710938 0 8.53125-3.820312 8.53125-8.53125 0-4.714844-3.820312-8.535156-8.53125-8.535156zm0 0"/><path d="m358.398438 348.226562h-8.53125c-4.714844 0-8.535157 3.824219-8.535157 8.535157 0 4.710937 3.820313 8.535156 8.535157 8.535156h8.53125c4.714843 0 8.535156-3.824219 8.535156-8.535156 0-4.710938-3.820313-8.535157-8.535156-8.535157zm0 0"/><path d="m460.800781 348.226562h-68.265625c-4.714844 0-8.535156 3.824219-8.535156 8.535157 0 4.710937 3.820312 8.535156 8.535156 8.535156h68.265625c4.710938 0 8.53125-3.824219 8.53125-8.535156 0-4.710938-3.820312-8.535157-8.53125-8.535157zm0 0"/><path d="m358.398438 382.363281h-8.53125c-4.714844 0-8.535157 3.820313-8.535157 8.53125 0 4.714844 3.820313 8.535157 8.535157 8.535157h8.53125c4.714843 0 8.535156-3.820313 8.535156-8.535157 0-4.710937-3.820313-8.53125-8.535156-8.53125zm0 0"/><path d="m460.800781 382.363281h-68.265625c-4.714844 0-8.535156 3.820313-8.535156 8.53125 0 4.714844 3.820312 8.535157 8.535156 8.535157h68.265625c4.710938 0 8.53125-3.820313 8.53125-8.535157 0-4.710937-3.820312-8.53125-8.53125-8.53125zm0 0"/><path d="m358.398438 416.496094h-8.53125c-4.714844 0-8.535157 3.820312-8.535157 8.53125 0 4.714844 3.820313 8.535156 8.535157 8.535156h8.53125c4.714843 0 8.535156-3.820312 8.535156-8.535156 0-4.710938-3.820313-8.53125-8.535156-8.53125zm0 0"/><path d="m460.800781 416.496094h-68.265625c-4.714844 0-8.535156 3.820312-8.535156 8.53125 0 4.714844 3.820312 8.535156 8.535156 8.535156h68.265625c4.710938 0 8.53125-3.820312 8.53125-8.535156 0-4.710938-3.820312-8.53125-8.53125-8.53125zm0 0"/><path d="m358.398438 450.628906h-8.53125c-4.714844 0-8.535157 3.820313-8.535157 8.53125 0 4.714844 3.820313 8.535156 8.535157 8.535156h8.53125c4.714843 0 8.535156-3.820312 8.535156-8.535156 0-4.710937-3.820313-8.53125-8.535156-8.53125zm0 0"/><path d="m460.800781 450.628906h-68.265625c-4.714844 0-8.535156 3.820313-8.535156 8.53125 0 4.714844 3.820312 8.535156 8.535156 8.535156h68.265625c4.710938 0 8.53125-3.820312 8.53125-8.535156 0-4.710937-3.820312-8.53125-8.53125-8.53125zm0 0"/></svg>