<svg height="496pt" viewBox="0 -24 496 496" width="496pt" xmlns="http://www.w3.org/2000/svg"><path d="m472 0h-201.054688c-51.90625 0-101.746093 24.59375-133.320312 65.785156l-102.953125 134.269532c-22.359375 29.167968-34.671875 65.464843-34.671875 102.226562v121.71875c0 13.230469 10.769531 24 24 24h448c13.230469 0 24-10.769531 24-24v-400c0-13.230469-10.769531-24-24-24zm-424.632812 209.792969 102.953124-134.273438c28.566407-37.273437 73.664063-59.519531 120.625-59.519531h201.054688c4.40625 0 8 3.59375 8 8v328h-464v-49.71875c0-33.257812 11.144531-66.105469 31.367188-92.488281zm424.632812 222.207031h-448c-4.40625 0-8-3.59375-8-8v-24h32v-16h-32v-16h464v16h-424v16h424v24c0 4.40625-3.59375 8-8 8zm0 0"/><path d="m448 272h-64c-8.824219 0-16 7.175781-16 16v16c0 8.824219 7.175781 16 16 16h64c8.824219 0 16-7.175781 16-16v-16c0-8.824219-7.175781-16-16-16zm-64 16h32v16h-32zm64 16h-16v-16h16zm0 0"/><path d="m96 256h368v-224h-192.664062c-42.28125 0-82.777344 20.105469-108.328126 53.785156l-68.601562 90.375c-12.476562.839844-22.40625 11.152344-22.40625 23.839844v32c0 13.230469 10.769531 24 24 24zm79.742188-160.542969c22.554687-29.722656 58.289062-47.457031 95.59375-47.457031h176.664062v192h-272.207031c5.078125-6.703125 8.207031-14.960938 8.207031-24v-40h-69.382812zm-87.742188 104.542969c0-4.40625 3.59375-8 8-8h72v24c0 13.230469-10.769531 24-24 24h-48c-4.40625 0-8-3.59375-8-8zm0 0"/></svg>