<?xml version="1.0" encoding="utf-8"?>
<!-- Generator: Adobe Illustrator 21.1.0, SVG Export Plug-In . SVG Version: 6.00 Build 0)  -->
<svg version="1.1" id="icon" xmlns="http://www.w3.org/2000/svg" xmlns:xlink="http://www.w3.org/1999/xlink" x="0px" y="0px"
	 viewBox="0 0 512 512" style="enable-background:new 0 0 512 512;" xml:space="preserve">
<g>
	<g>
		<path d="M502,225.1c-5.5,0-10,4.5-10,10V295h-34v-85c0-2.6-1-5.2-2.9-7.1l-31-31c-1.9-1.9-4.4-2.9-7.1-2.9h-91v-30h55
			c18.8,0,34-15.3,34-34s-15.3-34-34-34H171c-18.8,0-34,15.3-34,34s15.3,34,34,34h55v30h-45.3c-2.7,0-5.2,1-7.1,2.9l-29.4,29.4H104
			c-5.5,0-10,4.5-10,10V255H74c-5.5,0-10,4.5-10,10v30H52v-71.5c0-14.3-11.7-26-26-26s-26,11.7-26,26v164.1c0,14.3,11.7,26,26,26
			s26-11.7,26-26V315h12v30c0,5.5,4.5,10,10,10h20v21.8c0,2.7,1,5.2,2.9,7.1l54.2,54.2c1.9,1.9,4.4,2.9,7.1,2.9h196.3
			c2.7,0,5.2-1,7.1-2.9l18.6-18.6H448c5.5,0,10-4.5,10-10V315h34v60.1c0,5.5,4.5,10,10,10s10-4.5,10-10v-140
			C512,229.6,507.5,225.1,502,225.1z M287.3,397h-96.5c-2.6,0-5.2-1-7.1-2.9l-45.2-45.2c-3.9-3.9-3.9-10.2,0-14.1
			c3.9-3.9,10.2-3.9,14.1,0l42.3,42.3h92.4c5.5,0,10,4.5,10,10S292.8,397,287.3,397z M306,169h-60v-30h60V169z"/>
	</g>
</g>
</svg>
