<?xml version="1.0" encoding="utf-8"?>
<!-- Generator: Adobe Illustrator 23.1.0, SVG Export Plug-In . SVG Version: 6.00 Build 0)  -->
<svg version="1.1" id="Слой_1" xmlns="http://www.w3.org/2000/svg" xmlns:xlink="http://www.w3.org/1999/xlink" x="0px" y="0px"
	 viewBox="0 0 512 512" style="enable-background:new 0 0 512 512;" xml:space="preserve">
<style type="text/css">
	.st0{fill:#FFFFFF;}
	.st1{fill:#FF0082;}
</style>
<path class="st0" d="M447.2,497.5H64.8c-27.8,0-50.3-22.6-50.3-50.3V64.8c0-27.7,22.6-50.3,50.3-50.3h382.4
	c27.8,0,50.3,22.6,50.3,50.3v382.4C497.5,474.9,474.9,497.5,447.2,497.5z M64.8,34.6c-16.6,0-30.2,13.5-30.2,30.2v382.4
	c0,16.6,13.5,30.2,30.2,30.2h382.4c16.6,0,30.2-13.5,30.2-30.2V64.8c0-16.6-13.5-30.2-30.2-30.2H64.8z"/>
<path class="st1" d="M185.6,336.5h-40.2c-27.8,0-50.3-22.6-50.3-50.3v-60.4c0-27.7,22.6-50.3,50.3-50.3h40.2
	c5.6,0,10.1,4.5,10.1,10.1s-4.5,10.1-10.1,10.1h-40.2c-16.6,0-30.2,13.5-30.2,30.2v60.4c0,16.6,13.5,30.2,30.2,30.2h40.2
	c5.6,0,10.1,4.5,10.1,10.1S191.1,336.5,185.6,336.5z"/>
<path class="st1" d="M427.1,336.5h-40.2c-27.8,0-50.3-22.6-50.3-50.3v-60.4c0-27.7,22.6-50.3,50.3-50.3h40.2
	c5.6,0,10.1,4.5,10.1,10.1s-4.5,10.1-10.1,10.1h-40.2c-16.6,0-30.2,13.5-30.2,30.2v60.4c0,16.6,13.5,30.2,30.2,30.2h40.2
	c5.6,0,10.1,4.5,10.1,10.1S432.6,336.5,427.1,336.5z"/>
<path class="st1" d="M185.6,266.1h-80.5c-5.6,0-10.1-4.5-10.1-10.1s4.5-10.1,10.1-10.1h80.5c5.6,0,10.1,4.5,10.1,10.1
	S191.1,266.1,185.6,266.1z"/>
<path class="st1" d="M271.1,336.5h-45.3c-5.6,0-10.1-4.5-10.1-10.1s4.5-10.1,10.1-10.1h45.3c13.9,0,25.2-11.3,25.2-25.2
	s-11.3-25.2-25.2-25.2H261c-25,0-45.3-20.3-45.3-45.3s20.3-45.3,45.3-45.3h45.3c5.6,0,10.1,4.5,10.1,10.1s-4.5,10.1-10.1,10.1H261
	c-13.9,0-25.2,11.3-25.2,25.2c0,13.9,11.3,25.2,25.2,25.2h10.1c25,0,45.3,20.3,45.3,45.3S296,336.5,271.1,336.5z"/>
</svg>
