<svg id="_x31__px" enable-background="new 0 0 24 24" height="512" viewBox="0 0 24 24" width="512" xmlns="http://www.w3.org/2000/svg"><g><path d="m8 15c-.827 0-1.5-.673-1.5-1.5s.673-1.5 1.5-1.5 1.5.673 1.5 1.5-.673 1.5-1.5 1.5zm0-2c-.275 0-.5.225-.5.5s.225.5.5.5.5-.225.5-.5-.225-.5-.5-.5z"/></g><g><path d="m3.211 15.718-.941-.336 1.8-5.05c.054-.151.178-.268.331-.313.126-.037 3.109-.938 3.109-3.519 0-.264.205-.482.469-.499.279-.029.494.175.527.436.001.006.311 1.606 3.643 2.646l-.297.955c-1.928-.602-3.002-1.407-3.599-2.092-.699 1.85-2.626 2.698-3.323 2.951z"/></g><g><path d="m12 19.03c-1.056 0-2.055-.418-2.813-1.177-.195-.195-.195-.512 0-.707s.512-.195.707 0c.57.57 1.318.884 2.106.884.276 0 .5.224.5.5s-.224.5-.5.5z"/></g><g><path d="m2.5 16.06c-1.379 0-2.5-1.121-2.5-2.5s1.121-2.5 2.5-2.5v1c-.827 0-1.5.673-1.5 1.5 0 .842.686 1.482 1.545 1.5.045 0 .09-.001.135-.006l.121.992c-.101.013-.2.014-.301.014z"/></g><g><path d="m22 14c-1.103 0-2-.897-2-2s.897-2 2-2 2 .897 2 2-.897 2-2 2zm0-3c-.552 0-1 .448-1 1s.448 1 1 1 1-.448 1-1-.448-1-1-1z"/></g><g><path d="m20.5 12.5h-6c-.276 0-.5-.224-.5-.5s.224-.5.5-.5h6c.276 0 .5.224.5.5s-.224.5-.5.5z"/></g><g><path d="m14.5 8.5c-.128 0-.256-.049-.354-.146-.195-.195-.195-.512 0-.707l3-3c.094-.094.221-.147.354-.147h3c.276 0 .5.224.5.5s-.224.5-.5.5h-2.793l-2.854 2.854c-.097.097-.225.146-.353.146z"/></g><g><path d="m22 7c-1.103 0-2-.897-2-2s.897-2 2-2 2 .897 2 2-.897 2-2 2zm0-3c-.552 0-1 .448-1 1s.448 1 1 1 1-.448 1-1-.448-1-1-1z"/></g><g><path d="m20.5 19.5h-3c-.133 0-.26-.053-.354-.146l-3-3c-.195-.195-.195-.512 0-.707s.512-.195.707 0l2.854 2.854h2.793c.276 0 .5.224.5.5s-.224.499-.5.499z"/></g><g><path d="m22 21c-1.103 0-2-.897-2-2s.897-2 2-2 2 .897 2 2-.897 2-2 2zm0-3c-.552 0-1 .448-1 1s.448 1 1 1 1-.448 1-1-.448-1-1-1z"/></g><g><path d="m10.993 23.943c-.057 0-.114-.004-.172-.01-2.954-.344-5.386-2.019-7.227-4.979-.03-.052-.495-.875-.692-1.323-.277-.639-.496-1.301-.649-1.969-.168-.745-.253-1.525-.253-2.322v-5.35c0-5.324 4.782-7.606 8.877-7.943.412-.043.829.108 1.137.392.31.284.486.688.486 1.108v20.89c0 .429-.185.839-.506 1.125-.277.247-.635.381-1.001.381zm.007-22.901c-.014 0-.027 0-.041.001-3.672.303-7.959 2.303-7.959 6.947v5.35c0 .723.077 1.43.228 2.1.14.606.339 1.21.592 1.791.176.4.631 1.206.636 1.214 1.685 2.708 3.809 4.185 6.481 4.495.142.022.283-.027.393-.125s.171-.232.171-.378v-20.89c0-.144-.059-.275-.164-.373-.094-.086-.212-.132-.337-.132z"/></g></svg>