<?xml version="1.0" encoding="utf-8"?>
<!-- Generator: Adobe Illustrator 21.1.0, SVG Export Plug-In . SVG Version: 6.00 Build 0)  -->
<svg version="1.1" id="Capa_1" xmlns="http://www.w3.org/2000/svg" xmlns:xlink="http://www.w3.org/1999/xlink" x="0px" y="0px"
	 viewBox="0 0 512 512" style="enable-background:new 0 0 512 512;" xml:space="preserve">
<g>
	<g>
		<path class="st0" d="M471.6,0H87.7c-4.4,0-8,3.6-8,8v456H40.4c-5,0-8.8,4.6-7.9,9.5c4.4,22,23.8,38.5,47.1,38.5h352
			c26.5,0,48-21.5,48-48V8C479.6,3.6,476,0,471.6,0z M135.6,200h88c4.4,0,8,3.6,8,8s-3.6,8-8,8h-88c-4.4,0-8-3.6-8-8
			S131.2,200,135.6,200z M127.6,176c0-4.4,3.6-8,8-8h48c4.4,0,8,3.6,8,8s-3.6,8-8,8h-48C131.2,184,127.6,180.4,127.6,176z
			 M175.6,304h16c17.6,0,32,14.4,32,32s-14.3,32-32,32v8c0,4.4-3.6,8-8,8c-4.4,0-8-3.6-8-8v-8h-24c-4.4,0-8-3.6-8-8s3.6-8,8-8h40
			c8.8,0,16-7.2,16-16s-7.2-16-16-16h-16c-17.6,0-32-14.4-32-32s14.4-32,32-32v-8c0-4.4,3.6-8,8-8c4.4,0,8,3.6,8,8v8h24
			c4.4,0,8,3.6,8,8s-3.6,8-8,8h-40c-8.8,0-16,7.2-16,16S166.8,304,175.6,304z M135.6,408h56c4.4,0,8,3.6,8,8s-3.6,8-8,8h-56
			c-4.4,0-8-3.6-8-8S131.2,408,135.6,408z M423.6,424h-200c-4.4,0-8-3.6-8-8s3.6-8,8-8h200c4.4,0,8,3.6,8,8S428,424,423.6,424z
			 M287.6,320h-16c-17.6,0-32-14.4-32-32s14.4-32,32-32v-8c0-4.4,3.6-8,8-8c4.4,0,8,3.6,8,8v8h24c4.4,0,8,3.6,8,8s-3.6,8-8,8h-40
			c-8.8,0-16,7.2-16,16s7.2,16,16,16h16c17.6,0,32,14.4,32,32s-14.4,32-32,32v8c0,4.4-3.6,8-8,8c-4.4,0-8-3.6-8-8v-8h-24
			c-4.4,0-8-3.6-8-8s3.6-8,8-8h40c8.8,0,16-7.2,16-16S296.4,320,287.6,320z M383.6,320h-16c-17.6,0-32-14.4-32-32s14.4-32,32-32v-8
			c0-4.4,3.6-8,8-8c4.4,0,8,3.6,8,8v8h24c4.4,0,8,3.6,8,8s-3.6,8-8,8h-40c-8.8,0-16,7.2-16,16s7.2,16,16,16h16c17.6,0,32,14.4,32,32
			s-14.4,32-32,32v8c0,4.4-3.6,8-8,8c-4.4,0-8-3.6-8-8v-8h-24c-4.4,0-8-3.6-8-8s3.6-8,8-8h40c8.8,0,16-7.2,16-16
			S392.4,320,383.6,320z M423.6,216h-168c-4.4,0-8-3.6-8-8s3.6-8,8-8h168c4.4,0,8,3.6,8,8S428,216,423.6,216z M423.6,184h-200
			c-4.4,0-8-3.6-8-8s3.6-8,8-8h200c4.4,0,8,3.6,8,8S428,184,423.6,184z M431.6,120c0,4.4-3.6,8-8,8h-288c-4.4,0-8-3.6-8-8V56
			c0-4.4,3.6-8,8-8h288c4.4,0,8,3.6,8,8V120z"/>
	</g>
</g>
</svg>
