<?xml version="1.0" encoding="utf-8"?>
<!-- Generator: Adobe Illustrator 23.1.0, SVG Export Plug-In . SVG Version: 6.00 Build 0)  -->
<svg version="1.1" id="Слой_1" xmlns="http://www.w3.org/2000/svg" xmlns:xlink="http://www.w3.org/1999/xlink" x="0px" y="0px"
	 viewBox="0 0 1000 300" style="enable-background:new 0 0 1000 300;" xml:space="preserve">
<style type="text/css">
	.st0{fill:#FF0082;}
	.st1{fill:#FFFFFF;}
</style>
<g transform="translate(0.000000,300.000000) scale(0.100000,-0.100000)">
	<path class="st0" d="M3416,2688c-21-112-42-223-47-248s-14-70-19-100s-23-127-40-215s-33-171-35-185c-8-48-36-203-90-485
		c-20-104-45-239-56-300c-11-60-33-177-49-260c-16-82-40-211-54-285s-39-205-55-290s-32-172-35-193l-7-37h865h866l4,23
		c20,97,28,136,46,237s26,140,46,237l4,23h-560c-636,0-569-11-549,91c5,30,16,90,24,134s28,157,44,250c17,94,31,173,31,178
		c0,4,253,7,563,7h563l11,58c7,31,21,109,33,172s29,156,39,205l17,90l-563,3c-310,1-563,5-563,9c0,7,34,197,50,278
		c5,28,19,99,30,159s21,111,23,112c1,1,291,4,645,6l642,3l-5-25c-3-14-12-61-20-105c-7-44-28-152-45-240s-38-196-45-240
		c-8-44-21-117-30-162c-8-46-21-118-29-160c-8-43-26-139-40-213c-15-74-33-171-41-215c-12-64-54-291-80-425c-3-14-10-52-16-85
		c-12-69-34-188-55-292c-8-40-14-81-14-93V90l842,2l842,3l11,60c7,33,17,89,24,125c6,36,20,112,31,170s22,117,25,133l5,27h-540
		c-297,0-540,1-540,3c0,1,14,79,30,172c30,165,48,265,73,410l12,70l518,3c514,2,517,2,517,23c0,11,20,127,45,257s45,240,45,244
		s-229,8-509,8c-367,0-510,3-513,11c-2,6,6,61,18,122s35,184,50,274l29,163h536h535l12,73c7,39,28,155,47,257s35,186,35,188
		c0,1-798,2-1773,2H3454L3416,2688z"/>
	<path class="st1" d="M7890,2539c-176-23-388-83-490-141c-150-84-293-230-411-420c-141-227-169-307-189-527c-12-136-2-297,26-392
		c8-30,44-113,79-185c55-113,73-141,131-199c89-88,212-175,316-225c109-53,180-59,634-60h351l93,222c52,123,104,247,116,276l23,52
		h290c160,0,291-4,291-8c0-29,41-489,45-499c6-19,495-19,495,0c0,16-235,1892-252,2012l-13,90h-294h-294l-141-300
		c-137-291-192-403-481-965c-75-146-155-302-178-347l-41-83l-91-2c-196-4-230,7-350,105c-135,110-192,207-215,369
		c-24,160-8,245,77,412c47,92,70,124,132,186c154,153,302,210,547,210c108,0,227-20,307-51c26-11,52-19,56-19c13,0,134,381,124,390
		c-23,21-215,82-301,95C8178,2551,7996,2553,7890,2539z M9060,2031c0-22,50-619,55-656l5-40h-193h-194l52,125c29,69,94,227,146,352
		c72,173,98,228,112,228C9052,2040,9060,2036,9060,2031z"/>
	<path class="st1" d="M676,2531c-7-10-466-2070-466-2089c0-10,55-12,257-10l256,3l78,350c43,193,83,373,89,400l10,50l365-3l365-2
		l10,22c5,13,23,97,40,188s34,175,37,188l5,22h-361c-337,0-361,1-361,18c1,9,22,114,49,232l48,215l423,3l422,2l-5-22
		c-20-79-367-1650-367-1658c0-7,209-9,647-8l647,3l37,190c21,105,38,198,38,208c1,16-24,17-379,17c-209,0-380,4-380,8
		c0,5,81,370,179,813c98,442,182,819,186,837l7,32h-936C1094,2540,679,2536,676,2531z"/>
</g>
</svg>
