<?xml version="1.0" encoding="utf-8"?>
<!-- Generator: Adobe Illustrator 21.1.0, SVG Export Plug-In . SVG Version: 6.00 Build 0)  -->
<svg version="1.1" id="Capa_1" xmlns="http://www.w3.org/2000/svg" xmlns:xlink="http://www.w3.org/1999/xlink" x="0px" y="0px"
	 viewBox="0 0 512 512" style="enable-background:new 0 0 512 512;" xml:space="preserve">
<path d="M510.4,257.3c-3.8,10.5-14.1,17.3-25.3,17.3H449v204.5c0,11.2-9.1,20.3-20.3,20.3h0c-11.2,0-20.3-9.1-20.3-20.3V255.3
	c0-16.7-13.5-30.3-30.3-30.3H133.8c-16.7,0-30.3,13.5-30.3,30.3v223.8c0,11.2-9.1,20.3-20.3,20.3h0c-11.2,0-20.3-9.1-20.3-20.3
	V274.5H26.3c-10.9,0-20.5-6.6-24.5-16.8c-3.9-10.2-1.3-21.5,6.8-28.9L238.3,19.6c10.1-9.2,25.3-9.2,35.4,0l52.2,47.6v-8.4
	c0-8.3,6.7-15.1,15.1-15.1h104.1c8.3,0,15.1,6.7,15.1,15.1v130.7l43.3,39.4C511.4,236.1,514.1,247.2,510.4,257.3z"/>
<path d="M167.2,442.1h-29.5c-4.9,0-9.6-1.3-13.8-3.7v16.5c0,7.5,6.4,13.4,13.8,13.4H154c7.3,0,13.2-5.8,13.2-13.1c0-0.1,0-0.2,0-0.3
	V442.1z"/>
<path d="M374.3,442.1h-29.5v12.7c-0.1,7.3,5.7,13.3,12.9,13.4c0.1,0,0.2,0,0.3,0h16.2c7.5,0,13.8-5.9,13.8-13.4v-16.5
	C383.9,440.8,379.1,442.1,374.3,442.1z"/>
<rect x="153" y="379.5" width="34.3" height="20.1"/>
<path d="M282.7,330.2h59c-2.8-13.4-14.9-24.1-29.5-24.1C297.7,306.1,285.5,316.8,282.7,330.2z"/>
<path d="M353.8,330.2h14.8l-19.3-51.8c-2-5.3-7.1-8.7-12.7-8.6H179.2c-5.6-0.1-10.7,3.4-12.7,8.6l-19.3,51.8h123.3
	c3.3-23,24.6-38.9,47.6-35.6C336.6,297.2,351.2,311.7,353.8,330.2z"/>
<rect x="324.7" y="379.5" width="34.3" height="20.1"/>
<path d="M137.7,430.2h236.5c7.5,0,13.8-5.9,13.8-13.4v-50.8c-0.1-6.5-2.7-12.7-7.4-17.1l-7.1-6.8H141.9l-9.6,8.2
	c-5.3,4.5-8.3,11-8.4,18v48.5C123.9,424.3,130.3,430.2,137.7,430.2z M312.7,373.5c0-3.3,2.7-6,6-6H365c3.3,0,6,2.7,6,6v32.1
	c0,3.3-2.7,6-6,6h-46.3c-3.3,0-6-2.7-6-6V373.5z M226.3,374.2h59.5c3.3,0,6,2.7,6,6c0,3.3-2.7,6-6,6h-59.5c-3.3,0-6-2.7-6-6
	C220.3,376.9,223,374.2,226.3,374.2z M226.3,392.9h59.5c3.3,0,6,2.7,6,6c0,3.3-2.7,6-6,6h-59.5c-3.3,0-6-2.7-6-6
	C220.3,395.6,223,392.9,226.3,392.9z M141.1,373.5c0-3.3,2.7-6,6-6h46.3c3.3,0,6,2.7,6,6v32.1c0,3.3-2.7,6-6,6h-46.3
	c-3.3,0-6-2.7-6-6V373.5z"/>
</svg>
