<?xml version="1.0" encoding="utf-8"?>
<!-- Generator: Adobe Illustrator 23.1.0, SVG Export Plug-In . SVG Version: 6.00 Build 0)  -->
<svg version="1.1" id="Слой_1" xmlns="http://www.w3.org/2000/svg" xmlns:xlink="http://www.w3.org/1999/xlink" x="0px" y="0px"
	 viewBox="0 0 1000 800" style="enable-background:new 0 0 1000 800;" xml:space="preserve">
<g>
	<g>
		<path d="M999.7,257.1l-6.9-26c-2.9-11.6,1.2-12.8,1.2-12.8V213c-0.5-7.5-8.7-8.2-8.7-8.2l-16.3-0.5l-0.5-9.9
			c-3.5-10.4-14.6-6.9-14.6-6.9l-27.7,11.6l-1.2,3.5h-48.7l-4.7,5.2h-8.7l-5.2-5.2l-225.4-3.5v2.9h-13.4l-2.9-5.2l-201.7-1.7
			c-1.7-10.9-15.6-10.4-15.6-10.4c-3.5,0-190.1,2.3-190.1,2.3l-10.9-11.6c-3.5-3.5-11.1-4.7-11.1-4.7l-10.4-1.2
			c-8.2,0-8.2,6.4-8.2,6.4l-0.5,11.1l-16.3,1.7l-29.5,26l-8.7,17.3c-9.9,4-24.3-6.4-24.3-6.4c-20.3,3.5-14.6,18-14.6,18
			C95.7,270.4,91,290,91,290l-9.4,23.8c-7.5,13.4-19.1,11.6-19.1,11.6C12.8,332.3,0,346.9,0,346.9c0,20.3,22,23.8,22,23.8
			c51.5,2.3,73,10.4,73,10.4c37.1,9.2,22.5,62.6,22.5,62.6l-2.9,3.5C83.9,529.3,52.5,585,52.5,585c-31.2,45.3-27.2,93.3-27.2,93.3
			l7.5,2.3l-3.5,15.1c-3.5,20.3,42.3,19.1,42.3,19.1c13.9,1.2,9.2,6.9,9.2,6.9c-2.3,3.5-7.5,4.7-7.5,4.7l-2.9,4.7l0.5,5.2
			c67.8,9.9,197,9.2,197,9.2l1.2-11.1l42.1-186.9c10.4-50.5,35.9-62.6,35.9-62.6c5.7-4,14.6-1.7,14.6-1.7l12.1,3.5h118.8l2.3-12.1
			l-4-9.9c-1.2-84.6,53.2-90.3,53.2-90.3c25-7.5,381.3,10.4,381.3,10.4c18.6,0,28.4-13.9,28.4-13.9l1.2-5.7
			c17.3-2.9,35.4-63.1,35.4-63.1C1002.6,274.4,999.7,257.1,999.7,257.1z M478.8,447.6c-0.5,23.8-16.6,24.3-16.6,24.3l-86-1.4
			c-33.3-2.4-32.8-31.9-32.8-31.9c0-10.2,5-2.9,5-2.9c10.9,20.6,23.2,26.2,23.2,26.2c20.6,11.3,14-5,14-5
			c-28.6-53.8,14-80.1,14-80.1l42.1-1.9c31,4.3,36.9,31.2,36.9,31.2L478.8,447.6L478.8,447.6z"/>
	</g>
</g>
</svg>
