<?xml version="1.0" encoding="utf-8"?>
<!-- Generator: Adobe Illustrator 23.1.0, SVG Export Plug-In . SVG Version: 6.00 Build 0)  -->
<svg version="1.1" id="Capa_1" xmlns="http://www.w3.org/2000/svg" xmlns:xlink="http://www.w3.org/1999/xlink" x="0px" y="0px"
	 viewBox="0 0 512 512" style="enable-background:new 0 0 512 512;" xml:space="preserve">
<g>
	<path d="M511.1,210.7c0-42.7-16.6-82.8-46.8-113c-34.9-34.9-82.8-51.5-131.8-45.7c-2.6-5-6.7-9.1-11.9-11.6l-42-20.5
		c-3.6-1.7-7.6-2.7-11.5-2.7c-7,0-13.7,2.7-18.6,7.7l-22.8,22.8l-8-8c-8.4-8.4-21.2-9.9-31.2-4.5L158.9,7.7c0,0,0,0,0,0
		c-5-5-11.6-7.7-18.6-7.7s-13.7,2.7-18.6,7.7L95,34.4c-5,5-7.7,11.6-7.7,18.6c0,4.5,1.1,8.8,3.2,12.6l-24,24
		c-3.8-2.1-8.1-3.2-12.6-3.2c-7,0-13.7,2.7-18.6,7.7L8.6,120.7c-10.3,10.3-10.3,27,0,37.3l27,27c-3,4.3-4.5,9.4-4.5,14.8
		c0,7,2.7,13.7,7.7,18.6l8,8l-22.8,22.8c-7.9,7.9-10,20.1-5.1,30.2l26.9,55.4c2.6,5.4,4,11.3,4,17c-0.1,42.8,16.6,83,46.8,113.3
		c30.2,30.2,70.3,46.8,113,46.8s82.8-16.6,113-46.8c25.8-25.8,41.9-59.5,45.9-95.6c36.1-3.9,69.6-19.8,95.6-45.9
		C494.5,293.5,511.1,253.4,511.1,210.7L511.1,210.7z M327.7,82.7c4.3-4.3,7-10,7.6-16c44-4.9,87,10.2,118.4,41.5
		c27.4,27.4,42.4,63.7,42.4,102.4c0,30.3-9.3,59.2-26.5,83.5c-1.3-2.8-3.1-5.4-5.4-7.7c-3.4-3.4-7.6-5.8-12.1-6.9
		c29.5-43.2,28.6-101.6-4.7-144.1c-2.6-3.3-7.3-3.8-10.5-1.3c-3.3,2.6-3.8,7.3-1.3,10.5c33.3,42.6,29.6,103.5-8.7,141.7
		c-16.8,16.8-38.2,27.3-61.3,30.4c-6.6-29.4-21.4-56.2-42.9-77.7c-21.5-21.5-48.2-36.2-77.7-42.9c3-22.5,13.1-44.1,30.4-61.3
		c38.3-38.2,99.2-42,141.7-8.7c3.3,2.6,8,2,10.5-1.3s2-8-1.3-10.5c-31.9-25-72.8-31.7-109.5-21L327.7,82.7z M326,314.8
		c-5.9-18.4-16.2-35.3-29.9-49c-13.7-13.7-30.6-24-49-29.9c-1.9-8-2.9-16.2-3-24.4c25.7,6.3,49.1,19.4,68,38.3
		c18.9,18.9,32,42.3,38.3,68C342.1,317.7,333.9,316.7,326,314.8L326,314.8z M307.6,308.6c-11.8-5.3-22.7-12.7-32.1-22.1
		c-9.5-9.5-16.9-20.5-22.1-32.1c11.9,5.3,22.8,12.8,32.1,22.1C294.8,285.7,302.3,296.6,307.6,308.6L307.6,308.6z M259,35.6
		c2.1-2.1,5-3.3,8-3.3c1.7,0,3.4,0.4,5,1.1l42,20.5c3.3,1.6,5.6,4.7,6.2,8.3c0.6,3.7-0.5,7.3-3.2,9.9l-52.2,52.2
		c-47.6,47.6-47.6,125.1,0,172.7c23,23,53.7,35.7,86.4,35.7h0c32.7,0,63.3-12.7,86.4-35.7c2.1-2.1,5-3.3,8-3.3s5.9,1.2,8,3.3
		c4.4,4.4,4.4,11.6,0,16.1c-27.4,27.4-63.7,42.4-102.4,42.4s-75.1-15.1-102.4-42.4c-21.1-21.1-34.8-47.5-40.1-76.2
		c0-0.3-0.1-0.5-0.1-0.8c-1.5-8.4-2.2-17-2.2-25.7c0-8-1.9-16.2-5.5-23.6L174,131.4c-2.1-4.4-1.2-9.6,2.2-13L259,35.6z M84.1,189.2
		l-8-8c-7.8-7.8-19.2-9.7-28.8-5.7L36,164.2c3.7-1.3,7-3.4,9.8-6.2l26.7-26.7c8.4-8.4,9.9-21.2,4.5-31.2l24-24
		c3.8,2.1,8.1,3.2,12.6,3.2c7,0,13.7-2.7,18.6-7.7L158.9,45c2.9-2.9,4.9-6.2,6.2-9.8l10.7,10.7c-2.1,3.8-3.2,8.1-3.2,12.6
		c0,7,2.7,13.7,7.7,18.6l8,8l-22.8,22.8c-7.9,7.9-10,20.1-5.1,30.2l22.4,46c-1.2-0.8-2.4-1.6-3.7-2.2l-42-20.4
		c-10.1-4.9-22.2-2.9-30.2,5.1L84.1,189.2z M186.2,224.2c2.2-2.2,4-4.8,5.3-7.6c0.2,4.9,0.6,9.8,1.2,14.7
		c-5.9,0.8-11.6,2.1-17.3,3.7L186.2,224.2z M199,47c3,0,5.9,1.2,8,3.3l8,8L199,74.4l-8-8c-2.1-2.1-3.3-5-3.3-8s1.2-5.9,3.3-8
		S195.9,47,199,47z M105.6,45l26.7-26.7c2.1-2.1,5-3.3,8-3.3s5.9,1.2,8,3.3s3.3,5,3.3,8s-1.2,5.9-3.3,8L121.6,61
		c-2.1,2.1-5,3.3-8,3.3c-3,0-5.9-1.2-8-3.3c-2.1-2.1-3.3-5-3.3-8S103.4,47.1,105.6,45L105.6,45z M19.2,131.3l26.7-26.7
		c2.1-2.1,5-3.3,8-3.3s5.9,1.2,8,3.3c2.1,2.1,3.3,5,3.3,8s-1.2,5.9-3.3,8l-26.7,26.7c-2.1,2.1-5,3.3-8,3.3s-5.9-1.2-8-3.3
		c-2.1-2.1-3.3-5-3.3-8C15.9,136.3,17.1,133.5,19.2,131.3z M49.4,207.9c-2.1-2.1-3.3-5-3.3-8s1.2-5.9,3.3-8s5-3.3,8-3.3
		s5.9,1.2,8,3.3l8,8l-16.1,16.1L49.4,207.9z M107.3,454.6c-27.4-27.4-42.5-63.9-42.4-102.7c0-8-1.9-16.2-5.5-23.6l-26.9-55.4
		c-2.1-4.4-1.2-9.6,2.2-13l82.9-82.9c3.4-3.4,8.6-4.3,13-2.2l42,20.4c3.3,1.6,5.6,4.7,6.2,8.3s-0.5,7.3-3.2,9.9l-42.4,42.4
		c-2.9,2.9-2.9,7.7,0,10.6c1.6,1.6,3.8,2.3,5.9,2.2c0.3,0,0.5,0,0.8,0c1.6,0,3.2-0.5,4.6-1.6c14.8-11.4,32.3-18.6,50.8-21.1
		c6.6,29.2,21.2,56,42.9,77.7c21.7,21.7,48.5,36.3,77.6,42.9c-3.1,23.2-13.8,44.7-30.3,61.3c-41.8,41.8-109.7,41.8-151.5,0
		c-38.2-38.2-42-99.2-8.7-141.7c2.6-3.3,2-8-1.3-10.5c-3.3-2.6-8-2-10.5,1.3c-38,48.5-33.7,118,9.9,161.6
		c23.8,23.8,55.1,35.7,86.4,35.7c31.3,0,62.6-11.9,86.4-35.7c2.1-2.1,5-3.3,8-3.3s5.9,1.2,8,3.3c4.4,4.4,4.4,11.6,0,16.1
		c-27.4,27.4-63.7,42.4-102.4,42.4S134.7,481.9,107.3,454.6L107.3,454.6z M328.1,435.6c-1.3-2.8-3-5.4-5.3-7.7
		c-3.4-3.4-7.6-5.8-12.2-6.9c10.5-15.4,17.4-33.2,20-51.8c6.8,0.9,13.6,1.3,20.6,1.3c0.7,0,1.5,0,2.2,0
		C350.5,394,341.7,416.4,328.1,435.6L328.1,435.6z"/>
</g>
</svg>
