<?xml version="1.0" encoding="utf-8"?>
<!-- Generator: Adobe Illustrator 23.1.0, SVG Export Plug-In . SVG Version: 6.00 Build 0)  -->
<svg version="1.1" id="Capa_1" xmlns="http://www.w3.org/2000/svg" xmlns:xlink="http://www.w3.org/1999/xlink" x="0px" y="0px"
	 viewBox="0 0 512 512" style="enable-background:new 0 0 512 512;" xml:space="preserve">
<g>
	<path d="M401,337.6c-4.1-0.7-8,2.1-8.6,6.2c-8.2,51.6-22,88-39.8,105.1c-10.6,10.2-16.7,24.3-16.7,38.8v9.2H185.1v-6.5
		c0-23.2-8.2-45.6-23.2-62.9c-10.3-12-21.7-29.8-34-53c-1.9-3.7-6.5-5.1-10.2-3.1c-3.7,1.9-5.1,6.5-3.1,10.2
		c12.8,24.2,24.8,42.9,35.9,55.8c12.6,14.6,19.5,33.5,19.5,53.1v14c0,4.2,3.4,7.5,7.5,7.5h165.9c4.2,0,7.5-3.4,7.5-7.5v-16.8
		c0-10.4,4.4-20.6,12-27.9c20.5-19.7,35.4-57.9,44.3-113.6C407.9,342.1,405.1,338.2,401,337.6z"/>
	<path d="M446.5,124.3c-8.1-3.7-17.1-4.1-25.5-1c-8.3,3.1-14.9,9.1-18.7,17.2l-25.5,50.1l24-97.9c4.9-20-7.4-40.3-27.4-45.2
		c-20-4.9-40.3,7.4-45.2,27.4l-25.4,103.3v-73.6c0-4.2-3.4-7.5-7.5-7.5s-7.5,3.4-7.5,7.5v135.8c0,3.8,2.8,7,6.6,7.5
		c3.8,0.5,7.3-2,8.2-5.7l40.2-163.7c2.9-11.9,15-19.3,27-16.3c11.9,2.9,19.3,15,16.3,27l-39.6,161.3c-0.9,3.7,1.1,7.5,4.7,8.8
		c3.6,1.3,7.6-0.2,9.3-3.6l55.1-108.5c0-0.1,0.1-0.2,0.1-0.2c2.1-4.4,5.7-7.8,10.3-9.5c4.6-1.7,9.6-1.5,14,0.6
		c9.2,4.2,13.2,15.1,8.9,24.3l-49.1,106c-0.4,0.9-0.7,2-0.7,3c0,0.2-0.4,18.4-3.1,43.3c-0.4,4.1,2.6,7.8,6.7,8.3c0.3,0,0.5,0,0.8,0
		c3.8,0,7.1-2.9,7.5-6.7c2.3-21.6,2.9-37.9,3.1-43l48.4-104.6C470.4,151.8,463.1,132,446.5,124.3L446.5,124.3z"/>
	<path d="M265.6,0c-20.6,0-37.4,16.8-37.4,37.4v140.8L199,59c-2.4-9.7-8.4-17.9-16.9-23c-8.5-5.2-18.6-6.7-28.3-4.3
		c-9.7,2.4-17.9,8.4-23,16.9c-5.2,8.5-6.7,18.6-4.3,28.3l52.2,212.6c-6.1-1.1-13.4-2.3-19.6-2.5l-42-66.3
		c-12-18.9-34.7-28.2-56.5-23.1c-10.4,2.2-17,14.1-13.2,24.1c7.9,22.5,29,80.6,53.8,133c1.8,3.8,6.4,5.3,10,3.6
		c3.8-1.8,5.3-6.3,3.6-10c-24.6-51.7-45.4-109.2-53.2-131.5c-0.5-2.5,0.1-3.5,2.5-4.4c15.6-3.6,31.8,3,40.4,16.5l44.2,69.8
		c1.4,2.3,4,3.6,6.7,3.5c8.8-0.4,67.9,7.2,95.5,34.9c2.9,2.9,7.7,2.9,10.6,0c2.9-2.9,2.9-7.7,0-10.6c-25.1-25.1-54.4-31.9-66.5-33.8
		l-4.7-19.3c0.1,0,0.2,0,0.2,0.1c-0.2-0.3-0.3-0.7-0.3-1c-0.8-5.5-3.2-10.5-3.8-16c-0.1,0-0.2-0.1-0.2-0.1L141,73.2
		c-2.9-11.9,4.4-24.1,16.3-27c5.8-1.4,11.8-0.5,16.9,2.6s8.7,8,10.1,13.8l44.1,179.6c0.9,3.7,4.4,6.1,8.2,5.7
		c3.8-0.5,6.6-3.7,6.6-7.5v-203c0-12.3,10-22.3,22.3-22.3c12.3,0,22.3,10,22.3,22.3v37.2c0,4.2,3.4,7.5,7.5,7.5
		c4.2,0,7.5-3.4,7.5-7.5V37.4C302.9,16.8,286.2,0,265.6,0z"/>
</g>
</svg>
