<?xml version="1.0" encoding="utf-8"?>
<!-- Generator: Adobe Illustrator 21.1.0, SVG Export Plug-In . SVG Version: 6.00 Build 0)  -->
<svg version="1.1" id="Capa_1" xmlns="http://www.w3.org/2000/svg" xmlns:xlink="http://www.w3.org/1999/xlink" x="0px" y="0px"
	 viewBox="0 0 512 512" style="enable-background:new 0 0 512 512;" xml:space="preserve">
<path d="M469.3,266.7c-1.2,0.1-2.4,0.2-3.6,0.3c-1,0.1-2.1,0.2-3.1,0.3c-7.4,0.8-14.8,1.8-22.1,3.3c-4.2,0.7-8.8,1.4-13.8,2.2v-59.5
	c0-84.2-67-138.7-170.7-138.7S85.3,129.1,85.3,213.3V273c-4.8-0.8-9.5-1.6-14.2-2.4c-7.2-1.4-14.4-2.5-21.7-3.3
	c-1-0.1-2.1-0.2-3.1-0.3c-1.2-0.1-2.4-0.2-3.6-0.3C24.4,266.7,0,272.2,0,320c0,14.8,7.9,29.5,21.8,43.3c0.5,0.5,1,0.9,1.5,1.4
	c0.5,0.5,1,0.9,1.5,1.4c0,0,0,0,0,0c1,0.9,2,1.8,3.1,2.8c0,0,0,0,0,0c0.5,0.5,1.1,0.9,1.6,1.4c0,0,0,0,0,0c1.1,0.9,2.2,1.8,3.3,2.7
	h0c1.1,0.9,2.3,1.8,3.5,2.7c0,0,0,0,0,0c0.6,0.4,1.2,0.9,1.8,1.3h0c0.6,0.4,1.2,0.9,1.8,1.3h0c0.6,0.4,1.3,0.9,1.9,1.3
	c1.3,0.9,2.5,1.7,3.8,2.6c0,0,0,0,0,0c1,0.6,2,1.3,3,1.9c0.5,0.3,1,0.6,1.5,0.9c0.5,0.3,1,0.6,1.5,1v0h0c0.7,0.4,1.4,0.8,2.1,1.3
	s1.4,0.8,2.1,1.3h0c0.7,0.4,1.4,0.8,2.1,1.2c0,0,0,0,0,0c0.7,0.4,1.4,0.8,2.2,1.2h0c0.7,0.4,1.5,0.8,2.2,1.2c0,0,0,0,0,0
	c1.5,0.8,3,1.6,4.5,2.4c0,0,0,0,0,0c1.5,0.8,3.1,1.6,4.7,2.4c1.6,0.8,3.2,1.5,4.8,2.3c1.6,0.8,3.3,1.5,4.9,2.3
	c0.8,0.4,1.7,0.7,2.5,1.1c0.8,0.4,1.7,0.7,2.5,1.1c0.8,0.3,1.5,0.7,2.3,1c3.1,1.3,6.3,2.6,9.5,3.8c0.8,0.3,1.6,0.6,2.4,0.9
	c4.1,1.5,8.2,3,12.5,4.5c3.4,1.2,6.8,2.3,10.3,3.3c1.7,0.5,3.5,1.1,5.3,1.6c1.8,0.5,3.5,1,5.3,1.5c1.8,0.5,3.6,1,5.4,1.5
	c2.7,0.7,5.4,1.4,8.2,2.1c33.9,8.3,71.1,13.2,108.4,13.2s74.5-4.9,108.4-13.2c2.8-0.7,5.5-1.4,8.2-2.1c1.8-0.5,3.6-1,5.4-1.5
	c1.8-0.5,3.6-1,5.3-1.5c1.8-0.5,3.5-1,5.3-1.6c3.5-1.1,6.9-2.2,10.3-3.3c4.2-1.4,8.4-2.9,12.5-4.5c0.8-0.3,1.6-0.6,2.4-0.9
	c3.2-1.3,6.4-2.5,9.5-3.8c0.8-0.3,1.6-0.7,2.3-1c1.7-0.7,3.3-1.5,5-2.2c0.8-0.4,1.6-0.8,2.5-1.1c0.8-0.4,1.6-0.8,2.4-1.1
	c1.6-0.8,3.2-1.5,4.8-2.3c1.6-0.8,3.1-1.6,4.7-2.4c0,0,0,0,0,0c1.5-0.8,3-1.6,4.5-2.4c2.2-1.2,4.4-2.4,6.6-3.7
	c0.7-0.4,1.4-0.8,2.1-1.3s1.4-0.8,2.1-1.3h0v0c0.5-0.3,1-0.6,1.5-1c0.5-0.3,1-0.6,1.5-0.9c1-0.6,2-1.3,3-1.9c0,0,0,0,0,0
	c1.3-0.9,2.6-1.7,3.8-2.6c0.6-0.4,1.3-0.9,1.9-1.3c1.2-0.9,2.5-1.8,3.7-2.7c1.2-0.9,2.3-1.8,3.5-2.7h0c1.1-0.9,2.3-1.8,3.3-2.7
	c0.5-0.5,1.1-0.9,1.6-1.4c1.1-0.9,2.1-1.9,3.1-2.8c0.5-0.5,1-0.9,1.5-1.4c0.5-0.5,1-0.9,1.5-1.4c13.9-13.8,21.8-28.5,21.8-43.3
	C512,272.2,487.6,266.7,469.3,266.7z M105.2,264.2c0.5-0.2,1-0.3,1.5-0.5c0.3-0.1,0.5-0.2,0.8-0.2c1.5-0.5,3.1-0.9,4.7-1.3
	c0.1,0,0.3-0.1,0.4-0.1c1.2-0.3,2.4-0.6,3.6-0.9c2.2-0.5,4.4-1.1,6.6-1.6c1-0.2,2-0.4,3-0.7c0.5-0.1,1-0.2,1.5-0.3
	c0.5-0.1,1-0.2,1.6-0.3c0.4-0.1,0.7-0.1,1.1-0.2c0.1,0,0.2,0,0.2,0c0.9-0.2,1.7-0.3,2.6-0.5c0.5-0.1,1.1-0.2,1.6-0.3
	c0.1,0,0.1,0,0.2,0c0.7-0.1,1.3-0.3,2-0.4c0.5-0.1,1-0.2,1.6-0.3c0.5-0.1,1-0.2,1.6-0.3c1.3-0.2,2.7-0.5,4.1-0.7
	c1.1-0.2,2.2-0.4,3.3-0.6c0.7-0.1,1.3-0.2,2-0.3c0.7-0.1,1.3-0.2,2-0.3c1.2-0.2,2.5-0.4,3.7-0.5c2.5-0.4,4.9-0.7,7.4-1
	c2.3-0.3,4.6-0.6,6.9-0.9c0.2,0,0.3,0,0.5-0.1c1.8-0.2,3.7-0.5,5.5-0.7c1.2-0.1,2.5-0.3,3.7-0.4c0.6-0.1,1.2-0.1,1.8-0.2
	c1.2-0.1,2.4-0.3,3.6-0.4c0.1,0,0.3,0,0.4,0c0.8-0.1,1.7-0.2,2.5-0.3c0.3,0,0.5,0,0.8-0.1c1.2-0.1,2.4-0.2,3.5-0.3
	c0.6-0.1,1.2-0.1,1.8-0.2c0.1,0,0.2,0,0.3,0c0.9-0.1,1.9-0.2,2.8-0.3c0.8-0.1,1.5-0.1,2.3-0.2c0.8-0.1,1.5-0.1,2.3-0.2
	c0.8-0.1,1.5-0.1,2.3-0.2c0.1,0,0.3,0,0.4,0c0.6,0,1.2-0.1,1.8-0.1c0.8-0.1,1.7-0.1,2.5-0.2c0.6,0,1.1-0.1,1.7-0.1
	c0.2,0,0.4,0,0.6,0c0.6-0.1,1.2-0.1,1.7-0.1c0.1,0,0.3,0,0.5,0c0.4,0,0.8-0.1,1.1-0.1c1.7-0.1,3.3-0.2,5-0.4c0.2,0,0.4,0,0.6,0
	c1.2-0.1,2.4-0.2,3.6-0.2c1.5-0.1,2.9-0.2,4.3-0.3c1.2-0.1,2.4-0.1,3.5-0.2c0.4,0,0.8,0,1.1-0.1c1-0.1,2-0.1,3-0.2
	c0.4,0,0.9,0,1.3-0.1c0.2,0,0.4,0,0.5,0c0.5,0,1-0.1,1.5-0.1c0.5,0,1,0,1.4-0.1c0.5,0,1,0,1.5-0.1c0.2,0,0.3,0,0.4,0
	c0.5,0,0.9-0.1,1.4-0.1c1.9-0.1,3.5-0.2,5-0.2c0.5,0,0.9,0,1.3,0c1.3-0.1,2.5-0.1,3.4-0.1c0.3,0,0.6,0,0.8,0c0.5,0,1,0,1.4,0
	s0.6,0,0.8,0c0.1,0,0.2,0,0.2,0c0,0,0.2,0,0.4,0c0.1,0,0.3,0,0.4,0c0,0,0,0,0,0c0.3,0,0.7,0,1.2,0c0,0,0,0,0,0c0.6,0,1.2,0,2,0.1
	c0.2,0,0.5,0,0.7,0c0.3,0,0.6,0,0.9,0c0.1,0,0.2,0,0.3,0c0.2,0,0.4,0,0.7,0c0.3,0,0.5,0,0.8,0c0.1,0,0.2,0,0.3,0c0.2,0,0.3,0,0.5,0
	h0.1c0.1,0,0.2,0,0.2,0c0.1,0,0.2,0,0.4,0c0.2,0,0.4,0,0.6,0c0.1,0,0.3,0,0.4,0c0.1,0,0.1,0,0.2,0c0.2,0,0.4,0,0.6,0
	c0.4,0,0.9,0,1.3,0.1c0.5,0,0.9,0,1.4,0.1c0.4,0,0.7,0,1.1,0c1.1,0,2.2,0.1,3.4,0.2c0.5,0,0.9,0,1.4,0.1c0.1,0,0.3,0,0.4,0
	c0.5,0,1,0,1.5,0.1c0.6,0,1.3,0.1,1.9,0.1c0.6,0,1.2,0.1,1.8,0.1c1.3,0.1,2.6,0.2,3.9,0.2c0.4,0,0.9,0.1,1.3,0.1c0.3,0,0.5,0,0.8,0
	c0.3,0,0.5,0,0.8,0.1c0.5,0,1.1,0.1,1.6,0.1c0.9,0.1,1.9,0.1,2.9,0.2c1.3,0.1,2.5,0.2,3.8,0.3c0.8,0.1,1.5,0.1,2.3,0.2
	c0.4,0,0.8,0.1,1.3,0.1c0.5,0,1.1,0.1,1.6,0.1c0.8,0.1,1.5,0.1,2.3,0.2c0.3,0,0.7,0,1,0.1c0.3,0,0.7,0,1,0.1
	c1.2,0.1,2.5,0.2,3.7,0.3c0.1,0,0.1,0,0.2,0c0.8,0.1,1.6,0.1,2.3,0.2c0.4,0,0.9,0.1,1.3,0.1c0.8,0.1,1.7,0.2,2.6,0.2
	c5.7,0.5,11.6,1.1,17.7,1.8c1.4,0.2,2.9,0.3,4.3,0.5c0.9,0.1,1.7,0.2,2.6,0.3c3.9,0.5,7.9,1,11.8,1.5c1.3,0.2,2.6,0.4,3.9,0.6
	c1.7,0.3,3.5,0.5,5.2,0.8c0.9,0.1,1.8,0.3,2.8,0.4c0.8,0.1,1.6,0.3,2.4,0.4c1.6,0.3,3.3,0.5,4.9,0.8c2.4,0.4,4.8,0.9,7.2,1.3
	c0.1,0,0.3,0.1,0.4,0.1c0.9,0.2,1.7,0.3,2.6,0.5c0.9,0.2,1.7,0.3,2.6,0.5c0.5,0.1,1,0.2,1.4,0.3c0.8,0.2,1.6,0.3,2.4,0.5
	c2.4,0.5,4.7,1,6.9,1.6c0.8,0.2,1.5,0.4,2.2,0.6c2.9,0.8,5.8,1.5,8.5,2.4c0.1,0,0.3,0.1,0.4,0.1c-0.1,0-0.3-0.1-0.4-0.1v12.5
	c-7.6,1.1-15.2,2.1-22.8,3.1c-41.9,5.5-84.2,8.4-126.5,8.6c-42.4-0.3-84.8-3.2-126.8-8.7c-0.2,0-0.4,0-0.7-0.1
	c-7.3-0.9-14.6-1.9-21.9-3v-12.5C106.2,263.9,105.7,264.1,105.2,264.2z M106.7,241.6v-28.3C106.7,141,163.9,96,256,96
	s149.3,45,149.3,117.3v28.3c-2.2-0.6-4.5-1.2-6.7-1.7c-1.4-0.3-2.8-0.7-4.3-1c-0.5-0.1-1.1-0.2-1.7-0.4c-0.5-0.1-1.1-0.3-1.7-0.4
	c-1.2-0.3-2.4-0.5-3.6-0.8c-0.8-0.2-1.6-0.3-2.3-0.5c-0.8-0.2-1.6-0.3-2.4-0.5c-1.9-0.4-3.8-0.7-5.7-1.1c-0.8-0.1-1.7-0.3-2.5-0.4
	c-1.7-0.3-3.3-0.6-5-0.8c-0.8-0.1-1.7-0.3-2.5-0.4c-0.8-0.1-1.7-0.3-2.5-0.4c-1.3-0.2-2.7-0.4-4-0.6c-0.4-0.1-0.8-0.1-1.2-0.2
	c-1.3-0.2-2.6-0.4-4-0.6c-1.2-0.2-2.4-0.3-3.5-0.5c-0.4-0.1-0.7-0.1-1-0.1c-1.4-0.2-2.7-0.3-4-0.5c-0.2,0-0.4,0-0.6-0.1
	c-1.2-0.2-2.5-0.3-3.7-0.4c-0.1,0-0.2,0-0.3,0c-0.6-0.1-1.2-0.1-1.7-0.2c-0.5-0.1-1.1-0.1-1.6-0.2c-5.8-0.7-11.5-1.3-17-1.8
	c-1.5-0.1-3-0.3-4.4-0.4c-1.5-0.1-3.1-0.3-4.6-0.4c-0.8-0.1-1.5-0.1-2.3-0.2c-1.5-0.1-3-0.3-4.4-0.4c-0.7-0.1-1.5-0.1-2.2-0.2
	c-0.3,0-0.5,0-0.8-0.1c-0.6-0.1-1.2-0.1-1.8-0.1c-0.5,0-1-0.1-1.5-0.1c-0.1,0-0.2,0-0.3,0c-0.7-0.1-1.4-0.1-2.1-0.2
	c-0.7,0-1.4-0.1-2-0.1c-5.4-0.4-10.5-0.7-15-0.9c-0.6,0-1.1-0.1-1.7-0.1c-0.1,0-0.3,0-0.4,0c-0.8,0-1.5-0.1-2.2-0.1
	c-0.1,0-0.2,0-0.3,0c-1.1-0.1-2.1-0.1-3.1-0.2c0,0-0.1,0-0.1,0c-0.1,0-0.1,0-0.2,0c-0.4,0-0.8,0-1.1,0c-0.3,0-0.6,0-0.8,0
	c-0.1,0-0.1,0-0.2,0c0,0,0,0-0.1,0c-0.1,0-0.2,0-0.4,0c-0.3,0-0.6,0-0.8,0c-0.6,0-1.3-0.1-1.8-0.1c-0.9,0-1.7-0.1-2.4-0.1
	c-1.2,0-2.3-0.1-3.3-0.1c-0.6,0-1.2,0-1.7-0.1c-0.3,0-0.7,0-1,0c-0.3,0-0.6,0-0.9,0c-0.5,0-1,0-1.3,0c-0.3,0-0.6,0-0.8,0
	c-0.4,0-1.5,0-3.3,0.1c-0.3,0-0.6,0-1,0c-0.2,0-0.4,0-0.6,0c-0.6,0-1.2,0-1.8,0.1h0c-0.8,0-1.6,0.1-2.5,0.1c-0.7,0-1.5,0.1-2.3,0.1
	c-0.7,0-1.4,0.1-2.2,0.1c-0.4,0-0.9,0-1.3,0.1c-0.3,0-0.7,0-1,0c-0.4,0-0.7,0-1.1,0c-0.4,0-0.7,0-1.1,0c0,0-0.1,0-0.1,0
	c-0.4,0-0.9,0-1.3,0.1c-0.3,0-0.6,0-0.9,0.1c-0.1,0-0.2,0-0.4,0c-0.9,0-1.7,0.1-2.6,0.1c-0.2,0-0.4,0-0.6,0c-0.7,0-1.4,0.1-2.2,0.1
	c-0.5,0-0.9,0.1-1.4,0.1c-1,0-1.9,0.1-2.9,0.2c0,0-0.1,0-0.2,0c-1,0.1-1.9,0.1-2.9,0.2c-0.1,0-0.2,0-0.3,0c-1,0.1-1.9,0.1-2.9,0.2
	c-0.9,0.1-1.9,0.1-2.8,0.2c-2,0.1-4,0.3-6.1,0.4c-1.8,0.1-3.6,0.3-5.4,0.4c-0.6,0-1.2,0.1-1.8,0.2c-1.5,0.1-2.9,0.3-4.4,0.4
	c-0.9,0.1-1.8,0.2-2.8,0.3c-0.9,0.1-1.9,0.2-2.8,0.3C164.8,230.5,132.4,234.7,106.7,241.6c-3.1,0.8-6.1,1.7-9,2.6
	C100.6,243.3,103.6,242.4,106.7,241.6z M100.3,265.8c-0.3,0.1-0.5,0.2-0.8,0.3c0,0,0,0,0,0C99.8,266,100.1,265.9,100.3,265.8z
	 M92,265.9c0.5,0.2,1,0.3,1.5,0.5C93,266.3,92.5,266.1,92,265.9c-1-0.4-1.9-0.9-2.7-1.6C90.2,265,91.1,265.5,92,265.9z M86.1,252
	c-0.2,0.5-0.3,1-0.5,1.5C85.7,253,85.9,252.5,86.1,252z M256,416c-120.9,0-234.7-54.1-234.7-96c0-32,10.9-32,21.3-32
	c2.9,0,13.2,1.7,25,3.6c20.5,3.6,41,6.7,61.7,9.3c0.1,0,0.1,0,0.2,0c42,5.1,84.2,8,126.5,8.5c42.3-0.5,84.5-3.3,126.5-8.5
	c0.1,0,0.2,0,0.3,0c20.6-2.5,41.1-5.6,61.5-9.2c11.8-2,22.1-3.6,25-3.6c10.5,0,21.3,0,21.3,32C490.7,361.9,376.9,416,256,416z"/>
<path d="M396.5,352.7c0-0.3-0.1-0.5-0.2-0.7c-0.1-0.2-0.1-0.5-0.2-0.7c0-0.1-0.1-0.2-0.1-0.3c-0.1-0.3-0.2-0.5-0.3-0.8
	c0-0.1-0.1-0.2-0.1-0.3c-0.2-0.5-0.4-0.9-0.7-1.3l0,0c-0.2-0.4-0.5-0.9-0.8-1.3c-0.3-0.4-0.6-0.8-0.9-1.2c-0.3-0.4-0.7-0.8-1.1-1.1
	c-5.1-6.2-25.2-14.2-136.2-14.2c-79.8,0-112.6,4.2-126.6,8.8c-0.6,0.2-1.2,0.4-1.7,0.6c-0.5,0.2-1.1,0.4-1.5,0.6
	c-0.5,0.2-0.9,0.4-1.3,0.6c-0.6,0.3-1.2,0.6-1.7,0.9c-0.7,0.4-1.2,0.8-1.7,1.2c0,0,0,0,0,0c-0.3,0.3-0.6,0.5-0.8,0.7
	c-0.3,0.3-0.5,0.5-0.7,0.7c-4.1,3.8-5.6,9.7-4,15.1c0.1,0.2,0.1,0.4,0.2,0.6c0,0,0,0,0,0.1v0c0,0,0,0,0,0c0.1,0.2,0.1,0.4,0.2,0.5
	c0,0,0,0.1,0.1,0.2c0.1,0.2,0.1,0.4,0.2,0.5c0,0,0,0.1,0,0.1c0,0,0,0,0,0c0.1,0.2,0.1,0.3,0.2,0.5v0c0,0.1,0.1,0.2,0.1,0.2
	c0.1,0.1,0.2,0.3,0.2,0.4c0,0.1,0.1,0.2,0.1,0.2c0,0,0,0,0,0.1c0.1,0.2,0.2,0.4,0.3,0.6c0.1,0.2,0.3,0.5,0.4,0.7
	c0.1,0.2,0.3,0.5,0.4,0.7c0.3,0.4,0.5,0.7,0.8,1c0.1,0.2,0.3,0.4,0.4,0.5c0.4,0.5,0.9,1,1.4,1.5c16.3,16.5,64.8,26.1,134.8,26.1
	c69.9,0,118.5-9.6,134.8-26.1c1-1,1.9-2,2.6-3.1c0.3-0.3,0.5-0.7,0.7-1.1c0.2-0.4,0.4-0.7,0.6-1.1c0.6-1.1,1-2.2,1.4-3.4
	C396.9,357.5,397,355,396.5,352.7z M256,373.3c-67.4,0-100.3-9-113.3-15.4c37.5-5.2,75.4-7.2,113.3-6c37.9-1.3,75.8,0.8,113.3,6
	C356.3,364.4,323.4,373.3,256,373.3z"/>
</svg>
