<?xml version="1.0" encoding="iso-8859-1"?>
<!-- Generator: Adobe Illustrator 19.0.0, SVG Export Plug-In . SVG Version: 6.00 Build 0)  -->
<svg version="1.1" id="Capa_1" xmlns="http://www.w3.org/2000/svg" xmlns:xlink="http://www.w3.org/1999/xlink" x="0px" y="0px"
	 viewBox="0 0 512.001 512.001" style="enable-background:new 0 0 512.001 512.001;" xml:space="preserve">
<g>
	<g>
		<path d="M485.26,210.511l-71.445-11.909l21.685-21.685c3.969-3.969,9.469-6.25,15.083-6.25h50.75
			c5.896,0,10.667-4.771,10.667-10.667c0-5.896-4.771-10.667-10.667-10.667h-50.75c-11.229,0-22.229,4.552-30.167,12.5
			l-32.458,32.458l-8.313-1.385l-30.603-45.905c-7.927-11.896-21.198-19-35.5-19h-157.75c-14.302,0-27.573,7.104-35.5,19
			l-30.875,46.323l-65.188,16.292C9.969,213.178,0,225.949,0,240.657v53.594c0,12.573,4.896,24.396,13.792,33.292
			s20.719,13.792,33.292,13.792h28.663c4.955,24.313,26.499,42.666,52.253,42.666c25.754,0,47.298-18.353,52.254-42.667H321.08
			c4.956,24.314,26.5,42.667,52.254,42.667c25.754,0,47.298-18.353,52.254-42.667h47.819c8.146,0,15.458-4.521,19.083-11.792
			l17.26-34.521c0.375-0.75,0.656-1.542,0.844-2.354l1.115-4.708c0.198-0.813,0.292-1.646,0.292-2.479v-43.406
			C512,226.355,500.75,213.084,485.26,210.511z M128,362.668c-17.646,0-32-14.354-32-32s14.354-32,32-32s32,14.354,32,32
			S145.646,362.668,128,362.668z M373.333,362.668c-17.646,0-32-14.354-32-32s14.354-32,32-32s32,14.354,32,32
			S390.979,362.668,373.333,362.668z M490.667,284.241l-17.261,35.76h-47.819c-4.956-24.314-26.5-42.667-52.254-42.667
			c-25.754,0-47.298,18.353-52.254,42.667H180.254c-4.956-24.314-26.5-42.667-52.254-42.667c-25.754,0-47.298,18.353-52.254,42.667
			H47.083c-6.875,0-13.344-2.677-18.208-7.542c-4.865-4.865-7.542-11.333-7.542-18.208v-53.594c0-4.906,3.323-9.156,8.073-10.354
			l69.177-17.292c2.573-0.635,4.823-2.219,6.292-4.427l33.167-49.75c3.969-5.948,10.604-9.5,17.75-9.5h157.75
			c7.146,0,13.781,3.552,17.75,9.5l33.167,49.75c1.635,2.458,4.208,4.125,7.125,4.604l110.177,18.365
			c5.156,0.854,8.906,5.281,8.906,10.521V284.241z"/>
	</g>
</g>
<g>
</g>
<g>
</g>
<g>
</g>
<g>
</g>
<g>
</g>
<g>
</g>
<g>
</g>
<g>
</g>
<g>
</g>
<g>
</g>
<g>
</g>
<g>
</g>
<g>
</g>
<g>
</g>
<g>
</g>
</svg>
