<?xml version="1.0" encoding="iso-8859-1"?>
<!-- Generator: Adobe Illustrator 19.0.0, SVG Export Plug-In . SVG Version: 6.00 Build 0)  -->
<svg version="1.1" id="Layer_1" xmlns="http://www.w3.org/2000/svg" xmlns:xlink="http://www.w3.org/1999/xlink" x="0px" y="0px"
	 viewBox="0 0 512 512" style="enable-background:new 0 0 512 512;" xml:space="preserve">
<g>
	<g>
		<g>
			<path d="M245.33,276.395v-9.728c0-5.888,4.779-10.667,10.667-10.667s10.667,4.779,10.667,10.667v9.707
				c39.275-4.693,70.763-34.283,76.757-74.261l21.845-148.267c-11.456-7.104-25.003-11.179-39.488-11.179h-38.763
				C284.904,26.688,278.141,0,255.976,0c-22.165,0-28.928,26.688-31.04,42.667h-38.763c-14.955,0-28.864,4.437-40.555,11.989
				l22.933,147.413C174.568,242.112,206.12,271.744,245.33,276.395z M255.997,21.333c3.435,0,7.424,9.728,9.451,21.333h-18.88
				C248.573,31.061,252.562,21.333,255.997,21.333z"/>
			<path d="M428.37,406.891l-28.245-296.64c-1.429-14.912-7.168-28.331-15.808-39.275L364.52,205.248
				c-7.595,50.56-48,87.723-97.856,92.48v32.939c0,5.888-4.779,10.667-10.667,10.667s-10.667-4.779-10.667-10.667v-32.96
				c-49.941-4.8-90.283-41.92-97.856-92.416L126.76,72.021c-8.171,10.731-13.504,23.829-14.891,38.229l-28.245,296.64
				c-2.56,26.859,6.379,53.739,24.533,73.685c13.781,15.168,32.043,25.344,51.84,29.397v-72.64
				c0-29.397,23.936-53.333,53.333-53.333h85.333c29.397,0,53.333,23.936,53.333,53.333v72.64
				c19.797-4.053,38.059-14.229,51.84-29.397C421.992,460.608,430.952,433.749,428.37,406.891z"/>
			<path d="M298.664,405.333H213.33c-17.643,0-32,14.357-32,32V512h149.333v-74.667
				C330.664,419.691,316.306,405.333,298.664,405.333z"/>
		</g>
	</g>
</g>
<g>
</g>
<g>
</g>
<g>
</g>
<g>
</g>
<g>
</g>
<g>
</g>
<g>
</g>
<g>
</g>
<g>
</g>
<g>
</g>
<g>
</g>
<g>
</g>
<g>
</g>
<g>
</g>
<g>
</g>
</svg>
