<svg id="Layer_1" enable-background="new 0 0 512 512" height="512" viewBox="0 0 512 512" width="512" xmlns="http://www.w3.org/2000/svg"><g><path d="m504.951 432.044c5.512-4.357 8.273-11.658 6.529-18.868l-38.074-157.418c-.976-4.033-5.038-6.514-9.071-5.538-4.034.976-6.513 5.037-5.538 9.071l38.075 157.418c.431 1.785-.606 3.601-2.362 4.136l-48.603 14.797c-1.747.532-3.618-.39-4.26-2.101l-49.242-131.238v-212.267c18.776 11.039 32.557 29.36 37.741 50.797l21.585 89.245c2.703 9.622 16.62 6.174 14.609-3.533l-21.585-89.245c-7.229-29.889-28.546-54.678-57.022-66.311-.295-.123-50.367-19.998-50.367-19.998l-5.832-15.151c-5.091-13.213-18.052-22.096-32.181-22.094h-86.704c-14.129-.001-27.091 8.881-32.182 22.095l-5.832 15.15s-50.074 19.876-50.367 19.998c-28.477 11.633-49.793 36.422-57.023 66.311l-46.58 192.585c-.976 4.034 1.504 8.095 5.538 9.071.594.143 1.187.212 1.773.212 3.389 0 6.466-2.31 7.298-5.75l46.58-192.585c5.185-21.437 18.966-39.758 37.742-50.797v47.264c0 4.15 3.365 7.515 7.515 7.515s7.515-3.365 7.515-7.515v-54.266l44.02-17.465 69.841 69.84v312.49h-105.7c-4.5 0-8.161-3.662-8.161-8.162v-272.378c0-4.15-3.365-7.515-7.515-7.515s-7.515 3.365-7.515 7.515v134.944l-49.244 131.238c-.642 1.71-2.513 2.633-4.26 2.101l-48.602-14.796c-1.756-.535-2.794-2.351-2.362-4.136l13.082-54.087c.976-4.034-1.504-8.095-5.538-9.071s-8.096 1.503-9.071 5.538l-13.081 54.086c-1.744 7.209 1.017 14.511 6.53 18.868l-5.168 18.829c-2.538 9.245 2.897 18.913 12.115 21.549l27.341 7.821c8.813 2.594 18.524-2.298 21.497-11.306l6.115-18.224c6.8-.696 12.94-5.135 15.475-11.892l35.171-93.736v94.652c0 11.299 8.123 20.73 18.835 22.775v18.166c0 9.691 7.884 17.576 17.576 17.576h99.993 99.995c9.691 0 17.575-7.884 17.575-17.576v-18.166c10.712-2.045 18.835-11.476 18.835-22.775v-94.652l35.171 93.736c2.535 6.757 8.675 11.197 15.475 11.893l6.115 18.224c2.973 9.009 12.683 13.899 21.497 11.306l27.341-7.822c9.217-2.637 14.652-12.304 12.115-21.549zm-459.48 33.75-27.341-7.822c-1.336-.382-2.123-1.782-1.755-3.122l4.72-17.197 33.011 10.05-5.521 16.453c-.434 1.294-1.803 2.014-3.114 1.638zm268.661-430.17c1.414 1.646 2.572 3.531 3.375 5.616l5.26 13.663-57.453 57.452c1.405-7.714 3.625-15.271 6.661-22.607 5.622-13.558 13.733-25.693 24.109-36.069zm-14.78-6.848c.121 0 .241.012.361.014l-14.257 14.263c-11.776 11.776-20.982 25.549-27.365 40.942-.741 1.79-1.435 3.593-2.091 5.405-.657-1.814-1.351-3.618-2.093-5.41-6.381-15.388-15.588-29.162-27.362-40.937l-14.258-14.263c.121-.002.24-.014.361-.014zm-104.86 12.465c.803-2.085 1.962-3.97 3.376-5.616l18.049 18.056c10.374 10.374 18.485 22.509 24.106 36.063 3.038 7.338 5.258 14.897 6.663 22.611l-57.452-57.452zm-41.033 439.437v-17.75h95.026v20.296h-92.48c-1.404 0-2.546-1.142-2.546-2.546zm202.536 2.546h-92.48v-20.296h95.026v17.75c0 1.404-1.142 2.546-2.546 2.546zm21.381-43.486c0 4.5-3.661 8.162-8.162 8.162h-105.7v-312.49l69.841-69.84 44.02 17.465v356.703zm116.494 18.235-27.341 7.822c-1.312.374-2.679-.344-3.114-1.638l-5.521-16.453 33.011-10.05 4.72 17.197c.367 1.339-.42 2.74-1.755 3.122z"/><path d="m282.875 169.164c-4.15 0-7.515 3.365-7.515 7.515v7.084c0 4.15 3.365 7.515 7.515 7.515s7.515-3.365 7.515-7.515v-7.084c0-4.15-3.364-7.515-7.515-7.515z"/><path d="m282.875 242.174c-4.15 0-7.515 3.365-7.515 7.515v7.084c0 4.15 3.365 7.515 7.515 7.515s7.515-3.365 7.515-7.515v-7.084c0-4.15-3.364-7.515-7.515-7.515z"/><path d="m282.875 315.184c-4.15 0-7.515 3.365-7.515 7.515v7.084c0 4.15 3.365 7.515 7.515 7.515s7.515-3.365 7.515-7.515v-7.084c0-4.151-3.364-7.515-7.515-7.515z"/><path d="m282.875 388.193c-4.15 0-7.515 3.365-7.515 7.515v7.084c0 4.15 3.365 7.515 7.515 7.515s7.515-3.365 7.515-7.515v-7.084c0-4.15-3.364-7.515-7.515-7.515z"/><path d="m152.545 400.464c1.778 0 3.563-.627 4.995-1.902 1.07-.953 26.265-23.842 32.258-68.808.548-4.113-2.342-7.893-6.456-8.441-4.11-.547-7.893 2.342-8.441 6.456-2.724 20.436-10 35.523-15.623 44.58-6.129 9.872-11.698 14.956-11.732 14.988-5.167 4.543-1.78 13.197 4.999 13.127z"/><path d="m328.658 321.313c-4.114.548-7.004 4.328-6.456 8.441 5.993 44.965 31.188 67.855 32.258 68.808 7.627 6.333 17.146-4.313 10.015-11.206-.055-.05-5.624-5.135-11.753-15.007-5.623-9.057-12.899-24.144-15.623-44.58-.548-4.114-4.329-7.006-8.441-6.456z"/></g></svg>