<?xml version="1.0" encoding="utf-8"?>
<!-- Generator: Adobe Illustrator 21.1.0, SVG Export Plug-In . SVG Version: 6.00 Build 0)  -->
<svg version="1.1" id="Layer_1" xmlns="http://www.w3.org/2000/svg" xmlns:xlink="http://www.w3.org/1999/xlink" x="0px" y="0px"
	 viewBox="0 0 512 512" style="enable-background:new 0 0 512 512;" xml:space="preserve">
<style type="text/css">
	.st0{fill:#9B9B9B;}
	.st1{fill:#000;}
</style>
<g>
	<g>
		<path class="st0" d="M223.7,377.9c-8.2-4.9-17.5-6.1-25.6-7.2L90,356.6c-4.1-0.5-7.9,2.4-8.4,6.5s2.4,7.9,6.5,8.4l108.1,14.1
			c7,0.9,14.3,1.9,19.8,5.2c8,4.8,12.7,14.5,17.5,25.7c1.6,3.8,6,5.6,9.8,3.9c3.8-1.6,5.6-6,3.9-9.8
			C242.7,400,236.5,385.6,223.7,377.9L223.7,377.9z"/>
		<path class="st0" d="M357.1,214.8c-0.5,14.2-1.2,30.2,2,44.8c0.9,4-1.7,8-5.7,8.9c-4.1,0.9-8-1.7-8.9-5.7
			c-3.6-16.5-2.9-33.6-2.3-48.7l1.3-32.7c-0.9,0.9-1.9,1.9-2.8,3c-13.9,15.2-31.9,43.6-50.9,43.6h-62.2c-21.4,0-41.9-30.4-56.3-49
			c-1-1.3-2-2.6-3-3.8l1.5,38.9c0.8,20.7,1.7,44.2-7.8,65.3c-10.9,24.4-35.6,43.8-69.6,54.7c-25.7,8.2-52,11.1-77.4,17.9v131.5
			c0,2-0.8,3.9-2.2,5.3c-1.4,1.4-3.2,2.2-5.3,2.2c-4.1,0-7.5-3.4-7.5-7.5V346.4c0-3.4,2.2-6.3,5.3-7.3c27.3-8.1,56.4-11,82.5-19.4
			c40.2-12.9,55.2-34.7,60.5-46.5c8-17.9,7.2-39.6,6.4-58.6l-2.1-54.6h21c20.2,29.2,39.7,52.9,54,52.9h62.2c16.7,0,34.2-24,50.9-50
			c0.6-1,1.2-1.9,1.9-2.9h17.1l-0.3,0.5L357.1,214.8z"/>
		<path class="st0" d="M512,346.4v137.1c0,4.1-3.4,7.5-7.5,7.5l0,0c-4.1,0-7.5-3.4-7.5-7.5V352c-25.3-6.8-51.8-9.7-77.4-17.9
			c-18.6-6-44.3-17.7-60.8-39.7c-2.5-3.3-1.8-8,1.5-10.5s8-1.8,10.5,1.5c14.1,18.8,36.8,29.1,53.4,34.4c26.3,8.4,55,11.3,82.5,19.4
			C509.8,340.1,512,343,512,346.4z"/>
		<path class="st0" d="M287.9,377.9c-12.9,7.7-19,22.1-23.5,32.6c-1.6,3.8,0.1,8.2,3.9,9.8c3.8,1.6,8.2-0.1,9.8-3.9
			c4.8-11.2,9.4-20.9,17.5-25.7c5.6-3.3,12.8-4.3,19.8-5.2l108.1-14.1c4.1-0.5,7-4.3,6.5-8.4s-4.3-7-8.4-6.5l-108.1,14.1
			C305.4,371.8,296.2,373,287.9,377.9z"/>
	</g>
</g>
<path class="st1" d="M402.6,82.6c-6.4,18.4-15.1,35.8-26.1,52.2L359.6,160h-17.1c0.3-0.5,0.6-1,1-1.5c7-11.1,13.9-22.4,20.5-32.1
	c10.2-15.4,18.4-31.7,24.4-48.8c0.5-1.5,1.5-2.8,2.8-3.6c1.2-0.9,2.7-1.4,4.3-1.4C400.7,72.6,404.3,77.7,402.6,82.6z"/>
<path class="st1" d="M173.5,160h-21l-0.3-6.6c-10.3-14.3-13.2-18-18-25.3c-2.2-3.5-1.3-8.1,2.2-10.4c3.5-2.2,8.1-1.3,10.4,2.2
	c7,10.8,14.2,21.8,21.4,32.4c1,1.5,2,3,3,4.5C172.1,157.9,172.8,158.9,173.5,160z"/>
<path class="st1" d="M128.1,102.8c-3.8,1.8-8.2,0.2-10-3.6c-2.4-5.4-4.7-10.8-6.8-16.3c-0.3-0.9-0.5-1.8-0.5-2.7
	c0-3.9,3.3-7.4,7.5-7.4c3.1,0,5.9,1.9,7,4.8c1.9,5.1,4.1,10.2,6.4,15.2C133.5,96.5,131.8,101,128.1,102.8z"/>
</svg>
