<?xml version="1.0" encoding="utf-8"?>
<!-- Generator: Adobe Illustrator 21.1.0, SVG Export Plug-In . SVG Version: 6.00 Build 0)  -->
<svg version="1.1" id="Capa_1" xmlns="http://www.w3.org/2000/svg" xmlns:xlink="http://www.w3.org/1999/xlink" x="0px" y="0px"
	 viewBox="0 0 512 512" style="enable-background:new 0 0 512 512;" xml:space="preserve">
<g>
	<g>
		<path d="M261.7,132.8c-0.2,18.8-4.6,36.6-12.3,52.6c-0.9,1.9-1.9,3.7-2.9,5.5c-0.5,0.9-1,1.8-1.5,2.7c-1.6,2.7-3.2,5.3-5,7.9
			c-0.5,0.8-1,1.5-1.6,2.2c-1.1,1.5-2.2,2.9-3.3,4.3c-0.6,0.7-1.1,1.4-1.7,2.1c-1.2,1.4-2.3,2.8-3.5,4.1c-1.2,1.3-2.4,2.7-3.7,3.9
			c-1.4,1.5-2.9,2.9-4.4,4.3h0c8.2,9.8,14.6,21.2,18.6,33.6c0.4,1.1,0.7,2.3,1,3.4c0.3,1.1,0.6,2.3,0.9,3.5c0.3,1.2,0.5,2.3,0.8,3.5
			c0.2,1.2,0.5,2.4,0.7,3.6c0.2,1.2,0.4,2.4,0.5,3.6c0.2,1.5,0.4,3,0.5,4.5c0.3,3,0.4,6.1,0.4,9.1c0,0.6,0,1.3,0,1.9
			c0,0.7,0,1.4-0.1,2.1c0,0.5,0,1-0.1,1.5c-0.2,2.9-0.5,5.9-0.8,8.7c-0.1,0.5-0.1,0.9-0.2,1.4c-0.1,0.5-0.2,1-0.3,1.5
			c-0.3,1.5-0.6,3-0.9,4.5c-0.2,1-0.4,2-0.7,3c-0.1,0.5-0.3,1.1-0.4,1.7c-0.4,1.4-0.8,2.8-1.2,4.2c-0.2,0.5-0.3,1-0.5,1.4
			c-0.2,0.5-0.3,1-0.5,1.4c-0.8,2.1-1.6,4.2-2.5,6.3c-0.3,0.7-0.6,1.4-0.9,2.1c-0.2,0.4-0.4,0.9-0.6,1.4c-0.2,0.5-0.4,0.9-0.7,1.3
			c-0.4,0.9-0.9,1.8-1.4,2.7l-15,3.3c-0.7,0.2-1.5,0.2-2.1,0.2c-6.6,0-11.6-6.8-9-13.3c4.6-11.6,7.2-24.2,7.2-37.4
			c0-21.7-6.8-41.8-18.5-58.2c-2.7-3.8-2.3-9,0.8-12.3c20.8-21.9,33.7-51.4,34-83.8c0.7-63.2-47-116.3-108.2-123.9
			c0.3,0,0.6-0.1,0.9-0.1c0.7-0.1,1.4-0.2,2.1-0.2c0.9-0.1,1.8-0.2,2.7-0.2c0.5,0,0.9-0.1,1.4-0.1c0.6,0,1.2-0.1,1.7-0.1
			c1-0.1,1.9-0.1,2.9-0.1c0.6,0,1.1,0,1.7,0c0.6,0,1.3,0,2,0h0.3C206.7,8.1,262.4,64.5,261.7,132.8z"/>
		<path d="M239.6,320.6c-0.7,2.1-1.6,4.2-2.5,6.3C238,324.8,238.8,322.7,239.6,320.6z"/>
		<path d="M465.5,232.7l-0.2,0.6l-0.1,0.6l-4.6,26c-3.5,19.9-10.3,38.9-20.2,56.5c-9.9,17.6-22.5,33.2-37.6,46.6l-4.8,4.2
			c-25.2,22.2-52.7,41.6-81.9,57.6c-44.4,24.3-90.9,45.7-138.2,63.4l-14.1,5.3c22.6-16.9,37.2-43.9,37.2-74.2
			c0-51.2-41.5-92.6-92.6-92.6c-27.4,0-51.9,11.9-68.9,30.7c-52.5-121.6-24-240.5-24-240.5c5.8-49.1,40.4-89.5,86.5-103.5l20,2.5
			c58.8,7.4,102.8,57.6,102.1,116.9c-0.3,29.6-11.7,57.7-32.1,79.1c-5.5,5.8-6.1,14.7-1.5,21.2c11.2,15.9,17.2,34.6,17.2,54.2
			c0,12-2.2,23.8-6.7,34.8c-2,5.1-1.4,11,1.7,15.5c3.1,4.6,8.3,7.4,13.8,7.4c1.2,0,2.4-0.1,3.7-0.4l15-3.3l3.2-0.7l0.2-0.5l140.4-31
			c8.2-1.8,14.2-8.7,14.9-17.1l2.8-34.1c0.4-4.6-0.1-9.3-1.3-13.8l-4.5-15.9c-1.7-6.2-1-12.8,2-18.5l9.2-17.3
			c0.6-1.2,1.3-2.3,2.1-3.3l2.8,1.2l48.5,19.7C464.4,213.6,468.8,223.6,465.5,232.7z"/>
		<path d="M502.8,235.1l-4.6,26c-0.2,1.3-0.5,2.6-0.7,3.9c-0.4,1.9-0.8,3.8-1.2,5.8c-0.2,0.6-0.3,1.3-0.5,1.9
			c-0.3,1.3-0.6,2.5-1,3.8c-0.3,1.3-0.7,2.5-1,3.8c-0.4,1.3-0.7,2.5-1.1,3.8c-0.4,1.3-0.8,2.5-1.2,3.7c-0.4,1.2-0.8,2.5-1.3,3.7
			c-3.5,9.8-7.9,19.4-13,28.5c-10.2,18.2-23.5,34.6-39.1,48.4l-4.8,4.2c-25.5,22.5-53.3,42.1-83.1,58.5
			c-44.8,24.6-91.3,45.9-139.2,63.8l-15.3,5.7c-6.3,2.4-12.9,3.5-19.5,3.5h0c-0.5,0-1.1,0-1.6,0c-0.2,0-0.4,0-0.6,0h-0.1
			c-0.5,0-1,0-1.5-0.1c-0.7,0-1.3-0.1-1.9-0.2c0,0,0,0,0,0c-0.6-0.1-1.1-0.1-1.7-0.2c-0.2,0-0.4-0.1-0.6-0.1c-0.5-0.1-1-0.2-1.5-0.3
			c-1.3-0.2-2.5-0.5-3.8-0.8c-0.6-0.2-1.3-0.3-1.9-0.5c1.4-0.4,2.8-0.8,4.2-1.4l15.3-5.7c47.9-17.9,94.4-39.3,139.2-63.8
			c29.8-16.3,57.6-36,83.1-58.5l4.8-4.2c15.7-13.8,28.9-30.2,39.1-48.4c10.3-18.3,17.4-38.1,21-58.8l4.6-26
			c4.6-12.6-1.6-26.6-14-31.7l-48.5-19.7c1.6-1.2,3.3-2.1,5.2-2.8c0.3-0.1,0.5-0.2,0.8-0.3c0.6-0.2,1.2-0.4,1.8-0.6
			c0.3-0.1,0.6-0.2,0.9-0.2c0.3-0.1,0.6-0.1,0.9-0.2c0.5-0.1,1-0.2,1.5-0.3c0.2,0,0.4,0,0.6-0.1c0.6-0.1,1.1-0.1,1.7-0.1
			c0.3,0,0.6,0,1,0c3.2,0,6.3,0.6,9.4,1.8l55.3,22.5C501.2,208.5,507.4,222.5,502.8,235.1z"/>
		<path d="M496.2,270.8c0.4-1.9,0.8-3.8,1.2-5.8C497.1,267,496.7,268.9,496.2,270.8z"/>
		<path d="M502.8,235.1l-4.6,26c-0.2,1.3-0.5,2.6-0.7,3.9c0.3-1.3,0.5-2.6,0.7-3.9L502.8,235.1z"/>
	</g>
</g>
<g>
	<path d="M71.4,486.8V354.2h29.3V467h30.4v19.8H71.4z"/>
</g>
</svg>
