<svg id="Capa_1" enable-background="new 0 0 511.681 511.681" height="512" viewBox="0 0 511.681 511.681" width="512" xmlns="http://www.w3.org/2000/svg"><g><path d="m387.55 100.816c-50.134 0-90.92 40.786-90.92 90.92s40.786 90.921 90.92 90.921c37.17 0 70.231-22.238 84.224-56.646 4.444-10.886 6.697-22.417 6.697-34.275 0-11.838-2.246-23.371-6.693-34.265-.001-.001-.001-.003-.002-.004-.001-.002-.001-.004-.002-.006-.001-.001-.001-.003-.002-.004-14-34.409-47.057-56.641-84.222-56.641zm0 166.841c-41.862 0-75.92-34.058-75.92-75.921 0-41.862 34.058-75.92 75.92-75.92 27.14 0 51.655 14.197 65.201 36.98h-32.809v-10.133c2.923-1.024 5.021-3.799 5.021-7.072 0-4.143-3.357-7.5-7.5-7.5h-10.043c-4.143 0-7.5 3.357-7.5 7.5 0 3.273 2.099 6.048 5.021 7.072v10.133h-8.882c-8.828 0-16.011 7.182-16.011 16.01v22.91c0 .006-.001.013-.001.019s.001.013.001.019v22.911c0 8.828 7.183 16.01 16.011 16.01h8.882v10.131c-2.922 1.024-5.021 3.799-5.021 7.072 0 4.143 3.357 7.5 7.5 7.5h10.043c4.143 0 7.5-3.357 7.5-7.5 0-3.273-2.099-6.048-5.021-7.072v-10.131h32.81c-13.542 22.782-38.06 36.982-65.202 36.982zm72.042-51.981h-47.092c-.02 0-.038-.003-.058-.003s-.038.003-.058.003h-16.324c-.558 0-1.011-.453-1.011-1.01v-15.431h14.906c4.143 0 7.5-3.357 7.5-7.5s-3.357-7.5-7.5-7.5h-14.905v-15.43c0-.557.453-1.01 1.011-1.01h16.362c.007 0 .013.001.019.001s.013-.001.019-.001h47.131c5.09 15.268 5.278 32.05 0 47.881z"/><path d="m492.264 301.092c-6.43-6.429-13.185-12.652-20.153-18.574 24.328-22.676 39.57-54.981 39.57-90.783 0-30.772-11.348-60.296-31.951-83.13-2.775-3.075-7.517-3.318-10.593-.544-3.075 2.775-3.318 7.518-.544 10.593 18.113 20.073 28.088 46.027 28.088 73.081 0 60.176-48.956 109.132-109.132 109.132s-109.132-48.956-109.132-109.132 48.956-109.131 109.132-109.131c21.286 0 41.915 6.136 59.658 17.744 3.466 2.266 8.113 1.296 10.383-2.17 2.268-3.467 1.296-8.115-2.17-10.383-20.191-13.209-43.66-20.191-67.871-20.191-68.446 0-124.132 55.686-124.132 124.132 0 3.891.189 7.739.541 11.54-39.945-.964-79.623 5.161-117.26 18.129-29.307 10.092-57.045 24.232-82.444 42.03-3.393 2.377-4.215 7.055-1.838 10.446 1.459 2.083 3.785 3.197 6.148 3.197 1.486 0 2.988-.441 4.297-1.358 24.252-16.994 50.738-30.497 78.722-40.133 3.044-1.049 6.115-2.045 9.202-3.004-7.209 7.526-13.546 15.892-18.808 24.942-11.623 19.986-17.767 42.837-17.767 66.081 0 23.238 6.141 46.085 17.76 66.068 5.264 9.054 11.604 17.425 18.817 24.956-3.089-.959-6.161-1.956-9.205-3.005-45.994-15.838-86.893-41.445-121.56-76.113l-11.912-11.906 11.913-11.906c6.189-6.188 12.736-12.219 19.458-17.924 3.158-2.681 3.546-7.413.866-10.571s-7.414-3.547-10.571-.866c-7.033 5.969-13.883 12.278-20.358 18.753l-17.22 17.21c-1.407 1.406-2.198 3.314-2.198 5.304s.791 3.898 2.198 5.305l17.219 17.209c36.291 36.291 79.114 63.102 127.28 79.688 34.849 12.01 72.063 18.271 109.144 18.27 37.091 0 74.302-6.262 109.141-18.269 48.168-16.587 90.991-43.397 127.28-79.688l17.221-17.21c1.407-1.406 2.198-3.314 2.198-5.305s-.791-3.898-2.198-5.305zm-10.608 34.42c-34.665 34.667-75.563 60.274-121.56 76.113-3.052 1.052-6.133 2.052-9.232 3.014 5.885-6.143 11.194-12.842 15.792-20 2.238-3.484 1.228-8.125-2.258-10.363-3.483-2.237-8.124-1.229-10.363 2.258-9.554 14.874-22.533 27.541-37.579 36.72-40.228 7.744-80.998 7.745-121.228.001-16.598-10.121-30.517-24.308-40.291-41.12-10.289-17.697-15.728-37.937-15.728-58.529 0-20.598 5.44-40.841 15.733-58.541 9.781-16.819 23.71-31.009 40.319-41.126 23.348-4.492 47.208-6.37 71.035-5.593 11.14 50.801 53.478 90.053 105.839 96.566.213 2.892.333 5.799.333 8.694 0 12.749-2.054 25.3-6.104 37.305-1.324 3.924.784 8.18 4.709 9.504.795.269 1.603.396 2.398.396 3.129 0 6.05-1.975 7.105-5.104 4.573-13.552 6.892-27.717 6.892-42.1 0-2.577-.08-5.163-.229-7.742.103 0 .205.004.307.004 27.164 0 52.313-8.777 72.774-23.636 7.39 6.175 14.557 12.691 21.335 19.469l11.912 11.905z"/></g></svg>