<svg id="Layer_1" enable-background="new 0 0 512.001 512.001" height="512" viewBox="0 0 512.001 512.001" width="512" xmlns="http://www.w3.org/2000/svg"><g><g><path d="m482.002 86h-452.002c-16.542 0-30 13.458-30 30v280c0 16.542 13.458 30 30 30h452.002c16.542 0 29.999-13.458 29.999-30v-280c0-16.542-13.457-30-29.999-30zm9.999 310.001c0 5.514-4.485 10-9.999 10h-452.002c-5.514 0-10-4.486-10-10v-280.001c0-5.514 4.486-10 10-10h452.002c5.514 0 9.999 4.486 9.999 10z"/><path d="m462.001 126h-412.001c-5.523 0-10 4.477-10 10v240c0 5.523 4.477 10 10 10h161.004c5.523 0 10-4.477 10-10s-4.477-10-10-10h-151.004v-220h392.001v220h-150.996c-5.522 0-10 4.477-10 10s4.478 10 10 10h160.996c5.522 0 10-4.477 10-10v-240c0-5.522-4.478-10-10-10z"/><path d="m80.001 281.883v14.117c0 5.523 4.477 10 10 10h98.825c5.523 0 10-4.477 10-10v-14.117c0-19.272-9.182-36.915-24.482-48.009 2.118-4.747 3.305-9.996 3.305-15.521v-14.118c0-21.083-17.152-38.236-38.236-38.236-21.083 0-38.235 17.152-38.235 38.236v14.118c0 5.524 1.187 10.773 3.304 15.52-15.301 11.093-24.481 28.731-24.481 48.01zm41.177-77.648c0-10.055 8.18-18.236 18.235-18.236s18.236 8.181 18.236 18.236v14.118c0 10.055-8.181 18.235-18.236 18.235s-18.235-8.18-18.235-18.235zm-21.177 77.648c0-12.928 6.591-25.147 17.163-32.464 6.273 4.505 13.953 7.169 22.249 7.169 8.301 0 15.986-2.667 22.261-7.178 10.697 7.322 17.152 19.331 17.152 32.472v4.118h-78.825z"/><path d="m90.001 346.001h98.825c5.523 0 10-4.477 10-10s-4.477-10-10-10h-98.825c-5.523 0-10 4.477-10 10s4.477 10 10 10z"/><path d="m256 186h166c5.522 0 10-4.477 10-10s-4.478-10-10-10h-166c-5.523 0-10 4.477-10 10s4.478 10 10 10z"/><path d="m256 266h166c5.522 0 10-4.477 10-10s-4.478-10-10-10h-166c-5.523 0-10 4.477-10 10s4.478 10 10 10z"/><path d="m256 306h166c5.522 0 10-4.477 10-10s-4.478-10-10-10h-166c-5.523 0-10 4.477-10 10s4.478 10 10 10z"/><path d="m422 326h-83c-5.522 0-10 4.477-10 10s4.478 10 10 10h83c5.522 0 10-4.477 10-10s-4.478-10-10-10z"/><path d="m256.008 366h-.008c-5.523 0-9.996 4.477-9.996 10s4.48 10 10.003 10c5.522 0 10-4.477 10-10s-4.477-10-9.999-10z"/></g></g></svg>