<?xml version="1.0"?>
<svg xmlns="http://www.w3.org/2000/svg" width="512" height="512" viewBox="0 0 128 128"><path d="M127.645,59.368a1.762,1.762,0,0,0-.792-2.69l-13.537-4.973A64.016,64.016,0,0,1,89.55,36.245a17.257,17.257,0,0,0-24.359-.435L64,36.956,62.809,35.81a17.257,17.257,0,0,0-24.359.435,64.016,64.016,0,0,1-23.766,15.46L1.146,56.678a1.772,1.772,0,0,0-.418,3.064L21.4,74.6a29.8,29.8,0,0,1,7.376,7.619A33.328,33.328,0,0,0,56.5,97.008h15A33.329,33.329,0,0,0,99.227,82.22,29.8,29.8,0,0,1,106.6,74.6l20.669-14.858A2.862,2.862,0,0,0,127.645,59.368ZM15.891,54.99A67.519,67.519,0,0,0,40.964,38.679a13.76,13.76,0,0,1,19.419-.346l2.4,2.312a1.751,1.751,0,0,0,2.426,0l2.4-2.312a13.759,13.759,0,0,1,19.419.346A67.511,67.511,0,0,0,112.109,54.99l4.3,1.581h-23.5a25.029,25.029,0,0,0-15.239,5.207,21.506,21.506,0,0,1-13.1,4.475H63.424a21.506,21.506,0,0,1-13.1-4.475,25.029,25.029,0,0,0-15.239-5.207h-23.5ZM104.56,71.758a33.294,33.294,0,0,0-8.24,8.512A29.832,29.832,0,0,1,71.5,93.508h-15A29.832,29.832,0,0,1,31.68,80.27a33.294,33.294,0,0,0-8.24-8.512L7.182,60.071H35.089a21.5,21.5,0,0,1,13.1,4.475,25.027,25.027,0,0,0,15.239,5.207h1.152a25.024,25.024,0,0,0,15.238-5.207,21.509,21.509,0,0,1,13.1-4.475h27.907Z"/></svg>
