<?xml version="1.0" encoding="utf-8"?>
<!-- Generator: Adobe Illustrator 23.1.0, SVG Export Plug-In . SVG Version: 6.00 Build 0)  -->
<svg version="1.1" id="icon" xmlns="http://www.w3.org/2000/svg" xmlns:xlink="http://www.w3.org/1999/xlink" x="0px" y="0px"
	 viewBox="0 0 512 512" style="enable-background:new 0 0 512 512;" xml:space="preserve">
<g>
	<g>
		<path d="M405.3,170.7v-21.3C405.3,67,338.3,0,256,0S106.7,67,106.7,149.3v21.3c-35.3,0-64,28.7-64,64V448c0,35.3,28.7,64,64,64
			h298.7c35.3,0,64-28.7,64-64V234.7C469.3,199.4,440.6,170.7,405.3,170.7z M149.3,149.3c0-58.8,47.9-106.7,106.7-106.7
			s106.7,47.9,106.7,106.7v21.3H149.3V149.3z M426.7,448c0,11.8-9.6,21.3-21.3,21.3H106.7c-11.8,0-21.3-9.6-21.3-21.3V234.7
			c0-11.8,9.6-21.3,21.3-21.3h298.7c11.8,0,21.3,9.6,21.3,21.3V448z"/>
	</g>
</g>
<g>
	<g>
		<path d="M256,245.3c-35.3,0-64,28.7-64,64c0,27.8,17.9,51.2,42.7,60.1v35.9c0,11.8,9.6,21.3,21.3,21.3s21.3-9.5,21.3-21.3v-35.9
			c24.8-8.8,42.7-32.3,42.7-60.1C320,274,291.3,245.3,256,245.3z M256,330.7c-11.8,0-21.3-9.6-21.3-21.3S244.2,288,256,288
			s21.3,9.6,21.3,21.3S267.8,330.7,256,330.7z"/>
	</g>
</g>
</svg>
