<svg id="Слой_1" data-name="Слой 1" xmlns="http://www.w3.org/2000/svg" viewBox="0 0 200 200"><defs><style>.cls-1{fill:#fff;}.cls-2{opacity:0.25;}.cls-3{fill:#ff0082;}</style></defs><path class="cls-1" d="M28.05,100.77a8.8,8.8,0,0,1-1.33,4.44c-1.18,2-3.7,4.37-8.74,4.37-4,0-7.11-1.7-8.81-4.66A9.79,9.79,0,0,1,8,101.14v-.22a.66.66,0,0,1,.6-.67H12.8a.51.51,0,0,1,.52.52h0v.07a3.65,3.65,0,0,0,.59,1.56c.74,1.18,2.07,1.85,4.07,1.85s3.48-.59,4.15-1.78a3.33,3.33,0,0,0,.52-1.63,2.74,2.74,0,0,0-2-2.81A9.72,9.72,0,0,0,18,97.44a13,13,0,0,1-4.74-1A8,8,0,0,1,7.83,88.7a9.13,9.13,0,0,1,2.6-6.08c1.77-1.85,4.37-2.74,7.55-2.74a9.77,9.77,0,0,1,7.19,2.74A11.16,11.16,0,0,1,28.05,89v.08a.68.68,0,0,1-.66.74H23.24a.71.71,0,0,1-.59-.52v-.07a8.18,8.18,0,0,0-.59-1.86c-.6-1.11-1.49-2.22-4.15-2.22a4.83,4.83,0,0,0-3.71,1.19,3.86,3.86,0,0,0-1,2.29,2.75,2.75,0,0,0,2,2.82,8.21,8.21,0,0,0,2.66.52,13.06,13.06,0,0,1,4.74,1A8.08,8.08,0,0,1,28.05,100.77Z"/><path class="cls-1" d="M49.83,84.48a.75.75,0,0,1-.82.66H42.42v23.41a.75.75,0,0,1-.66.81H37.68a.75.75,0,0,1-.66-.81V85.22H30.28a.67.67,0,0,1-.67-.67V80.48a.67.67,0,0,1,.67-.67H49a.76.76,0,0,1,.82.67Z"/><path class="cls-1" d="M72.86,108.47a.44.44,0,0,1,.08.3.69.69,0,0,1-.67.74H67.68a.62.62,0,0,1-.52-.3l-.07-.07L61.16,98.7l-.74-1.34H57.83v11.48a.67.67,0,0,1-.67.67H53.09a.67.67,0,0,1-.67-.67V80.48a.67.67,0,0,1,.67-.67H63.16a12,12,0,0,1,7.78,2.52,8,8,0,0,1,3,6.22c0,3.63-2.59,7.33-7.63,8.44l.15.3.74,1.33,5.63,9.85ZM57.83,92c.37,0,6.44,0,6.74-.08,2.81-.37,4.07-1.92,4.07-3.26,0-1.63-1.63-3.4-5.41-3.4h-5.4V92Z"/><path class="cls-1" d="M98,108.84a.66.66,0,0,1-.66.67H78.49a.67.67,0,0,1-.67-.67V80.48a.67.67,0,0,1,.67-.67H96.71a.67.67,0,0,1,.67.67v4.07a.67.67,0,0,1-.67.67H83.23V92H96a.66.66,0,0,1,.67.66V96.7a.66.66,0,0,1-.67.66H83.23v6.74H97.45a.67.67,0,0,1,.67.67L98,108.84Z"/><path class="cls-1" d="M123.08,108.84a.67.67,0,0,1-.67.67H103.52a.66.66,0,0,1-.66-.67V80.48a.66.66,0,0,1,.66-.67h18.22a.67.67,0,0,1,.67.67v4.07a.67.67,0,0,1-.67.67H108.26V92h12.82a.65.65,0,0,1,.66.66V96.7a.65.65,0,0,1-.66.66H108.26v6.74h14.22a.66.66,0,0,1,.67.67v4.07Z"/><path class="cls-1" d="M145.89,84.48a.75.75,0,0,1-.82.66h-6.59v23.41a.75.75,0,0,1-.66.81h-4.08a.75.75,0,0,1-.66-.81V85.22h-6.74a.67.67,0,0,1-.67-.67V80.48a.67.67,0,0,1,.67-.67h18.73a.76.76,0,0,1,.82.67v4Z"/><rect class="cls-2" x="154.31" y="74.72" width="39.96" height="39.96" rx="10.24"/><path class="cls-1" d="M161.1,83.7h4a31.27,31.27,0,0,1,5.43.31,3.74,3.74,0,0,1,2.31,1.58,7.15,7.15,0,0,1,.9,4.06,6.31,6.31,0,0,1-.64,3.41,3.33,3.33,0,0,1-2.48,1,4.34,4.34,0,0,1,2.26,1.11,3.36,3.36,0,0,1,.71,1.29,19.07,19.07,0,0,1,.15,3.22v5.74h-5.26V98.24a4.89,4.89,0,0,0-.28-2.17q-.27-.42-1.44-.42v9.82H161.1Zm5.66,3.73v4.84A2.58,2.58,0,0,0,168.1,92c.25-.18.38-.75.38-1.71V89.11a1.81,1.81,0,0,0-.37-1.36A2.15,2.15,0,0,0,166.76,87.43Z"/><path class="cls-1" d="M175.93,83.7h5.7a13.38,13.38,0,0,1,3.55.37,4,4,0,0,1,1.87,1.05,3.56,3.56,0,0,1,.85,1.66,14.67,14.67,0,0,1,.22,3v1.9a7.85,7.85,0,0,1-.43,3,3,3,0,0,1-1.58,1.46,7.51,7.51,0,0,1-3,.51h-1.51v8.77h-5.66Zm5.66,3.73V93H182a1.32,1.32,0,0,0,1.08-.38,2.76,2.76,0,0,0,.31-1.6V89.22a2.14,2.14,0,0,0-.35-1.46A2.22,2.22,0,0,0,181.59,87.43Z"/><path class="cls-3" d="M11.1,131.42a1.6,1.6,0,0,0-.75.12c-.07.19-.13.37-.19.55a3.37,3.37,0,0,1-.2-.51s0-.19,0-.48v-.59a.93.93,0,0,0-.2.3,1,1,0,0,1-.15.27.7.7,0,0,1,0-.33.66.66,0,0,0,0-.3l-.42,0,.43-.2a3.21,3.21,0,0,0,.18-1.81l-.51,1.17H9.23v-.83H9.17l-.21.57a2.08,2.08,0,0,1-.06-.59c0-.13,0-.31,0-.55,0-.06,0-.16,0-.28s0-.23,0-.29,0-.15,0-.26,0-.22,0-.28,0-.3.08-.57,0-.44.07-.54,0-.18.11-.58c0,.06,0-.12.1-.55a1.77,1.77,0,0,0-.57,0,2.89,2.89,0,0,1-.58.06l.24-.14c.36-.15.6-.24.72-.28a.55.55,0,0,0,.39-.36c.06-.25.18-.66.36-1.25l.46-1.51c.2-.63.36-1.13.47-1.51l.09-.33c0-.16.06-.27.07-.33a3,3,0,0,0,.12-.32l.41,0,.36,0,0,0-.32-.11.06,0,.83.06.23-.26.22-.26h.08v.59l.72.12a2.78,2.78,0,0,1,.24-.31.21.21,0,0,1,.25-.08c.13,0,.19.06.18.1s0,.12.14.18.18.14.18.19.1.07.3.1c1,.14,2.38.4,4,.78a8.28,8.28,0,0,1,2,.69,2.81,2.81,0,0,1,1.13,1,1.08,1.08,0,0,1-.2,1.42,3.32,3.32,0,0,1-1,.68,9.44,9.44,0,0,1-1.73.64l-.24.07-.21.06s0,0,0,.06h0l.57.07a11.88,11.88,0,0,1,2,.42,1.85,1.85,0,0,1,1.33,1,1,1,0,0,1-.12.85,3.28,3.28,0,0,1-1.33,1.1,7.88,7.88,0,0,1-.87.38l-1.32.5c-.6.22-1,.38-1.31.5q-2.25.85-5,1.63l-.83.25-.82.26-.63.12Zm-.33-.65-.24.11-.12.39C10.78,131.14,10.9,131,10.77,130.77Zm.87-11.08c.08-.2.15-.36.2-.47l-.45-.11v1l.06.07Zm1.25,9.24a22.15,22.15,0,0,1,2.12-.88c.31-.11.68-.25,1.12-.43a5.1,5.1,0,0,0,1.35-.78.74.74,0,0,0,.26-.3c.12-.31-.08-.53-.6-.67a23.19,23.19,0,0,0-4-.7,10.47,10.47,0,0,0-1.74,0q1.56.19,1.83.27H13l-.35,0,.63.17c-.23,1.09-.35,1.68-.37,1.77s-.22.68-.56,1.79Zm3.47-5.84a7.54,7.54,0,0,0,1.57-.56A7.29,7.29,0,0,0,16,121.47l-.36-.13-.34-.11-.32-.17.84.09.75.08a4.3,4.3,0,0,0-1.08-.4c-.67-.19-1.06-.29-1.18-.31,0,.31-.13.75-.23,1.3s-.17,1-.21,1.3h.24l.8-.19a.47.47,0,0,1,.43,0,1.07,1.07,0,0,1-.46.27,1.65,1.65,0,0,0-.5.26A12.2,12.2,0,0,0,16.36,123.09Z"/><path class="cls-3" d="M31,130a.55.55,0,0,0-.3.18,18.56,18.56,0,0,1-1.92,1.45,3.36,3.36,0,0,1-.6.32A5.58,5.58,0,0,1,29,131a4.26,4.26,0,0,0,.77-.89l-.36.29-1.88,1.44a1.21,1.21,0,0,1-.6.26,12.7,12.7,0,0,1,.95-1.05,9.38,9.38,0,0,0,.93-1l-.18.13-1.32,1a5.1,5.1,0,0,1-.72.43l-.41.08,1-1,1-1,.48-.48a4.43,4.43,0,0,0,.49-.53,1.84,1.84,0,0,0-.48.25l-.4.3-.36.28-.33.29c-.09-.07-.08-.16,0-.28l.79-.84a9.84,9.84,0,0,0,.86-.81l.15-.16-1-.93a1.26,1.26,0,0,0,.2.5c.16.28.26.46.3.55a5.82,5.82,0,0,1-.8-.71l-.67-.67a.47.47,0,0,0,0,.58c.05.07.16.25.33.53l.06.2-1.32-1.27v.22h-.07c-.46-.57-.71-.89-.75-1a16.63,16.63,0,0,1-2.12-4.51,7.58,7.58,0,0,1-.32-1.84,3.49,3.49,0,0,1,.06-.48c0-.07.09-.12.21-.12s.21,0,.23.11.05.22.07.32a7.38,7.38,0,0,0,.35,1.25c0-.29-.05-.44-.05-.46,0-.4,0-.78-.06-1.15a.23.23,0,0,1,.2-.24.2.2,0,0,1,.22.18c0,.06.06.29.15.7q.36-.63.3-.6a.44.44,0,0,1,.2.35,1.27,1.27,0,0,0,.06.34c.2-.42.28-.61.24-.58l.48,1.58h.06c0-.1,0-.15,0-.15a.29.29,0,0,0,0-.09.46.46,0,0,1,0-.1c-.06-.49-.1-.82-.11-1a.29.29,0,0,1,.12-.29l.26.22.21-.07.09,0,.22.52a.84.84,0,0,0,.32.46,1,1,0,0,1,.21.35l.3.74.3.75a25.17,25.17,0,0,0,1.38,2.59l.27.45c.1.19.18.34.25.45l.48.7.24-.26a13.35,13.35,0,0,0,1.3-2.33c.65-1.5,1.17-2.73,1.57-3.69,0,0,.21-.51.56-1.41a1.57,1.57,0,0,1,0,.66,2.07,2.07,0,0,0,0,.61,4.56,4.56,0,0,0,.43-.74,4.29,4.29,0,0,1,.45-.75c0,.16,0,.24,0,.25a.21.21,0,0,0,.11.2s.06.07.09.17.05.24.12.61a1.4,1.4,0,0,0,.28-.39,1.71,1.71,0,0,1,.27-.38.34.34,0,0,1,.09.22v.59a.57.57,0,0,0,0,.12V120a3.45,3.45,0,0,0,.52-.62,6.23,6.23,0,0,1,.45-.63,1.52,1.52,0,0,1,.11.16,2.45,2.45,0,0,1,0,.3v.3s0,0,.11,0,.09,0,.09.06a2.11,2.11,0,0,0,0,.3,2.55,2.55,0,0,1,0,.31l-.45,2.15a7.59,7.59,0,0,1-.87,2c-.11.19-.23.38-.35.57a14.39,14.39,0,0,0-.9,1.61,12.06,12.06,0,0,1-2.43,3.12c-.21.2-.49.46-.83.8l-.81.81-.81.75-.1-.05A12.26,12.26,0,0,0,31,130Zm-1.49-2.84a1.44,1.44,0,0,0-.55-.52l.37.71C29.47,127.26,29.53,127.2,29.49,127.11Z"/><path class="cls-3" d="M48.21,130.7l-.27.35a.54.54,0,0,1-.07-.39c0-.12,0-.25,0-.41a2.37,2.37,0,0,0,0-.41,5,5,0,0,0-.39.75,8.39,8.39,0,0,1-.36.78.27.27,0,0,1-.15-.27c0-.12,0-.27,0-.46s0-.4,0-.46v-.77l-.17.28q-.07.21-.27.69l-.27.69a.56.56,0,0,1-.18.21c0-.66.13-1.49.27-2.48s.22-1.82.26-2.47l-1.17,3.44a3.42,3.42,0,0,1,0-.93c0,.06,0-.24.09-.89q0-.11,0-.45c0-.18,0-.33,0-.44s.07-.53.13-.89a8.81,8.81,0,0,1,.18-.9,4.19,4.19,0,0,1,.11-.43,4.15,4.15,0,0,0,.1-.48l-.58,0-.59,0a7.12,7.12,0,0,1,1-.3c.33-.08.46-.22.38-.4a1.79,1.79,0,0,0-.53,0c-.27,0-.46,0-.55,0a6,6,0,0,1,.63-.2l.3-.06a.43.43,0,0,0,.39-.27c.2-.57.38-1,.55-1.44s.32-.74.63-1.38a1,1,0,0,1,.21-.29.39.39,0,0,1,.26-.09.22.22,0,0,1,.24.15v.25a1.3,1.3,0,0,1,.4.16s.07.13.06.28,0,.22,0,.38,0,.32,0,.38a.56.56,0,0,0,.08.34c.14-.46.22-.73.25-.81a2.55,2.55,0,0,1,.12-.31.65.65,0,0,1,.17-.2.49.49,0,0,1,.27-.05.25.25,0,0,1,.19.12s0,.12,0,.29a.22.22,0,0,0,.06.17l.15-.31c.13-.21.21-.34.25-.39a.37.37,0,0,1,.27-.09.28.28,0,0,1,.24.12,1.15,1.15,0,0,1,.21.52q0,.27-.12,1v.31c2-.37,3.46-.68,4.43-.93a1,1,0,0,0-.66-.5,9.24,9.24,0,0,0-1.11-.32q-2.3-.44-5.24-.83l-1.17-.16a6.68,6.68,0,0,1,1.26-.08l1.28,0a6.34,6.34,0,0,0-.68-.12,2,2,0,0,1-.64-.19,1.05,1.05,0,0,1,.54-.1,1.87,1.87,0,0,0,.57-.06l-1-.17-1.08-.18.31-.06h1.35c.11,0,1.19.1,3.25.24h.43a5.53,5.53,0,0,0-.9-.26,6,6,0,0,1-.9-.29l.31,0a11.62,11.62,0,0,0,2,.22,8.71,8.71,0,0,1,1.32.14c.65.11,1.37.25,2.15.43a7.22,7.22,0,0,1,2.7,1.11l.27.16a1,1,0,0,1,.53.65.78.78,0,0,1-.27.77,5.78,5.78,0,0,1-2,1.15,23.36,23.36,0,0,1-3.77,1.07l-.36.1.3.29,4,3.55c.37.34,1.14,1.07,2.31,2.2.14.13.64.62,1.5,1.48a3.53,3.53,0,0,1,.4.44,11.17,11.17,0,0,1-1.27-.77c-.74-.5-1.15-.76-1.22-.79.17.22.44.53.8.92s.64.72.79.91a4,4,0,0,1-.73-.38c-.38-.23-.64-.38-.77-.44q.06.09.75.84l.75.77a.3.3,0,0,1-.27-.07l-1.5-1.09a.84.84,0,0,0-.36-.17l.3.33.32.34a5.36,5.36,0,0,1-.87-.46c-.39-.25-.66-.41-.81-.49l1.05,1.08-.3-.09c-.49-.29-.79-.48-.89-.55-2-1.5-3.25-2.46-3.8-2.91a36.39,36.39,0,0,1-3.42-3.33l-.42-.43a.15.15,0,0,0-.14.12,19.34,19.34,0,0,1-.75,2.84q-.12.31-1.23,2.58l-.16.23h-.06A4.38,4.38,0,0,0,48.21,130.7Zm3-7.19a15.34,15.34,0,0,0-2.42.67,23.84,23.84,0,0,0,5-1.14A18.06,18.06,0,0,0,51.26,123.51Zm1.05-.47a11.57,11.57,0,0,0,1.47-.43,8.44,8.44,0,0,0-1.51.27,10.17,10.17,0,0,0-1.6.48A13.05,13.05,0,0,0,52.31,123Zm5,3.34c-.15-.14-.55-.54-1.2-1.21-.17-.17-.17-.27,0-.31a.5.5,0,0,1,.42.14,10.38,10.38,0,0,1,1.83,1.76l.66.89-.1,0Z"/><path class="cls-3" d="M77.42,124.89a3.62,3.62,0,0,1-.72.25,7.78,7.78,0,0,0-.76.22q.38.69,1.8,4.82a6.74,6.74,0,0,1-.68-.86q-.57-.78-.66-.87a9.63,9.63,0,0,0,.32,1.08c.21.64.32,1,.34,1.1a1,1,0,0,0-.15-.15l-.18-.19c0,.31.06.53.08.67a3.43,3.43,0,0,1-.56-.64,3.73,3.73,0,0,0-.52-.64c0,.09.09.23.16.42s.14.33.17.42l-.06,0-.17-.12-.52-.63a1.23,1.23,0,0,0-.33-.29l.94,2.1q-.57-.66-2.77-3.92l.75-.27a1.19,1.19,0,0,0-.45,0,1.19,1.19,0,0,1-.45,0,5.35,5.35,0,0,1,.73-.25c.36-.11.63-.2.8-.27l-.45.06c-.94.19-1.78.38-2.51.57s-2.15.56-4,1a.8.8,0,0,0-.49.28c-.09.11-.43.57-1,1.37a1,1,0,0,1-.27.27,1.62,1.62,0,0,0,.06-.27,6,6,0,0,0-.57.61,8.29,8.29,0,0,1-.59.66,2,2,0,0,1,.19-.51,2.18,2.18,0,0,0,.18-.49.89.89,0,0,0-.39.29,1.18,1.18,0,0,1-.3.32.81.81,0,0,1,.15-.38,1.07,1.07,0,0,0,.14-.42,3.21,3.21,0,0,0-.36.42,1.6,1.6,0,0,1-.39.36l.22-.58a7.54,7.54,0,0,0-.78.8c-.33.38-.56.64-.7.77l.07-.18.62-1.16c.11-.22.14-.37.1-.45a3.7,3.7,0,0,0-.36.5,1.56,1.56,0,0,1-.4.46h-.12c-.07-.05-.08-.14,0-.29a10.65,10.65,0,0,1,.47-1l1.17-2,.15-.25-.5,0a.16.16,0,0,1-.13-.08s0-.08.09-.11a2.9,2.9,0,0,1,.48-.14,1.1,1.1,0,0,0,.61-.38,17.22,17.22,0,0,0,1-1.48c.64-1,1.25-1.93,1.83-2.7l1.84-2.58a2.33,2.33,0,0,1,.38-.43l-.27.61.07,0,.38-.41s0-.13,0-.27a5.88,5.88,0,0,1-.21-.91,1.73,1.73,0,0,1,.36.39,3.42,3.42,0,0,0,.32.42c.12,0,.16-.12.12-.2L70.4,119a.28.28,0,0,1,0-.22l.33.33.12-.27.21.1a1.41,1.41,0,0,0,.22.3l0-.13a.46.46,0,0,0,0-.1v-.09c0-.12.08-.18.21-.19a.31.31,0,0,1,.32.13.28.28,0,0,0,.06.13l.06.12a2.31,2.31,0,0,1,.1.23l.12.23.11.15a3.82,3.82,0,0,0,.36-.35,3.24,3.24,0,0,1,.3-.33,5.45,5.45,0,0,1,.7-.62,1,1,0,0,0,0,.16c-.43.7-.75,1.21-.95,1.52a.37.37,0,0,0,0,.4l.14.27a1.84,1.84,0,0,0,.13.25,2.26,2.26,0,0,0,.3.28,1.34,1.34,0,0,0-.12-.43.61.61,0,0,1,0-.44,1.27,1.27,0,0,1,.27.42l.18.4L74,122l.47.78.24.37.24.38c.2.32.35.58.46.77l.45.81ZM66.27,122.7a24.26,24.26,0,0,1-1.59,2.5l-.15.24-.15.24a.92.92,0,0,1-.14.14.26.26,0,0,1-.19,0c-.11,0-.16-.07-.15-.11a.59.59,0,0,1,.09-.31,10.2,10.2,0,0,1,1.25-1.76l1-1.15h.08C66.3,122.63,66.27,122.69,66.27,122.7Zm-1.39,3.73-.17.11c-.18,0-.26-.09-.24-.2a2.75,2.75,0,0,1,.1-.34,6.05,6.05,0,0,1,1.19-1.73l.83-.85A12.13,12.13,0,0,1,64.88,126.43Zm4.9-1.76a11,11,0,0,0-.93,1.6l1.58-.31,1.62-.29c-.42-1-.79-1.86-1.11-2.63A13.52,13.52,0,0,0,69.78,124.67Z"/><path class="cls-3" d="M90.66,126.08c0,.15,0,.22,0,.23s0,.09-.06.23a1.2,1.2,0,0,0,.35-.21,1.31,1.31,0,0,1,.32-.24c0,.15,0,.23,0,.24h.08l.21-.23a2,2,0,0,0,.22-.23.46.46,0,0,1,.24-.12l-.18.36c-.42.68-.7,1.12-.84,1.33s-.62.85-1.2,1.62a6.94,6.94,0,0,1-4.47,2.31,8,8,0,0,1-5.48-.79,3,3,0,0,1-1.47-1.78,5.54,5.54,0,0,1-.06-2.46,6.57,6.57,0,0,1,.9-2.36,4.64,4.64,0,0,1,.21-.48,7.94,7.94,0,0,1,3.07-3.24l1.79-1a1.2,1.2,0,0,1,.48-.18,2.54,2.54,0,0,1-.4.33l-.22.15-.21.16s-.13.13-.36.34a.66.66,0,0,0,.3-.08l1.84-.84a6.58,6.58,0,0,1,2.16-.48,8,8,0,0,1,2.68.27,3.16,3.16,0,0,1,.47.18c.79.36,1,.82.65,1.38a4.1,4.1,0,0,1-.35.48,1,1,0,0,1-.23.15c-.06,0-.08-.14-.06-.29s.1-.42.1-.42c0-.15-.1-.28-.34-.41,0,.18,0,.27,0,.29a2.48,2.48,0,0,1-.12.38c0,.09-.12.12-.24.11a.22.22,0,0,1-.15-.13l-.06-.18-.06-.18-.24-.16-.1.09-.09.09a4.6,4.6,0,0,0-2.27.65,9.77,9.77,0,0,0-1.38,1,19.86,19.86,0,0,0-2.52,2.4A5.83,5.83,0,0,0,82.08,127a1.91,1.91,0,0,0,.07,1.12,1.79,1.79,0,0,0,.36.47,1.49,1.49,0,0,0,1,.37,3.92,3.92,0,0,0,1.75-.28A29,29,0,0,0,90.12,126l.18-.17-.37.11-2.34.75-2.34.75a1.31,1.31,0,0,1-.36.08.3.3,0,0,1-.21,0c-.06,0-.07-.1,0-.15l.51-.37L85,127c-.18,0-.29,0-.33,0s0-.13,0-.21a3.09,3.09,0,0,1,.3-.23l.39-.29-.37.08-.5.15-.5.15a.3.3,0,0,1-.16,0,.68.68,0,0,1-.21-.11l1.92-1-.54.06c-.2,0-.32,0-.37-.09s0-.16.1-.24a.7.7,0,0,1,.17-.09,22.39,22.39,0,0,1,4.51-1.58l3-.54.27,0a2.24,2.24,0,0,1-.52.26c-.26.1-.44.18-.54.23a1.44,1.44,0,0,0,.48,0,2,2,0,0,1,.48-.06,2.63,2.63,0,0,1-.62.32,4.07,4.07,0,0,0-.66.32l.33,0,1.4-.22-1.11.57-1.21.58c.24,0,.66-.1,1.24-.22a9.28,9.28,0,0,1,1.18-.18l-.33.16-1,.46-1,.45a1.26,1.26,0,0,0-.33.22l-.79.91-.06.08A6.74,6.74,0,0,0,90.66,126.08Zm-10.11-1.46a8.54,8.54,0,0,1,1.35-2l.12-.19a9.16,9.16,0,0,0-1.82,2.2.43.43,0,0,0,0,.41A1,1,0,0,0,80.55,124.62ZM82,123.37a1.11,1.11,0,0,0-.27.58,1.65,1.65,0,0,0,.78-1.14A2.25,2.25,0,0,0,82,123.37Z"/><path class="cls-3" d="M100,122.4a1.16,1.16,0,0,1-.1.56,2.64,2.64,0,0,0-.17.58l2-.28c.45-.06,1.11-.14,2-.23l2.15-.24a1.7,1.7,0,0,1-.45.17,2.47,2.47,0,0,0-.46.16l.82-.07.77-.06a10.28,10.28,0,0,1-1,.33c-.47.13-.81.24-1,.32l2.26-.18a5.46,5.46,0,0,1-.75.26,6,6,0,0,0-.75.28l1.74-.12,0,.07-1.91.52c-.76.21-1.41.36-1.94.46-1.29.25-2.41.44-3.36.59-.54.08-.85.27-.93.56,0,.13-.24.67-.6,1.6a1.11,1.11,0,0,1-.17.3c0-.06,0-.14,0-.26a1.49,1.49,0,0,0,0-.25,4.06,4.06,0,0,0-.62,1l.38,0,2.64-.43c.75-.13,2-.27,3.73-.44l3.25-.3a4.12,4.12,0,0,1,.78,0l-.3.09-1.6.3-1.59.29c-.16,0-.3.07-.41.11.06,0,.52,0,1.37-.07l1.38-.08a7.32,7.32,0,0,1-.8.21l-.94.19a8.38,8.38,0,0,0-.86.21c.37,0,.94,0,1.7-.07s1.3-.07,1.69-.08c-.12.05-.6.17-1.44.37-.65.15-1.13.28-1.45.37l1.38-.1,1.38-.1-.23.07q-5.16,1.13-5.79,1.25c-.62.13-2,.37-4.22.73-.66.11-1.52.24-2.57.38a2.45,2.45,0,0,1-1.12,0l-.2.23h-.07v-.32c.08-1.1.12-1.66.12-1.67a11.1,11.1,0,0,1,.75-3.2c0-.08.14-.45.36-1.12a.22.22,0,0,0-.14-.26q-.26-.15.06-.24a.51.51,0,0,0,.32-.36l.54-1.83q.09-.26.63-1.62c.08-.21,0-.36-.11-.45.2-.15.31-.24.32-.3a.58.58,0,0,0-.09-.34.62.62,0,0,0,.27-.37,1,1,0,0,1,.21-.43,1.28,1.28,0,0,1,.18.14s0,.16.07.4h.36a.4.4,0,0,0,.21-.18.87.87,0,0,0,.09-.17.68.68,0,0,1,.08-.17,1.59,1.59,0,0,1,.13-.16.31.31,0,0,1,.17.29.38.38,0,0,0,.09.3.8.8,0,0,0,.17-.12,3.09,3.09,0,0,0,.15-.31l.15-.31a1.67,1.67,0,0,1,.18-.28l.19,0a2,2,0,0,1,.12.89c.19,0,.31,0,.35-.07l.09-.2c0-.1.05-.17.07-.22a1.66,1.66,0,0,0,.17-.21c.17.06.25.15.25.28a.52.52,0,0,0,.09.33l2.57-.19q1.31-.09,2.64-.12c1.45,0,2.33,0,2.63,0l-.38.11.69,0,0,0-2,.36a6.94,6.94,0,0,0,1.07,0,8.94,8.94,0,0,1,1.12,0l-1.53.34c-.67.13-1.18.25-1.54.35.12,0,.68,0,1.69,0l1.59-.06c-.11.05-.58.16-1.42.35a12.13,12.13,0,0,0-1.38.37l.4,0,.45,0-.19.09c-.18,0-.73.18-1.64.43a40.15,40.15,0,0,1-4.32,1l-1,.16a.15.15,0,0,0,0,.06Zm-5.42,7.71-.09,0-.12,0a3.72,3.72,0,0,0-.46,1.07l.76-.22Q94.61,130.33,94.58,130.11Zm1.16.41-.11.17a1.93,1.93,0,0,0,.69-.19A1.78,1.78,0,0,0,95.74,130.52Z"/><path class="cls-3" d="M110.15,119.2c-.09-.22-.05-.33.12-.34a.33.33,0,0,1,.25.08.29.29,0,0,1,.08.08l.06.07a.41.41,0,0,1,.1.1.6.6,0,0,1,.62,0l.17-.21a.38.38,0,0,1,.25-.1.54.54,0,0,1,.29.07.77.77,0,0,1,.22.22l.21.27.21.29a.49.49,0,0,0,.21.16c0-.09,0-.14,0-.14-.13-.33-.23-.56-.3-.72a.29.29,0,0,1,.09-.42s0-.08,0-.21a.25.25,0,0,1,.21-.21.6.6,0,0,1,.42.34l.23.4c.1.19.17.33.22.41l.48.82.18-.17a.33.33,0,0,1,.32-.09q.18,0,.18.18a2.69,2.69,0,0,1,0,.44,1.11,1.11,0,0,0,.23,1l1.45,2.34.14.15.35-.27,2.1-1.58a11,11,0,0,1,1-.6.93.93,0,0,0,.4-.44c.15-.38.37-.93.66-1.64a4,4,0,0,1,.18-.36l.17-.14.28.1.08,0a1.13,1.13,0,0,0,.16-.2.21.21,0,0,1,.18,0q.12,0,.12.09a3.74,3.74,0,0,1,0,.41.62.62,0,0,0,0,.23l.24-.37a.58.58,0,0,1,.25-.19.5.5,0,0,1,.32,0,.21.21,0,0,1,.18.14,3.36,3.36,0,0,1,0,.35v.18l.26-.27a.19.19,0,0,1,.18,0q.16,0,.18.09a.89.89,0,0,1,0,.32c-.07.59-.12,1-.15,1.18-.15.74-.32,1.5-.5,2.27-.14.59-.33,1.34-.58,2.28l-.29,1c-.15.56-.24.91-.28,1-.1.37-.46,1.31-1.07,2.84l-.49,1.2s-.06.11-.15.3a.6.6,0,0,1-.12-.49l.09-.68c0-.3,0-.53.07-.69a1,1,0,0,0,0-.42l-.48.94-.52,1a1.19,1.19,0,0,1-.06-.56,1.92,1.92,0,0,0,0-.57c-.14.28-.29.56-.45.85a.76.76,0,0,1-.06-.39,1.59,1.59,0,0,0,0-.4l-.15.35c-.06.14-.11.24-.14.3h-.07s0,0,0,0,0-.23,0-.25c0-.86,0-1.5-.06-1.9a1.36,1.36,0,0,1-.15.19l-.59,1.26c-.34.74-.54,1.16-.59,1.26a.25.25,0,0,1-.18.16c.14-.78.22-1.2.23-1.24,0-.22.11-.51.19-.88s.17-.71.2-.87a15.45,15.45,0,0,1,.78-2.5.89.89,0,0,1,.29-.31,4.24,4.24,0,0,0,.7-.6l.33-.25a3.8,3.8,0,0,0,.35-.23l-.06,0a0,0,0,0,0-.06,0l-2.09,1.19c-.06,0-.45.29-1.17.79l.09.21a1.65,1.65,0,0,1,.09.21,1.2,1.2,0,0,1-.35-.16,1.09,1.09,0,0,0-.33-.18l.24.37c.1.15.17.27.21.34l-.06,0-.24-.17c-.4-.4-.78-.8-1.15-1.19l-.42-.44-.42-.45a1.63,1.63,0,0,1-.24-.19c-.17.79-.27,1.21-.29,1.29q-.21.87-.33,1.23c-.08.26-.22.66-.43,1.21-.09.22-.26.63-.51,1.21a7.16,7.16,0,0,1-.59,1.18c0-.12,0-.7,0-1.73l-.15.21c-.08.16-.19.38-.33.64s-.26.53-.32.65a.64.64,0,0,1-.25.3,1.23,1.23,0,0,1-.08-.39v-.81a.74.74,0,0,0-.23.35,2.27,2.27,0,0,1-.1.38,2.48,2.48,0,0,1-.11.34l-.15.44a1.09,1.09,0,0,1-.16-.56c0-.32,0-.5,0-.55a.71.71,0,0,0-.18.39.69.69,0,0,1-.13.36.26.26,0,0,1-.17-.25c-.08-.63-.12-1-.12-1.12a13.81,13.81,0,0,1,0-2.1c.14-.86.26-1.51.37-1.94s.43-1.54,1-3.59c.12-.38.2-.63.25-.75a.43.43,0,0,0-.08-.4l-.68-1a2,2,0,0,1-.13-.24q0-.11,0-.15a.78.78,0,0,1,.28-.1C110.25,119.43,110.16,119.23,110.15,119.2Zm.93,5a7.28,7.28,0,0,0-.36,1.79,10.27,10.27,0,0,0,.63-1.88,8.58,8.58,0,0,0,.38-1.77A8.8,8.8,0,0,0,111.08,124.23Z"/><path class="cls-3" d="M127.46,130a6.41,6.41,0,0,0-.51.83,5.77,5.77,0,0,1-.51.83,1.87,1.87,0,0,1,0-.52l.09-.54.09-.54a3,3,0,0,0,0-.56c0,.06-.46.85-1.26,2.38a1.28,1.28,0,0,1-.11-.57,3.82,3.82,0,0,0,0-.64q-.1.18-.3.57a2.6,2.6,0,0,1-.3.54,2.86,2.86,0,0,1,0-1.39c0-.15.06-.38.09-.68s.06-.53.08-.69c.08-.49.16-.93.25-1.33q.08-.34.36-1.35s.16-.5.41-1.37h-.39a3.16,3.16,0,0,1-.63,0c.5-.14.86-.24,1.09-.32l1.8-4.81-1.39-.12a3.24,3.24,0,0,1,.76-.12,2.51,2.51,0,0,0,.72-.12l-1.81-.09.36-.12.79-.08.56-.07a1.51,1.51,0,0,0-.45-.07L126,119c-.13,0-.19-.07-.17-.18l.78-.08c1.41-.08,2.79-.11,4.15-.09s2.34,0,2.71.08a30.41,30.41,0,0,1,3.26.42,6.2,6.2,0,0,1,2.48,1c.81.65,1.05,1.34.73,2.06a1.85,1.85,0,0,1-.79.83,8.58,8.58,0,0,1-1.1.55c-.54.22-1.31.5-2.3.86l-.93.31-.93.31c-1.2.44-2.48.85-3.86,1.23a.7.7,0,0,0-.52.4,18.79,18.79,0,0,1-.8,1.79c-.11.22-.45.83-1,1.85a1.14,1.14,0,0,1-.36.41Zm.48-7.72v.13a3,3,0,0,0,.38-.7L129,120l-.05-.08h-.43Zm2,3.61c-.16,0-.17.11,0,.21l.9-.34A2.44,2.44,0,0,0,129.91,125.92Zm2.2-2.79a.6.6,0,0,0,.2-.07l1.86-.81c.52-.24.55-.5.1-.78a6.34,6.34,0,0,0-3.16-.91c-.36,1.64-.56,2.61-.62,2.9Zm.68-2.61a6.57,6.57,0,0,1,.72.17,2.69,2.69,0,0,0,.73.14,11.8,11.8,0,0,0-3-.72s0,.1,0,.23Z"/><path class="cls-3" d="M145.22,129.13l.51-.08-.32.25.08,0,.66-.12c-.19.12-.38.24-.56.37l.2.09-.3.28.48.06-.26.26-.27.28.45-.09,0,0a5.47,5.47,0,0,1-1.2.86l-.64.31-.65.31a.66.66,0,0,1-.22.08.71.71,0,0,1-.46,0,.26.26,0,0,1-.15-.27l0-.08a1.18,1.18,0,0,0-.24-.14h0l-.53.12-.21-.06-.42-.14s0-.14,0-.32c-.22,0-.35-.07-.38-.14s.06-.19.26-.35l-.39,0a.43.43,0,0,1-.23-.06.14.14,0,0,1,0-.18.76.76,0,0,1,.24-.16,21.84,21.84,0,0,1,2.4-1.13,9.39,9.39,0,0,1,2.3-.5,1.52,1.52,0,0,1-.33.25,1.68,1.68,0,0,0-.35.25Z"/><path class="cls-3" d="M149.19,130a6.41,6.41,0,0,0-.51.83,5.77,5.77,0,0,1-.51.83,1.87,1.87,0,0,1,0-.52l.09-.54.09-.54a3,3,0,0,0,0-.56c0,.06-.46.85-1.26,2.38a1.29,1.29,0,0,1-.1-.57,3.47,3.47,0,0,0,0-.64q-.1.18-.3.57a2.6,2.6,0,0,1-.3.54,2.89,2.89,0,0,1,0-1.39c0-.15.06-.38.09-.68s.05-.53.07-.69c.08-.49.17-.93.26-1.33q.08-.34.36-1.35s.15-.5.4-1.37h-.39a3.16,3.16,0,0,1-.63,0c.5-.14.87-.24,1.1-.32l1.8-4.81-1.4-.12a3.34,3.34,0,0,1,.77-.12,2.51,2.51,0,0,0,.72-.12l-1.82-.09.36-.12.8-.08.55-.07a1.51,1.51,0,0,0-.45-.07l-1.2-.07c-.13,0-.18-.07-.16-.18l.78-.08q2.12-.12,4.14-.09c1.44,0,2.35,0,2.72.08a30.41,30.41,0,0,1,3.26.42,6.15,6.15,0,0,1,2.47,1c.81.65,1.06,1.34.74,2.06a1.87,1.87,0,0,1-.8.83,8.55,8.55,0,0,1-1.09.55c-.54.22-1.31.5-2.3.86l-.93.31-.93.31c-1.2.44-2.49.85-3.86,1.23a.7.7,0,0,0-.52.4,18.79,18.79,0,0,1-.8,1.79c-.11.22-.46.83-1,1.85a1.14,1.14,0,0,1-.36.41Zm.48-7.72,0,.13a3,3,0,0,0,.38-.7l.69-1.75,0-.08h-.43C150,121.06,149.79,121.87,149.67,122.31Zm2,3.61c-.15,0-.16.11,0,.21l.9-.34A2.53,2.53,0,0,0,151.64,125.92Zm2.21-2.79a.56.56,0,0,0,.19-.07l1.86-.81c.52-.24.56-.5.11-.78a6.37,6.37,0,0,0-3.17-.91c-.35,1.64-.55,2.61-.61,2.9Zm.67-2.61a6.57,6.57,0,0,1,.72.17,2.75,2.75,0,0,0,.74.14,11.88,11.88,0,0,0-3-.72s0,.1,0,.23Z"/><path class="cls-3" d="M165.47,130.7l-.27.35a.54.54,0,0,1-.08-.39c0-.12,0-.25,0-.41a2.37,2.37,0,0,0,0-.41,5,5,0,0,0-.39.75,8.39,8.39,0,0,1-.36.78.27.27,0,0,1-.15-.27c0-.12,0-.27,0-.46s0-.4,0-.46v-.77c-.11.18-.16.28-.16.28s-.14.37-.27.69-.2.52-.28.69a.45.45,0,0,1-.17.21c0-.66.13-1.49.27-2.48s.21-1.82.25-2.47l-1.17,3.44a3.42,3.42,0,0,1,0-.93c0,.06,0-.24.09-.89q0-.11,0-.45c0-.18,0-.33,0-.44s.08-.53.13-.89a8.4,8.4,0,0,1,.19-.9,3,3,0,0,1,.1-.43c.05-.19.08-.34.11-.48l-.59,0-.59,0a6.92,6.92,0,0,1,1-.3c.33-.08.45-.22.37-.4a1.79,1.79,0,0,0-.53,0,5.45,5.45,0,0,1-.55,0s.25-.09.63-.2l.3-.06a.43.43,0,0,0,.39-.27c.2-.57.39-1,.56-1.44s.32-.74.63-1.38a1,1,0,0,1,.21-.29.37.37,0,0,1,.25-.09.22.22,0,0,1,.24.15v.25a1.42,1.42,0,0,1,.41.16c.05,0,.07.13.06.28s0,.22,0,.38,0,.32,0,.38a.55.55,0,0,0,.07.34c.14-.46.23-.73.26-.81a2.55,2.55,0,0,1,.12-.31.62.62,0,0,1,.16-.2.49.49,0,0,1,.27-.05.27.27,0,0,1,.2.12s0,.12,0,.29a.22.22,0,0,0,.06.17l.15-.31c.13-.21.22-.34.26-.39a.37.37,0,0,1,.27-.09.28.28,0,0,1,.24.12,1.15,1.15,0,0,1,.21.52q0,.27-.12,1v.31c2-.37,3.46-.68,4.43-.93a1,1,0,0,0-.66-.5,9.24,9.24,0,0,0-1.11-.32q-2.3-.44-5.24-.83l-1.17-.16a6.68,6.68,0,0,1,1.26-.08l1.27,0a5.88,5.88,0,0,0-.67-.12,2,2,0,0,1-.65-.19,1.05,1.05,0,0,1,.54-.1,1.87,1.87,0,0,0,.57-.06l-1-.17-1.08-.18.32-.06h1.35q.16,0,3.24.24H170a5.72,5.72,0,0,0-.91-.26,6,6,0,0,1-.9-.29l.32,0a11.51,11.51,0,0,0,2,.22,8.71,8.71,0,0,1,1.32.14c.65.11,1.36.25,2.14.43a7.35,7.35,0,0,1,2.71,1.11l.27.16a.93.93,0,0,1,.52.65.78.78,0,0,1-.27.77,5.78,5.78,0,0,1-2,1.15,23.29,23.29,0,0,1-3.76,1.07l-.36.1.3.29,4,3.55c.37.34,1.14,1.07,2.31,2.2.14.13.64.62,1.5,1.48a3.75,3.75,0,0,1,.41.44,10.89,10.89,0,0,1-1.28-.77c-.74-.5-1.14-.76-1.21-.79.17.22.43.53.79.92s.65.72.8.91a4,4,0,0,1-.74-.38c-.38-.23-.63-.38-.76-.44q.06.09.75.84l.75.77a.3.3,0,0,1-.27-.07l-1.5-1.09a.84.84,0,0,0-.36-.17l.3.33.31.34a5.36,5.36,0,0,1-.87-.46c-.39-.25-.66-.41-.81-.49l1.05,1.08-.3-.09c-.49-.29-.79-.48-.89-.55-2-1.5-3.24-2.46-3.79-2.91a36.25,36.25,0,0,1-3.43-3.33l-.42-.43c-.07,0-.11,0-.13.12a19.34,19.34,0,0,1-.75,2.84q-.12.31-1.23,2.58l-.17.23h-.06A4,4,0,0,0,165.47,130.7Zm3-7.19a15.1,15.1,0,0,0-2.41.67,23.76,23.76,0,0,0,5-1.14A18.3,18.3,0,0,0,168.51,123.51Zm1.05-.47a11.36,11.36,0,0,0,1.48-.43,8.5,8.5,0,0,0-1.52.27,10,10,0,0,0-1.59.48A13,13,0,0,0,169.56,123Zm5,3.34c-.15-.14-.55-.54-1.2-1.21-.17-.17-.18-.27,0-.31a.5.5,0,0,1,.42.14,10.38,10.38,0,0,1,1.83,1.76l.67.89-.11,0Z"/><path class="cls-3" d="M189.47,118.91h.05l1-.26a.35.35,0,0,0-.09.16l-.08.14a3.81,3.81,0,0,1-.45.26h.32a5,5,0,0,1-.47.29,3.83,3.83,0,0,0-.5.34l1-.29c.56-.15.9-.24,1-.25l-.41.22-.34.19s0,0,0,0l0,0,.42-.13.45-.14s-.07.1-.18.16l-.9.5a1,1,0,0,0-.13.22l1-.3s0,0,0,0l-.36.21.86.77c.51.51.76.77.75.77s-.08-.26-.15-.46-.12-.39-.15-.47a.71.71,0,0,1,.39.22c.2.2.42.43.66.7.07.07.16.18.27.31l.25.32a1.76,1.76,0,0,1,.48,1.09,2.87,2.87,0,0,1-.1,1l-.47,1.34a9.16,9.16,0,0,1-2.5,3.16L190,130c-.48.33-.74.52-.79.56l-.46.34-.45.33a.55.55,0,0,1-.27.11l.26-.28.27-.29-.06,0-.45.15a11,11,0,0,1-3.44.57,7.52,7.52,0,0,1-2.58-.39,3.1,3.1,0,0,1-2-1.66,4.36,4.36,0,0,1-.25-1.9s0-.08,0-.35a.37.37,0,0,1,0-.22c.75-1.77,1.2-2.77,1.35-3a11.29,11.29,0,0,1,3.35-3.32,9.15,9.15,0,0,1,2-1l.21-.09a14,14,0,0,1,3-1l.69-.17.7-.16.24,0,0,0Zm-4.77,6.36q.26-.28.66-.69l.46-.39s0,0,.05,0l0,0a1.13,1.13,0,0,0-.19.22,3.4,3.4,0,0,0-.78,1.07,4,4,0,0,0-.06,3.07,2.11,2.11,0,0,0,.88,0,5.06,5.06,0,0,0,1.2-.35,5.84,5.84,0,0,0,1.56-1,5.18,5.18,0,0,0,1.39-2,6,6,0,0,0,.36-1.55,6.25,6.25,0,0,0-.06-1.82,4.82,4.82,0,0,1-.12-.82,1.94,1.94,0,0,0-.09-.23l-.44.24-1.74,1.08a11,11,0,0,0-3.27,2.86,1.65,1.65,0,0,0-.39.91C184.5,125.55,184.68,125.31,184.7,125.27Zm1.32-4.36a6.57,6.57,0,0,1,1.24-.66,3.14,3.14,0,0,0-1.24.45,4.2,4.2,0,0,0-1.11.9Zm4.46,8a1.44,1.44,0,0,0-.29.17,8.74,8.74,0,0,1-2.34,1.1l-1.67.57A6.44,6.44,0,0,0,190.48,128.91Zm.66-7.54h.06a1.6,1.6,0,0,0-.35-.91,1,1,0,0,0-.3.17s0,.1.08.21l.28.41.17.15Z"/></svg>