<?xml version="1.0"?>
<svg xmlns="http://www.w3.org/2000/svg" viewBox="0 0 512 512" width="512" height="512"><g id="outline"><path d="M453.054,464V296.792l3.293-16.466a655.8,655.8,0,0,0,12.7-126.762l24.808-62.018a30.136,30.136,0,0,0-11.213-36.1l-.569-.379a109.712,109.712,0,0,0-122.033,0l-.568.379a30.134,30.134,0,0,0-11.213,36.1l24.807,62.019a655.78,655.78,0,0,0,12.7,126.761l3.293,16.467V464a32,32,0,0,0,64,0ZM386.47,144,363.111,85.6a14.063,14.063,0,0,1,5.233-16.848l.568-.379a93.757,93.757,0,0,1,104.283,0l.569.379A14.065,14.065,0,0,1,479,85.6L455.638,144H438.812l6.086-30.431a8,8,0,1,0-15.689-3.138L422.5,144h-2.883L412.9,110.431a8,8,0,1,0-15.689,3.138L403.3,144Zm50.584,320a16,16,0,0,1-32,0V304h32ZM438.5,288H403.612l-2.162-10.812A639.914,639.914,0,0,1,389.1,160H453q-.3,24.012-2.428,48H429.054a8,8,0,0,0,0,16h19.91q-3.037,26.775-8.307,53.188Z"/><path d="M335.384,258.028,319.692,252.8A18,18,0,0,0,296,269.874V352a8,8,0,0,0-8,8V488a8,8,0,0,0,8,8h64a8,8,0,0,0,8-8V360a8,8,0,0,0-8-8V292.182A35.958,35.958,0,0,0,335.384,258.028ZM312,269.874a2,2,0,0,1,2.633-1.9l15.691,5.23A19.976,19.976,0,0,1,344,292.182V352H312ZM352,480H304V400h48Zm0-96H304V368h48Z"/><path d="M16,424v4a68.077,68.077,0,0,0,68,68H204a68.077,68.077,0,0,0,68-68v-4a8,8,0,0,0-8-8H245.2a112,112,0,1,0-202.4,0H24A8,8,0,0,0,16,424ZM144,272a96.009,96.009,0,0,1,83.145,144H208.027A80.013,80.013,0,1,0,80,416H60.855A96.009,96.009,0,0,1,144,272Zm11.243,33.009a63.512,63.512,0,0,1,18.919,6.563l-77.848,99.08a64.008,64.008,0,0,1-9.634-14.225Zm-74.495,72.66a63.892,63.892,0,0,1,54.822-73.1Zm106.474-56.821A64.281,64.281,0,0,1,202.593,342.3s-57.485,73.251-57.717,73.7H112.46ZM120,432h48a8,8,0,0,1,0,16H120a8,8,0,0,1,0-16Zm45.032-16,42.656-54.29c.2,2.071.312,4.167.312,6.29a63.7,63.7,0,0,1-21.688,48ZM97.376,432A23.992,23.992,0,0,0,120,464h48a23.991,23.991,0,0,0,22.626-31.993l.033-.007h65.189A52.069,52.069,0,0,1,204,480H84a52.069,52.069,0,0,1-51.848-48Z"/><path d="M243.562,134.656l12.821,8.547A42.668,42.668,0,0,1,270.854,159.6l1.991,3.982a8,8,0,0,0,14.31,0l1.991-3.982A42.668,42.668,0,0,1,303.617,143.2l12.821-8.547a8,8,0,0,0-1.908-14.246,42.8,42.8,0,0,1-26.94-26.94,8,8,0,0,0-15.18,0,42.8,42.8,0,0,1-26.94,26.94,8,8,0,0,0-1.908,14.246ZM280,113.567a59.174,59.174,0,0,0,15.991,15.491l-1.249.833A58.666,58.666,0,0,0,280,143.988a58.65,58.65,0,0,0-14.742-14.1l-1.249-.833A59.174,59.174,0,0,0,280,113.567Z"/><path d="M226.53,168.41a42.8,42.8,0,0,1-26.94-26.94,8,8,0,0,0-15.18,0,42.8,42.8,0,0,1-26.94,26.94,8,8,0,0,0-1.908,14.246l12.821,8.547A42.668,42.668,0,0,1,182.854,207.6l1.991,3.982a8,8,0,0,0,14.31,0l1.991-3.982A42.668,42.668,0,0,1,215.617,191.2l12.821-8.547a8,8,0,0,0-1.908-14.246Zm-19.788,9.481A58.666,58.666,0,0,0,192,191.988a58.65,58.65,0,0,0-14.742-14.1l-1.249-.833A59.174,59.174,0,0,0,192,161.567a59.174,59.174,0,0,0,15.991,15.491Z"/><path d="M247.617,71.2l12.821-8.547A8,8,0,0,0,258.53,48.41a42.8,42.8,0,0,1-26.94-26.94,8,8,0,0,0-15.18,0,42.8,42.8,0,0,1-26.94,26.94,8,8,0,0,0-1.908,14.246L200.383,71.2A42.668,42.668,0,0,1,214.854,87.6l1.991,3.982a8,8,0,0,0,14.31,0l1.991-3.982A42.668,42.668,0,0,1,247.617,71.2ZM224,71.988a58.65,58.65,0,0,0-14.742-14.1l-1.249-.833A59.174,59.174,0,0,0,224,41.567a59.174,59.174,0,0,0,15.991,15.491l-1.249.833A58.666,58.666,0,0,0,224,71.988Z"/></g></svg>
