<svg height="512" viewBox="0 0 60 44" width="512" xmlns="http://www.w3.org/2000/svg"><g id="Page-1" fill="none" fill-rule="evenodd"><g id="022---Surgical-Mask" fill="rgb(0,0,0)" fill-rule="nonzero"><path id="Shape" d="m16.7 24.955c4.3051096 1.3459402 8.789399 2.0313959 13.3 2.033 4.510601-.0016041 8.9948904-.6870598 13.3-2.033.3411886-.1061079.5998521-.3861776.6785543-.7347095.0787022-.348532-.0345136-.712576-.297-.955-.2624865-.2424241-.6343657-.3263984-.9755543-.2202905-8.2706401 2.589997-17.1353599 2.589997-25.406 0-.5274319-.1640286-1.0879714.1305681-1.252.658s.1305681 1.0879714.658 1.252z"/><path id="Shape" d="m16.846 18.988c4.3522763.6730667 8.7499886 1.0093977 13.154 1.006 4.4040114.0033977 8.8017237-.3329333 13.154-1.006.3564205-.0512434.6577686-.2901529.7889596-.6254891.1311911-.3353361.0719643-.7153107-.1550617-.9948114-.2270259-.2795007-.5867898-.4153624-.9418979-.3556995-8.513904 1.3099961-17.178096 1.3099961-25.692 0-.5420955-.0779383-1.0460312.2946761-1.1303782.8358115s.2822787 1.0494446.8223782 1.1401885z"/><path id="Shape" d="m42.569 30.1c-7.9313222 3.8750661-17.2066778 3.8750661-25.138 0-.3250623-.1825826-.7247039-.1691711-1.0367941.0347938-.3120901.2039649-.484799.56461-.4480604.9356251s.2768235.6907846.6228545.8295811c8.4754161 4.1401645 18.3865839 4.1401645 26.862 0 .346031-.1387965.5861159-.458566.6228545-.8295811s-.1359703-.7316602-.4480604-.9356251c-.3120902-.2039649-.7117318-.2173764-1.0367941-.0347938z"/><path id="Shape" d="m56 10h-5.184c-.4222546-1.19435087-1.5492146-1.99474861-2.816-2h-1.51c-3.7138066-.04849718-7.2081338-1.7675607-9.513-4.68-1.7075424-2.09945917-4.2698164-3.31824569-6.976-3.31824569s-5.2684576 1.21878652-6.976 3.31824569c-2.3053985 2.91286473-5.8005235 4.63195933-9.515 4.68h-1.51c-1.2667854.00525139-2.39374545.80564913-2.816 2h-5.184c-2.209139 0-4 1.790861-4 4v5c0 5.256 4.706 10.093 10.418 10.881 2.8200623 7.7080375 9.7726112 13.1458589 17.933 14.026 1.0965013.1240731 2.2034987.1240731 3.3 0 8.1596383-.8808621 15.111253-6.3185593 17.931-14.026 5.712-.788 10.418-5.625 10.418-10.881v-5c0-2.209139-1.790861-4-4-4zm-44 0h1.51c4.3169159-.04813187 8.3822784-2.03911993 11.067-5.42 1.3273382-1.63324052 3.3199095-2.58149688 5.4245-2.58149688s4.0971618.94825636 5.4245 2.58149688c2.6836928 3.38052747 6.7480036 5.37154019 11.064 5.42h1.51c.5522847 0 1 .4477153 1 1v1l-3-.005h-.02c-4.7564199-.1279174-9.2031664-2.3880103-12.11-6.155-.9486835-1.16595521-2.3724968-1.84202835-3.8756432-1.84028208-1.5031463.00174627-2.9253849.68112577-3.8713568 1.84928208-2.9056206 3.76164639-7.3485118 6.017607-12.1 6.144h-.023l-3 .007v-1c0-.5522847.4477153-1 1-1zm-10 9v-5c0-1.1045695.8954305-2 2-2h5v10c.003163 1.9316377.25353022 3.8549284.745 5.723-3.973-.957-7.745-4.351-7.745-8.723zm29.442 22.918c-.9583.1080007-1.9257.1080007-2.884 0-7.5982075-.8293808-14.0180296-6.0068708-16.438-13.257v-.01c-.7379784-2.1399589-1.1164327-4.3873694-1.12-6.651v-8l3-.005c5.3653521-.1045779 10.3941637-2.6353481 13.675-6.882.5665226-.70117915 1.4191517-1.1093426 2.3205936-1.11089513.901442-.00155254 1.7554719.40367156 2.3244064 1.10289513 3.2853404 4.2326296 8.3004685 6.7627777 13.657 6.89h.023l3 .005v8c-.0028228 2.2627913-.3802596 4.5095033-1.117 6.649v.01c-2.419781 7.2518198-8.8411547 12.4303974-16.441 13.259zm26.558-22.918c0 4.372-3.772 7.766-7.745 8.725.491639-1.8687191.7420076-3.7926928.745-5.725v-10h5c1.1045695 0 2 .8954305 2 2z"/></g></g></svg>