<svg id="Layer_1" height="512" viewBox="0 0 512 512" width="512" xmlns="http://www.w3.org/2000/svg" data-name="Layer 1"><path d="m31.176 343.069-2.107 17.389a26.3 26.3 0 0 0 22.952 29.273l394.479 47.756a26.284 26.284 0 0 0 29.275-22.95l26.035-215.03a26.3 26.3 0 0 0 -22.952-29.274l-18.891-2.287v-67.626a26.029 26.029 0 0 0 -26-26h-397.967a26.029 26.029 0 0 0 -26 26v217.205a26.038 26.038 0 0 0 21.176 25.544zm428.788-25.544v-137.491l17.449 2.112a14.3 14.3 0 0 1 12.481 15.919l-26.035 215.029a14.327 14.327 0 0 1 -15.92 12.48l-394.476-47.756a14.3 14.3 0 0 1 -12.481-15.918l2.226-18.375h92l287.382 33.1a6 6 0 1 0 1.37-11.925l-183.86-21.175h193.864a26.029 26.029 0 0 0 26-26zm-437.964-217.205a14.015 14.015 0 0 1 14-14h397.964a14.015 14.015 0 0 1 14 14v217.205a14.015 14.015 0 0 1 -14 14h-397.964a14.015 14.015 0 0 1 -14-14z"/><path d="m70.067 169.768h23.006v23a7.664 7.664 0 0 0 7.655 7.655h17.664a7.664 7.664 0 0 0 7.655-7.655v-23h23.007a7.664 7.664 0 0 0 7.655-7.655v-17.662a7.664 7.664 0 0 0 -7.655-7.656h-23.007v-23a7.664 7.664 0 0 0 -7.655-7.655h-17.664a7.664 7.664 0 0 0 -7.655 7.655v23h-23.006a7.664 7.664 0 0 0 -7.655 7.656v17.662a7.664 7.664 0 0 0 7.655 7.655zm4.345-20.973h23a7.664 7.664 0 0 0 7.656-7.655v-23h8.974v23a7.664 7.664 0 0 0 7.656 7.655h23.006v8.973h-23.004a7.664 7.664 0 0 0 -7.656 7.655v23h-8.974v-23a7.664 7.664 0 0 0 -7.656-7.655h-23z"/><path d="m60.263 237.6h352.084a6 6 0 0 0 0-12h-352.084a6 6 0 0 0 0 12z"/><path d="m60.263 282.266h352.084a6 6 0 0 0 0-12h-352.084a6 6 0 1 0 0 12z"/><path d="m387.515 182.173a28.891 28.891 0 1 0 -28.893-28.891 28.925 28.925 0 0 0 28.893 28.891zm0-45.782a16.891 16.891 0 1 1 -16.893 16.891 16.911 16.911 0 0 1 16.893-16.891z"/><path d="m180.2 144.936h73.782a6 6 0 1 0 0-12h-73.782a6 6 0 0 0 0 12z"/><path d="m180.2 175.39h73.782a6 6 0 1 0 0-12h-73.782a6 6 0 0 0 0 12z"/><path d="m39.512 115.011a6 6 0 0 0 6-6v-2.362a6 6 0 0 0 -12 0v2.362a6 6 0 0 0 6 6z"/><path d="m39.512 192.909a6 6 0 0 0 6-6v-60.7a6 6 0 0 0 -12 0v60.7a6 6 0 0 0 6 6z"/></svg>