<?xml version="1.0" encoding="utf-8"?>
<!-- Generator: Adobe Illustrator 23.1.0, SVG Export Plug-In . SVG Version: 6.00 Build 0)  -->
<svg version="1.1" id="Слой_1" xmlns="http://www.w3.org/2000/svg" xmlns:xlink="http://www.w3.org/1999/xlink" x="0px" y="0px"
	 viewBox="0 0 1280 640" style="enable-background:new 0 0 1280 640;" xml:space="preserve">
<g transform="translate(0.000000,640.000000) scale(0.100000,-0.100000)">
	<path d="M4459.4,4309c-34,1-113-26-155-53l-39-26v-185c0-180-1-185-21-185c-11,0-185,8-387,17c-465,21-2021,25-2497,5
		c-635-26-706-31-741-52c-39-25-50-25-81,0c-24,18-41,20-207,20c-99,0-186-4-193-8c-15-9-84-236-114-372c-30-139-33-372-5-500
		c27-129,94-327,112-334c9-3,97-6,197-6c144,1,186,4,201,15c26,20,75,19,98-1c20-19,78-25,448-49c810-51,1548-70,2151-55
		c389,10,869,32,986,46l53,6l2-213l3-214l55-30c47-26,66-30,130-30c63,0,84,5,135,30l60,30l3,192l2,191l118,8c64,5,189,9,277,9
		c137,0,170-3,230-22c74-23,129-68,156-128l14-30l1480,1c814,1,1770,6,2125,13c355,6,892,16,1195,21c589,11,775,20,1007,51
		c542,71,1012,241,1322,476c90,69,216,194,216,215c0,27-36,44-130,61c-47,9-204,39-350,67c-881,169-1754,304-3450,536l-265,36
		l-476,5c-262,3-489,3-504-1c-27-7-27-8-21-59c4-29,10-63,13-77c6-22,5-24-10-11c-9,7-40,44-68,82l-51,70l-127-3l-126-3l1-35
		c0-19,4-55,8-80l8-45l-39,40c-21,23-57,62-80,88l-42,47h-103c-57,0-109-4-116-9c-16-10-18-35-8-106l7-50l-78,83l-78,82h-100
		c-55,0-105-4-112-8c-7-5-13-39-15-87l-3-80l-74,88l-75,87h-118c-135,0-144-5-128-76c5-21,10-50,10-63c0-21-2-22-17-10
		c-9,8-36,44-59,80c-24,37-51,69-60,73c-32,12-200,6-219-8c-17-12-17-18-5-90c7-42,10-80,6-83c-4-4-48,37-99,90l-92,98l-420-20
		c-231-12-432-21-448-21h-27v185v184l-46,32c-26,18-65,38-88,45S4471.4,4309,4459.4,4309z"/>
</g>
</svg>
