<?xml version="1.0" encoding="utf-8"?>
<!-- Generator: Adobe Illustrator 23.1.0, SVG Export Plug-In . SVG Version: 6.00 Build 0)  -->
<svg version="1.1" id="Capa_1" xmlns="http://www.w3.org/2000/svg" xmlns:xlink="http://www.w3.org/1999/xlink" x="0px" y="0px"
	 viewBox="0 0 480 480" style="enable-background:new 0 0 480 480;" xml:space="preserve">
<style type="text/css">
	.st0{fill:#FFFFFF;}
	.st1{fill:#FF0082;}
</style>
<g>
	<g>
		<path class="st0" d="M240,0C156.1,0.1,88.1,68.1,88,152v176c0,84,68,152,152,152s152-68,152-152V152C391.9,68.1,323.9,0.1,240,0z
			 M256,80v48c0,8.8-7.2,16-16,16s-16-7.2-16-16V80c0-8.8,7.2-16,16-16S256,71.2,256,80z M104,152c0.1-71.9,56.2-131.3,128-135.6
			v32.7c-14.1,3.6-24,16.3-24,30.9v48c0,14.5,9.9,27.2,24,30.9V192H104V152z M376,328c-0.1,75.1-60.9,135.9-136,136
			c-75.1-0.1-135.9-60.9-136-136V208h272V328z M376,192H248v-33.1c14.1-3.6,24-16.3,24-30.9V80c0-14.5-9.9-27.2-24-30.9V16.4
			c71.8,4.3,127.9,63.7,128,135.6V192z"/>
		<path class="st1" d="M208,80v48c0,14.5,9.9,27.2,24,30.9V192H104v-40c0.1-71.9,56.2-131.3,128-135.6v32.7
			C217.9,52.8,208,65.5,208,80z"/>
	</g>
</g>
</svg>
