<?xml version="1.0" encoding="utf-8"?>
<!-- Generator: Adobe Illustrator 23.1.0, SVG Export Plug-In . SVG Version: 6.00 Build 0)  -->
<svg version="1.1" id="Capa_1" xmlns="http://www.w3.org/2000/svg" xmlns:xlink="http://www.w3.org/1999/xlink" x="0px" y="0px"
	 viewBox="0 0 480 480" style="enable-background:new 0 0 480 480;" xml:space="preserve">
<style type="text/css">
	.st0{fill:#FFFFFF;}
	.st1{fill:#FF0082;}
</style>
<g>
	<g>
		<path class="st0" d="M272.8,73.2c-56.9-6.9-108.6,33.6-115.6,90.5L142.7,283c-6.9,57,33.6,108.7,90.5,115.6
			c57,6.9,108.7-33.6,115.6-90.5l14.5-119.3C370.1,131.9,329.6,80.2,272.8,73.2z M277,128.7l-4,32.5c-0.8,5.9-6.2,10.2-12.2,9.5
			c-5.9-0.8-10.2-6.2-9.5-12.2l4-32.5c0.8-5.9,6.2-10.2,12.2-9.5C273.4,117.3,277.7,122.8,277,128.7z M168.1,165
			c6-48.7,48.9-84.3,97.9-81.3l-2.7,22.2c-9.8,1.3-17.7,9-18.8,19l-4,32.5c-1.2,9.8,4.4,19.3,13.7,22.9l-2.7,22.4l-86.8-10.6
			L168.1,165z M337.9,306.7c-6.2,50.9-52.5,87.1-103.4,81c-50.9-6.2-87.1-52.5-81-103.4l9.9-81.3l184.4,22.4L337.9,306.7z
			 M349.1,214.5L262.3,204l2.7-22.4c9.8-1.3,17.7-9,18.8-19l4-32.5c1.2-9.8-4.4-19.3-13.7-22.9l2.7-22.2
			c48.4,8.8,81.4,53.7,75.6,102.4L349.1,214.5z"/>
		<path class="st1" d="M244.4,124.8l-4,32.5c-1.2,9.8,4.4,19.3,13.7,22.9l-2.7,22.4L164.6,192l3.4-27c6-48.7,48.9-84.3,97.9-81.3
			l-2.7,22.2C253.4,107.1,245.6,114.9,244.4,124.8z"/>
	</g>
</g>
<g>
	<g>
		<path class="st0" d="M250.6,1.9l-52.4,52.4c-1.2,1.2-1.9,2.8-1.9,4.6s0.7,3.3,1.9,4.6l3.9,3.9c2.5,2.5,6.6,2.5,9.1,0l44-44l44,44
			c1.2,1.2,2.8,1.9,4.6,1.9c1.7,0,3.3-0.7,4.6-1.9l3.9-3.9c1.2-1.2,1.9-2.8,1.9-4.6c0-1.7-0.7-3.3-1.9-4.6L260,1.9
			c-1.2-1.2-2.8-1.9-4.6-1.9C253.4,0,251.8,0.7,250.6,1.9z"/>
	</g>
</g>
<g>
	<g>
		<path class="st0" d="M458.9,223.2l-52.4-52.4c-1.2-1.2-2.8-1.9-4.6-1.9s-3.3,0.7-4.6,1.9l-3.9,3.9c-2.5,2.5-2.5,6.6,0,9.1l44,44
			l-44,44c-1.2,1.2-1.9,2.8-1.9,4.6c0,1.7,0.7,3.3,1.9,4.6l3.9,3.9c1.2,1.2,2.8,1.9,4.6,1.9c1.7,0,3.3-0.7,4.6-1.9l52.4-52.4
			c1.2-1.2,1.9-2.8,1.9-4.6C460.7,226,460.1,224.4,458.9,223.2z"/>
	</g>
</g>
<g>
	<g>
		<path class="st0" d="M36.6,229.6l52.7,52.1c1.2,1.2,2.8,1.9,4.6,1.9c1.7,0,3.3-0.7,4.5-1.9l3.8-3.9c2.5-2.5,2.5-6.6-0.1-9.1
			L57.9,225l43.8-44.3c1.2-1.2,1.9-2.8,1.9-4.6c0-1.7-0.7-3.3-1.9-4.5l-3.9-3.8c-1.2-1.2-2.8-1.9-4.6-1.9s-3.3,0.7-4.5,1.9
			l-52.1,52.7c-1.2,1.2-1.9,2.9-1.9,4.6S35.3,228.4,36.6,229.6z"/>
	</g>
</g>
<g>
	<g>
		<path class="st0" d="M248.8,478.1l52.4-52.4c1.2-1.2,1.9-2.8,1.9-4.6c0-1.7-0.7-3.3-1.9-4.6l-3.9-3.9c-2.5-2.5-6.6-2.5-9.1,0
			l-44,44l-44-44c-1.2-1.2-2.8-1.9-4.6-1.9c-1.7,0-3.3,0.7-4.6,1.9l-3.9,3.9c-1.2,1.2-1.9,2.8-1.9,4.6c0,1.7,0.7,3.3,1.9,4.6
			l52.4,52.4c1.2,1.2,2.8,1.9,4.6,1.9C246,480,247.6,479.3,248.8,478.1z"/>
	</g>
</g>
</svg>
