<?xml version="1.0" encoding="utf-8"?>
<!-- Generator: Adobe Illustrator 21.1.0, SVG Export Plug-In . SVG Version: 6.00 Build 0)  -->
<svg version="1.1" xmlns="http://www.w3.org/2000/svg" xmlns:xlink="http://www.w3.org/1999/xlink" x="0px" y="0px"
	 viewBox="0 0 512 512" style="enable-background:new 0 0 512 512;" xml:space="preserve">
<style type="text/css">
	.st0{display:none;}
	.st1{display:inline;}
	.st2{fill:none;}
</style>
<g id="Capa_1" class="st0">
	<g class="st1">
		<g>
			<path d="M502,225.1c-5.5,0-10,4.5-10,10V295h-34v-85c0-2.6-1-5.2-2.9-7.1l-31-31c-1.9-1.9-4.4-2.9-7.1-2.9h-91v-30h55
				c18.8,0,34-15.3,34-34s-15.3-34-34-34H171c-18.8,0-34,15.3-34,34s15.3,34,34,34h55v30h-45.3c-2.7,0-5.2,1-7.1,2.9l-29.4,29.4H104
				c-5.5,0-10,4.5-10,10V255H74c-5.5,0-10,4.5-10,10v30H52v-71.5c0-14.3-11.7-26-26-26s-26,11.7-26,26v164.1c0,14.3,11.7,26,26,26
				s26-11.7,26-26V315h12v30c0,5.5,4.5,10,10,10h20v21.8c0,2.7,1,5.2,2.9,7.1l54.2,54.2c1.9,1.9,4.4,2.9,7.1,2.9h196.3
				c2.7,0,5.2-1,7.1-2.9l18.6-18.6H448c5.5,0,10-4.5,10-10V315h34v60.1c0,5.5,4.5,10,10,10s10-4.5,10-10v-140
				C512,229.6,507.5,225.1,502,225.1z M246,139h60v30h-60V139z M325.5,271.5l35.8,35.8L197.7,379l86.3-71.7l-52.7-35.8l38.3-39.5
				H365L325.5,271.5z"/>
		</g>
	</g>
</g>
<g id="Слой_2">
	<path d="M424.3,124.3h-28.1c-0.7,1.4-1.5,2.7-2.7,3.9l-12.1,12.1h42.9c2.2,0,4,1.8,4,4v24.1c-2.3,1-4.8,1.6-7.5,1.6h-62.3
		c-2,0-4-0.3-5.8-0.9l-72.3,72.3l113.1,113.1c1.2,1.2,2.1,2.5,2.7,3.9h28.1c11,0,20-9,20-20v-194
		C444.3,133.3,435.4,124.3,424.3,124.3z M428.3,338.3c0,2.2-1.8,4-4,4h-36.7c-5.8-5.8-9.3-13.8-9.3-22.6c0-17.6,14.4-32,32-32
		c6.7,0,12.9,2,18,5.6V338.3z M342.8,140.7c0.1-0.1,0.2-0.3,0.3-0.4h0.1l16-16H163.4l97.9,97.9L342.8,140.7z M163.4,358.3h195.8
		l-97.9-97.9L163.4,358.3z M242.2,241.3L129.1,128.2c-1.2-1.2-2.1-2.5-2.7-3.9H98.3c-11,0-20,9-20,20v194c0,11,9,20,20,20h28.1
		c0.6-1.4,1.5-2.7,2.7-3.9l12.1-12.1H98.3c-2.2,0-4-1.8-4-4v-45.6c2.5-1.1,5.4-1.7,8.3-1.7H142c11.6,0,21,9.4,21,21v8.6L242.2,241.3
		z M122.3,263.3c0,5.9-4.8,10.7-10.7,10.7c-5.9,0-10.7-4.8-10.7-10.7v-95.7c0-5.9,4.8-10.7,10.7-10.7c3,0,5.6,1.2,7.5,3.1
		c1.9,1.9,3.1,4.6,3.1,7.5V263.3z"/>
	<path class="st2" d="M426.3,319.8c0,8.8-7.2,16-16,16c-8.8,0-16-7.2-16-16c0-8.8,7.2-16,16-16C419.2,303.8,426.3,310.9,426.3,319.8
		z"/>
</g>
</svg>
