<svg height="512pt" viewBox="-101 0 512 512.00231" width="512pt" xmlns="http://www.w3.org/2000/svg"><path d="m55.59375 355.011719c-15.105469 0-36.027344-28.4375-36.027344-81.832031 0-38.535157 138.5-177.550782 225.800782-256.125 4.015624-3.613282 4.335937-9.800782.726562-13.816407-3.617188-4.015625-9.792969-4.339843-13.8125-.726562-23.78125 21.394531-232.28125 210.78125-232.28125 270.667969 0 65.859374 28.644531 101.398437 55.59375 101.398437 28.488281 0 93.28125 13.605469 93.28125 36.023437 0 13.582032-9.464844 28.429688-18.625 42.789063-11.378906 17.839844-23.148438 36.292969-14.695312 53.203125 1.71875 3.429688 5.167968 5.410156 8.761718 5.410156 1.46875 0 2.960938-.332031 4.363282-1.035156 4.835937-2.414062 6.792968-8.292969 4.375-13.125-3.496094-6.988281 5.246093-20.691406 13.691406-33.933594 10.164062-15.949218 21.695312-34.015625 21.695312-53.308594 0-45.925781-94.285156-55.589843-112.847656-55.589843zm0 0"/><path d="m230.597656 357.296875c1.558594-3.542969.886719-7.675781-1.71875-10.542969-39.152344-43.023437-62.808594-57.757812-79.046875-49.296875-17.394531 9.050781-12.207031 38.867188-10.203125 47.789063 1.183594 5.261718 6.429688 8.601562 11.671875 7.390625 5.273438-1.171875 8.589844-6.40625 7.414063-11.671875-2.589844-11.667969-2.035156-24.167969.074218-26.121094.144532-.023438 9.039063-2.207031 40.039063 28.714844h-18.597656c-5.410157 0-9.785157 4.378906-9.785157 9.78125s4.375 9.785156 9.785157 9.785156h41.414062c3.871094 0 7.386719-2.285156 8.953125-5.828125zm0 0"/><path d="m299.707031 298.9375c-1.59375-5.160156-7.050781-8.09375-12.226562-6.472656-5.167969 1.585937-8.066407 7.0625-6.476563 12.222656 14.28125 46.40625 13.628906 79.570312-1.886718 95.917969-18.972657 19.972656-55.785157 11.082031-56.382813 10.921875-5.207031-1.332032-10.546875 1.824218-11.894531 7.058594-1.339844 5.230468 1.8125 10.558593 7.050781 11.902343.886719.230469 10.949219 2.722657 24.191406 2.722657 15.917969 0 36.417969-3.601563 51.140625-19.046876 21.039063-22.066406 23.222656-60.835937 6.484375-115.226562zm0 0"/></svg>