<svg id="_x33_0" enable-background="new 0 0 64 64" height="512" viewBox="0 0 64 64" width="512" xmlns="http://www.w3.org/2000/svg"><g><path d="m34 17.764c-.381.762-1.147 1.236-2 1.236s-1.619-.474-2-1.236l-.105-.211-1.789.895.105.211c.722 1.444 2.174 2.341 3.789 2.341s3.067-.897 3.789-2.342l.105-.211-1.789-.895z"/><path d="m55 27c-.129 0-.255.013-.382.019-.749-2.125-1.791-4.123-3.108-5.963.484-.674.754-1.474.754-2.32 0-1.068-.416-2.072-1.172-2.828-1.354-1.354-3.601-1.485-5.14-.416-.659-.472-1.338-.912-2.038-1.314-.241-1.149-.984-2.102-1.98-2.658 1.263-1.101 2.066-2.717 2.066-4.52 0-3.309-2.691-6-6-6h-8.292c-2.668 0-5.066 1.482-6.261 3.869l-.091.183c-1.901.308-3.356 1.962-3.356 3.948 0 1.244.331 2.681.657 3.814-.269.409-.467.869-.571 1.364-.7.402-1.379.842-2.038 1.314-1.54-1.068-3.786-.937-5.14.416-.756.756-1.172 1.76-1.172 2.828 0 .847.27 1.647.754 2.32-1.317 1.839-2.359 3.837-3.108 5.963-.127-.006-.253-.019-.382-.019-4.411 0-8 3.589-8 8s3.589 8 8 8c.129 0 .255-.013.382-.019.75 2.125 1.791 4.124 3.108 5.963-.484.674-.754 1.474-.754 2.32 0 1.068.416 2.072 1.172 2.828s1.76 1.172 2.828 1.172c.847 0 1.647-.27 2.321-.755 1.982 1.419 4.145 2.523 6.455 3.282 1.136 3.037 4.059 5.209 7.488 5.209s6.352-2.172 7.488-5.209c2.311-.759 4.474-1.862 6.455-3.281.674.484 1.474.755 2.321.755 1.068 0 2.072-.416 2.828-1.172s1.172-1.76 1.172-2.828c0-.847-.27-1.647-.754-2.32 1.317-1.84 2.359-3.837 3.108-5.963.127.005.253.018.382.018 4.411 0 8-3.589 8-8s-3.589-8-8-8zm-6.736-10.264c.534 0 1.036.208 1.414.586s.586.88.586 1.414-.208 1.036-.586 1.414c-.756.756-2.072.756-2.828 0-.378-.378-.586-.88-.586-1.414s.208-1.036.586-1.414.879-.586 1.414-.586zm-9.264 18.264v8h-6v-5.745l5.268-9.657.834.208c.364.092.719.224 1.055.391 1.753.876 2.843 2.64 2.843 4.601v10.202h-2v-8zm-16 0v8h-2v-10.202c0-1.961 1.09-3.725 2.843-4.602.337-.167.691-.299 1.054-.391l.836-.208 5.267 9.658v5.745h-6v-8zm12.848-7.142-2.848 5.221v-3.513zm-4.848 5.221-2.848-5.222 2.848 1.709zm3.701-7.784c.087.254.209.489.355.705l-3.056 1.834-3.056-1.834c.146-.217.268-.451.355-.706l.235-.687c.777.253 1.605.393 2.466.393s1.688-.14 2.466-.393zm-2.701-2.295c-3.309 0-6-2.691-6-6v-3.877c0-1.358.909-2.536 2.214-2.891.523 1.601 2.013 2.768 3.786 2.768h6v4c0 3.309-2.691 6-6 6zm8-10c1.103 0 2 .897 2 2s-.897 2-2 2zm-16-6h.618l.618-1.236c.853-1.705 2.567-2.764 4.472-2.764h8.292c2.206 0 4 1.794 4 4s-1.794 4-4 4h-6c-1.103 0-2-.897-2-2s.897-2 2-2 2 .897 2 2h2c0-2.206-1.794-4-4-4-1.932 0-3.547 1.376-3.919 3.199l-.293.073c-1.496.374-2.676 1.402-3.3 2.728h-.488c-.594 0-1.152.138-1.659.371-.183-.766-.341-1.635-.341-2.371 0-1.103.897-2 2-2zm0 6.123v3.877c-1.103 0-2-.897-2-2s.897-2 2-2h.01c-.001.042-.01.081-.01.123zm-9.678 4.199c.378-.378.88-.586 1.414-.586s1.036.208 1.414.586.586.88.586 1.414-.208 1.036-.586 1.414c-.756.756-2.072.756-2.828 0-.378-.378-.586-.88-.586-1.414s.208-1.036.586-1.414zm-11.322 17.678c0-3.309 2.691-6 6-6s6 2.691 6 6c0 1.472-.535 2.82-1.418 3.865-.49-.472-1.042-.869-1.646-1.17.655-.712 1.064-1.653 1.064-2.695 0-2.206-1.794-4-4-4s-4 1.794-4 4c0 1.042.409 1.983 1.064 2.695-.604.3-1.157.697-1.646 1.17-.883-1.045-1.418-2.393-1.418-3.865zm4 0c0-1.103.897-2 2-2s2 .897 2 2-.897 2-2 2-2-.897-2-2zm-1.048 5.159c.833-.736 1.916-1.159 3.048-1.159s2.215.423 3.048 1.159c-.894.531-1.934.841-3.048.841s-2.154-.31-3.048-.841zm8.37 12.519c-.378-.378-.586-.88-.586-1.414s.208-1.036.586-1.414.88-.586 1.414-.586 1.036.208 1.414.586.586.88.586 1.414-.208 1.036-.586 1.414c-.755.756-2.072.756-2.828 0zm14.63 7.481c.833-.736 1.916-1.159 3.048-1.159 1.131 0 2.214.423 3.048 1.159-.895.531-1.935.841-3.048.841-1.114 0-2.154-.31-3.048-.841zm1.048-5.159c0-1.103.897-2 2-2s2 .897 2 2-.897 2-2 2-2-.897-2-2zm6.583 3.865c-.49-.472-1.042-.869-1.646-1.17.654-.712 1.063-1.653 1.063-2.695 0-2.206-1.794-4-4-4s-4 1.794-4 4c0 1.042.409 1.983 1.064 2.695-.604.3-1.157.697-1.646 1.17-.883-1.045-1.418-2.393-1.418-3.865 0-3.309 2.691-6 6-6s6 2.691 6 6c0 1.472-.535 2.82-1.417 3.865zm13.095-6.187c-.756.756-2.072.756-2.828 0-.378-.378-.586-.88-.586-1.414s.208-1.036.586-1.414.88-.586 1.414-.586 1.036.208 1.414.586.586.88.586 1.414-.208 1.036-.586 1.414zm.291-5.018c-.528-.251-1.104-.396-1.706-.396-1.068 0-2.073.416-2.828 1.172-.756.755-1.172 1.76-1.172 2.828 0 .602.145 1.177.395 1.705-1.462 1.032-3.026 1.884-4.684 2.529.011-.166.026-.33.026-.498 0-4.411-3.589-8-8-8s-8 3.589-8 8c0 .168.015.332.025.498-1.658-.645-3.222-1.497-4.684-2.529.25-.528.395-1.103.395-1.705 0-1.068-.416-2.073-1.172-2.828-.755-.756-1.76-1.172-2.828-1.172-.602 0-1.177.145-1.706.396-1.101-1.559-1.987-3.241-2.647-5.023 3.251-1.017 5.617-4.056 5.617-7.637s-2.366-6.62-5.616-7.637c.66-1.782 1.546-3.463 2.647-5.023.528.251 1.104.396 1.706.396 1.068 0 2.073-.416 2.828-1.172.756-.755 1.172-1.76 1.172-2.828 0-.603-.146-1.18-.398-1.709.306-.216.612-.429.927-.628.57 1.515 2.022 2.601 3.734 2.601h.263c.514 1.984 1.766 3.67 3.452 4.744l-.309.902c-.11.323-.373.564-.703.647l-2.293.572c-.504.127-.995.309-1.461.541-2.435 1.22-3.949 3.668-3.949 6.392v12.202h26v-12.202c0-2.724-1.514-5.172-3.95-6.391-.465-.232-.956-.414-1.462-.541l-2.291-.573c-.33-.082-.593-.323-.703-.646l-.309-.903c1.685-1.075 2.938-2.76 3.452-4.744h.263c1.712 0 3.164-1.086 3.734-2.601.316.2.622.413.927.629-.252.529-.398 1.106-.398 1.709 0 1.068.416 2.073 1.172 2.828.755.756 1.76 1.172 2.828 1.172.602 0 1.178-.145 1.706-.396 1.101 1.559 1.987 3.24 2.647 5.023-3.25 1.016-5.616 4.055-5.616 7.636s2.366 6.62 5.616 7.637c-.659 1.782-1.545 3.464-2.647 5.023zm1.983-7.501c.834-.736 1.917-1.159 3.048-1.159s2.214.423 3.048 1.159c-.895.531-1.935.841-3.048.841s-2.153-.31-3.048-.841zm1.048-5.159c0-1.103.897-2 2-2s2 .897 2 2-.897 2-2 2-2-.897-2-2zm6.583 3.865c-.49-.472-1.042-.869-1.646-1.17.654-.712 1.063-1.653 1.063-2.695 0-2.206-1.794-4-4-4s-4 1.794-4 4c0 1.042.409 1.983 1.064 2.695-.604.3-1.157.697-1.646 1.17-.883-1.045-1.418-2.393-1.418-3.865 0-3.309 2.691-6 6-6s6 2.691 6 6c0 1.472-.535 2.82-1.417 3.865z"/><path d="m35 39h2v2h-2z"/></g></svg>