<svg id="Capa_1" enable-background="new 0 0 512 512" height="512" viewBox="0 0 512 512" width="512" xmlns="http://www.w3.org/2000/svg"><g><path d="m392 72h-88v-56c0-4.418-3.582-8-8-8-.931 0-1.855.162-2.73.48l-176 64v.01c-3.16 1.147-5.266 4.148-5.27 7.51v416c0 4.418 3.582 8 8 8h272c4.418 0 8-3.582 8-8v-416c0-4.418-3.582-8-8-8zm-104-44.58v44.58h-122.59zm96 460.58h-256v-400h256z"/><path d="m332.47 153.6c-.334-.444-.752-.812-1.13-1.22-39.465-41.609-105.189-43.347-146.798-3.882-1.328 1.26-4.68 4.656-5.012 5.102-38.584 41.8-36.341 106.867 5.03 145.91.428.408.793.761 1.25 1.17 39.723 36.446 100.733 36.424 140.43-.05.431-.371.819-.736 1.19-1.12 41.379-39.038 43.627-104.11 5.04-145.91zm-96.85-15.21c-7.491 8.844-14.117 18.384-19.79 28.49-5.983-2.739-11.758-5.911-17.28-9.49 10.655-9.213 23.369-15.729 37.07-19zm-48.35 30.72c6.857 4.631 14.077 8.701 21.59 12.17-4.666 11.049-7.548 22.768-8.54 34.72h-31.95c1.551-17.149 8.125-33.459 18.9-46.89zm-18.9 62.89h31.95c1.243 14.399 5.153 28.441 11.53 41.41-6.978 3.01-13.711 6.558-20.14 10.61-13.36-14.254-21.575-32.564-23.34-52.02zm35.89 63.13c4.926-2.879 10.041-5.421 15.31-7.61 4.814 7.738 10.178 15.121 16.05 22.09-11.312-2.693-21.974-7.616-31.36-14.48zm43.74 4.37c-4.588-5.429-8.846-11.13-12.75-17.07 4.195-1.001 8.456-1.703 12.75-2.1zm0-35.21c-7.111.56-14.148 1.823-21.01 3.77-5.727-11.261-9.308-23.489-10.56-36.06h31.57zm0-48.29h-31.57c.954-9.978 3.429-19.751 7.34-28.98 7.873 2.478 16.002 4.055 24.23 4.7zm0-40.33c-5.754-.534-11.446-1.605-17-3.2 4.958-8.469 10.647-16.49 17-23.97zm95.63 40.33h-31.95c-.992-11.952-3.874-23.671-8.54-34.72 7.513-3.469 14.733-7.539 21.59-12.17 10.775 13.431 17.349 29.741 18.9 46.89zm-30.18-58.61c-5.522 3.579-11.297 6.751-17.28 9.49-5.673-10.106-12.299-19.646-19.79-28.49 13.701 3.271 26.415 9.787 37.07 19zm-49.45-8.89c6.353 7.48 12.042 15.501 17 23.97-5.554 1.595-11.246 2.666-17 3.2zm0 43.22c8.228-.645 16.357-2.222 24.23-4.7 3.911 9.229 6.386 19.002 7.34 28.98h-31.57zm0 40.28h31.57c-1.252 12.571-4.833 24.799-10.56 36.06-6.862-1.947-13.899-3.21-21.01-3.77zm0 48.33c4.294.397 8.555 1.099 12.75 2.1-3.904 5.94-8.162 11.641-12.75 17.07zm12.38 29.28c5.872-6.969 11.236-14.352 16.05-22.09 5.269 2.189 10.384 4.731 15.31 7.61-9.386 6.864-20.048 11.787-31.36 14.48zm43.91-25.59c-6.429-4.052-13.162-7.6-20.14-10.61 6.377-12.969 10.287-27.011 11.53-41.41h31.95c-1.765 19.456-9.98 37.766-23.34 52.02z"/><path d="m160 392h192c4.418 0 8-3.582 8-8v-32c0-4.418-3.582-8-8-8h-192c-4.418 0-8 3.582-8 8v32c0 4.418 3.582 8 8 8zm8-32h176v16h-176z"/><path d="m160 424h192c4.418 0 8-3.582 8-8s-3.582-8-8-8h-192c-4.418 0-8 3.582-8 8s3.582 8 8 8z"/><path d="m328 432h-144c-4.418 0-8 3.582-8 8s3.582 8 8 8h144c4.418 0 8-3.582 8-8s-3.582-8-8-8z"/><path d="m272 456h-64c-4.418 0-8 3.582-8 8s3.582 8 8 8h64c4.418 0 8-3.582 8-8s-3.582-8-8-8z"/><path d="m304 456h-8c-4.418 0-8 3.582-8 8s3.582 8 8 8h8c4.418 0 8-3.582 8-8s-3.582-8-8-8z"/></g></svg>