<?xml version="1.0" encoding="utf-8"?>
<!-- Generator: Adobe Illustrator 23.1.0, SVG Export Plug-In . SVG Version: 6.00 Build 0)  -->
<svg version="1.1" id="Слой_1" xmlns="http://www.w3.org/2000/svg" xmlns:xlink="http://www.w3.org/1999/xlink" x="0px" y="0px"
	 viewBox="0 0 512 512" style="enable-background:new 0 0 512 512;" xml:space="preserve">
<style type="text/css">
	.st0{fill:#27D158;}
</style>
<g id="Smartphone">
	<path class="st0" d="M352,8H160c-22.1,0-40,17.9-40,40v416c0,22.1,17.9,40,40,40h192c22.1,0,40-17.9,40-40V48
		C392,25.9,374.1,8,352,8z M376,464c0,13.2-10.8,24-24,24H160c-13.2,0-24-10.8-24-24V48c0-13.2,10.8-24,24-24h25.4l6.7,33.6
		c0.7,3.7,4,6.4,7.8,6.4h112c3.8,0,7.1-2.7,7.8-6.4l6.7-33.6H352c13.2,0,24,10.8,24,24V464z"/>
	<path class="st0" d="M295,457h-78c-7.2,0-13,4.5-13,10s5.8,10,13,10h78c7.2,0,13-4.5,13-10S302.2,457,295,457z"/>
</g>
<g>
	<g>
		<path class="st0" d="M315.7,266.3c-7.9,0-15.6-1.2-23-3.7c-3.6-1.2-8-0.1-10.2,2.2L268,275.7c-16.8-9-27.1-19.3-36-36l10.6-14.1
			c2.8-2.8,3.7-6.8,2.6-10.5c-2.4-7.4-3.7-15.1-3.7-23c0-5.7-4.6-10.3-10.3-10.3h-23.6c-5.7,0-10.3,4.6-10.3,10.3
			c0,65.3,53.1,118.4,118.4,118.4c5.7,0,10.3-4.6,10.3-10.3v-23.6C326,270.9,321.4,266.3,315.7,266.3z"/>
	</g>
</g>
</svg>
