<?xml version="1.0" encoding="utf-8"?>
<!-- Generator: Adobe Illustrator 23.1.0, SVG Export Plug-In . SVG Version: 6.00 Build 0)  -->
<svg version="1.1" id="Capa_1" xmlns="http://www.w3.org/2000/svg" xmlns:xlink="http://www.w3.org/1999/xlink" x="0px" y="0px"
	 viewBox="0 0 295.6 295.6" style="enable-background:new 0 0 295.6 295.6;" xml:space="preserve">
<g>
	<g>
		<path d="M273,22.8C258.6,8.4,239,0,218.2,0s-40,8-54.8,22.8L22.6,163.6c-30,30-30,79.2,0,109.2c14.4,14.4,34,22.8,54.8,22.8
			s40-8,54.8-22.8l70.4-70.4L273,132C303,102,303,53.2,273,22.8z M122.6,263.6c-12,12-28.4,18.8-45.2,18.8s-33.2-6.8-45.2-18.8
			C7,238.4,7,198,32.2,172.8l66-66c0.4,0.4,0.4,0.8,0.8,1.2l89.6,89.6L122.6,263.6z M263.4,123.2l-65.6,65.6l-89.6-89.6
			c-0.4-0.4-0.8-0.4-1.2-0.8l66-66c12-12,28.4-18.8,45.2-18.8c17.2,0,33.2,6.8,45.2,18.8C288.6,57.6,288.6,98,263.4,123.2z"/>
	</g>
</g>
<g>
	<g>
		<path d="M257.4,50.4c-11.2-11.2-25.6-16.8-40.8-16.8s-29.6,6-40.4,16.8c-2.4,2.4-2.4,6.8,0,9.2s6.8,2.4,9.2,0
			c8.4-8.4,19.2-12.8,31.2-12.8c11.6,0,22.8,4.4,31.2,12.8c1.2,1.2,2.8,2,4.8,2c1.6,0,3.2-0.8,4.8-2
			C259.8,57.2,259.8,52.8,257.4,50.4z"/>
	</g>
</g>
</svg>
