<?xml version="1.0" encoding="utf-8"?>
<!-- Generator: Adobe Illustrator 23.1.0, SVG Export Plug-In . SVG Version: 6.00 Build 0)  -->
<svg version="1.1" id="icon" xmlns="http://www.w3.org/2000/svg" xmlns:xlink="http://www.w3.org/1999/xlink" x="0px" y="0px"
	 viewBox="0 0 200 200" style="enable-background:new 0 0 200 200;" xml:space="preserve">
<path d="M140.2,27.9H58.8c-0.4,0-0.8,0.2-1,0.6L17.2,98.9c-0.2,0.3-0.2,0.8,0,1.1l40.7,70.5c0.2,0.3,0.6,0.6,1,0.6h81.4
	c0.4,0,0.8-0.2,1-0.6L182,100c0.2-0.3,0.2-0.8,0-1.1l-40.7-70.5C141,28.1,140.6,27.9,140.2,27.9z M134.6,161.5h-31.4
	c-0.9,0-1.4-1-0.9-1.7c0.8-1.3,1.5-2.8,2.1-4.5l0.5-1.6c0.2-0.7-0.3-1.4-1.1-1.4h-34c-0.4,0-0.8-0.2-1-0.6L59.1,135
	c-0.5-0.9-1.8-0.7-2,0.2l-2.1,7.3c-0.3,0.9-1.6,1.1-2,0.2l-24.6-42.6c-0.2-0.3-0.2-0.8,0-1.1l35.1-60.9c0.2-0.3,0.6-0.6,1-0.6H85
	c0.9,0,1.4,1,0.9,1.7c-0.8,1.3-1.5,2.8-2,4.6l-0.4,1.5c-0.2,0.7,0.3,1.4,1.1,1.4h44.6c0.4,0,0.8,0.2,1,0.6l2.6,4.5
	c0.5,0.9,1.8,0.7,2-0.2l2.1-7.3c0.3-0.9,1.6-1.1,2-0.2L170.6,99c0.2,0.3,0.2,0.8,0,1.1L135.5,161C135.4,161.3,135,161.5,134.6,161.5
	z"/>
<path d="M160,100.1l-29.8,51.6c-0.2,0.3-0.6,0.6-1,0.6h-22.5c-0.7,0-1.3-0.7-1.1-1.4l11.9-40.5c3.9-13.1-2.3-18.5-12.3-18.5H70.7
	c-0.5,0-0.9,0.3-1.1,0.7l-5.1,14c-0.3,0.7,0.3,1.5,1.1,1.5h29.2c1.7,0,1.7,0.8,1.4,1.8l-10.5,35.5c-0.6,2.3-1.8,3-4.1,3h-4.9
	c-1.6,0-2.9-0.4-2.2-2.6l4.5-14.9c0.2-0.7-0.3-1.4-1.1-1.4H59.6c-0.5,0-0.9,0.3-1.1,0.8l0,0c-0.3,0.9-1.6,1.1-2,0.2L39,100.1
	c-0.2-0.3-0.2-0.8,0-1.1l29.8-51.6c0.2-0.3,0.6-0.6,1-0.6h11.9c0.7,0,1.3,0.7,1.1,1.4L71.2,87.1c-0.2,0.7,0.3,1.4,1.1,1.4h19.3
	c0.5,0,0.9-0.3,1.1-0.8l10.1-34.8c0.6-2.3,1.7-3,4-3h6.8c0.7,0,1.2,0.6,1.1,1.3l-2.9,16.9c-0.1,0.7,0.4,1.3,1.1,1.3l15.8,0.1
	c0.5,0,0.9-0.3,1.1-0.8l3.5-12.1c0.3-0.9,1.6-1.1,2-0.2L160,98.9C160.2,99.3,160.2,99.7,160,100.1z"/>
</svg>
