<svg height="496pt" viewBox="0 0 496 496" width="496pt" xmlns="http://www.w3.org/2000/svg"><path d="m496 307.289062-32-17.777343v-209.511719h30.433594l-50-80h-200.867188l-50 80h30.433594v128h-208v32h-16v256h464v-148.183594l32 17.777344zm-243.566406-291.289062h183.132812l30 48h-243.132812zm195.566406 64v200.625l-104-57.777344-104 57.777344v-200.625zm-352 176v16h-32v-16zm16 0h32v16h-32zm48 0h32v16h-32zm48 0h16v16h-16zm-176-32h192v16h-192zm16 32v16h-32v-16zm-32 224v-192h208v1.511719l-32 17.777343v58.304688l32-17.777344v132.183594zm352 0h-48v-56c0-13.230469 10.769531-24 24-24s24 10.769531 24 24zm80 0h-64v-56c0-22.054688-17.945312-40-40-40s-40 17.945312-40 40v56h-64v-141.070312l104-57.777344 104 57.777344zm32-141.59375-136-75.550781-136 75.550781v-21.695312l136-75.558594 136 75.558594zm0 0"/><path d="m432 96h-176v48h176zm-64 16v16h-48v-16zm-96 0h32v16h-32zm144 16h-32v-16h32zm0 0"/><path d="m432 208v-48h-176v48zm-112-16v-16h48v16zm96 0h-32v-16h32zm-144-16h32v16h-32zm0 0"/><path d="m64 432h112v-96h-112zm96-16h-32v-64h32zm-80-64h32v64h-32zm0 0"/><path d="m400 320h-48v48h48zm-16 32h-16v-16h16zm0 0"/><path d="m288 368h48v-48h-48zm16-32h16v16h-16zm0 0"/></svg>