<?xml version="1.0" encoding="utf-8"?>
<!-- Generator: Adobe Illustrator 23.1.0, SVG Export Plug-In . SVG Version: 6.00 Build 0)  -->
<svg version="1.1" id="Layer_1" xmlns="http://www.w3.org/2000/svg" xmlns:xlink="http://www.w3.org/1999/xlink" x="0px" y="0px"
	 viewBox="0 0 512 512" style="enable-background:new 0 0 512 512;" xml:space="preserve">
<g>
	<path d="M335.1,268.6c0-4.1-3.4-7.5-7.5-7.5l-237.4,0c-4.1,0-7.5,3.4-7.5,7.5V468c0,4.1,3.4,7.5,7.5,7.5l237.4,0.1
		c4.1,0,7.5-3.4,7.5-7.5V268.6z M97.7,363.3H126c2.8,0,5.4-1.6,6.7-4.1l7.6-15l15.9,48.7c2.2,6.8,12.4,6.7,14.3-0.3l17.5-61.2
		l11.8,43.8c1.8,6.7,11.4,7.4,14.1,1l9.9-23l4.3,8.5c1.3,2.5,3.9,4.1,6.7,4.1h32v52H97.7V363.3z M281.8,425.3v-16.1h38.3v18.1h-38.3
		V425.3z M320.1,394h-38.3v-18.1h38.3V394z M320.1,360.8h-38.3v-18.1h38.3V360.8z M320.1,327.5h-38.3v-18.1h38.3V327.5z
		 M320.1,294.2h-38.3v-18.1h38.3V294.2z M266.8,276.1v74.7h-27.4l-9.5-18.6c-2.8-5.5-11.1-5.3-13.6,0.4l-7.7,17.9l-13.2-49.1
		c-1.9-7.1-12.4-7.3-14.5-0.1l-18.2,63.6l-13.9-42.7c-2-6.2-10.9-6.9-13.8-1l-13.7,27.1H97.7v-72.2L266.8,276.1L266.8,276.1z
		 M97.7,432.8h169.1v2c0,0,0,0,0,0.1c0,0,0,0,0,0.1v25.6H97.7L97.7,432.8z M320.1,460.5h-38.3v-18.1h38.3V460.5z"/>
	<path d="M391.6,359.6c20.9,0,37.8-17,37.8-37.8s-17-37.8-37.8-37.8s-37.8,17-37.8,37.8S370.8,359.6,391.6,359.6L391.6,359.6z
		 M391.6,299c12.6,0,22.8,10.2,22.8,22.8c0,12.6-10.2,22.8-22.8,22.8s-22.8-10.2-22.8-22.8C368.8,309.2,379,299,391.6,299L391.6,299
		z"/>
	<path d="M391.6,452.6c20.9,0,37.8-17,37.8-37.8s-17-37.8-37.8-37.8s-37.8,17-37.8,37.8S370.8,452.6,391.6,452.6L391.6,452.6z
		 M391.6,391.9c12.6,0,22.8,10.2,22.8,22.8c0,12.6-10.2,22.8-22.8,22.8s-22.8-10.2-22.8-22.8C368.8,402.2,379,391.9,391.6,391.9
		L391.6,391.9z"/>
	<path d="M129.4,30H70.1c-12.5,0-22.6,10.1-22.6,22.6v11.6c0,4.1,3.4,7.5,7.5,7.5h89.5c4.1,0,7.5-3.4,7.5-7.5V52.6
		C152,40.1,141.9,30,129.4,30z M137,56.7H62.5v-4.1c0-4.2,3.4-7.6,7.6-7.6h59.3c4.2,0,7.6,3.4,7.6,7.6L137,56.7L137,56.7z"/>
	<path d="M458.3,153.7H322.7c-21.3,0-38.7-17.3-38.7-38.7v-2.7c0-21.3,17.3-38.7,38.7-38.7h7.3V86c-8.1,3.1-13.9,10.9-13.9,20v10.6
		c0,11.8,9.6,21.5,21.5,21.5h149.3c11.8,0,21.5-9.6,21.5-21.5v-10.6c0-9.2-5.8-17-13.9-20V48.3c0-26.6-21.7-48.3-48.3-48.3h-67.9
		C351.7,0,330,21.7,330,48.3v10.4h-7.3c-29.6,0-53.7,24.1-53.7,53.7v2.7c0,29.6,24.1,53.7,53.7,53.7h135.7
		c21.3,0,38.7,17.3,38.7,38.7V399c0,19.1-13.9,34.9-32,38.1V257.1c0-18-14.6-32.6-32.6-32.6H79.6c-18,0-32.6,14.6-32.6,32.6v179.9
		c-18.2-3.2-32-19-32-38.1V207.3c0-21.3,17.3-38.7,38.7-38.7h135.7c29.6,0,53.7-24.1,53.7-53.7v-2.7c0-29.6-24.1-53.7-53.7-53.7H182
		V48.3C182,21.7,160.3,0,133.7,0H65.8C39.2,0,17.5,21.7,17.5,48.3V86c-8.1,3.1-13.9,10.9-13.9,20v10.6c0,11.8,9.6,21.5,21.5,21.5
		h22.1c4.1,0,7.5-3.4,7.5-7.5s-3.4-7.5-7.5-7.5H25.1c-3.6,0-6.5-2.9-6.5-6.5v-10.6c0-3.6,2.9-6.5,6.5-6.5h149.3
		c3.6,0,6.5,2.9,6.5,6.5v10.6c0,3.6-2.9,6.5-6.5,6.5H86.9c-4.1,0-7.5,3.4-7.5,7.5c0,4.1,3.4,7.5,7.5,7.5h87.5
		c11.8,0,21.5-9.6,21.5-21.5v-10.6c0-9.2-5.8-17-13.9-20V73.7h7.3c21.3,0,38.7,17.3,38.7,38.7v2.7c0,21.3-17.3,38.7-38.7,38.7H53.7
		C24.1,153.7,0,177.7,0,207.3V399c0,27.3,20.6,50,47,53.2v27.2c0,18,14.6,32.6,32.6,32.6h291.8c9.7,0,9.7-15,0-15H79.6
		c-9.7,0-17.6-7.9-17.6-17.6V257.1c0-9.7,7.9-17.6,17.6-17.6h352.8c9.7,0,17.6,7.9,17.6,17.6v222.3c0,9.7-7.9,17.6-17.6,17.6h-21.1
		c-9.7,0-9.7,15,0,15h21.1c18,0,32.6-14.6,32.6-32.6v-27.2c26.5-3.3,47-25.9,47-53.2V207.3C512,177.7,487.9,153.7,458.3,153.7
		L458.3,153.7z M493.4,116.7c0,3.6-2.9,6.5-6.5,6.5H337.6c-3.6,0-6.5-2.9-6.5-6.5v-10.6c0-3.6,2.9-6.5,6.5-6.5h149.3
		c3.6,0,6.5,2.9,6.5,6.5V116.7z M345,48.3c0-18.4,14.9-33.3,33.3-33.3h67.9c18.4,0,33.3,14.9,33.3,33.3v36.3H345V48.3z M32.5,84.6
		V48.3C32.5,29.9,47.4,15,65.8,15h67.9c18.4,0,33.3,14.9,33.3,33.3v36.3H32.5z"/>
	<path d="M441.9,30h-59.3C370.1,30,360,40.1,360,52.6v11.6c0,4.1,3.4,7.5,7.5,7.5H457c4.1,0,7.5-3.4,7.5-7.5V52.6
		C464.5,40.1,454.4,30,441.9,30z M449.5,56.7H375v-4.1c0-4.2,3.4-7.6,7.6-7.6h59.3c4.2,0,7.6,3.4,7.6,7.6L449.5,56.7L449.5,56.7z"/>
</g>
</svg>
