<svg id="line_icons" height="512" viewBox="0 0 74 74" width="512" xmlns="http://www.w3.org/2000/svg" data-name="line icons"><path d="m62.87 72h-46.66a5.019 5.019 0 0 1 -5.01-5.013v-42.829a4.244 4.244 0 0 1 2.155-3.69l13.845-7.807a2.232 2.232 0 0 0 .784-.74l3.776-5.879a6.576 6.576 0 0 1 5.554-3.034h25.556a5.017 5.017 0 0 1 5.012 5.013v58.966a5.018 5.018 0 0 1 -5.012 5.013zm-25.556-66.992a4.584 4.584 0 0 0 -3.872 2.116l-3.775 5.876a4.237 4.237 0 0 1 -1.484 1.4l-13.848 7.81a2.24 2.24 0 0 0 -1.135 1.948v42.829a3.016 3.016 0 0 0 3.01 3.013h46.66a3.016 3.016 0 0 0 3.012-3.013v-58.966a3.015 3.015 0 0 0 -3.012-3.013z"/><path d="m55.89 18.271h-21.124a2.46 2.46 0 0 1 -2.12-3.7l3.14-5.347a2.469 2.469 0 0 1 2.12-1.214h21.124a2.459 2.459 0 0 1 2.12 3.7l-3.14 5.348a2.47 2.47 0 0 1 -2.12 1.213zm-17.984-8.266a.461.461 0 0 0 -.395.227l-3.14 5.347a.459.459 0 0 0 .395.692h21.124a.462.462 0 0 0 .4-.228l3.135-5.343a.458.458 0 0 0 -.395-.691z"/><path d="m15.1 21.494a1 1 0 0 1 -.876-.515l-3.177-5.739a1 1 0 0 1 .391-1.359l10.349-5.734a1 1 0 0 1 1.359.389l3.206 5.777a1 1 0 0 1 -.394 1.362l-10.379 5.7a.989.989 0 0 1 -.479.119zm-1.818-6.348 2.21 3.992 8.625-4.733-2.235-4.025z"/><path d="m9.964 16.7a2.027 2.027 0 0 1 -1.771-1.042l-1.821-3.289a2.019 2.019 0 0 1 .787-2.747l13.29-7.368a2.023 2.023 0 0 1 2.748.788l1.822 3.286a2.02 2.02 0 0 1 -.788 2.747l-13.29 7.368a2.017 2.017 0 0 1 -.977.257zm-1.835-5.329a.02.02 0 0 0 -.008.028l1.821 3.287 13.319-7.36-1.813-3.315z"/><path d="m50.364 57.734h-21.648a1 1 0 0 1 -1-1v-21.151a1 1 0 0 1 1-1h21.648a1 1 0 0 1 1 1v21.151a1 1 0 0 1 -1 1zm-20.648-2h19.648v-19.151h-19.648z"/><path d="m48.071 38.873a1 1 0 0 1 -.707-1.707l4.206-4.207a1 1 0 1 1 1.414 1.415l-4.206 4.206a1 1 0 0 1 -.707.293z"/><path d="m31.01 38.873a1 1 0 0 1 -.707-.293l-4.203-4.206a1 1 0 1 1 1.414-1.415l4.206 4.207a1 1 0 0 1 -.707 1.707z"/><path d="m52.277 59.651a1 1 0 0 1 -.707-.293l-4.206-4.206a1 1 0 0 1 1.414-1.414l4.206 4.206a1 1 0 0 1 -.707 1.707z"/><path d="m26.8 59.651a1 1 0 0 1 -.707-1.707l4.207-4.206a1 1 0 0 1 1.414 1.414l-4.206 4.206a1 1 0 0 1 -.708.293z"/></svg>