<?xml version="1.0" encoding="utf-8"?>
<!-- Generator: Adobe Illustrator 23.1.0, SVG Export Plug-In . SVG Version: 6.00 Build 0)  -->
<svg version="1.1" id="Слой_1" xmlns="http://www.w3.org/2000/svg" xmlns:xlink="http://www.w3.org/1999/xlink" x="0px" y="0px"
	 viewBox="0 0 1000 350" style="enable-background:new 0 0 1000 350;" xml:space="preserve">
<g>
	<g>
		<path d="M996,83.2h-14.1l1.7-44.4c0,0-1.3-5.1-12.1-5.1s-9.4,10.8-9.4,10.8l-0.7,4.7l-16.5,32.2l-0.4,3.1l-71.9,0.7l-2.7-3.7
			c0,0-23.8-0.4-30-26.2l-28.2-0.7l-1.3-1.7l-41.3-0.4l-16.8-0.4c0,0,0.4-3.7-6.4-3.7c0,0,0.7-3.7-13.5-3.7L634,42.3l-2.7,1.1
			l-5.3,0.4l-0.7,5.7h-5l-0.4-5.1l-5.1-5.1h-15.2l-2-2.4h-3.7l-2.7,2.4l-40.6,1.1c0,0-4.4-7.7-10.4-1.1l-1.3-2.4h-2.4l1.1,6l4,1.1
			l1.7,3.1h-4.7l0.7,2.7l-47.7,0.4V28.4l-4.7-0.4v-1.7h-6.4l-0.8-3.6h-4.1l-0.1,3.6l-6.7,0.1l-0.2-3.8h-5.2l-0.1,4l-6-0.1l-0.2-3.8
			l-4.6-0.2v3.8H446l-0.1-3.3l-4.9,0.1v3.6h-6.5v-3.3h-4.7l-0.1,3.3l-7,0.4l-0.1-3.9l-4.1-0.1l0.1,3.9l-7.1-0.1v-3.6l-4-0.1v4
			l-7-0.1v-3.6l-4.4-0.1l-0.4,3.6l-6.4,0.1l-0.2-3.6l-4.7-0.4l-0.1,4l-6.2-0.1l0.4-3.2h-5.4l-0.2,3.4l-6.2-0.1l-0.4-3.3l-5.1-0.1
			v3.4l-6-0.1l0.1-3.4l-5.2,0.1l-0.1,3.2h-6.2l-0.1-3.1l-5.4-0.1v3.6h-5.7v-3.6l-15.7,0.2l-1.8,3.2l-0.1,5.7l12,0.2v4.6l-1.3,1.5
			l0.1,12l-25.1,0.2l-16.2,16.9l-4,0.2l-8.6,9.5l3.8,0.5l-5.9,6.6l-3.1,5.4L200,104.3c0,0-18.5,4.6-30.9-3.2c0,0-5.6-3.8-21.2-1.5
			l-63.7,8.3l-68.6,8.8c0,0-15.9,1.3-10.5,20.4c5.3,19.2,0.2,1.1,0.2,1.1L25,215.8c0,0,0.7,8.1,9.1,5.6l239.7-80h10.3l0.2,6.7
			c0,0,13.9,10.9,5.1,33.5l-17.3,42.5c0,0-5.3,14.6,4.3,19.7l20.7,9.1l13.1-0.2l7.1-7.3c0,0-0.2-10.3,3.8-19.9l20.1-51.6
			c0,0,2.7-4.7,9.4-8.3c3.3-1.8,4.5-2.7,5-3.3c-0.1,2.8,0,13.6,13.1,13.6l42.4-2.7c0,0,7.1-2,7.3-7.6c0,0,1.8-4.3,4.7,0.5
			c0,0,1.8,4.7,0.2,8.8c0,0-1.1,6,2.7,1.3l4.7-10.9l2.7-2l3.6-4.7l1.3-15.6h2c0,0,7.8,105.4,112.6,179.4l14.6,5.1l37.8-55.4
			c0,0-76.6-40.4-91.8-133.1l2.2-0.7v-7.1l55.4-3.3l0.2,1.5c0,0,6.3,3.3,7.6,1.3c0,0,7.1,10.9,22.4,2.2c0,0,18.9-12.9,39.5-13.1
			l94.7-0.5c0,0,4.5,0.7,8.5-3.8c0,0,3.6,0.5,6.5-2.7l81.9-0.5l1.5,2.2l5.6,0.2l1.8-2.5l120.4-0.2l2,1.8h9.4v-1.7l3.3-0.2
			c0,0,2.7-2.7,3.1-7.6l15.9-0.5C996,103.7,996.8,94.1,996,83.2z M416.4,141.7l-0.2,21c0,5.8-5.6,7.1-5.6,7.1l-42,3.3
			c-13.1,0.5-10.1-14.3-10.1-14.3c4.7-5.6,1.3-16.1,1.3-16.1l0.5-4.3l5.3-0.2c4,0.5,4,4.7,4,4.7C367.1,155.5,381,163,381,163
			c9.1,2.5,1.8-2.7,1.8-2.7c-16.6-11.6-4.5-23.2-4.5-23.2l30.2-1.5C417.3,135,416.4,141.7,416.4,141.7z M661.2,78.2H640l3.8-2.5
			h20.4L661.2,78.2z M717,78.7l-21.2-0.5l4-2.5l20.7-0.2L717,78.7z M753,108.2v-3.6l8.3-0.2l1.8-2l66.1-0.2l1.3,5.6L753,108.2z
			 M832.1,85.2l-68.8,0.2l-1.3-3.3h-4.3l0.5-4.5l8.8-0.7l1.8-1.8l61.5,0.2v5.8C832.3,82,832.1,85.2,832.1,85.2z M844.5,108.4l2-2.7
			l24.2-0.5l1.5-3.6l71.5-0.5l1.8,1.8l10.3-0.2c3.3,0.2,3.8,4.7,3.8,4.7L844.5,108.4z M973.5,77.4l-19.2,0.5l5.6-10.5h15.9
			C975.7,67.3,975.5,76,973.5,77.4z"/>
	</g>
</g>
</svg>
