<?xml version="1.0" encoding="utf-8"?>
<!-- Generator: Adobe Illustrator 21.1.0, SVG Export Plug-In . SVG Version: 6.00 Build 0)  -->
<svg version="1.1" id="Layer_1" xmlns="http://www.w3.org/2000/svg" xmlns:xlink="http://www.w3.org/1999/xlink" x="0px" y="0px"
	 viewBox="0 0 512 512" style="enable-background:new 0 0 512 512;" xml:space="preserve">
<g>
	<g>
		<g>
			<path d="M229.4,142L229.4,142c-0.1,0.3-0.1,0.6-0.1,0.9c0,0.3-0.1,0.6-0.1,0.9c-0.3,1.8-0.5,3.9-0.7,6.1l0,0.2
				c0,0.4-0.1,0.8-0.1,1.3c-0.1,0.4-0.1,0.8-0.1,1.2c0,0.1,0,0.2,0,0.3v0.1l0,0.1v0.1c0,0.3,0,0.6-0.1,0.9l0,0.1v0.1l-0.2,1.6
				c0,0.2,0,0.5,0,0.7c0,0.5-0.1,0.9-0.1,1.4l0,0.1l0,0.1v0c-0.1,1-0.1,1.9-0.2,3c-0.1,1.2-0.2,2.5-0.2,3.8
				c-0.1,1.3-0.1,2.6-0.2,3.9c0,0.3,0,0.7-0.1,1.1c0,0.4,0,0.7,0,1.1c0,0.3,0,0.7,0,1l0,0v0l-0.1,2.2c0,0.2,0,0.4,0,0.6h-0.1l0,7
				c0,4.3,0,8.6,0.2,12.9c-5.3,9.9-10.6,19.8-15.9,29.4c-1.1,2-2.1,3.9-3.2,5.8c-6.3,11.4-12.5,22.5-18.3,33c-1,1.8-2,3.6-3,5.4h0
				c-12.9,23.3-23.8,43.3-30.1,57.5c-16.9-12.2-37.7-19.5-60.2-19.5c-3.8,0-7.6,0.2-11.3,0.6c25.6-63.6,16-87.1,30.3-135.2
				c1-0.1,2-0.2,3-0.3l1.1-0.1l1.2-0.1l0.5,0l0.8-0.1c0.2,0,0.4,0,0.6-0.1c0.5-0.1,1.1-0.1,1.6-0.2c0.5-0.1,1-0.1,1.5-0.2l0.3,0l0,0
				h0c1.7-0.2,3.5-0.4,5.2-0.7c0.1,0,0.3,0,0.4-0.1l0.1,0l0.1,0h0.1l0.7-0.1l0.7-0.1c1.1-0.2,2.1-0.3,3.2-0.5l1.3-0.2
				c0.2,0,0.5-0.1,0.7-0.1c1.1-0.2,2.1-0.3,3.2-0.5c5.4-0.9,10.6-1.9,15.3-3c1.4-0.3,2.7-0.6,4-1c1.3-0.3,2.7-0.7,4-1
				c1.3-0.3,2.7-0.7,4-1c1.4-0.4,2.8-0.8,4.2-1.1c1-0.3,2-0.6,2.9-0.8c1.1-0.3,2.3-0.7,3.4-1c3.6-1,7-2.1,10.4-3.2
				c0.8-0.3,1.7-0.5,2.6-0.8l0.8-0.3c0.5-0.2,1.1-0.4,1.6-0.5c0.4-0.1,0.7-0.2,1-0.3c0.5-0.2,0.9-0.3,1.4-0.5
				c0.3-0.1,0.6-0.2,0.9-0.3c0.3-0.1,0.5-0.2,0.8-0.3l0,0l0,0l1.6-0.5c1.2-0.4,2.4-0.8,3.5-1.2c2.2-0.8,4.4-1.6,6.5-2.3
				c0.7-0.2,1.3-0.5,2-0.7c0.6-0.2,1.3-0.5,1.9-0.7c2.2-0.8,4.5-1.7,7.1-2.6l0.1,0l0.1,0c0.3-0.1,0.6-0.2,0.9-0.3l0.4-0.2l0.8-0.3
				c0.3-0.1,0.7-0.3,1-0.4c0.4-0.2,0.8-0.3,1.2-0.5c0.4-0.2,0.8-0.3,1.2-0.5c0.4-0.2,0.8-0.3,1.2-0.5
				C228.5,142.4,229,142.2,229.4,142z"/>
		</g>
		<g>
			<path d="M433.5,477.8c-1.4,0.2-2.9,0.3-4.5,0.3c-4.8,0-10.7-0.7-17-1.7c-1.1-0.2-2.1-0.3-3.2-0.5c-1.1-0.2-2.2-0.4-3.3-0.6
				c-1.5-0.3-3-0.6-4.5-0.8c-1.5-0.3-3-0.6-4.5-0.9c-2.2-0.5-4.5-0.9-6.7-1.4c-1.8-0.4-3.5-0.8-5.3-1.1c-0.8-0.2-1.5-0.3-2.3-0.5
				c-0.7-0.1-1.4-0.3-2.1-0.4c-0.7-0.1-1.4-0.3-2.1-0.4v0c-0.9-0.2-1.7-0.3-2.6-0.5c-0.5-0.1-1-0.2-1.5-0.3v0
				c-0.2-0.1-0.5-0.1-0.7-0.1c-0.4-0.1-0.8-0.2-1.2-0.2v0c-0.3-0.1-0.7-0.1-1-0.2c-0.5-0.1-1.1-0.2-1.6-0.3c-0.2,0-0.4-0.1-0.6-0.1
				c-0.2,0-0.5-0.1-0.7-0.1c-0.1,0-0.2,0-0.3-0.1c-0.3-0.1-0.7-0.1-1-0.2c-0.4-0.1-0.7-0.1-1-0.2c-0.1,0-0.2,0-0.3,0v0
				c-0.2,0-0.4-0.1-0.7-0.1c-0.1,0-0.2,0-0.2,0v0c-0.6-0.1-1.2-0.2-1.7-0.3c-0.3,0-0.5-0.1-0.8-0.1c-0.2,0-0.3,0-0.4-0.1
				c-1.7-0.2-3.2-0.4-4.6-0.5c-0.1,0-0.2,0-0.4,0c-0.2,0-0.5,0-0.7,0c-0.7,0-1.3,0-1.9,0c-0.7,0-1.4,0-2.2,0.1c-0.2,0-0.4,0-0.6,0.1
				c-0.5,0-0.9,0.1-1.4,0.1c-0.4,0-0.8,0.1-1.2,0.1c-0.1,0-0.2,0-0.4,0c-0.1,0-0.2,0-0.4,0.1c-0.2,0-0.3,0-0.5,0.1
				c-0.4,0-0.8,0.1-1.2,0.2c-0.4,0.1-0.9,0.1-1.3,0.2c-0.3,0-0.5,0.1-0.8,0.1c-0.3,0-0.5,0.1-0.8,0.1c-0.8,0.1-1.7,0.3-2.6,0.4
				c-0.3,0.1-0.6,0.1-0.9,0.2c-0.3,0.1-0.6,0.1-0.9,0.2c-0.3,0-0.6,0.1-0.9,0.2c0,0,0,0,0,0c-0.3,0-0.6,0.1-0.9,0.2
				c-0.3,0.1-0.6,0.1-1,0.2c-0.3,0-0.6,0.1-1,0.2c0,0,0,0,0,0c-0.3,0.1-0.6,0.1-1,0.2c-0.3,0-0.7,0.1-1,0.2c-0.3,0.1-0.7,0.1-1,0.2
				c-0.3,0.1-0.7,0.1-1,0.2c-0.3,0.1-0.7,0.1-1,0.2c-0.3,0.1-0.7,0.1-1,0.2c-0.3,0.1-0.7,0.1-1,0.2c-0.3,0.1-0.7,0.1-1,0.2
				c0,0,0,0,0,0c-0.2,0-0.3,0-0.5,0.1c-0.5,0.1-1.1,0.2-1.6,0.3c-0.3,0.1-0.7,0.1-1,0.2c-0.4,0.1-0.7,0.1-1.1,0.2
				c-0.3,0-0.6,0.1-0.9,0.1c-0.1,0-0.3,0.1-0.4,0.1c-0.3,0-0.6,0.1-0.8,0.1c-0.3,0-0.6,0.1-0.8,0.1c-0.5,0.1-0.9,0.1-1.4,0.2
				c-0.4,0.1-0.7,0.1-1.1,0.2h0c-0.2,0-0.4,0.1-0.7,0.1c-0.1,0-0.3,0-0.4,0.1c-0.1,0-0.1,0-0.2,0c-0.4,0.1-0.8,0.1-1.3,0.2
				c-0.3,0-0.5,0.1-0.8,0.1c-0.8,0.1-1.5,0.2-2.3,0.3c-0.4,0.1-0.8,0.1-1.1,0.1c-0.8,0.1-1.5,0.2-2.3,0.3c-0.2,0-0.5,0-0.7,0.1
				c-0.1,0-0.2,0-0.3,0c-0.9,0.1-1.8,0.2-2.7,0.3c-0.2,0-0.4,0-0.7,0c-0.4,0-0.8,0.1-1.1,0.1c-0.2,0-0.3,0-0.4,0c-0.2,0-0.5,0-0.7,0
				c-0.1,0-0.3,0-0.4,0c-0.5,0-1,0.1-1.6,0.1c-0.2,0-0.4,0-0.6,0c-0.1,0-0.1,0-0.2,0c-0.3,0-0.7,0-1,0.1c-0.2,0-0.4,0-0.5,0
				c-0.2,0-0.3,0-0.5,0c-0.5,0-1,0-1.6,0c-0.5,0-0.9,0-1.4,0c-0.9,0-1.7,0-2.6,0c0,0,0,0,0,0h-0.3c-0.3,0-0.6,0-0.9,0
				c-0.1,0-0.2,0-0.3,0c-0.5,0-0.9,0-1.4,0c-0.2,0-0.3,0-0.4,0c-0.2,0-0.5,0-0.7-0.1c-0.4,0-0.8,0-1.2-0.1c-0.4,0-0.7-0.1-1.1-0.1
				c-0.4,0-0.7-0.1-1.1-0.1c-1-0.1-1.9-0.2-2.8-0.3c-1.5-0.2-2.9-0.5-4.3-0.8c-0.4-0.1-0.7-0.2-1-0.3c-0.7-0.2-1.4-0.4-2.1-0.6
				c-1-0.3-2-0.6-2.9-1c-1-0.4-1.9-0.8-2.8-1.2c-2.7-1.3-5.1-3-7.2-5.1c-0.5-0.5-1-1-1.4-1.5c-0.4-0.4-0.7-0.9-1-1.3
				c-0.4-0.6-0.8-1.2-1.1-1.9c-0.1-0.2-0.2-0.4-0.3-0.5c-0.2-0.3-0.3-0.7-0.4-1c-0.3-0.9-0.6-1.9-0.8-2.9c-0.1-0.4-0.1-0.8-0.2-1.1
				c-0.2-1.2-0.3-2.5-0.3-3.9c0-0.5,0-1,0-1.5c0-0.1,0-0.2,0-0.2c0-0.4,0.1-0.9,0.1-1.3c0-0.2,0-0.3,0-0.5c0-0.4,0.1-0.8,0.1-1.2
				c0.1-0.5,0.1-1.1,0.2-1.6c0,0,0,0,0-0.1c2.9-19.3,16.5-45.3,15.2-66.6c-4.9-74.8-26-89.4-33.8-145.6c-2.6-18.5-3.5-35.2-3.4-49.4
				c0,0,0,0,0,0c0-1,0-2,0-2.9c0-1.5,0-3,0.1-4.5c0-0.7,0-1.4,0.1-2.2c0-0.7,0-1.4,0.1-2.1c0-0.3,0-0.6,0-0.9
				c0.1-1.3,0.1-2.6,0.2-3.9s0.1-2.5,0.2-3.7c0.1-1,0.1-2,0.2-2.9c0-0.6,0.1-1.1,0.1-1.7c0-0.2,0-0.3,0-0.5c0-0.6,0.1-1.1,0.1-1.7
				c0-0.4,0.1-0.7,0.1-1.1c0-0.2,0-0.3,0-0.5c0-0.4,0.1-0.7,0.1-1c0.1-0.5,0.1-1,0.2-1.5c0.2-2.2,0.5-4.2,0.7-6
				c0-0.3,0.1-0.6,0.1-0.8c0-0.3,0.1-0.5,0.1-0.8c0.1-1.1,0.3-2.1,0.4-3c0-0.2,0.1-0.5,0.1-0.7c0.3-1.7,0.5-3.2,0.8-4.5
				c0-0.1,0.1-0.3,0.1-0.4c0,0,0-0.1,0-0.1c0.1-0.2,0.1-0.5,0.1-0.7c0.1-0.3,0.1-0.6,0.2-0.8c0-0.3,0.1-0.5,0.1-0.7
				c0-0.2,0.1-0.4,0.1-0.5c0,0,0,0,0,0c0-0.1,0-0.1,0-0.2c0-0.2,0.1-0.4,0.1-0.5c0-0.1,0-0.1,0-0.2c0,0,0-0.1,0-0.1s0,0,0,0
				c-0.1,0-0.4,0.2-1,0.4c-0.2,0.1-0.5,0.2-0.8,0.3c-1.5,0.7-4,1.7-7.2,3c-0.6,0.2-1.2,0.5-1.8,0.8c-0.7,0.3-1.4,0.6-2.1,0.9
				c-0.4,0.1-0.8,0.3-1.1,0.4c-0.4,0.2-0.8,0.3-1.2,0.5c-0.4,0.2-0.8,0.3-1.2,0.5c-0.6,0.2-1.1,0.4-1.7,0.7c-0.5,0.2-1,0.4-1.5,0.6
				c-2.2,0.8-4.5,1.7-7,2.6c-0.6,0.2-1.2,0.5-1.9,0.7s-1.3,0.5-1.9,0.7c-2.1,0.8-4.2,1.5-6.4,2.3c-1.7,0.6-3.4,1.2-5.1,1.7
				c-0.6,0.2-1.2,0.4-1.7,0.6c-0.8,0.3-1.6,0.5-2.4,0.8c-0.8,0.3-1.6,0.5-2.5,0.8c-0.8,0.3-1.7,0.5-2.5,0.8
				c-3.3,1.1-6.8,2.1-10.3,3.1c-1.1,0.3-2.2,0.6-3.4,1c-0.9,0.3-1.9,0.5-2.8,0.8c-1.4,0.4-2.8,0.8-4.2,1.1c-1.3,0.4-2.6,0.7-3.9,1
				c-1.3,0.3-2.6,0.7-3.9,1s-2.6,0.6-3.9,0.9c-4.8,1.1-9.8,2.1-14.9,2.9c-1,0.2-2.1,0.3-3.1,0.5c-0.2,0-0.4,0.1-0.5,0.1
				c-0.5,0.1-0.9,0.1-1.4,0.2c-1,0.2-2.1,0.3-3.1,0.5c-0.4,0.1-0.9,0.1-1.3,0.2c-0.2,0-0.4,0-0.5,0.1c-1.7,0.2-3.5,0.5-5.2,0.7
				c-0.1,0-0.2,0-0.3,0c-1.1,0.1-2.1,0.3-3.2,0.4c-0.1,0-0.3,0-0.4,0c-0.5,0-0.9,0.1-1.3,0.2c-0.8,0.1-1.5,0.2-2.3,0.2
				c-10.6,1.1-21.2,1.8-31.1,2.2c-1.4,0.1-2.8,0.1-4.2,0.2c-11,0.4-20.9,0.6-28.7,0.6c-10.2,0-16.6-0.2-16.6-0.2V19.6
				c0,0,38.7-1.6,88.2-1.6c82.6,0,195.3,4.3,207.9,27.6c35.4,65,0.6,302.7,12.7,331.2c14.6,34.4,51.4,58.7,78.2,70.1
				c12.9,5.5,33.1-1.7,36.9,12.2c0.1,0.3,0.1,0.5,0.2,0.8c0.1,0.4,0.2,0.8,0.2,1.2C462.9,473.1,452,475.6,433.5,477.8z"/>
		</g>
	</g>
</g>
<g>
	<path d="M61.9,474.8V342.2h36.5c8.9,0,16.7,1,23.2,2.9c6.5,2,11.6,5.5,15.3,10.6c3.7,5.1,5.5,12.3,5.5,21.5
		c0,5.5-0.4,10.3-1.3,14.6c-0.9,4.3-2.5,7.9-4.8,11c-2.3,3.1-5.7,5.7-10.1,7.8l18.2,64.2h-30.3l-14.6-59.4h-8.3v59.4H61.9z
		 M91.2,398.6h8.2c4.1,0,7.4-0.7,9.7-2.2c2.3-1.5,3.9-3.6,4.8-6.4c0.9-2.8,1.4-6.1,1.4-10.1c0-5.7-1-10.1-3.1-13.3
		c-2.1-3.2-5.9-4.7-11.5-4.7h-9.5V398.6z"/>
</g>
</svg>
