<?xml version="1.0" encoding="iso-8859-1"?>
<!-- Generator: Adobe Illustrator 19.0.0, SVG Export Plug-In . SVG Version: 6.00 Build 0)  -->
<svg version="1.1" id="Capa_1" xmlns="http://www.w3.org/2000/svg" xmlns:xlink="http://www.w3.org/1999/xlink" x="0px" y="0px"
	 viewBox="0 0 512 512" style="enable-background:new 0 0 512 512;" xml:space="preserve">
<g>
	<g>
		<path d="M111.79,304.614h-0.08c-4.142,0-7.46,3.358-7.46,7.5c0,4.142,3.398,7.5,7.54,7.5c4.142,0,7.5-3.358,7.5-7.5
			C119.29,307.972,115.932,304.614,111.79,304.614z"/>
	</g>
</g>
<g>
	<g>
		<path d="M440.45,304.614h-0.08c-4.142,0-7.46,3.358-7.46,7.5c0,4.142,3.398,7.5,7.54,7.5c4.142,0,7.5-3.358,7.5-7.5
			C447.95,307.972,444.592,304.614,440.45,304.614z"/>
	</g>
</g>
<g>
	<g>
		<path d="M496.234,228.981c-23.681-13.499-76.673-20.409-157.491-20.554l-63.609-49.474c-5.511-4.285-12.389-6.646-19.369-6.646
			h-15.797c-2.521,0-4.874,1.267-6.261,3.371c-1.388,2.105-1.625,4.766-0.632,7.083l19.568,45.658h-77.101
			c-4.163,0-8.234-0.784-12.1-2.33l-21.573-8.629c-8.807-3.522-18.365-4.335-27.64-2.347l-87.61,18.773
			c-10.778,2.31-18.601,11.987-18.601,23.01v35.652H7.5c-4.142,0-7.5,3.358-7.5,7.5c0,4.142,3.358,7.5,7.5,7.5h0.8
			c1.385,8.949,7.893,16.526,16.783,19.066l39.407,11.26c2.854,23.527,22.935,41.819,47.219,41.819
			c23.684,0,43.376-17.396,46.984-40.081h234.692c3.608,22.684,23.3,40.081,46.984,40.081c24.369,0,44.507-18.419,47.251-42.065
			l2.806-0.936c12.903-4.301,21.572-16.328,21.572-29.929L512,256.339C512,245.008,505.958,234.524,496.234,228.981z
			 M251.341,167.308h4.423c3.661,0,7.27,1.238,10.16,3.486l48.378,37.627h-45.341L251.341,167.308z M111.709,344.694
			c-17.965,0-32.581-14.616-32.581-32.581c0-17.965,14.616-32.581,32.581-32.581c17.965,0,32.581,14.616,32.581,32.581
			C144.29,330.078,129.674,344.694,111.709,344.694z M440.37,344.694c-17.965,0-32.581-14.616-32.581-32.581
			c0-17.965,14.616-32.581,32.581-32.581c17.965,0,32.581,14.616,32.581,32.581C472.951,330.078,458.335,344.694,440.37,344.694z
			 M496.999,286.768c0,6.708-4.025,12.686-10.137,15.25c-4.644-21.401-23.721-37.484-46.492-37.484
			c-23.684,0-43.376,17.396-46.984,40.081H158.694c-3.608-22.684-23.3-40.081-46.984-40.081c-22.927,0-42.117,16.301-46.593,37.921
			l-35.912-10.261c-2.435-0.696-4.374-2.436-5.396-4.643h23.772c4.142,0,7.5-3.358,7.5-7.5c0-4.142-3.358-7.5-7.5-7.5H23.016
			v-35.652c0-3.997,2.836-7.506,6.744-8.343l87.61-18.773c6.351-1.36,12.896-0.805,18.926,1.607l21.574,8.63
			c5.646,2.258,11.591,3.403,17.671,3.403h160.62c99.206,0,137.766,10.11,152.645,18.592c2.687,1.532,4.825,3.805,6.246,6.489
			h-14.601c-4.142,0-7.5,3.358-7.5,7.5s3.358,7.5,7.5,7.5H497L496.999,286.768z"/>
	</g>
</g>
<g>
	<g>
		<path d="M376.241,272.549h-16.03c-4.142,0-7.5,3.358-7.5,7.5c0,4.142,3.358,7.5,7.5,7.5h16.03c4.142,0,7.5-3.358,7.5-7.5
			C383.741,275.907,380.383,272.549,376.241,272.549z"/>
	</g>
</g>
<g>
	<g>
		<path d="M328.143,272.549H175.838c-4.142,0-7.5,3.358-7.5,7.5c0,4.142,3.358,7.5,7.5,7.5h152.304c4.142,0,7.5-3.358,7.5-7.5
			C335.642,275.907,332.285,272.549,328.143,272.549z"/>
	</g>
</g>
<g>
</g>
<g>
</g>
<g>
</g>
<g>
</g>
<g>
</g>
<g>
</g>
<g>
</g>
<g>
</g>
<g>
</g>
<g>
</g>
<g>
</g>
<g>
</g>
<g>
</g>
<g>
</g>
<g>
</g>
</svg>
