<?xml version="1.0" encoding="utf-8"?>
<!-- Generator: Adobe Illustrator 23.1.0, SVG Export Plug-In . SVG Version: 6.00 Build 0)  -->
<svg version="1.1" id="Слой_1" xmlns="http://www.w3.org/2000/svg" xmlns:xlink="http://www.w3.org/1999/xlink" x="0px" y="0px"
	 viewBox="0 0 512 512" style="enable-background:new 0 0 512 512;" xml:space="preserve">
<path d="M444,229.9c-7.5-120.3-72.4-146.3-94.4-151.7c0.3-9.7,5.4-31.3,39.4-54c2.4-1.6,3.8-4.2,3.8-7.1c0-2.9-1.4-5.5-3.8-7.1
	c-21.1-12.1-47-12.3-68.3-0.5c-14.6,7.3-17.6,5.5-25,1.1c-11.8-7.5-25.6-11.2-39.5-10.6c-13.9-0.6-27.7,3.1-39.5,10.6
	c-7.4,4.4-10.4,6.2-25-1.1C170.6-2.2,144.7-2,123.6,10c-2.4,1.6-3.8,4.2-3.8,7.1c0,2.9,1.4,5.5,3.8,7.1c34.1,22.7,39.1,44.4,39.4,54
	c-22,5.4-86.9,31.3-94.4,151.7C65,288.1,65.9,369,90.8,424c-0.1,0.4-0.2,0.8-0.3,1.2l-11,61.4c-1.6,5.7-0.1,11.9,4,16.2
	c4.1,4.4,10.3,6.2,16.1,4.7l56.6-11.5c9.7,6.9,30.6,16,100,16c69.4,0,90.3-9.1,100.7-16l55.3,11.3c5.9,1.7,12.2,0,16.5-4.3
	c4.3-4.3,5.9-10.6,4.3-16.5l-11-61.4c-0.1-0.3-0.2-0.6-0.3-0.9C446.8,369,447.7,288,444,229.9z M145.7,19.3
	c13.1-2.8,26.7-0.9,38.5,5.4c21.3,10.6,30.2,7.1,41.3,0.5c9.1-5.9,19.9-8.8,30.8-8.2c10.9-0.6,21.6,2.3,30.8,8.2
	c11.1,6.6,20,10.1,41.3-0.5c11.8-6.3,25.5-8.2,38.5-5.4c-31,25.4-34.6,50.1-34.3,61.5C313,93,290.9,100.6,268,103l13.5-40.5
	c1.5-4.5-0.9-9.3-5.4-10.8c-4.5-1.5-9.3,0.9-10.8,5.4L256.3,84l-9-26.9c-1.5-4.5-6.3-6.9-10.8-5.4c-4.5,1.5-6.9,6.3-5.4,10.8
	l13.5,40.6c-10.7-0.8-21.2-2.9-31.4-6.2c0.1-0.8,0.2-1.3,0.2-1.3c0.6-3.2-0.6-6.5-3.2-8.5c-2.6-2-6.1-2.3-9-0.9
	c-2,1.1-3.9,2.3-5.7,3.7c-5.4-2.5-10.6-5.4-15.6-8.7C180.4,70,177.2,45.1,145.7,19.3z M406.3,417.2c-1.6,3.6-1.9,7.7-0.9,11.5
	l11,62.1L361,479.5c-5-1.4-10.3-0.4-14.5,2.6c-15,10.6-57.3,12.8-90.2,12.8c-32.9,0-75.2-2.2-90.2-12.8c-2.9-2.1-6.4-3.3-10.1-3.3
	c-1.3,0-2.6,0.2-3.9,0.5l-56.3,11.9c0.1-0.4,0.2-0.8,0.3-1.2l11-61.4c1.1-3.8,0.8-7.9-0.8-11.5c-23.5-52-24.3-130-20.7-186.2
	c7.2-114.5,69-133.7,83.3-136.6c4.6,3,9.3,5.7,14.2,8.2c-12.5,17.7-16.8,39.9-12,61c0.7,4.1,4.3,7.1,8.4,7.1c0.5,0,0.9,0,1.4-0.1
	c4.6-0.8,7.8-5.2,7-9.8c-3.5-15.7-0.9-32.1,7.3-45.9c0,19.8,7.5,38.8,20.9,53.3c3.3,3.2,8.7,3.2,12-0.1c3.3-3.3,3.3-8.6,0.1-12
	c-10.4-11.6-16-26.6-15.8-42.1c14.2,4.1,28.9,6.2,43.7,6.3c30.9-0.3,61.1-9.3,87.2-26c13.4,2.8,76.5,21.9,83.7,136.7
	C430.5,287.2,429.8,365.1,406.3,417.2z"/>
</svg>
