<svg height="512" viewBox="0 0 50 56" width="512" xmlns="http://www.w3.org/2000/svg"><g id="Page-1" fill="none" fill-rule="evenodd"><g id="003---Safe" fill="rgb(0,0,0)" fill-rule="nonzero"><rect id="Rectangle-path" height="8" rx="1" width="4" x="42" y="31"/><rect id="Rectangle-path" height="8" rx="1" width="4" x="42" y="11"/><path id="Shape" d="m26.531 28.7c2.0393701-.8463943 3.0071899-3.1851711 2.1622388-5.2251395-.8449512-2.0399684-3.1830427-3.0094428-5.2236084-2.1659351-2.0405657.8435076-3.0116941 3.1809126-2.1696304 5.2220746.8462903 2.0427116 3.1875469 3.0134984 5.231 2.169z"/><path id="Shape" d="m4.167 54c0 1.1045695.8954305 2 2 2h9.833c1.1045695 0 2-.8954305 2-2v-2h-13.833z"/><path id="Shape" d="m32 54c0 1.1045695.8954305 2 2 2h9.833c1.1045695 0 2-.8954305 2-2v-2h-13.833z"/><path id="Shape" d="m47 0h-43.83c-1.65685425 0-3 1.34314575-3 3v44c0 1.6568542 1.34314575 3 3 3h43.83c1.6568542 0 3-1.3431458 3-3v-44c0-1.65685425-1.3431458-3-3-3zm1 18c0 1.6568542-1.3431458 3-3 3v8c1.6568542 0 3 1.3431458 3 3v6c0 1.6568542-1.3431458 3-3 3v1c0 1.6568542-1.3431458 3-3 3h-34c-1.65685425 0-3-1.3431458-3-3v-9c0-.5522847.44771525-1 1-1s1 .4477153 1 1v9c0 .5522847.44771525 1 1 1h34c.5522847 0 1-.4477153 1-1v-1c-1.6568542 0-3-1.3431458-3-3v-6c0-1.6568542 1.3431458-3 3-3v-8c-1.6568542 0-3-1.3431458-3-3v-6c0-1.6568542 1.3431458-3 3-3v-1c0-.55228475-.4477153-1-1-1h-34c-.55228475 0-1 .44771525-1 1v20c0 .5522847-.44771525 1-1 1s-1-.4477153-1-1v-20c0-1.65685425 1.34314575-3 3-3h34c1.6568542 0 3 1.34314575 3 3v1c1.6568542 0 3 1.3431458 3 3zm-33-7h-4v4c0 .5522847-.4477153 1-1 1-.55228475 0-1-.4477153-1-1v-5c0-.55228475.44771525-1 1-1h5c.5522847 0 1 .44771525 1 1 0 .5522847-.4477153 1-1 1zm5.408 2.914c5.2891077-2.1909597 11.38935-.340584 14.5700112 4.4194958 3.1806612 4.7600797 2.5558667 11.1040909-1.4922789 15.1522365s-10.3921568 4.6729401-15.1522365 1.4922789c-4.7600798-3.1806612-6.6104555-9.2809035-4.4194958-14.5700112 1.2101275-2.9453366 3.5486634-5.2838725 6.494-6.494z"/><path id="Shape" d="m16.3 27.521c.3316775-.1459579.7163639-.1010622 1.0055166.1173512.2891526.2184134.4375216.5761647.3878157.9351117-.0497059.3589471-.2897082.6629179-.6273323.7945371l-.878.364c.9249809 1.7338163 2.3444105 3.153594 4.078 4.079l.364-.879c.1316192-.3376241.43559-.5776264.7945371-.6273323.358947-.0497059.7166983.0986631.9351117.3878157.2184134.2891527.2633091.6738391.1173512 1.0055166l-.363.878c1.8801281.5719701 3.8878719.5719701 5.768 0l-.363-.878c-.1459579-.3316775-.1010622-.7163639.1173512-1.0055166.2184134-.2891526.5761647-.4375216.9351117-.3878157.3589471.0497059.6629179.2897082.7945371.6273323l.364.878c1.7338163-.9249809 3.153594-2.3444105 4.079-4.078l-.879-.364c-.3376241-.1316192-.5776264-.43559-.6273323-.7945371-.0497059-.358947.0986631-.7166983.3878157-.9351117.2891527-.2184134.6738391-.2633091 1.0055166-.1173512l.878.363c.5719701-1.8801281.5719701-3.8878719 0-5.768l-.878.363c-.3316775.1459579-.7163639.1010622-1.0055166-.1173512-.2891526-.2184134-.4375216-.5761647-.3878157-.9351117.0497059-.3589471.2897082-.6629179.6273323-.7945371l.878-.364c-.9249809-1.7338163-2.3444105-3.153594-4.078-4.079l-.364.879c-.1316192.3376241-.43559.5776264-.7945371.6273323-.358947.0497059-.7166983-.0986631-.9351117-.3878157-.2184134-.2891527-.2633091-.6738391-.1173512-1.0055166l.363-.878c-1.8801281-.5719701-3.8878719-.5719701-5.768 0l.363.878c.1459579.3316775.1010622.7163639-.1173512 1.0055166-.2184134.2891526-.5761647.4375216-.9351117.3878157-.3589471-.0497059-.6629179-.2897082-.7945371-.6273323l-.364-.878c-1.7338163.9249809-3.153594 2.3444105-4.079 4.078l.879.364c.3376241.1316192.5776264.43559.6273323.7945371.0497059.358947-.0986631.7166983-.3878157.9351117-.2891527.2184134-.6738391.2633091-1.0055166.1173512l-.878-.363c-.5719701 1.8801281-.5719701 3.8878719 0 5.768zm6.4-8.064c3.0606475-1.2692384 6.5707389.1827135 7.8403981 3.2431865 1.2696592 3.0604729-.1818102 6.570764-3.2421085 7.8408439-3.0602983 1.27008-6.5707889-.1809067-7.8412896-3.2410304-1.2680082-3.0613154.1832756-6.5711576 3.243-7.843z"/></g></g></svg>