<?xml version="1.0" encoding="iso-8859-1"?>
<!-- Generator: Adobe Illustrator 19.0.0, SVG Export Plug-In . SVG Version: 6.00 Build 0)  -->
<svg version="1.1" id="icon" xmlns="http://www.w3.org/2000/svg" xmlns:xlink="http://www.w3.org/1999/xlink" x="0px" y="0px"
	 viewBox="0 0 512.001 512.001" style="enable-background:new 0 0 512.001 512.001;" xml:space="preserve">
<g>
	<g>
		<path d="M331.616,212.589l-67.91-16.711v-0.688c0-20.456-16.642-37.099-37.1-37.099h-69.307c-20.456,0-37.1,16.642-37.1,37.099
			V316.81c0,20.456,16.642,37.1,37.1,37.1h69.307c20.456,0,37.1-16.643,37.1-37.1v-0.688l67.914-16.711
			c8.109-1.808,13.936-9.03,13.936-17.389v-52.044C345.556,221.616,339.728,214.395,331.616,212.589z M278.082,271.008h-14.376
			v-30.015h14.376c8.288,0,15.008,6.719,15.008,15.008S286.37,271.008,278.082,271.008z"/>
	</g>
</g>
<g>
	<g>
		<path d="M474.901,158.092h-69.306c-20.456,0-37.1,16.642-37.1,37.099v121.62c0,20.456,16.642,37.1,37.1,37.1h69.306
			c20.456,0,37.1-16.643,37.1-37.1V195.19C512,174.734,495.358,158.092,474.901,158.092z"/>
	</g>
</g>
<g>
	<g>
		<path d="M16.321,192.634C7.322,192.633,0,199.955,0,208.954v94.093c0,9,7.322,16.321,16.321,16.321h76.865V192.634H16.321z"/>
	</g>
</g>
<g>
</g>
<g>
</g>
<g>
</g>
<g>
</g>
<g>
</g>
<g>
</g>
<g>
</g>
<g>
</g>
<g>
</g>
<g>
</g>
<g>
</g>
<g>
</g>
<g>
</g>
<g>
</g>
<g>
</g>
</svg>
