<?xml version="1.0" encoding="iso-8859-1"?>
<!-- Generator: Adobe Illustrator 19.0.0, SVG Export Plug-In . SVG Version: 6.00 Build 0)  -->
<svg version="1.1" id="Capa_1" xmlns="http://www.w3.org/2000/svg" xmlns:xlink="http://www.w3.org/1999/xlink" x="0px" y="0px"
	 viewBox="0 0 511.999 511.999" style="enable-background:new 0 0 511.999 511.999;" xml:space="preserve">
<g>
	<g>
		<path d="M508.666,125.502L405.483,46.127c-5.971-4.597-12.761-8.019-20.008-10.083l-48.208-13.775l-15.5-15.5
			c-2.872-2.884-7.384-3.331-10.767-1.067c-16.624,9.994-35.605,15.389-55,15.633c-19.386-0.302-38.353-5.693-55-15.633
			c-3.383-2.26-7.892-1.813-10.767,1.067l-15.5,15.5l-48.208,13.775c-7.248,2.064-14.037,5.486-20.008,10.083L3.333,125.502
			c-3.559,2.737-4.39,7.764-1.9,11.5l68.267,102.4c1.325,1.992,3.427,3.335,5.792,3.7c2.363,0.359,4.769-0.281,6.642-1.766
			l28.8-23.042v280.908c-0.001,2.264,0.897,4.435,2.498,6.035s3.772,2.499,6.035,2.498h273.067c2.264,0.001,4.435-0.897,6.035-2.498
			c1.601-1.601,2.499-3.772,2.498-6.035V218.294l28.8,23.042c1.869,1.493,4.278,2.134,6.642,1.767c2.364-0.368,4.464-1.71,5.792-3.7
			l68.267-102.4C513.056,133.266,512.225,128.239,508.666,125.502z M384,490.669H256H128v-17.067h256V490.669z M433.266,222.194
			l-16.31-13.051l42.411-63.607c2.587-3.92,1.519-9.194-2.389-11.8c-3.908-2.605-9.187-1.563-11.811,2.333l-41.586,62.372
			l-5.714-4.572c-2.562-2.049-6.073-2.449-9.03-1.027s-4.838,4.413-4.837,7.694v256H128v-256c0-3.281-1.88-6.272-4.837-7.693
			c-2.957-1.422-6.467-1.023-9.03,1.027l-5.714,4.572l-41.586-62.372c-2.634-3.869-7.893-4.894-11.787-2.298
			c-3.894,2.596-4.971,7.845-2.412,11.764l42.411,63.607l-16.311,13.051l-58.675-88.025l96.859-74.508
			c4.265-3.284,9.115-5.727,14.292-7.2l50.333-14.383c1.395-0.399,2.666-1.148,3.691-2.175l12.425-12.425
			c17.974,9.569,37.981,14.687,58.342,14.925c20.361-0.238,40.368-5.356,58.342-14.925l12.425,12.425
			c1.026,1.027,2.296,1.776,3.692,2.175l50.333,14.384c5.177,1.473,10.027,3.916,14.292,7.2l96.858,74.508L433.266,222.194z"/>
	</g>
</g>
<g>
</g>
<g>
</g>
<g>
</g>
<g>
</g>
<g>
</g>
<g>
</g>
<g>
</g>
<g>
</g>
<g>
</g>
<g>
</g>
<g>
</g>
<g>
</g>
<g>
</g>
<g>
</g>
<g>
</g>
</svg>
