<svg id="Capa_1" enable-background="new 0 0 507.299 507.299" height="512" viewBox="0 0 507.299 507.299" width="512" xmlns="http://www.w3.org/2000/svg"><g><path d="m95.941 264.099c1.108 0 2.234-.247 3.296-.767l36.833-18.055 15.966 24.836c1.716 2.671 4.587 4.207 7.653 4.207.645 0 1.299-.068 1.953-.208 3.758-.804 6.556-3.779 7.129-7.577l6.434-40.441 30.24 29.617c2.775 2.718 6.979 3.386 10.458 1.661 3.48-1.724 5.496-5.472 5.015-9.327l-4.667-37.375 27.742 26.506c2.994 2.86 7.553 3.35 11.086 1.19 3.533-2.159 5.176-6.439 3.996-10.409l-11.268-37.893 34.276 25.062c3.343 2.445 8.036 1.717 10.481-1.627s1.716-8.036-1.627-10.481l-39.585-28.944 15.914-26.402c.654-1.084 1.652-1.388 2.188-1.473s1.581-.102 2.535.729l23.936 20.83c3.125 2.719 7.862 2.391 10.581-.734s2.391-7.862-.734-10.581l-23.936-20.83c-4.05-3.524-9.415-5.068-14.715-4.231-5.302.835-9.932 3.95-12.702 8.547l-15.749 26.129c-2.297-.362-4.703.153-6.695 1.557-3.21 2.264-4.614 6.314-3.495 10.08l.673 2.265c-3.465 3.667-13.355 9.533-13.355 9.533l-1.079-1.031c-2.791-2.666-6.981-3.292-10.429-1.557-3.447 1.735-5.441 5.473-4.963 9.301l.16 1.281-21.362 10.471-.89-.872c-2.466-2.414-6.027-3.232-9.301-2.138-3.272 1.096-5.624 3.895-6.139 7.307l-.604 4.004-19.751 9.681c-2.333-3.139-6.727-3.981-10.065-1.835-2.836 1.823-4.031 5.236-3.17 8.322l-35.57 17.436c-3.719 1.823-5.256 6.316-3.433 10.036 1.302 2.657 3.967 4.201 6.739 4.2zm137.95-68.204 4.521 15.204-11.173-10.675c2.329-1.357 4.55-2.872 6.652-4.529zm-32.438 17.333 2.501 20.027-14.462-14.164zm-45.196 35.713-6.628-10.31 8.838-4.332z"/><path d="m497.991 299.657c.026-.286-.288-28.794-.288-42.514 0-.166-.005-.328-.017-.494-.845-12.015-8.307-20.223-14.89-27.465-2.285-2.513-4.466-4.918-6.333-7.39 6.11-4.995 7.559-13.666 3.319-20.384l-6.905-10.943c-3.543-5.613-10.027-8.233-16.228-6.982l-8.186-38.041c-1.058-4.917-5.405-8.428-10.435-8.428h-40.768c-9.124 0-16.521 7.396-16.52 16.521v27.882c0 1.989-.25 3.982-.87 5.872-2.652 8.09-10.362 13.214-18.802 12.568-3.991-.305-7.743-2.032-10.763-4.66l-20.404-17.756c-3.182-2.77-8.037-2.377-10.73.911-2.602 3.177-1.979 7.914 1.119 10.61l20.444 17.791c6.089 5.298 13.829 8.159 21.786 8.158 1.596 0 3.201-.115 4.802-.349 9.589-1.397 18.064-6.893 23.254-15.076 3.377-5.327 5.163-11.476 5.163-17.783v-28.168c0-.84.681-1.521 1.521-1.521h37.273l8.158 37.91-28.811 14.633c-3.905 1.983-6.812 5.542-7.975 9.765s-.49 8.768 1.847 12.471l11.031 17.482c1.508 2.389 3.555 4.427 6.056 5.742 2.335 1.227 4.833 1.816 7.306 1.816 3.418 0 6.783-1.125 9.526-3.236l22.915-17.636c2.255 2.97 4.712 5.676 7.109 8.313 5.587 6.146 10.422 11.464 11.005 18.167 0 9.452.008 19.118.115 28.734-6.98-3.951-15.033-6.219-23.61-6.219h-93.145c-26.952 0-53.231 8.422-75.163 24.087l-6.366 4.547c-7.096 5.069-15.599 7.793-24.319 7.793h-201.811c-10.125 0-20.178-1.691-29.746-5.003l-11.463-3.968c1.794-3.353 4.6-6.12 8.089-7.831l44.991-22.053c3.425-1.679 5.27-5.636 4.034-9.245-1.495-4.364-6.402-6.3-10.409-4.336l-45.218 22.165c-4.611 2.261-8.678 6.194-11.855 10.813-4.389 6.382-6.626 14.005-6.816 21.748-.005.211-.008.33-.008.33 0 31.504 25.631 57.135 57.135 57.135h401.311c26.395 0 48.443-20.95 48.847-47.342.167-10.9-3.319-20.991-9.302-29.141zm-65.466-62.947c-.052.04-.211.163-.472.115-.262-.046-.369-.215-.403-.271l-11.211-17.766c-.035-.056-.142-.224-.071-.48.07-.256.249-.346.307-.376l38.736-19.675c.088-.044.182-.066.274-.066.2 0 .394.1.507.281l6.905 10.943c.167.264.105.606-.142.796zm-48.847 58.248v14.271c0 4.142 3.358 7.5 7.5 7.5s7.5-3.358 7.5-7.5v-14.271h23.18v66.183h-23.18v-19.949c0-4.142-3.358-7.5-7.5-7.5s-7.5 3.358-7.5 7.5v19.949h-23.18v-66.034c1.849-.089 3.703-.149 5.566-.149zm-38.18 66.182h-23.18v-57.5c7.457-3.096 15.218-5.374 23.18-6.82zm-52.245-40.341 6.366-4.547c2.51-1.793 5.079-3.473 7.699-5.046v49.935h-23.18v-35.03c3.169-1.476 6.221-3.245 9.115-5.312zm-24.115 9.89v30.452h-23.18v-29.754h14.257c3.013-.001 5.993-.237 8.923-.698zm-137.72.697h23.18v29.754h-23.18zm-15 29.754h-23.18v-29.754h23.18zm53.18-29.754h23.18v29.754h-23.18zm38.18 0h23.18v29.754h-23.18zm-192.628-8.804 8.598 2.976c5.336 1.847 10.786 3.246 16.31 4.217v27.741c-13.713-6.104-23.589-19.317-24.908-34.934zm39.908 38.507v-29.773c1.114.035 23.18.069 23.18.069v29.754c0 .001-22.492-.016-23.18-.05zm381.8.051v-66.183s22.903.014 23.18.021v66.141c-.276.007-23.18.021-23.18.021zm38.181-4.04v-58.102c10.275 5.622 17.26 16.535 17.26 29.051s-6.985 23.429-17.26 29.051z"/></g></svg>