<?xml version="1.0" encoding="utf-8"?>
<!-- Generator: Adobe Illustrator 23.1.0, SVG Export Plug-In . SVG Version: 6.00 Build 0)  -->
<svg version="1.1" id="Слой_1" xmlns="http://www.w3.org/2000/svg" xmlns:xlink="http://www.w3.org/1999/xlink" x="0px" y="0px"
	 viewBox="0 0 1000 500" style="enable-background:new 0 0 1000 500;" xml:space="preserve">
<g>
	<g>
		<path d="M992.9,199.2c10.5-26.1,0-44,0-44l-464.5-5.3l-0.6-8.3l-25.7-14.1l-20.8,1.2l-3.1,4.6h-6.7v-4.9l-10.4,0.3l-1.2,4.9h-7
			l-0.3-5.2l-11.3,0.3v4.9l-7.9,0.3l-0.3-5.5l-10.4,0.3l-0.3,5.5l-8.3-0.3l-0.6-4.9h-10.1l-0.3,4.6l-9.2,0.6l-0.3-5.8l-9.5,0.3v5.2
			l-9.5,0.9l-0.3-6.4l-9.8,0.3v5.8l-9.2-0.6l-0.3-5.2H345v5.2l-9.2,0.3l-0.3-5.5h-10.4l0.3,5.5l-9.2,0.6l-0.6-5.2h-9.2v5.2h-8.9
			l-0.3-4.9l-10.7-0.3v5.2l-8.3,0.3l-0.9-5.5h-10.4l-0.3,5.5h-8.3l-0.3-5.5h-10.4l-0.3,5.5l-8.6,0.3l-0.3-5.8l-10.7,0.3v5.5h-8.6
			v-6.1l-22,0.3l-24.8,31.2l-33.9,11.3c-15.6-14.1-33.6-7.9-33.6-7.9l-54.4,17.7c-20.2,7.3-13.4,24.8-13.4,24.8l4,13.8l-19.9,9.2
			c1.8,25.1,11.3,42.2,11.3,42.2c57.2,8.3,37.3,56.5,37.3,56.5L6.7,417c-15.6,37,16.8,48.3,16.8,48.3l86.8,20.2
			c15.9,0,21.1-21.4,21.1-21.4c-7.9-12.8-6.4-25.7-6.4-25.7c10.1-80.4,53.5-117.1,53.5-117.1v-3.4c65.1,14.4,97.5-24.8,97.5-24.8
			c32.1-29,54.7-26.6,54.7-26.6l39.1-0.6l2.8,59L509,310.3l-0.6-46.2l19.6-0.6l2.4-6.4l129.5-1.8c0.6,22,15.9,21.1,15.9,21.1
			l12.8-0.3v-1.5h11v1.5h8.6v-2.4l9.8,0.6v1.8l8.6-0.3v-1.8h10.1v1.8h8.9v-2.1h9.8v1.8h8.6v-2h10.7l0.3,1.8l8.3-0.3v-1.8h9.5v1.8
			h9.5v-2.1h8.6v2.4l9.8-0.3l0.3-2.4l8.9,0.3v1.5h9.8v-2.1h8.9v2.1l9.5-0.3v-1.8h10.1v1.8h8.3v-2.1l10.1,0.3v1.8h8.3v-2.1l9.8,0.6
			c24.5,12.2,39.1-13.9,39.1-13.9l22.8-4.9c19.6-32.6-4.1-44-4.1-44c-22-1.7-20.3-10.5-20.3-10.5H992.9z M64.1,211.7
			c-4.4,0-7.9-3.5-7.9-7.9c0-4.4,3.5-7.9,7.9-7.9s7.9,3.5,7.9,7.9C72.1,208,68.5,211.7,64.1,211.7z M116.1,203.5
			c-9,0-16.2-7.2-16.2-16.2c0-9,7.2-16.2,16.2-16.2c9,0,16.2,7.2,16.2,16.2C132.4,196.1,125.1,203.5,116.1,203.5z M215.6,149.2
			l-0.3,3.4l-9.2-0.3C208.2,147.1,215.6,149.2,215.6,149.2z M203.7,316.2c0,0-32.1,2.4-33.9-19c0,0-0.3-8.3,4.9-14.7l9.2,3.7
			c0,0-2.1,19.3,12.8,24.1c0,0-11.3-12.8-6.4-22.3l12.5-21.4l34.5-0.3c0,0,19.3,2.4,19.9,21.4C257.1,287.8,261.1,315,203.7,316.2z"
			/>
	</g>
</g>
</svg>
