<?xml version="1.0"?>
<svg xmlns="http://www.w3.org/2000/svg" viewBox="0 0 64 64" width="512" height="512"><g id="Layer_19" data-name="Layer 19"><path d="M29,13.24v-4a22.78,22.78,0,0,0-10.9,4.48L21,16.55A18.9,18.9,0,0,1,29,13.24Z"/><rect x="19" y="50" width="26" height="2"/><path d="M16.55,21,13.68,18.1A22.78,22.78,0,0,0,9.2,29h4A19,19,0,0,1,16.55,21Z"/><path d="M9.2,35a22.78,22.78,0,0,0,4.48,10.9L16.55,43a19,19,0,0,1-3.31-8Z"/><path d="M47.45,21a19,19,0,0,1,3.31,8h4a22.78,22.78,0,0,0-4.48-10.9Z"/><path d="M45.9,13.68A22.78,22.78,0,0,0,35,9.2v4a18.9,18.9,0,0,1,8,3.31Z"/><path d="M47.45,43l2.87,2.86A22.78,22.78,0,0,0,54.8,35h-4A19,19,0,0,1,47.45,43Z"/><path d="M58,31h3a28.82,28.82,0,0,0-7.78-18.77l-2.48,2.48-1.42-1.42,2.48-2.48A28.82,28.82,0,0,0,33,3V6H31V3a28.82,28.82,0,0,0-18.77,7.78l2.48,2.48-1.42,1.42-2.48-2.48A28.82,28.82,0,0,0,3,31H7v2H3A29,29,0,0,0,61,33H58ZM33,8.09a1,1,0,0,1,.32-.74,1,1,0,0,1,.76-.26,24.81,24.81,0,0,1,14,5.74,1,1,0,0,1,.36.72,1,1,0,0,1-.29.76l-4.27,4.27a1,1,0,0,1-.71.29,1,1,0,0,1-.62-.21,16.87,16.87,0,0,0-8.62-3.55,1,1,0,0,1-.89-1ZM31,22.84a1,1,0,0,1,2,0L35.94,40.9a4.6,4.6,0,0,1-1,3.71,3.8,3.8,0,0,1-5.88,0,4.6,4.6,0,0,1-1-3.71Zm-15-10a24.81,24.81,0,0,1,14-5.74,1,1,0,0,1,.76.26,1,1,0,0,1,.32.74v6a1,1,0,0,1-.89,1,16.87,16.87,0,0,0-8.62,3.55,1,1,0,0,1-.62.21,1,1,0,0,1-.71-.29l-4.27-4.27a1,1,0,0,1-.29-.76A1,1,0,0,1,16,12.83ZM12.83,16a1,1,0,0,1,1.47-.07l4.28,4.27a1,1,0,0,1,.08,1.33,16.87,16.87,0,0,0-3.55,8.62,1,1,0,0,1-1,.89h-6a1,1,0,0,1-.74-.32,1.05,1.05,0,0,1-.26-.76A24.81,24.81,0,0,1,12.83,16ZM13.6,48.4h0a1,1,0,0,1-.72-.36,24.81,24.81,0,0,1-5.74-14,1.05,1.05,0,0,1,.26-.76A1,1,0,0,1,8.09,33h6a1,1,0,0,1,1,.89,17,17,0,0,0,3.55,8.62,1,1,0,0,1-.08,1.33L14.3,48.11A1,1,0,0,1,13.6,48.4ZM47,53a1,1,0,0,1-1,1H18a1,1,0,0,1-1-1V49a1,1,0,0,1,1-1H46a1,1,0,0,1,1,1Zm4.17-5a1,1,0,0,1-.72.36H50.4a1,1,0,0,1-.7-.29l-4.28-4.27a1,1,0,0,1-.08-1.33,17,17,0,0,0,3.55-8.62,1,1,0,0,1,1-.89h6a1,1,0,0,1,.74.32,1.05,1.05,0,0,1,.26.76A24.81,24.81,0,0,1,51.17,48Zm5.48-17.36a1,1,0,0,1-.74.32h-6a1,1,0,0,1-1-.89,16.87,16.87,0,0,0-3.55-8.62,1,1,0,0,1,.08-1.33l4.28-4.27a1,1,0,0,1,1.47.07,24.81,24.81,0,0,1,5.74,14A1.05,1.05,0,0,1,56.65,30.68Z"/><path d="M33.42,43.31A2.59,2.59,0,0,0,34,41.23l-2-12-2,12a2.59,2.59,0,0,0,.54,2.08A1.84,1.84,0,0,0,33.42,43.31Z"/></g></svg>
