<?xml version="1.0"?>
<svg xmlns="http://www.w3.org/2000/svg" width="512" height="512" viewBox="0 0 128 128"><path d="M121.25,20.673h-2.313V15.517a6.757,6.757,0,0,0-6.75-6.75h-7.25a6.757,6.757,0,0,0-6.749,6.75v17.5H79.531v-.556a6.5,6.5,0,0,0-5.726-6.511,6.389,6.389,0,0,0-4.884,1.619q-.169.155-.327.32-.157-.165-.327-.32a6.363,6.363,0,0,0-4.885-1.619,6.192,6.192,0,0,0-3.943,1.987,6.314,6.314,0,0,0-9.22-.035,6.335,6.335,0,0,0-10.938,4.362v.753H29.813v-17.5a6.758,6.758,0,0,0-6.75-6.75h-7.25a6.757,6.757,0,0,0-6.75,6.75v5.156H6.75A6.758,6.758,0,0,0,0,27.423V56.986a6.758,6.758,0,0,0,6.75,6.75H9.063v5.156a6.757,6.757,0,0,0,6.75,6.75h7.25a6.758,6.758,0,0,0,6.75-6.75v-17.5H39.3c0,.038,0,.077.006.115a1.709,1.709,0,0,0-.023.228v7.2a18.9,18.9,0,0,0,2.348,9.111l6.84,12.39v37.047a1.75,1.75,0,0,0,1.75,1.75H77.781a1.75,1.75,0,0,0,1.75-1.75V80.534L86.7,70.2a11.277,11.277,0,0,0,2.02-6.455V51.389h9.469v17.5a6.757,6.757,0,0,0,6.749,6.75h7.25a6.757,6.757,0,0,0,6.75-6.75V63.736h2.313a6.758,6.758,0,0,0,6.75-6.75V27.423A6.758,6.758,0,0,0,121.25,20.673ZM70.344,32.267a2.844,2.844,0,0,1,3.128-2.83,2.976,2.976,0,0,1,2.559,3.027v.556H70.174A1.74,1.74,0,0,0,70.344,32.267Zm-6.629-2.83c.095-.009.191-.014.285-.014a2.845,2.845,0,0,1,2.844,2.844,1.74,1.74,0,0,0,.17.753H64a6.357,6.357,0,0,0-2.844.675V32.464A2.976,2.976,0,0,1,63.715,29.437ZM66.844,51.05a2.844,2.844,0,1,1-5.688,0V44.971a6.649,6.649,0,0,0,3.041.737h2.647ZM54.813,29.423a2.847,2.847,0,0,1,2.843,2.844V51.05a2.844,2.844,0,1,1-5.687,0V32.267A2.847,2.847,0,0,1,54.813,29.423ZM42.781,32.267a2.844,2.844,0,1,1,5.688,0V51.05a2.844,2.844,0,0,1-5.688,0V32.267ZM6.75,60.236a3.254,3.254,0,0,1-3.25-3.25V27.423a3.254,3.254,0,0,1,3.25-3.25H9.063V60.236Zm19.563,8.656a3.254,3.254,0,0,1-3.25,3.25h-7.25a3.253,3.253,0,0,1-3.25-3.25V15.517a3.253,3.253,0,0,1,3.25-3.25h7.25a3.254,3.254,0,0,1,3.25,3.25V68.892Zm3.5-32.372h9.468V47.889H29.813ZM85.219,63.748a7.789,7.789,0,0,1-1.4,4.46l-7.48,10.78a1.752,1.752,0,0,0-.312,1v35.747H51.969V79.986a1.75,1.75,0,0,0-.218-.846L44.693,66.355a15.392,15.392,0,0,1-1.912-7.42V56.712a6.3,6.3,0,0,0,7.438-1.3,6.314,6.314,0,0,0,9.187,0,6.315,6.315,0,0,0,9.188,0A6.335,6.335,0,0,0,79.531,51.05V43.958a1.75,1.75,0,0,0-1.75-1.75H64.2a2.976,2.976,0,0,1-3.027-2.559c-.009-.089-.013-.178-.014-.266v-.038A2.845,2.845,0,0,1,64,36.52H77.394l.314.019.02,0a7.828,7.828,0,0,1,7.491,7.808v19.4ZM70.344,45.708h5.687V51.05a2.844,2.844,0,1,1-5.687,0Zm18.375,2.181V44.345a11.288,11.288,0,0,0-3.145-7.825H98.188V47.889Zm26.718,21a3.254,3.254,0,0,1-3.25,3.25h-7.25a3.254,3.254,0,0,1-3.25-3.25V15.517a3.254,3.254,0,0,1,3.25-3.25h7.25a3.254,3.254,0,0,1,3.25,3.25V68.892ZM124.5,56.986a3.254,3.254,0,0,1-3.25,3.25h-2.313V24.173h2.313a3.254,3.254,0,0,1,3.25,3.25Z"/></svg>
