<?xml version="1.0" encoding="iso-8859-1"?>
<!-- Generator: Adobe Illustrator 19.0.0, SVG Export Plug-In . SVG Version: 6.00 Build 0)  -->
<svg version="1.1" id="Capa_1" xmlns="http://www.w3.org/2000/svg" xmlns:xlink="http://www.w3.org/1999/xlink" x="0px" y="0px"
	 viewBox="0 0 397.2 397.2" style="enable-background:new 0 0 397.2 397.2;" xml:space="preserve">
<g>
	<g>
		<g>
			<path style="fill:#1B1B1B;" d="M339,58.4C300.6,19.6,249.8,0,199,0S97.4,19.2,58.6,58C19.8,97.2,0.2,148,0.2,198.8
				s19.2,101.6,58,140.4s89.6,58,140.4,58c50.8,0,101.6-19.2,140.4-58s58-89.6,58-140.4S377.8,97.2,339,58.4z M325,324.8
				c-34.8,34.8-80.4,52.4-126,52.4c-45.6,0-91.2-17.6-126-52.4c-35.2-34.8-52.4-80.4-52.4-126c0-45.6,17.6-91.2,52.4-126
				s80.4-52.4,126-52.4c45.6,0,91.2,17.6,126,52.4s52.4,80.4,52.4,126C377.4,244.4,360.2,290,325,324.8z"/>
			<path style="fill:#1B1B1B;" d="M249,118H149c-8.4,0-16,3.6-21.6,9.2c-5.6,5.6-9.2,13.2-9.2,21.6v99.6c0,8.4,3.6,16,9.2,21.6
				c5.6,5.6,13.2,9.2,21.6,9.2h99.6c8.4,0,16-3.6,21.6-9.2c5.6-5.6,9.2-13.2,9.2-21.6v-99.6c0.4-8.4-3.2-16-8.8-21.6
				C265,121.6,257.4,118,249,118z M259.4,248.8c0,2.8-1.2,5.6-3.2,7.6c-2,2-4.4,3.2-7.6,3.2H149c-2.8,0-5.6-1.2-7.6-3.2
				c-2-2-3.2-4.4-3.2-7.6v-100c0-2.8,1.2-5.6,3.2-7.6s4.4-3.2,7.6-3.2h99.6c2.8,0,5.6,1.2,7.6,3.2s3.2,4.4,3.2,7.6V248.8z"/>
		</g>
	</g>
</g>
<g>
</g>
<g>
</g>
<g>
</g>
<g>
</g>
<g>
</g>
<g>
</g>
<g>
</g>
<g>
</g>
<g>
</g>
<g>
</g>
<g>
</g>
<g>
</g>
<g>
</g>
<g>
</g>
<g>
</g>
</svg>
