<?xml version="1.0" encoding="iso-8859-1"?>
<!-- Generator: Adobe Illustrator 19.0.0, SVG Export Plug-In . SVG Version: 6.00 Build 0)  -->
<svg version="1.1" id="Layer_1" xmlns="http://www.w3.org/2000/svg" xmlns:xlink="http://www.w3.org/1999/xlink" x="0px" y="0px"
	 viewBox="0 0 512 512" style="enable-background:new 0 0 512 512;" xml:space="preserve">
<g>
	<g>
		<path d="M503.571,174.303L436.847,74.218c-0.006-0.008-0.013-0.013-0.019-0.022c-3.155-4.704-8.755-7.413-13.872-7.413H372.87
			V50.087C372.87,22.468,350.402,0,322.783,0H89.044C61.424,0,38.957,22.468,38.957,50.087v361.739H372.87V267.13h17.195
			c8.934,0,16.196,7.266,16.196,16.196v67.782c0,27.343,22.25,49.587,49.587,49.587c28.369,0,50.587-21.782,50.587-49.587V183.652
			C506.435,180.291,504.973,176.174,503.571,174.303z M205.913,367.304c-27.619,0-50.087-22.468-50.087-50.087
			c0-14.758,2.352-16.307,35.033-84.44c6.058-12.603,24.046-12.611,30.109,0C253.764,301.149,256,302.504,256,317.217
			C256,344.836,233.532,367.304,205.913,367.304z M306.087,183.652c0,9.223-7.479,16.696-16.696,16.696H122.435
			c-9.217,0-16.696-7.473-16.696-16.696V83.478c0-9.223,7.479-16.696,16.696-16.696h166.956c9.217,0,16.696,7.473,16.696,16.696
			V183.652z M439.652,138.62l18.892,28.337h-18.892V138.62z M473.043,351.108c0,9.081-7.554,16.196-17.195,16.196
			c-8.934,0-16.196-7.266-16.196-16.196v-67.782c0-27.343-22.25-49.587-49.587-49.587H372.87V100.174h33.391v83.478
			c0,9.223,7.479,16.696,16.696,16.696h50.087V351.108z"/>
	</g>
</g>
<g>
	<g>
		<path d="M372.87,445.217H38.957c-18.442,0-33.391,14.949-33.391,33.391S20.515,512,38.957,512H372.87
			c18.442,0,33.391-14.949,33.391-33.391S391.312,445.217,372.87,445.217z"/>
	</g>
</g>
<g>
</g>
<g>
</g>
<g>
</g>
<g>
</g>
<g>
</g>
<g>
</g>
<g>
</g>
<g>
</g>
<g>
</g>
<g>
</g>
<g>
</g>
<g>
</g>
<g>
</g>
<g>
</g>
<g>
</g>
</svg>
