<?xml version="1.0" encoding="utf-8"?>
<!-- Generator: Adobe Illustrator 23.1.0, SVG Export Plug-In . SVG Version: 6.00 Build 0)  -->
<svg version="1.1" id="Capa_1" xmlns="http://www.w3.org/2000/svg" xmlns:xlink="http://www.w3.org/1999/xlink" x="0px" y="0px"
	 viewBox="0 0 512 512" style="enable-background:new 0 0 512 512;" xml:space="preserve">
<g>
	<g>
		<path d="M503.1,295.4v-22.1c0-22.6-15.8-42.5-38.5-47.2l-71-14.5c-0.5-0.1-1.1-0.3-1.7-0.4c-2.2-8.5-9.8-14.8-18.8-14.8h-0.9
			l-22-19c-2.9-2.5-7.5-2.3-10,0.8l-0.1,0.1l-14.6-12.5c0.1-0.1,0.3-0.3,0.4-0.4c2.4-3.2,1.8-7.6-1.4-10
			c-9.9-7.5-21.1-12.7-33.2-15.5c-35.9-8.3-107.5-18.2-185.3,8.1c-6.4,2.2-12.5,5.1-18.1,8.5l-34.1-34.1c-0.3-0.3-0.4-0.4-0.6-0.6
			c-0.3-0.3-0.5-0.4-0.8-0.5c-0.3-0.1-0.5-0.4-0.8-0.5c-0.8-0.4-1.7-0.8-2.7-1c-0.6-0.1-1.3-0.3-1.9-0.3H9.5c-5.2,0-9.5,4.3-9.5,9.5
			c0,5.2,4.3,9.5,9.5,9.5H43l29.6,29.6c-4.7,4.6-8.8,9.7-12.3,15.1l-24.4,38c-6,9.3-9.2,20.1-9.2,31v23.7c0,5.1,0.6,10.2,2,15.1
			l1.4,5.2c-4.2,2.8-7,7.6-7,13.1v7.8c0,8.6,7,15.6,15.6,15.6H52c8,21.2,28.5,36.3,52.5,36.3c23.9,0,44.5-15.1,52.5-36.3h69.8
			c3.8,0,7-3.1,7.1-6.9v-0.3c0-3.9-3.2-7.1-7.1-7.1h-66.4c0.4-3.6,0.4-7.1,0-10.4h193.4c-0.3,3.4-0.3,7,0.1,10.4h-93.6
			c-3.9,0-7.1,3.2-7.1,7.1c0,0.1,0,0.1,0,0.3c0.1,3.8,3.3,6.9,7.1,6.9h96.9c8,21.2,28.5,36.3,52.5,36.3c24,0,44.5-15.1,52.5-36.3h34
			c8.6,0,15.6-7,15.6-15.6v-7.8C512,303.2,508.3,297.9,503.1,295.4z M38.8,318.6c-0.8,0-1.4-0.6-1.4-1.4v-7.8c0-0.8,0.6-1.4,1.4-1.4
			h9.8c-0.3,3.4-0.3,7,0,10.4h-9.8V318.6z M53.4,251.7c0,2.8-2.3,5.1-5.2,5.1h-7.1c0.1-2.7-0.6-8.6,1.8-16.5h5.5
			c2.8,0,5.2,2.3,5.2,5.1v6.4H53.4z M104.6,344.7c-17.4,0-31.7-14.2-31.7-31.7c0-17.4,14.2-31.7,31.7-31.7s31.7,14.2,31.7,31.7
			C136.2,330.5,122,344.7,104.6,344.7z M121.7,226l-26.3-23c10.7-14.6,25.1-18.4,45.3-23.5l7.9,46.6H121.7z M184.1,267.5h-8.9
			c-3.9,0-7.1-3.2-7.1-7.1s3.2-7.1,7.1-7.1h8.9c3.9,0,7.1,3.2,7.1,7.1S188.1,267.5,184.1,267.5z M236.5,226h-73.4l-8.4-49.6
			c42.9-8.4,75.6-4.6,81.8-4.5V226z M273.9,267.5h-9c-3.9,0-7.1-3.2-7.1-7.1s3.2-7.1,7.1-7.1h9c3.9,0,7.1,3.2,7.1,7.1
			S277.8,267.5,273.9,267.5z M342.8,226h-92v-52.7c12.3,1.5,23,3.6,31.4,5.5c7.4,1.7,14.4,5.2,20.2,10.3l40.3,34.7V226z M373,231.8
			h-10.8c-3.1,0-5.1-2.5-5.1-5.1v-10.8c0-2.8,2.3-5.1,5.1-5.1H373c2.8,0,5.1,2.3,5.1,5.1v10.8C378.2,229.5,375.9,231.8,373,231.8z
			 M409.7,344.7c-17.4,0-31.7-14.2-31.7-31.7c0-17.4,14.2-31.7,31.7-31.7c17.4,0,31.7,14.2,31.7,31.7
			C441.4,330.5,427.3,344.7,409.7,344.7z M469.5,242.7c9,4.3,15.8,12.6,18.2,22.4H475c-3.1,0-5.5-2.5-5.5-5.5V242.7z M497.6,317.2
			c0,0.8-0.6,1.4-1.4,1.4h-30.7c0.4-3.7,0.4-7.1,0.1-10.4h30.5c0.8,0,1.4,0.6,1.4,1.4V317.2z"/>
	</g>
</g>
</svg>
