<?xml version="1.0" encoding="utf-8"?>
<!-- Generator: Adobe Illustrator 21.1.0, SVG Export Plug-In . SVG Version: 6.00 Build 0)  -->
<svg version="1.1" id="icon" xmlns="http://www.w3.org/2000/svg" xmlns:xlink="http://www.w3.org/1999/xlink" x="0px" y="0px"
	 viewBox="0 0 469.3 469.3" style="enable-background:new 0 0 469.3 469.3;" xml:space="preserve">
<g>
	<g>
		<path d="M432.2,254.7c0,23.1-9,44.8-25.3,61.2L382,340.7C365.7,357,343.9,366,320.8,366H172.3c-13,0-23.6-10.6-23.6-23.6
			c0-17.4,13-32.3,30.2-34.8l63.6-10L86.7,142.4c-11.7-11.7-11.7-30.8,0-42.5c11.8-11.8,30.9-11.8,42.6-0.1l76.4,75.9
			c1.4-4.7,3.9-9,7.6-12.7c10.8-10.9,27.8-11.7,39.6-2.7c1.4-4.8,3.9-9.3,7.6-13c10.8-10.9,27.8-11.8,39.6-2.7
			c1.3-4.8,3.9-9.3,7.6-13c11.8-11.8,30.9-11.8,42.6-0.1l59.2,65.1C424.2,212.5,432.2,233.1,432.2,254.7z"/>
	</g>
</g>
<g>
	<g>
		<path d="M172.6,92.1c-11.5-25.4-36.8-41.8-64.5-41.8c-39.1,0-70.9,31.8-70.9,70.9c0,27.7,16.4,53,41.8,64.5
			c1.1,0.5,2.2,0.7,3.2,0.7c3,0,5.9-1.7,7.2-4.6c1.8-4,0-8.6-3.9-10.4c-19.8-8.9-32.5-28.6-32.5-50.2C52.9,90.8,77.6,66,108,66
			c21.5,0,41.2,12.8,50.2,32.5c1.8,4,6.5,5.7,10.4,3.9C172.6,100.7,174.4,96,172.6,92.1z"/>
	</g>
</g>
</svg>
