<?xml version="1.0" encoding="utf-8"?>
<!-- Generator: Adobe Illustrator 21.1.0, SVG Export Plug-In . SVG Version: 6.00 Build 0)  -->
<svg version="1.1" id="Capa_1" xmlns="http://www.w3.org/2000/svg" xmlns:xlink="http://www.w3.org/1999/xlink" x="0px" y="0px"
	 viewBox="0 0 512 512" style="enable-background:new 0 0 512 512;" xml:space="preserve">
<path d="M292.4,57c-0.6,0-1.3-0.1-1.9-0.2c-0.6-0.1-1.3-0.3-1.9-0.6c-0.6-0.3-1.2-0.6-1.7-0.9c-0.5-0.4-1.1-0.8-1.5-1.2
	s-0.9-1-1.2-1.5c-0.4-0.5-0.7-1.1-0.9-1.7c-0.3-0.6-0.4-1.2-0.6-1.9s-0.2-1.3-0.2-2s0.1-1.3,0.2-2s0.3-1.3,0.6-1.9
	c0.3-0.6,0.6-1.2,0.9-1.7c0.4-0.5,0.8-1.1,1.2-1.5s1-0.9,1.5-1.2c0.5-0.4,1.1-0.7,1.7-0.9s1.2-0.5,1.9-0.6c1.3-0.3,2.6-0.3,3.9,0
	c0.6,0.1,1.3,0.3,1.9,0.6c0.6,0.3,1.2,0.6,1.7,0.9c0.5,0.4,1.1,0.8,1.5,1.2c0.5,0.5,0.9,1,1.3,1.5c0.4,0.5,0.7,1.1,0.9,1.7
	c0.3,0.6,0.4,1.2,0.6,1.9s0.2,1.3,0.2,2s-0.1,1.3-0.2,2c-0.1,0.6-0.3,1.3-0.6,1.9c-0.3,0.6-0.6,1.2-0.9,1.7
	c-0.4,0.5-0.8,1.1-1.3,1.5c-0.5,0.5-1,0.9-1.5,1.2c-0.5,0.4-1.1,0.7-1.7,0.9c-0.6,0.3-1.2,0.5-1.9,0.6C293.8,56.9,293.1,57,292.4,57
	z"/>
<path d="M186.6,475c-0.6,0-1.3-0.1-2-0.2c-0.6-0.1-1.3-0.3-1.9-0.6c-0.6-0.3-1.2-0.6-1.7-0.9c-0.6-0.4-1.1-0.8-1.5-1.2
	c-0.5-0.5-0.9-1-1.3-1.5c-0.4-0.5-0.7-1.1-0.9-1.7c-0.3-0.6-0.4-1.2-0.6-1.9c-0.1-0.6-0.2-1.3-0.2-2s0.1-1.3,0.2-2s0.3-1.3,0.6-1.9
	c0.3-0.6,0.6-1.2,0.9-1.7c0.4-0.5,0.8-1.1,1.3-1.5c0.5-0.5,1-0.9,1.5-1.2c0.5-0.4,1.1-0.7,1.7-0.9s1.2-0.5,1.9-0.6
	c1.3-0.3,2.6-0.3,3.9,0c0.6,0.1,1.3,0.3,1.9,0.6s1.2,0.6,1.7,0.9c0.5,0.4,1.1,0.8,1.5,1.2s0.9,1,1.2,1.5c0.4,0.5,0.7,1.1,0.9,1.7
	c0.3,0.6,0.4,1.2,0.6,1.9s0.2,1.3,0.2,2c0,2.6-1.1,5.2-2.9,7.1S189.2,475,186.6,475z"/>
<path d="M278.4,266h-38.9c-5.5,0-10-4.5-10-10v-58.7c0-5.5,4.5-10,10-10s10,4.5,10,10V246h28.9c5.5,0,10,4.5,10,10
	C288.4,261.5,283.9,266,278.4,266z"/>
<path d="M431.5,221.8H405c-1.8-8.8-4.3-17.4-7.5-25.7l26.3-16.8c2.2-1.4,3.8-3.7,4.4-6.3c0.6-2.6,0.1-5.3-1.3-7.5l-20-31.4
	c-1.4-2.2-3.7-3.8-6.3-4.4c-2.6-0.6-5.3-0.1-7.5,1.3l-24.6,15.7c-5.8-6.8-12.1-13.1-18.8-18.9L338,9c-0.5-5.1-4.8-9-10-9H151
	c-5.1,0-9.5,3.9-10,9l-11.6,118.8c-36.1,31-58.9,77-58.9,128.1s22.9,97.1,58.9,128.1L141,503c0.5,5.1,4.8,9,10,9h177
	c5.1,0,9.5-3.9,10-9l11.6-118.8c30.5-26.3,51.6-63.2,57.4-105h24.6c5.5,0,10-4.5,10-10v-37.3C441.5,226.3,437,221.8,431.5,221.8z
	 M395.4,153.3l9.3,14.6l-15.4,9.8c-2.7-5.1-5.6-10.1-8.8-14.9L395.4,153.3z M156.5,57h99c5.5,0,10-4.5,10-10s-4.5-10-10-10h-97
	l1.7-17h158.9l9,92c-25.7-15.9-56-25-88.4-25s-62.7,9.2-88.4,25L156.5,57z M322.5,455h-99c-5.5,0-10,4.5-10,10s4.5,10,10,10h97
	l-1.7,17H160.1l-9-92c25.7,15.9,56,25,88.4,25s62.7-9.2,88.4-25L322.5,455z M239.5,405c-82.2,0-149-66.8-149-149s66.8-149,149-149
	s149,66.8,149,149S321.7,405,239.5,405z M421.5,259.1h-13c0-1,0-2.1,0-3.1c0-4.8-0.2-9.5-0.6-14.2h13.6V259.1z"/>
<path d="M239.5,128.4c-70.3,0-127.6,57.2-127.6,127.6s57.2,127.6,127.6,127.6S367.1,326.3,367.1,256S309.8,128.4,239.5,128.4z
	 M249.5,363.1V357c0-5.5-4.5-10-10-10s-10,4.5-10,10v6.2c-51.4-4.8-92.4-45.8-97.1-97.1h6.2c5.5,0,10-4.5,10-10s-4.5-10-10-10h-6.2
	c4.8-51.4,45.8-92.4,97.1-97.1v6.2c0,5.5,4.5,10,10,10s10-4.5,10-10v-6.2c51.4,4.8,92.4,45.8,97.1,97.1h-6.2c-5.5,0-10,4.5-10,10
	c0,5.5,4.5,10,10,10h6.2C341.9,317.4,300.9,358.4,249.5,363.1z"/>
</svg>
