<?xml version="1.0" encoding="utf-8"?>
<!-- Generator: Adobe Illustrator 21.1.0, SVG Export Plug-In . SVG Version: 6.00 Build 0)  -->
<svg version="1.1" xmlns="http://www.w3.org/2000/svg" xmlns:xlink="http://www.w3.org/1999/xlink" x="0px" y="0px"
	 viewBox="0 0 203.9 203.9" style="enable-background:new 0 0 203.9 203.9;" xml:space="preserve">
<g id="Capa_1">
	<path d="M45.9,87h50.9v38.5H45.9c-3.8,0-6.9-3.1-6.9-6.9V93.9C39,90.1,42.1,87,45.9,87z"/>
	<path d="M36.5,86.2v39c0,3.6-2.9,6.5-6.5,6.5h0c-3.6,0-6.5-2.9-6.5-6.5v-39c0-3.6,2.9-6.5,6.5-6.5h0C33.6,79.6,36.5,82.6,36.5,86.2
		z"/>
</g>
<g id="Слой_2">
	<path d="M168.2,63.4l-5.5-37.9l-3.9,34.3l-42.3-19.2l24.4,20.5L95,59.4l12,5.6l-40.4,0.3L97,71.5L36.5,70l81.8,8.5L72.1,87l0,0
		h43.4c3.8,0,6.9,3.1,6.9,6.9v24.7c0,3.8-3.1,6.9-6.9,6.9h-34l5.6,1.3l-6.2,1l-1.5,0.3h0l-12.5,2.1l-0.1,0l15.3,0.1l9.7,0.1
		l10.9,0.1l4.5,0l-1.7,0.6l-4.1,1.5l-1,0.4l-5.2,2l6.4-0.2l-61.6,29.4l98-28.5l-0.9,0.7l-6.1,4.2l-14.3,9.8l0.2-0.1l8.6-3.2
		l33.6-12.4v0l3.9,27.8l0.1-0.4l5.4-30.4l0.1,0.2l15.2,31.4V24.5L168.2,63.4z M143.2,119.4h-15.7c-1.5,0-2.7-1.2-2.7-2.7V94.6
		c0-1.5,1.2-2.7,2.7-2.7h15.7c14.2,0,27.7,4.9,38.6,13.8C170.9,114.6,157.4,119.4,143.2,119.4z"/>
</g>
</svg>
