<?xml version="1.0" encoding="utf-8"?>
<!-- Generator: Adobe Illustrator 21.1.0, SVG Export Plug-In . SVG Version: 6.00 Build 0)  -->
<svg version="1.1" id="Capa_1" xmlns="http://www.w3.org/2000/svg" xmlns:xlink="http://www.w3.org/1999/xlink" x="0px" y="0px"
	 viewBox="0 0 203.9 203.9" style="enable-background:new 0 0 203.9 203.9;" xml:space="preserve">
<path d="M154.8,45.2v18c0,2.7-2.3,5-5,5H98.8c-2.7,0-5-2.3-5-5v-18c0-2.7,2.3-5,5-5h50.8C152.5,40.1,154.8,42.4,154.8,45.2z"/>
<path d="M92,39.5V68c0,2.6-2.2,4.8-4.8,4.8l0,0c-2.6,0-4.8-2.2-4.8-4.8V39.5c0-2.6,2.2-4.8,4.8-4.8l0,0C89.8,34.7,92,36.9,92,39.5z"
	/>
<path d="M198.2,53.8c-8,6.5-17.9,10-28.3,10h-11.5c-1.1,0-1.9-0.9-1.9-1.9V45.7c0-1.1,0.9-1.9,1.9-1.9h11.6
	C180.4,43.7,190.2,47.3,198.2,53.8z"/>
<path d="M72.8,42.5H41.6c-2.2,0-3.9-1.7-3.9-3.9c0-2.2,1.7-3.9,3.9-3.9h31.1c2.2,0,3.9,1.7,3.9,3.9C76.6,40.8,74.9,42.5,72.8,42.5z"
	/>
<path d="M72.8,58.1H18.3c-2.2,0-3.9-1.7-3.9-3.9c0-2.2,1.7-3.9,3.9-3.9h54.5c2.2,0,3.9,1.7,3.9,3.9C76.6,56.4,74.9,58.1,72.8,58.1z"
	/>
<path d="M72.8,73.6H65c-2.2,0-3.9-1.7-3.9-3.9s1.7-3.9,3.9-3.9h7.7c2.2,0,3.9,1.7,3.9,3.9S74.9,73.6,72.8,73.6z"/>
<path d="M45.5,73.6H26c-2.2,0-3.9-1.7-3.9-3.9s1.7-3.9,3.9-3.9h19.5c2.2,0,3.9,1.7,3.9,3.9S47.7,73.6,45.5,73.6z"/>
<path d="M86.6,103.7v9.5c0,1.4-1.2,2.6-2.6,2.6H57.2c-1.4,0-2.6-1.2-2.6-2.6v-9.5c0-1.4,1.2-2.6,2.6-2.6h26.7
	C85.4,101,86.6,102.2,86.6,103.7z"/>
<path d="M53.6,100.7v15c0,1.4-1.1,2.5-2.5,2.5l0,0c-1.4,0-2.5-1.1-2.5-2.5v-15c0-1.4,1.1-2.5,2.5-2.5l0,0
	C52.5,98.2,53.6,99.3,53.6,100.7z"/>
<path d="M109.4,108.2c-4.2,3.4-9.4,5.3-14.8,5.3h-6c-0.6,0-1-0.5-1-1v-8.5c0-0.6,0.5-1,1-1h6.1C100,102.9,105.2,104.8,109.4,108.2z"
	/>
<path d="M43.5,102.3H27.2c-1.1,0-2-0.9-2-2s0.9-2,2-2h16.3c1.1,0,2,0.9,2,2S44.7,102.3,43.5,102.3z"/>
<path d="M43.5,110.5H14.9c-1.1,0-2-0.9-2-2s0.9-2,2-2h28.6c1.1,0,2,0.9,2,2S44.7,110.5,43.5,110.5z"/>
<path d="M43.5,118.6h-4.1c-1.1,0-2-0.9-2-2s0.9-2,2-2h4.1c1.1,0,2,0.9,2,2S44.7,118.6,43.5,118.6z"/>
<path d="M29.2,118.6H19c-1.1,0-2-0.9-2-2s0.9-2,2-2h10.2c1.1,0,2,0.9,2,2S30.4,118.6,29.2,118.6z"/>
<path d="M136.8,143.9v13.4c0,2-1.7,3.7-3.7,3.7H95.3c-2,0-3.7-1.7-3.7-3.7v-13.4c0-2,1.7-3.7,3.7-3.7H133
	C135.1,140,136.8,141.7,136.8,143.9z"/>
<path d="M90.2,139.6v21.2c0,1.9-1.6,3.6-3.6,3.6l0,0c-1.9,0-3.6-1.6-3.6-3.6v-21.2c0-1.9,1.6-3.6,3.6-3.6l0,0
	C88.6,136.1,90.2,137.7,90.2,139.6z"/>
<path d="M169,150.2c-5.9,4.8-13.3,7.4-21,7.4h-8.5c-0.8,0-1.4-0.7-1.4-1.4v-12c0-0.8,0.7-1.4,1.4-1.4h8.6
	C155.8,142.8,163.1,145.4,169,150.2z"/>
<path d="M75.9,141.8H52.8c-1.6,0-2.9-1.3-2.9-2.9s1.3-2.9,2.9-2.9h23.1c1.6,0,2.9,1.3,2.9,2.9S77.5,141.8,75.9,141.8z"/>
<path d="M75.9,153.4H35.4c-1.6,0-2.9-1.3-2.9-2.9s1.3-2.9,2.9-2.9h40.4c1.6,0,2.9,1.3,2.9,2.9S77.5,153.4,75.9,153.4z"/>
<path d="M75.9,164.9h-5.8c-1.6,0-2.9-1.3-2.9-2.9c0-1.6,1.3-2.9,2.9-2.9h5.8c1.6,0,2.9,1.3,2.9,2.9
	C78.8,163.6,77.5,164.9,75.9,164.9z"/>
<path d="M55.7,164.9H41.2c-1.6,0-2.9-1.3-2.9-2.9c0-1.6,1.3-2.9,2.9-2.9h14.5c1.6,0,2.9,1.3,2.9,2.9
	C58.5,163.6,57.3,164.9,55.7,164.9z"/>
</svg>
