<?xml version="1.0" encoding="utf-8"?>
<!-- Generator: Adobe Illustrator 21.1.0, SVG Export Plug-In . SVG Version: 6.00 Build 0)  -->
<svg version="1.1" id="Capa_1" xmlns="http://www.w3.org/2000/svg" xmlns:xlink="http://www.w3.org/1999/xlink" x="0px" y="0px"
	 viewBox="0 0 203.9 203.9" style="enable-background:new 0 0 203.9 203.9;" xml:space="preserve">
<path d="M148.6,94.1v15.8c0,2.4-2,4.4-4.4,4.4H99.5c-2.4,0-4.4-2-4.4-4.4V94.1c0-2.4,2-4.4,4.4-4.4h44.6
	C146.6,89.6,148.6,91.6,148.6,94.1z"/>
<path d="M93.5,89.1v25c0,2.3-1.9,4.2-4.2,4.2h0c-2.3,0-4.2-1.9-4.2-4.2v-25c0-2.3,1.9-4.2,4.2-4.2h0C91.6,84.9,93.5,86.8,93.5,89.1z
	"/>
<path d="M186.7,101.6c-7,5.7-15.7,8.8-24.8,8.8h-10.1c-1,0-1.7-0.8-1.7-1.7V94.5c0-1,0.8-1.7,1.7-1.7H162
	C171.1,92.8,179.7,95.9,186.7,101.6z"/>
<path d="M76.6,91.7H49.3c-1.9,0-3.4-1.5-3.4-3.4s1.5-3.4,3.4-3.4h27.3c1.9,0,3.4,1.5,3.4,3.4S78.5,91.7,76.6,91.7z"/>
<path d="M76.6,105.4H28.8c-1.9,0-3.4-1.5-3.4-3.4s1.5-3.4,3.4-3.4h47.8c1.9,0,3.4,1.5,3.4,3.4S78.5,105.4,76.6,105.4z"/>
<path d="M76.6,119h-6.8c-1.9,0-3.4-1.5-3.4-3.4s1.5-3.4,3.4-3.4h6.8c1.9,0,3.4,1.5,3.4,3.4C80,117.5,78.5,119,76.6,119z"/>
<path d="M52.7,119H35.6c-1.9,0-3.4-1.5-3.4-3.4s1.5-3.4,3.4-3.4h17.1c1.9,0,3.4,1.5,3.4,3.4C56.1,117.5,54.6,119,52.7,119z"/>
</svg>
