<?xml version="1.0" encoding="utf-8"?>
<!-- Generator: Adobe Illustrator 23.1.0, SVG Export Plug-In . SVG Version: 6.00 Build 0)  -->
<svg version="1.1" id="Capa_1" xmlns="http://www.w3.org/2000/svg" xmlns:xlink="http://www.w3.org/1999/xlink" x="0px" y="0px"
	 viewBox="0 0 512 512" style="enable-background:new 0 0 512 512;" xml:space="preserve">
<g>
	<g>
		<g>
			<path d="M438.5,244.1c-6.6-90.7-78.7-162.8-169.4-169.4V47.9h-26.2v26.8c-20.4,1.4-40.5,6.2-59.3,14.2l10.4,24
				c15.6-6.7,32.1-10.8,49-12.1v26.2c-61.9,6.3-110.8,55.2-117.1,117.1H99.7c1.3-16.3,5.1-32.3,11.4-47.4L87,186.6
				c-7.6,18.3-12.2,37.7-13.5,57.5H46.7v26.2h26.8c6.6,90.7,78.7,162.8,169.4,169.4v26.8h26.2v-26.8
				c90.7-6.6,162.8-78.7,169.4-169.4h26.8v-26.2H438.5z M242.9,413.5c-76.3-6.5-136.8-67-143.2-143.2h26.2
				c6.3,61.9,55.2,110.8,117.1,117.1V413.5z M256,361.9c-57.8,0-104.6-46.9-104.6-104.6S198.2,152.6,256,152.6
				s104.6,46.9,104.6,104.6C360.6,315,313.8,361.8,256,361.9z M269.1,413.5v-26.2c61.9-6.3,110.8-55.2,117.1-117.1h26.2
				C405.8,346.6,345.3,407.1,269.1,413.5z M386.1,244.1c-6.3-61.9-55.2-110.8-117.1-117.1v-26.2c76.3,6.5,136.8,67,143.2,143.2
				H386.1z"/>
			<path d="M172.6,124.2l-13.9-22.1c-8,5-15.5,10.6-22.6,16.7l17.1,19.8C159.3,133.3,165.8,128.5,172.6,124.2z"/>
			<path d="M136.2,155.7l-19.9-16.9c-6.1,7.2-11.6,14.8-16.5,22.8l22.3,13.7C126.3,168.4,131,161.9,136.2,155.7z"/>
			<polygon points="269.1,204.9 242.9,204.9 242.9,244.1 203.7,244.1 203.7,270.3 242.9,270.3 242.9,309.5 269.1,309.5 269.1,270.3 
				308.3,270.3 308.3,244.1 269.1,244.1 			"/>
		</g>
	</g>
</g>
</svg>
