<?xml version="1.0" encoding="utf-8"?>
<!-- Generator: Adobe Illustrator 23.1.0, SVG Export Plug-In . SVG Version: 6.00 Build 0)  -->
<svg version="1.1" id="Слой_1" xmlns="http://www.w3.org/2000/svg" xmlns:xlink="http://www.w3.org/1999/xlink" x="0px" y="0px"
	 viewBox="0 0 512 512" style="enable-background:new 0 0 512 512;" xml:space="preserve">
<style type="text/css">
	.st0{fill:#FFFFFF;}
	.st1{fill:#FF0082;}
</style>
<path class="st0" d="M447.2,497.5H64.8c-27.7,0-50.3-22.6-50.3-50.3V64.8c0-27.8,22.6-50.3,50.3-50.3h382.4
	c27.7,0,50.3,22.6,50.3,50.3v382.4C497.5,474.9,474.9,497.5,447.2,497.5z M64.8,34.6c-16.6,0-30.2,13.5-30.2,30.2v382.4
	c0,16.6,13.5,30.2,30.2,30.2h382.4c16.6,0,30.2-13.5,30.2-30.2V64.8c0-16.6-13.5-30.2-30.2-30.2H64.8z"/>
<g>
	<g>
		<path class="st1" d="M333.4,184.3c-4-14-9.7-25.4-16.9-34c-7.3-8.7-16.1-15-26.4-18.8c-10.3-3.8-21.7-5.7-34.3-5.7
			c-12.5,0-23.8,1.9-34.1,5.7s-19,10.2-26.3,18.8c-7.3,8.7-13,20-16.9,34c-3.9,14-5.9,31.1-5.9,51.2v41.1c0,20.1,2,37.2,6,51.3
			c3.9,14.1,9.7,25.6,17,34.3c7.3,8.8,16.1,15.2,26.4,19.1s21.6,5.9,34.1,5.9c12.6,0,23.9-2,34.1-5.9s18.9-10.4,26.2-19.1
			c7.2-8.9,12.9-20.2,16.8-34.3s5.9-31.2,5.9-51.3h0.2v-41.1C339.4,215.4,337.4,198.3,333.4,184.3z M314.3,286
			c0,14.2-1.3,26.4-3.7,36.3c-2.4,9.9-6.1,18-10.9,24.3c-4.8,6.3-10.8,10.8-17.9,13.6c-7.1,2.8-15.3,4.2-24.7,4.2
			c-9.2,0-17.5-1.5-24.7-4.2c-7.2-2.9-13.4-7.4-18.3-13.6c-5-6.1-8.7-14.3-11.4-24.3c-2.7-9.9-4-22.1-4-36.3v-59.7
			c0-14.3,1.3-26.5,3.8-36.2c2.6-9.7,6.2-17.7,11.2-23.7c5-5.9,10.9-10.3,18.2-13c7.1-2.7,15.3-4,24.6-4c9.2,0,17.5,1.3,24.6,4
			c7.2,2.6,13.2,6.9,18.2,13c5,6,8.7,14,11.2,23.7c2.6,9.7,3.8,21.8,3.8,36.2L314.3,286L314.3,286z"/>
	</g>
</g>
</svg>
