<svg height="512" viewBox="0 0 64 64" width="512" xmlns="http://www.w3.org/2000/svg"><g id="disk_brake" data-name="disk brake"><circle cx="38" cy="42" r="1"/><circle cx="26" cy="42" r="1"/><circle cx="32" cy="32" r="4"/><path d="m32 11a21 21 0 1 0 10 39.46v-3.46c0-.02.01-.04.01-.06a18 18 0 1 1 0-29.88c0-.02-.01-.04-.01-.06v-3.46a20.927 20.927 0 0 0 -10-2.54z"/><path d="m45.31 36.06a6.856 6.856 0 0 1 -.79-1.49 2.924 2.924 0 0 1 -1.52.43 3 3 0 0 1 0-6 2.924 2.924 0 0 1 1.52.43 6.856 6.856 0 0 1 .79-1.49 7.041 7.041 0 0 1 -3.31-5.94 6.857 6.857 0 0 1 .36-2.17 16 16 0 1 0 0 24.34 6.857 6.857 0 0 1 -.36-2.17 7.041 7.041 0 0 1 3.31-5.94zm-7.31-17.06a3 3 0 1 1 -3 3 3 3 0 0 1 3-3zm-12 0a3 3 0 1 1 -3 3 3 3 0 0 1 3-3zm-8 13a3 3 0 1 1 3 3 3 3 0 0 1 -3-3zm8 13a3 3 0 1 1 3-3 3 3 0 0 1 -3 3zm0-13a6 6 0 1 1 6 6 6.006 6.006 0 0 1 -6-6zm12 13a3 3 0 1 1 3-3 3 3 0 0 1 -3 3z"/><circle cx="26" cy="22" r="1"/><path d="m60 32c0 12.77-4.41 23.59-9.7 23.99l-6.3-4.5v-9.16l.01-.01c-.01-.11-.01-.21-.01-.32a5.017 5.017 0 0 1 3.26-4.68 1.008 1.008 0 0 0 .63-.74.98.98 0 0 0 -.3-.93 4.984 4.984 0 0 1 0-7.3.98.98 0 0 0 .3-.93 1.008 1.008 0 0 0 -.63-.74 4.984 4.984 0 0 1 -3.2-3.94 4.524 4.524 0 0 1 -.06-.74v-9.49l6.3-4.5c5.29.4 9.7 11.22 9.7 23.99z"/><circle cx="21" cy="32" r="1"/><path d="m32.43 9.01a23.15 23.15 0 0 1 9.79 2.38.636.636 0 0 1 .2-.2l4.24-3.03a27.715 27.715 0 0 0 -14.17-4.14l-.61.8a3.025 3.025 0 0 0 .28 3.93z"/><circle cx="43" cy="32" r="1"/><circle cx="38" cy="22" r="1"/><path d="m31.58 54.99a22.834 22.834 0 0 1 -9.27-2.14 5 5 0 0 1 -2.54 4.33 27.871 27.871 0 0 0 11.74 2.81l.61-.81a3.025 3.025 0 0 0 -.28-3.93z"/><path d="m42.22 52.61a22.824 22.824 0 0 1 -8.18 2.29 5.024 5.024 0 0 1 -.04 5.03 27.762 27.762 0 0 0 12.66-4.09l-4.24-3.03a.636.636 0 0 1 -.2-.2z"/><path d="m20.23 52.06-.09-.36a23.278 23.278 0 0 1 -6.95-6.49 5.016 5.016 0 0 1 -4.31 2.5h-.05a28.242 28.242 0 0 0 8.75 8.28l.94-.4a3 3 0 0 0 1.71-3.53z"/><path d="m20.51 11.78.36.1a22.712 22.712 0 0 1 9.09-2.78 5.029 5.029 0 0 1 .04-5.02 27.891 27.891 0 0 0 -11.57 3.44l-.12 1.01a3.005 3.005 0 0 0 2.2 3.25z"/><path d="m11.94 20.23.36-.09a23.278 23.278 0 0 1 6.49-6.95 5.02 5.02 0 0 1 -2.48-4.37 28.224 28.224 0 0 0 -8.3 8.76l.4.94a3 3 0 0 0 3.53 1.71z"/><path d="m8.75 31.84.26-.26a22.9 22.9 0 0 1 2.13-9.25 5.036 5.036 0 0 1 -4.33-2.55 27.932 27.932 0 0 0 -2.8 11.73l.81.61a3.025 3.025 0 0 0 3.93-.28z"/><path d="m11.78 43.49.1-.36a22.712 22.712 0 0 1 -2.78-9.09 5.1 5.1 0 0 1 -2.48.67 4.924 4.924 0 0 1 -2.54-.71 27.846 27.846 0 0 0 3.44 11.57l1.01.12a3.022 3.022 0 0 0 3.25-2.2z"/></g></svg>