<?xml version="1.0" encoding="utf-8"?>
<!-- Generator: Adobe Illustrator 23.1.0, SVG Export Plug-In . SVG Version: 6.00 Build 0)  -->
<svg version="1.1" id="Слой_1" xmlns="http://www.w3.org/2000/svg" xmlns:xlink="http://www.w3.org/1999/xlink" x="0px" y="0px"
	 viewBox="0 0 300 300" style="enable-background:new 0 0 300 300;" xml:space="preserve">
<g transform="translate(0.000000,300.000000) scale(0.100000,-0.100000)">
	<path d="M861.3,2672.3c-389.1-46.6-683.6-326-726.1-687.7c-6.8-67.1-5.5-80.8,19.2-105.5c30.1-30.1,64.4-35.6,94.5-16.4
		c11,5.5,27.4,61.6,38.4,123.3c47.9,279.5,248,482.2,532.9,542.5c53.4,11,117.8,20.5,145.2,20.5c54.8,0,80.8,20.5,80.8,63
		c0,34.2-47.9,75.3-82.2,72.6C953.1,2683.2,906.5,2677.8,861.3,2672.3z"/>
	<path d="M1966.9,2664.1c-32.9-23.3-39.7-72.6-13.7-98.6c9.6-9.6,38.4-16.4,65.8-16.4c84.9,0,231.5-38.4,323.3-83.6
		c189.1-93.2,315.1-267.1,353.4-485c17.8-102.7,34.2-130.1,78.1-130.1c52.1,0,72.6,35.6,69.9,117.8
		c-4.1,108.2-23.3,172.6-82.2,284.9c-124.7,237-374,390.4-687.7,424.7C2016.2,2683.2,1988.8,2680.5,1966.9,2664.1z"/>
	<path d="M809.3,2384.6c-220.6-69.9-393.2-279.5-393.2-476.7c0-75.3,16.4-98.6,69.9-98.6c47.9,0,80.8,45.2,80.8,109.6
		c0,27.4,16.4,80.8,35.6,120.6c65.8,131.5,200,219.2,375.4,242.5c41.1,5.5,83.6,16.4,93.2,23.3c20.5,17.8,21.9,68.5,0,90.4
		C1046.3,2420.2,899.7,2414.7,809.3,2384.6z"/>
	<path d="M1912.1,2395.5c-21.9-21.9-20.5-72.6,1.4-90.4c8.2-6.8,50.7-17.8,91.8-23.3c221.9-30.1,383.6-167.1,405.5-343.9
		c11-89,37-128.8,84.9-128.8c53.4,0,71.2,23.3,71.2,89c0,204.1-174,417.8-393.2,486.3C2075.1,2414.7,1936.7,2420.2,1912.1,2395.5z"
		/>
	<path d="M875,2118.8c-117.8-56.2-198.6-167.1-198.6-272.6c0-57.5,20.5-78.1,78.1-78.1c49.3,0,72.6,28.8,72.6,90.4
		c0,24.7,17.8,54.8,58.9,94.5c47.9,47.9,69.9,60.3,130.1,68.5c83.6,11,111,42.5,86.3,97.3c-12.3,28.8-23.3,32.9-86.3,32.9
		C968.2,2151.7,920.2,2140.7,875,2118.8z"/>
	<path d="M1886,2122.9c-9.6-9.6-17.8-31.5-17.8-47.9c0-41.1,21.9-54.8,102.7-67.1c82.2-11,171.2-89,171.2-149.3
		c0-63,23.3-90.4,76.7-90.4c67.1,0,83.6,41.1,54.8,139.7c-23.3,82.2-89,158.9-171.2,197.3C2039.5,2136.6,1908,2146.2,1886,2122.9z"
		/>
	<path d="M1124.4,1936.6c-5.5-4.1-9.6-41.1-9.6-82.2v-72.6h80.8c94.5,0,115.1-16.4,108.2-91.8l-4.1-52.1l-89-6.8l-89-6.8l-4.1-82.2
		c-2.7-43.8-9.6-87.7-16.4-95.9c-6.8-8.2-75.3-57.5-150.7-109.6l-139.7-95.9l-112.3-6.8l-111-6.8l-6.8-89l-6.8-89l-52.1-4.1
		c-75.3-6.8-91.8,13.7-91.8,109.6v80.8l-78.1-4.1l-79.5-4.1l-4.1-246.6c-5.5-319.2-6.8-311,83.6-305.5l71.2,4.1l4.1,75.3
		c5.5,94.5,20.5,112.3,90.4,106.9l56.2-4.1l4.1-61.6c6.8-124.7,4.1-121.9,121.9-126l105.5-4.1l119.2-154.8
		c65.8-86.3,130.1-164.4,145.2-174c35.6-27.4,648-28.8,724.7-1.4c30.1,9.6,179.5,78.1,334.3,152.1
		c184.9,87.7,304.1,135.6,349.3,142.5l68.5,8.2l6.8,89l6.8,89h68.5h68.5l6.8-89l6.8-89l79.5-4.1l78.1-4.1v378.1v376.7H2793
		c-83.6,0-84.9-2.7-91.8-123.3l-4.1-61.6h-68.5h-68.5l-6.8,89l-6.8,89l-102.7,9.6c-56.2,5.5-198.6,37-315.1,69.9l-212.3,60.3
		l-6.8,53.4l-6.8,53.4l-89,6.8l-89,6.8v68.5v68.5l89,6.8l89,6.8l4.1,67.1c2.7,43.8-1.4,71.2-13.7,78.1
		C1872.3,1947.6,1136.7,1950.3,1124.4,1936.6z"/>
</g>
</svg>
