<svg height="512" viewBox="0 0 64 64" width="512" xmlns="http://www.w3.org/2000/svg"><g id="pistons"><path d="m10.69 44.99-.05.04-.91.75a6 6 0 0 0 8.49 8.49l.73-.89a.374.374 0 0 0 .06-.07l12.826-15.392 13.144 15.392h.01l.09.11c.01.01.02.02.02.03l.68.81a6 6 0 0 0 8.48-8.48l-.82-.69c-.04-.03-.1-.08-.13-.1l-15.991-13.651 1.491-1.789-4.37-4.36-2.607 2.172-2.283-2.172-4.36 4.36 1.8 1.85-16.3 13.58zm39.31 1.01a4 4 0 1 1 -4 4 4 4 0 0 1 4-4zm-36 0a4 4 0 1 1 -4 4 4 4 0 0 1 4-4z"/><path d="m50.48 40.02 4.21 3.51a7.291 7.291 0 0 1 .9.75.435.435 0 0 0 .07.06 8 8 0 0 1 -11.32 11.32.435.435 0 0 0 -.06-.07v-.01a6.407 6.407 0 0 1 -.73-.86l-3.53-4.24a10 10 0 1 0 10.46-10.46z"/><circle cx="50" cy="50" r="2"/><circle cx="14" cy="50" r="2"/><path d="m20.3 30.2a1.014 1.014 0 0 0 1.41 0l.72-.71-2.13-2.11a5 5 0 0 1 7.07-7.08l2.12 2.12.71-.7a1.008 1.008 0 0 0 0-1.42l-9.2-9.19-9.9 9.9zm.709-16.262 1.414 1.414-1.414 1.414-1.409-1.414zm-2.829 2.828 1.414 1.414-1.414 1.414-1.414-1.414zm-1.414 4.243-1.414 1.414-1.414-1.414 1.414-1.409z"/><path d="m25.96 21.72a3 3 0 0 0 -4.24 0 2.956 2.956 0 0 0 -.88 2.12 3.013 3.013 0 0 0 .88 2.13l2.12 2.11 4.24-4.24zm-2.123 3.531-1.414-1.414 1.414-1.414 1.414 1.414z"/><path d="m19.66 55.66a8 8 0 0 1 -11.32-11.32 8.819 8.819 0 0 1 1.01-.84l4.17-3.48a10 10 0 1 0 10.46 10.46l-3.47 4.16a7.654 7.654 0 0 1 -.85 1.02z"/><path d="m9.69 19.6 9.9-9.9-1.41-1.42-9.9 9.9z"/><path d="m55.72 18.18-9.9-9.9-1.41 1.42 9.9 9.9z"/><path d="m51.604 3.405h4.002v14.001h-4.002z" transform="matrix(.707 -.707 .707 .707 8.343 40.952)"/><path d="m34.51 22.42 2.12-2.12a5 5 0 0 1 7.07 7.07l-2.12 2.12.71.71a1.014 1.014 0 0 0 1.41 0l9.2-9.19-9.9-9.9-9.2 9.19a1.008 1.008 0 0 0 0 1.42zm15.553-1.411-1.415 1.414-1.414-1.414 1.414-1.409zm-4.243-4.243 1.414 1.414-1.414 1.414-1.414-1.414zm-2.829-2.828 1.414 1.414-1.414 1.414-1.414-1.414z"/><path d="m42.28 25.96a2.994 2.994 0 0 0 0-4.24 3.056 3.056 0 0 0 -4.24 0l-2.12 2.12 4.25 4.24zm-3.531-2.123 1.414-1.414 1.414 1.414-1.414 1.414z"/><path d="m3.395 8.404h14.001v4.002h-14.001z" transform="matrix(.707 -.707 .707 .707 -4.313 10.398)"/></g></svg>