<?xml version="1.0" encoding="iso-8859-1"?>
<!-- Generator: Adobe Illustrator 19.0.0, SVG Export Plug-In . SVG Version: 6.00 Build 0)  -->
<svg version="1.1" id="Layer_1" xmlns="http://www.w3.org/2000/svg" xmlns:xlink="http://www.w3.org/1999/xlink" x="0px" y="0px"
	 viewBox="0 0 512.002 512.002" style="enable-background:new 0 0 512.002 512.002;" xml:space="preserve">
<g>
	<g>
		<path d="M426.667,230.836v-43.102c0-4.719-3.814-8.533-8.533-8.533h-332.8c-4.719,0-8.533,3.814-8.533,8.533v34.133H8.533
			c-4.719,0-8.533,3.814-8.533,8.533v51.2c0,4.719,3.814,8.533,8.533,8.533H76.8v34.133c0,4.719,3.814,8.533,8.533,8.533h332.8
			c4.719,0,8.533-3.814,8.533-8.533v-41.489c14.114,3.55,33.357,15.565,34.133,41.737c0.145,4.617,3.917,8.286,8.533,8.286h34.133
			c2.295,0,4.489-0.922,6.093-2.56c1.604-1.63,2.483-3.849,2.44-6.144C510.942,269.927,468.412,235.077,426.667,230.836z
			 M128,298.667c-4.71,0-8.533-3.823-8.533-8.533c0-4.71,3.823-8.533,8.533-8.533c4.71,0,8.533,3.823,8.533,8.533
			C136.533,294.845,132.71,298.667,128,298.667z M128,230.401c-4.71,0-8.533-3.823-8.533-8.533c0-4.71,3.823-8.533,8.533-8.533
			c4.71,0,8.533,3.823,8.533,8.533C136.533,226.578,132.71,230.401,128,230.401z M153.6,264.534c-4.71,0-8.533-3.823-8.533-8.533
			c0-4.71,3.823-8.533,8.533-8.533c4.71,0,8.533,3.823,8.533,8.533C162.133,260.711,158.31,264.534,153.6,264.534z M179.2,298.667
			c-4.71,0-8.533-3.823-8.533-8.533c0-4.71,3.823-8.533,8.533-8.533s8.533,3.823,8.533,8.533
			C187.733,294.845,183.91,298.667,179.2,298.667z M179.2,230.401c-4.71,0-8.533-3.823-8.533-8.533c0-4.71,3.823-8.533,8.533-8.533
			s8.533,3.823,8.533,8.533C187.733,226.578,183.91,230.401,179.2,230.401z M204.8,264.534c-4.71,0-8.533-3.823-8.533-8.533
			c0-4.71,3.823-8.533,8.533-8.533s8.533,3.823,8.533,8.533C213.333,260.711,209.51,264.534,204.8,264.534z M230.4,298.667
			c-4.71,0-8.533-3.823-8.533-8.533c0-4.71,3.823-8.533,8.533-8.533c4.71,0,8.533,3.823,8.533,8.533
			C238.933,294.845,235.11,298.667,230.4,298.667z M230.4,230.401c-4.71,0-8.533-3.823-8.533-8.533c0-4.71,3.823-8.533,8.533-8.533
			c4.71,0,8.533,3.823,8.533,8.533C238.933,226.578,235.11,230.401,230.4,230.401z M256,264.534c-4.71,0-8.533-3.823-8.533-8.533
			c0-4.71,3.823-8.533,8.533-8.533s8.533,3.823,8.533,8.533C264.533,260.711,260.71,264.534,256,264.534z M281.6,298.667
			c-4.71,0-8.533-3.823-8.533-8.533c0-4.71,3.823-8.533,8.533-8.533s8.533,3.823,8.533,8.533
			C290.133,294.845,286.31,298.667,281.6,298.667z M281.6,230.401c-4.71,0-8.533-3.823-8.533-8.533c0-4.71,3.823-8.533,8.533-8.533
			s8.533,3.823,8.533,8.533C290.133,226.578,286.31,230.401,281.6,230.401z M307.2,264.534c-4.71,0-8.533-3.823-8.533-8.533
			c0-4.71,3.823-8.533,8.533-8.533s8.533,3.823,8.533,8.533C315.733,260.711,311.91,264.534,307.2,264.534z M332.8,298.667
			c-4.71,0-8.533-3.823-8.533-8.533c0-4.71,3.823-8.533,8.533-8.533c4.71,0,8.533,3.823,8.533,8.533
			C341.333,294.845,337.51,298.667,332.8,298.667z M332.8,230.401c-4.71,0-8.533-3.823-8.533-8.533c0-4.71,3.823-8.533,8.533-8.533
			c4.71,0,8.533,3.823,8.533,8.533C341.333,226.578,337.51,230.401,332.8,230.401z M358.4,264.534c-4.71,0-8.533-3.823-8.533-8.533
			c0-4.71,3.823-8.533,8.533-8.533s8.533,3.823,8.533,8.533C366.933,260.711,363.11,264.534,358.4,264.534z M375.467,298.667
			c-4.71,0-8.533-3.823-8.533-8.533c0-4.71,3.823-8.533,8.533-8.533c4.71,0,8.533,3.823,8.533,8.533
			C384,294.845,380.177,298.667,375.467,298.667z M375.467,230.401c-4.71,0-8.533-3.823-8.533-8.533c0-4.71,3.823-8.533,8.533-8.533
			c4.71,0,8.533,3.823,8.533,8.533C384,226.578,380.177,230.401,375.467,230.401z"/>
	</g>
</g>
<g>
</g>
<g>
</g>
<g>
</g>
<g>
</g>
<g>
</g>
<g>
</g>
<g>
</g>
<g>
</g>
<g>
</g>
<g>
</g>
<g>
</g>
<g>
</g>
<g>
</g>
<g>
</g>
<g>
</g>
</svg>
