<?xml version="1.0" encoding="utf-8"?>
<!-- Generator: Adobe Illustrator 23.1.0, SVG Export Plug-In . SVG Version: 6.00 Build 0)  -->
<svg version="1.1" id="icon" xmlns="http://www.w3.org/2000/svg" xmlns:xlink="http://www.w3.org/1999/xlink" x="0px" y="0px"
	 viewBox="0 0 1200 1200" style="enable-background:new 0 0 1200 1200;" xml:space="preserve">
<g transform="translate(0.000000,1200.000000) scale(0.100000,-0.100000)">
	<path d="M9372.5,10181.9c-108.6-11.4-5578.1-996.2-5703.6-1027c-566.1-141.2-988.5-448.6-1226.9-893.1
		c-53.2-98.2-55.4-100.6-950.2-1057l-897-959.6l-205.4-124.9c-168.1-103-203.2-128.2-195.8-138.7c32.9-45.4,366.1-411.3,373.4-411.3
		c21.3,0,415.1,273.4,407.6,282.2c-3.1,5.7-29.8,38.2-58.5,72.2c-35.2,42.2-50,66.5-43.6,74.6c4.2,5.7,190.5,196.3,412.8,421.8
		l404.4,410.4l281.9,69.8c155.4,38.9,288.4,72.2,295.9,73.8c9.6,3.3,12.7-124.1,12.7-619.7c0-659.6,5.4-755.2,53.2-981.6
		c57.5-271.8,163.8-574.4,279.8-797.5c34-65.7,1042.9-2877.4,1035.4-2886.4c-3.1-4-68.1-27.6-143.6-53.6
		c-76.7-25.9-139.4-49.4-139.4-52.7c0-3.3,91.5-90.9,202.1-195.5c136.3-128.9,208.6-190.6,222.4-190.6
		c24.4,0,937.5,330.2,934.3,337.5c-1,3.3-112.7,82.8-249,176.8l-245.9,171.1l-90.4-31.6l-89.4-31.6l-11.7,29.9
		c-11.7,29.9-657.6,1815.5-954.5,2641.3c-262.8,729.3-286.3,805.6-332,1070.9c-17.1,103-19.2,169.5-16,697.6
		c2.1,321.2,7.5,640.1,10.6,709l7.5,125.8l2285.6,560.6l2285.6,561.3l236.3-19.5c129.8-11.4,238.4-21.9,239.4-22.8
		c2.1-1.6,49-90.9,103.2-198.7c54.2-108,101.1-197.9,104.2-199.6c4.2-3.3,366.1,172.8,394.8,192.3c4.2,3.3-4.2,36.5-20.2,73.1
		l-29.8,67.4l47.9,33.2c26.7,17.8,460.7,326.1,965.2,685.5c504.4,359.4,920.4,652.2,924.7,652.2c16-3.3,200-429.9,306.5-713
		c208.6-552.5,316.1-1009.2,355.5-1508.8c10.6-131.5,180.9-2650.2,180.9-2670.5c0-4.9-90.4-51.1-202.1-103
		c-110.7-52.7-202.1-98.2-202.1-101.4c0-5.7,509.7-195.5,524.7-195.5c19.2,0,561.8,302.6,553.4,308.3c-4.2,3.3-88.3,32.5-186.3,64.8
		c-99,32.5-178.8,60.8-178.8,64.1c0,23.5-70.2,1242-90.4,1582.7c-75.6,1238.7-112.7,1581-213.8,1983.5
		c-38.3,149.3-57.5,203.6-170.2,482.7c-230.9,566.3-453.2,1076.4-499.1,1143.8c-163.8,243.3-489.5,374.8-915.2,372.4
		C9489.6,10188.5,9407.7,10185.2,9372.5,10181.9z M9806.7,9885c72.3-13.8,197.9-60.8,224.6-83.5c16-13.8-20.2-43-566.1-451.9
		c-320.3-240.2-607.6-455-637.4-476.1l-53.2-38.9l-796-189.9l-796-189.9l-1743,154.1c-958.7,84.3-1749.3,153.3-1756.8,154.1
		c-7.5,0,20.2,10.5,61.7,23.5c125.6,38.9,5575.8,1086.2,5781.3,1111.3C9602.3,9907,9723.6,9901.3,9806.7,9885z M4890.4,8420.7
		c870.4-73.1,1577-134.6,1569.5-136.3c-56.4-16.2-3696.7-881.8-3699.9-880.1c-2.1,1.6,2.1,103.8,8.5,227.9
		c18.1,318.8,42.5,421,138.4,575.1c69.2,109.5,145.8,194.7,255.4,281.5c76.7,60.8,94.6,71.4,118.1,68.1
		C3295.4,8554.6,4020.1,8493.8,4890.4,8420.7z"/>
</g>
</svg>
