<?xml version="1.0" encoding="utf-8"?>
<!-- Generator: Adobe Illustrator 21.1.0, SVG Export Plug-In . SVG Version: 6.00 Build 0)  -->
<svg version="1.1" id="icons" xmlns="http://www.w3.org/2000/svg" xmlns:xlink="http://www.w3.org/1999/xlink" x="0px" y="0px"
	 viewBox="0 0 512 512" style="enable-background:new 0 0 512 512;" xml:space="preserve">
<g>
	<g>
		<path d="M376.2,297.6c0-0.1,0-0.3-0.1-0.4c0-0.1,0-0.3-0.1-0.4c0-0.3,0-0.5,0-0.8c0-0.2,0-0.4,0-0.5c0,0.2,0,0.4,0,0.5
			c0,0.4,0,0.8,0.1,1.2C376.1,297.3,376.2,297.5,376.2,297.6z"/>
		<path d="M377,299.8c-0.1-0.2-0.2-0.4-0.3-0.5c0,0,0,0,0-0.1C376.8,299.4,376.9,299.6,377,299.8z"/>
	</g>
	<g>
		<path d="M504,144h-24c-4.4,0-8,3.6-8,8s-3.6,8-8,8H48c-4.4,0-8-3.6-8-8s-3.6-8-8-8H8c-4.4,0-8,3.6-8,8v144c0,0.1,0,0.3,0,0.4
			c0.2,23.9,17.9,43.6,40.9,47.1c3.3,13.9,15.8,24.3,30.7,24.5c0.1,0,0.3,0,0.4,0h368c0.1,0,0.3,0,0.4,0
			c14.9-0.2,27.4-10.6,30.7-24.5c23-3.4,40.7-23.2,40.9-47.1c0-0.1,0-0.3,0-0.4V152C512,147.6,508.4,144,504,144z M144,248h224
			c4.4,0,8,3.6,8,8c0,0.1,0,0.3,0,0.4c-0.2,26.2-21.4,47.4-47.6,47.6c-0.1,0-0.3,0-0.4,0H184c-0.1,0-0.3,0-0.4,0
			c-26.2-0.2-47.4-21.4-47.6-47.6c0-0.1,0-0.3,0-0.4C136,251.6,139.6,248,144,248z M32,256c0-1,0.2-1.9,0.5-2.8
			c0.1-0.2,0.2-0.5,0.3-0.7c0.4-0.8,0.9-1.5,1.6-2.2c0.1-0.1,0.2-0.2,0.3-0.3c0.1-0.1,0.2-0.2,0.3-0.3c0.2-0.2,0.4-0.3,0.6-0.5
			c0.2-0.2,0.4-0.3,0.7-0.4c0.3-0.2,0.7-0.3,1.1-0.5c0.4-0.1,0.8-0.3,1.2-0.3c0.1,0,0.1,0,0.2,0c0.2,0,0.4-0.1,0.7-0.1
			c0,0,0.1,0,0.1,0c0.2,0,0.4,0,0.6,0h48c0.2,0,0.4,0,0.5,0c26.1,0.3,47.3,21.5,47.5,47.6c0,0.1,0,0.3,0,0.4c0,0.8-0.1,1.6-0.4,2.4
			c-0.1,0.3-0.2,0.5-0.3,0.7c0,0.1-0.1,0.2-0.2,0.4c-0.2,0.5-0.5,0.9-0.8,1.3c-0.2,0.3-0.5,0.6-0.8,0.9c-1.4,1.5-3.4,2.3-5.7,2.3H80
			c-0.1,0-0.3,0-0.4,0c-26.1-0.2-47.4-21.4-47.6-47.6C32,256.3,32,256.1,32,256z M440,352H72c-5.9,0-11.1-3.2-13.8-8h395.7
			C451.1,348.8,445.9,352,440,352z M480,256.4c-0.2,26.2-21.4,47.4-47.6,47.6c-0.1,0-0.3,0-0.4,0h-48c-2.2,0-4.2-0.9-5.7-2.3
			c-0.3-0.3-0.6-0.7-0.9-1.1c0,0-0.1-0.1-0.1-0.2c-0.1-0.2-0.2-0.4-0.4-0.6v0c-0.1-0.2-0.2-0.4-0.3-0.5c0,0,0,0,0-0.1
			c0,0,0-0.1,0-0.1c-0.1-0.2-0.2-0.5-0.3-0.7c0-0.1,0-0.1-0.1-0.2c0-0.2-0.1-0.4-0.1-0.6v0c0-0.1,0-0.3-0.1-0.4c0-0.1,0-0.3-0.1-0.4
			c0-0.3,0-0.5,0-0.8c0-0.2,0-0.4,0-0.5c0.3-26,21.4-47.2,47.5-47.5c0.2,0,0.4,0,0.5,0h48c0.2,0,0.4,0,0.6,0c0,0,0.1,0,0.1,0
			c0.1,0,0.1,0,0.2,0c0.1,0,0.2,0,0.3,0c0,0,0.1,0,0.1,0s0.1,0,0.1,0c0.1,0,0.1,0,0.2,0c0.2,0,0.3,0.1,0.5,0.1
			c0.2,0.1,0.4,0.1,0.7,0.2c0.4,0.1,0.7,0.3,1.1,0.5c0.2,0.1,0.4,0.3,0.7,0.4c0.2,0.1,0.4,0.3,0.6,0.5c0.1,0.1,0.2,0.2,0.3,0.3
			c0.1,0.1,0.2,0.2,0.3,0.3c0.6,0.6,1.2,1.4,1.5,2.2c0.1,0.2,0.2,0.5,0.3,0.7c0.3,0.9,0.5,1.8,0.5,2.8
			C480,256.1,480,256.3,480,256.4z"/>
	</g>
</g>
</svg>
