<svg height="464pt" viewBox="0 -128 464 464" width="464pt" xmlns="http://www.w3.org/2000/svg"><path d="m417.152344 96h-49.152344v32.054688h42.183594zm0 0"/><path d="m406.609375 144.496094.09375-.441406h-38.703125v31.90625c18.480469-.226563 34.671875-13.367188 38.609375-31.464844zm0 0"/><path d="m112 144.054688h48v31.945312h-48zm0 0"/><path d="m112 48h48v32h-48zm0 0"/><path d="m112 96h48v32.054688h-48zm0 0"/><path d="m53.824219 128.054688h42.175781v-32.054688h-49.144531zm0 0"/><path d="m176 144.054688h48v31.945312h-48zm0 0"/><path d="m427.585938 48h-59.585938v32h52.632812zm0 0"/><path d="m57.398438 144.496094c3.929687 18.097656 20.121093 31.238281 38.601562 31.464844v-31.90625h-38.695312zm0 0"/><path d="m43.375 80h52.625v-32h-59.585938zm0 0"/><path d="m304 96h48v32.054688h-48zm0 0"/><path d="m304 48h48v32h-48zm0 0"/><path d="m240 64v16h48v-32h-20.6875l-16 16zm0 0"/><path d="m304 144.054688h48v31.945312h-48zm0 0"/><path d="m176 96h48v32.054688h-48zm0 0"/><path d="m450.328125 16h-173.640625l-16-16h-57.375l-16 16h-173.640625c-7.535156 0-13.671875 6.136719-13.671875 13.671875 0 .984375.105469 1.960937.3125 2.894531l25.816406 118.722656c7.144532 32.855469 36.726563 56.710938 70.351563 56.710938h271.039062c33.625 0 63.207031-23.847656 70.351563-56.703125l25.816406-118.730469c.207031-.933594.3125-1.910156.3125-2.894531 0-7.535156-6.136719-13.671875-13.671875-13.671875zm-28.082031 131.902344c-5.558594 25.554687-28.574219 44.105468-54.726563 44.105468h-271.039062c-26.160157 0-49.167969-18.542968-54.71875-44.113281l-25.203125-115.886719h186.761718l16 16h25.375l16-16h186.761719zm0 0"/><path d="m196.6875 48h-20.6875v32h48v-16h-11.3125zm0 0"/><path d="m240 96h48v32.054688h-48zm0 0"/><path d="m240 144.054688h48v31.945312h-48zm0 0"/></svg>