<svg height="464pt" viewBox="0 -72 464 464" width="464pt" xmlns="http://www.w3.org/2000/svg"><path d="m0 0v45.574219c26.167969 53.011719 40 112.203125 40 171.320312v33.839844l53.457031 29.707031-43.234375-266.625c-26.789062-5.839844-43.726562-11.457031-50.222656-13.816406zm0 0"/><path d="m208 318.214844c5.207031.519531 10.566406.832031 16 1.015625v-287.871094c-5.382812-.039063-10.800781-.070313-16-.183594zm0 0"/><path d="m111.265625 290.238281c9.757813 4.984375 40.398437 19.3125 80.734375 25.867188v-285.464844c-51.910156-1.96875-93.679688-7.472656-125.015625-13.417969zm.734375-250.789062v16h-16v-16zm0 0"/><path d="m240 319.230469c5.433594-.183594 10.792969-.496094 16-1.007813v-287.046875c-5.199219.113281-10.617188.144531-16 .183594zm0 0"/><path d="m272 30.640625v285.472656c40.472656-6.554687 71.078125-20.914062 80.734375-25.867187l44.273437-273.015625c-31.328124 5.9375-73.097656 11.449219-125.007812 13.410156zm80 24.808594v-16h16v16zm0 0"/><path d="m413.777344 13.816406-43.242188 266.625 53.464844-29.707031v-33.839844c0-59.117187 13.832031-118.308593 40-171.320312v-45.574219c-6.496094 2.359375-23.433594 7.976562-50.222656 13.816406zm0 0"/></svg>