<svg height="512pt" viewBox="0 -91 512 512" width="512pt" xmlns="http://www.w3.org/2000/svg"><path d="m271 225c0 8.277344 6.722656 15 15 15s15-6.722656 15-15-6.722656-15-15-15-15 6.722656-15 15zm0 0"/><path d="m75 240c24.402344 0 46.910156-11.894531 60.617188-30h16.972656c4.320312-36.390625 23.433594-68.210938 51.652344-90h-68.625c-13.707032-18.105469-36.214844-30-60.617188-30-41.351562 0-75 33.648438-75 75s33.648438 75 75 75zm0 0"/><path d="m497 330c8.289062 0 15-6.710938 15-15v-300c0-8.289062-6.710938-15-15-15s-15 6.710938-15 15v23.84375l-4.199219 4.054688c-49.800781 49.800781-116.800781 77.101562-187 77.101562-60 0-109.199219 46.800781-109.800781 104.097656-.523438 57.308594 45.925781 105.902344 105 105.902344 46.570312 0 85.148438-29.203125 98.699219-68.699219-18.898438-7.5-38.699219-12.601562-59.097657-15.601562-7.203124 14.398437-22.203124 24.300781-39.601562 24.300781-24.902344 0-45-20.101562-45-45 0-24.902344 20.097656-45 45-45 21.898438 0 39.902344 15.300781 44.097656 36v.296875c57.351563 7.484375 106.964844 29.765625 151.300782 74.101563l.601562.601562v24c0 8.289062 6.710938 15 15 15zm0 0"/></svg>