<?xml version="1.0" encoding="utf-8"?>
<!-- Generator: Adobe Illustrator 23.1.0, SVG Export Plug-In . SVG Version: 6.00 Build 0)  -->
<svg version="1.1" id="icons" xmlns="http://www.w3.org/2000/svg" xmlns:xlink="http://www.w3.org/1999/xlink" x="0px" y="0px"
	 viewBox="0 0 512 512" style="enable-background:new 0 0 512 512;" xml:space="preserve">
<g>
	<g>
		<path d="M184,380C82.5,380,0,297.5,0,196c0-4.4,3.6-8,8-8s8,3.6,8,8c0,92.6,75.4,168,168,168c4.4,0,8,3.6,8,8S188.4,380,184,380z"
			/>
	</g>
	<g>
		<path d="M392,380c-4.4,0-8-3.6-8-8s3.6-8,8-8c57.3,0,104-46.7,104-104c0-4.4,3.6-8,8-8s8,3.6,8,8C512,326.2,458.2,380,392,380z"/>
	</g>
	<g>
		<path d="M8,204c-4.4,0-8-3.6-8-8c0-13.2,10.8-24,24-24c4.4,0,8,3.6,8,8s-3.6,8-8,8c-4.4,0-8,3.6-8,8C16,200.4,12.4,204,8,204z"/>
	</g>
	<g>
		<path d="M488,188H24c-4.4,0-8-3.6-8-8s3.6-8,8-8h464c4.4,0,8,3.6,8,8S492.4,188,488,188z"/>
	</g>
	<g>
		<path d="M504,204c-4.4,0-8-3.6-8-8c0-4.4-3.6-8-8-8c-4.4,0-8-3.6-8-8s3.6-8,8-8c13.2,0,24,10.8,24,24C512,200.4,508.4,204,504,204
			z"/>
	</g>
	<g>
		<path d="M8,164c-4.4,0-8-3.6-8-8c0-13.2,10.8-24,24-24c4.4,0,8,3.6,8,8s-3.6,8-8,8c-4.4,0-8,3.6-8,8C16,160.4,12.4,164,8,164z"/>
	</g>
	<g>
		<path d="M488,148H24c-4.4,0-8-3.6-8-8s3.6-8,8-8h464c4.4,0,8,3.6,8,8S492.4,148,488,148z"/>
	</g>
	<g>
		<path d="M504,164c-4.4,0-8-3.6-8-8c0-4.4-3.6-8-8-8c-4.4,0-8-3.6-8-8s3.6-8,8-8c13.2,0,24,10.8,24,24C512,160.4,508.4,164,504,164
			z"/>
	</g>
	<g>
		<path d="M504,268c-4.4,0-8-3.6-8-8V156c0-4.4,3.6-8,8-8s8,3.6,8,8v104C512,264.4,508.4,268,504,268z"/>
	</g>
	<g>
		<path d="M392,380H184c-4.4,0-8-3.6-8-8s3.6-8,8-8h208c4.4,0,8,3.6,8,8S396.4,380,392,380z"/>
	</g>
	<g>
		<path d="M392,356H184c-85,0-155.1-66.6-159.6-151.6c-0.1-2.2,0.7-4.3,2.2-5.9c1.5-1.6,3.6-2.5,5.8-2.5H480c4.4,0,8,3.6,8,8v56
			C488,312.9,444.9,356,392,356z M41.1,212c8,72.4,69.2,128,142.9,128h208c44.1,0,80-35.9,80-80v-48H41.1z"/>
	</g>
	<g>
		<path d="M199.9,356c-44.1,0-80-35.9-80-80s35.9-80,80-80s80,35.9,80,80S244.1,356,199.9,356z M199.9,212c-35.3,0-64,28.7-64,64
			s28.7,64,64,64s64-28.7,64-64S235.2,212,199.9,212z"/>
	</g>
	<g>
		<path d="M199.9,332c-30.9,0-56-25.1-56-56s25.1-56,56-56s56,25.1,56,56S230.8,332,199.9,332z M199.9,236c-22.1,0-40,17.9-40,40
			s17.9,40,40,40s40-17.9,40-40S222,236,199.9,236z"/>
	</g>
	<g>
		<path d="M360,356c-44.1,0-80-35.9-80-80s35.9-80,80-80s80,35.9,80,80S404.1,356,360,356z M360,212c-35.3,0-64,28.7-64,64
			s28.7,64,64,64s64-28.7,64-64S395.3,212,360,212z"/>
	</g>
	<g>
		<path d="M360,332c-30.9,0-56-25.1-56-56s25.1-56,56-56s56,25.1,56,56S390.9,332,360,332z M360,236c-22.1,0-40,17.9-40,40
			s17.9,40,40,40s40-17.9,40-40S382.1,236,360,236z"/>
	</g>
	<g>
		<path d="M8,204c-4.4,0-8-3.6-8-8v-40c0-4.4,3.6-8,8-8s8,3.6,8,8v40C16,200.4,12.4,204,8,204z"/>
	</g>
	<g>
		<path d="M495.6,176H8.4c-4.6,0-8.4-8-8.4-18s3.8-18,8.4-18h487.2c4.6,0,8.4,8,8.4,18S500.2,176,495.6,176z"/>
	</g>
</g>
</svg>
