<?xml version="1.0" encoding="utf-8"?>
<!-- Generator: Adobe Illustrator 21.1.0, SVG Export Plug-In . SVG Version: 6.00 Build 0)  -->
<svg version="1.1" id="icon" xmlns="http://www.w3.org/2000/svg" xmlns:xlink="http://www.w3.org/1999/xlink" x="0px" y="0px"
	 viewBox="0 0 1000 1000" style="enable-background:new 0 0 1000 1000;" xml:space="preserve">
<g>
	<g transform="translate(0.000000,511.000000) scale(0.100000,-0.100000)">
		<path d="M8912,3427.5c0,80.1-50.8,140.8-133,156.5c-58.7,11.7-74.3,1.9-258.2-180l-197.5-191.7l-111.6,111.5l-111.3,111.6
			l185.8,185.8c164.3,166.3,183.9,191.7,183.9,256.2c0,86.1-60.7,144.8-152.6,144.8c-50.8,0-90-29.3-244.5-183.9l-183.8-185.8
			l-88,78.3c-168.2,146.7,166.2,451.9-3352.8-3069.1c-3521-3519.1-3215.9-3184.6-3069.2-3352.8l78.2-88L1271.7-2963
			c-154.6-154.6-183.9-193.7-183.9-244.5c0-91.9,58.7-152.6,144.7-152.6c64.6,0,90,19.5,256.3,183.9l185.8,185.7l111.5-111.4
			l111.5-111.6L1705.9-3411c-181.9-183.9-191.7-199.5-180-258.2c15.7-82.1,76.3-133,156.5-133c50.9,0,90,29.3,244.5,183.9
			l183.9,185.8l88-78.3c168.2-146.7-166.3-451.9,3352.7,3069.1c3521,3519.1,3215.8,3184.5,3069.1,3352.8l-78.2,87.9l185.7,183.9
			C8882.7,3337.4,8912,3376.5,8912,3427.5z M2451.2-3092.1l-111.5-113.5l-655.3,655.3l107.6,107.6
			c58.7,58.7,111.5,107.6,117.3,107.6c5.9,0,154.5-144.8,332.6-322.7l322.8-322.8L2451.2-3092.1z M4845,325.8l-128.1,126.5
			l2369.9,2399.9l128-126.5L4845,325.8z M8202.2,2658.8l-111.6-113.4l-326.7,326.7l-328.5,328.5l107.5,107.7
			c58.7,58.6,111.5,107.5,117.4,107.5c5.8,0,154.5-144.7,332.5-322.8l322.8-322.7L8202.2,2658.8z"/>
		<path d="M4679.2,3100.8c-35.2-27.4-50.9-58.7-50.9-101.7c0-35.2,52.9-223,119.3-420.5c107.6-324.7,125.2-359.9,178-387.3
			c33.2-17.6,80.2-25.4,105.6-19.6c60.7,15.6,125.2,86.1,125.2,136.9c0,80.2-238.6,757.1-279.7,796.2
			C4823.9,3153.7,4743.7,3151.8,4679.2,3100.8z"/>
		<path d="M3167.1,2017.2c-76.2-33.3-109.5-117.4-74.3-197.6c13.7-31.3,134.9-164.3,268-295.4c209.3-207.3,252.3-240.6,307.1-240.6
			c84.2,0,158.5,74.3,158.5,158.5c0,54.8-33.3,97.8-248.5,313c-134.9,138.9-269.9,258.2-299.2,267.9
			C3243.4,2036.8,3208.2,2034.8,3167.1,2017.2z"/>
		<path d="M2009.1,430.8c-50.9-64.5-52.9-144.8-3.9-197.6c39-41,715.9-279.7,796.1-279.7c50.9,0,121.3,64.5,136.9,125.2
			c5.8,25.4-2,72.3-19.6,105.6c-27.4,52.9-62.6,70.4-387.3,178c-197.5,66.5-385.3,119.3-420.5,119.3
			C2067.8,481.7,2036.5,466,2009.1,430.8z"/>
		<path d="M7130.2,246.9c-17.6-9.8-43-45-56.8-78.2c-29.3-72.3,0-158.4,64.5-193.7c91.9-46.9,690.5-236.6,749.1-236.6
			c121.3,0,189.8,160.4,107.5,248.5c-39.1,41-717.8,279.7-794.2,279.7C7179.1,266.5,7147.8,256.7,7130.2,246.9z"/>
		<path d="M6222.5-1112.5c-31.3-29.3-48.9-68.5-48.9-109.5c0-54.8,33.3-97.8,240.6-307.1c131.1-133,264-254.3,295.4-268
			c121.3-52.9,248.4,62.6,203.4,185.9c-9.7,29.3-129.1,164.3-268,299.2c-215.2,215.2-258.2,248.5-313,248.5
			C6291-1063.7,6251.9-1081.3,6222.5-1112.5z"/>
		<path d="M4917.8-1975.2c-95.8-50.9-91.9-101.7,41.1-502.8c76.3-228.9,138.9-381.4,164.3-404.9c88-82.2,248.5-15.6,248.5,103.6
			c0,35.2-52.9,223-119.3,420.5c-105.6,316.9-125.2,359.9-174.1,385.4C5007.8-1938.1,4984.3-1938.1,4917.8-1975.2z"/>
	</g>
</g>
</svg>
