<svg height="512" viewBox="0 0 43 58" width="512" xmlns="http://www.w3.org/2000/svg"><g id="Page-1" fill="none" fill-rule="evenodd"><g id="011---Spray-Can" fill="rgb(0,0,0)" fill-rule="nonzero"><circle id="Oval" cx="38" cy="3" r="1"/><circle id="Oval" cx="42" cy="1" r="1"/><circle id="Oval" cx="42" cy="5" r="1"/><circle id="Oval" cx="42" cy="9" r="1"/><circle id="Oval" cx="42" cy="13" r="1"/><circle id="Oval" cx="42" cy="17" r="1"/><circle id="Oval" cx="38" cy="7" r="1"/><circle id="Oval" cx="38" cy="11" r="1"/><circle id="Oval" cx="38" cy="15" r="1"/><path id="Shape" d="m3.055 23h25.89c-.5149391-4.5525856-4.3633882-7.9944629-8.945-8h-8c-4.58161183.0055371-8.43006091 3.4474144-8.945 8z"/><path id="Shape" d="m5 58h22c1.6568542 0 3-1.3431458 3-3v-26h-28v26c0 1.6568542 1.34314575 3 3 3zm0-22c0-1.6568542 1.34314575-3 3-3h16c1.6568542 0 3 1.3431458 3 3v8c0 .5522847-.4477153 1-1 1s-1-.4477153-1-1v-8c0-.5522847-.4477153-1-1-1h-16c-.55228475 0-1 .4477153-1 1v15c0 .5522847.44771525 1 1 1h16c.5522847 0 1-.4477153 1-1s.4477153-1 1-1 1 .4477153 1 1c0 1.6568542-1.3431458 3-3 3h-16c-1.65685425 0-3-1.3431458-3-3z"/><path id="Shape" d="m18 8h1v-2c0-.55228475-.4477153-1-1-1h-4c-.5522847 0-1 .44771525-1 1v7h6v-3h-1c-.5522847 0-1-.44771525-1-1s.4477153-1 1-1z"/><path id="Shape" d="m32 26c0-.5522847-.4477153-1-1-1h-30c-.55228475 0-1 .4477153-1 1s.44771525 1 1 1h30c.5522847 0 1-.4477153 1-1z"/><circle id="Oval" cx="26" cy="9" r="1"/><circle id="Oval" cx="30" cy="7" r="1"/><circle id="Oval" cx="30" cy="11" r="1"/><circle id="Oval" cx="34" cy="5" r="1"/><circle id="Oval" cx="34" cy="9" r="1"/><circle id="Oval" cx="34" cy="13" r="1"/></g></g></svg>