<?xml version="1.0" encoding="iso-8859-1"?>
<!-- Generator: Adobe Illustrator 19.0.0, SVG Export Plug-In . SVG Version: 6.00 Build 0)  -->
<svg version="1.1" id="Layer_1" xmlns="http://www.w3.org/2000/svg" xmlns:xlink="http://www.w3.org/1999/xlink" x="0px" y="0px"
	 viewBox="0 0 512.001 512.001" style="enable-background:new 0 0 512.001 512.001;" xml:space="preserve">
<g>
	<g>
		<polygon points="108.991,239.433 103.476,259.323 114.257,259.323 		"/>
	</g>
</g>
<g>
	<g>
		<path d="M171.833,258.153h-13.456v9.945h12.87c2.675,0,4.764-1.754,4.764-4.847C176.011,260.326,174.256,258.153,171.833,258.153z
			"/>
	</g>
</g>
<g>
	<g>
		<path d="M169.994,236.342h-11.617v9.109h11.115c2.173-0.001,4.43-0.92,4.43-4.597
			C173.922,237.595,172.083,236.342,169.994,236.342z"/>
	</g>
</g>
<g>
	<g>
		<path d="M0,342.261v2.477c0,24.943,20.292,45.235,45.235,45.235h421.531c24.942,0,45.235-20.292,45.235-45.235v-2.477H0z"/>
	</g>
</g>
<g>
	<g>
		<path d="M0,203.131V308.87h512V203.131H0z M120.441,281.804l-3.593-11.617h-15.796l-3.511,11.617H80.243l22.146-59.336h13.205
			l22.064,59.336H120.441z M171.247,281.804H142.08v-59.336h34.432c8.358,0,13.539,7.689,13.539,15.21
			c0,5.515-2.842,11.198-8.525,13.706c6.77,2.006,11.031,6.936,11.031,15.21C192.558,277.291,182.947,281.804,171.247,281.804z
			 M224.56,282.306c-16.548,0-28.164-15.461-28.164-30.671c0.001-14.458,10.615-29.501,28.666-29.501
			c10.531,0,18.887,5.182,22.648,12.954l-12.452,8.859c-1.922-5.767-6.853-7.355-10.53-7.355c-8.19,0-11.784,8.106-11.784,15.545
			c0,8.273,4.43,15.712,11.951,15.712c3.761,0,8.44-1.922,10.112-7.27l13.288,7.939C244.952,277.292,234.004,282.306,224.56,282.306
			z M279.63,265.843h-26.159v-14.208h26.159V265.843z M327.932,281.805h-38.694v-14.208h11.867v-30.254
			c-1.839,2.591-9.276,7.187-13.79,7.187V229.99h-0.001c6.017,0,13.623-7.605,13.789-7.939h16.214v45.547h10.614V281.805z
			 M378.654,281.804h-45.715c0-15.378,1.839-22.398,14.542-28.415c6.937-3.259,12.954-6.184,12.954-12.285
			c0.001-4.011-2.59-5.265-5.432-5.265c-4.346,0-9.109,2.925-12.285,6.017l-9.778-10.614c4.43-5.014,13.456-9.444,24.32-9.444
			c13.539,0,21.31,6.853,21.31,19.054c0,9.194-4.345,13.372-11.784,17.717c-4.764,2.758-10.195,5.433-10.195,9.026h22.063V281.804z
			 M404.64,282.556c-8.859,0-15.211-3.009-19.055-9.695l8.106-11.031c0.668,0.669,3.009,6.184,10.614,6.184
			c3.761,0,7.437-1.337,7.437-4.847c0-4.346-5.515-5.683-15.377-5.683h-2.758v-13.121h2.675c7.355,0,13.956-1.421,13.956-5.6
			c0-3.092-3.511-3.175-4.43-3.175c-6.268,0-9.443,3.511-10.948,5.433l-10.029-11.784c4.43-4.93,13.372-7.521,20.894-7.521
			c12.368,0,21.562,7.02,21.562,16.213c0,6.435-4.512,10.864-10.781,12.118c7.27,1.17,11.784,7.856,11.784,15.294
			C428.291,277.792,415.755,282.556,404.64,282.556z"/>
	</g>
</g>
<g>
	<g>
		<path d="M466.765,122.028H45.235C20.292,122.028,0,142.321,0,167.263v2.477h512v-2.477
			C512,142.32,491.708,122.028,466.765,122.028z"/>
	</g>
</g>
<g>
</g>
<g>
</g>
<g>
</g>
<g>
</g>
<g>
</g>
<g>
</g>
<g>
</g>
<g>
</g>
<g>
</g>
<g>
</g>
<g>
</g>
<g>
</g>
<g>
</g>
<g>
</g>
<g>
</g>
</svg>
