<?xml version="1.0" standalone="no"?>
<!DOCTYPE svg PUBLIC "-//W3C//DTD SVG 20010904//EN"
 "http://www.w3.org/TR/2001/REC-SVG-20010904/DTD/svg10.dtd">
<svg version="1.0" xmlns="http://www.w3.org/2000/svg"
 width="512.000000pt" height="512.000000pt" viewBox="0 0 512.000000 512.000000"
 preserveAspectRatio="xMidYMid meet">

<g transform="translate(0.000000,512.000000) scale(0.100000,-0.100000)"
fill="#000000" stroke="none">
<path d="M200 3913 c-60 -8 -60 -9 -60 -204 0 -148 2 -179 14 -179 8 0 50 18
93 40 87 45 183 68 318 78 l90 7 3 38 c4 46 -23 194 -39 213 -9 11 -49 14
-198 12 -102 0 -202 -3 -221 -5z"/>
<path d="M893 3904 c-7 -18 12 -161 28 -212 7 -20 19 -34 32 -37 12 -3 216 -6
452 -7 471 -3 468 -3 505 -63 11 -18 20 -50 20 -71 0 -54 -98 -442 -121 -480
-35 -57 -44 -59 -404 -64 -305 -5 -330 -6 -333 -23 -5 -27 100 -447 115 -463
21 -21 2725 -21 2745 0 16 16 122 435 116 462 -3 18 -21 19 -333 24 -360 5
-369 7 -404 64 -22 36 -122 424 -123 477 -1 48 25 95 65 116 29 16 73 18 462
21 237 1 440 4 452 7 13 3 25 17 31 37 17 54 36 194 29 212 -6 15 -140 16
-1667 16 -1523 0 -1661 -1 -1667 -16z"/>
<path d="M4501 3907 c-18 -22 -42 -146 -39 -201 l3 -51 45 -2 c170 -10 302
-45 382 -103 91 -65 88 -70 88 153 0 137 -3 196 -12 205 -18 18 -451 17 -467
-1z"/>
<path d="M421 3373 c-51 -18 -121 -83 -150 -142 -28 -53 -30 -224 -5 -274 31
-60 76 -108 128 -135 44 -23 62 -27 136 -26 98 0 160 24 220 84 46 46 66 90
86 187 20 96 45 127 116 142 28 7 176 11 347 11 227 0 301 3 308 13 16 22 43
124 37 141 -6 14 -61 16 -593 15 -504 0 -592 -3 -630 -16z"/>
<path d="M3476 3374 c-6 -17 20 -121 36 -141 7 -9 99 -13 336 -15 290 -3 331
-5 359 -21 44 -24 60 -50 73 -127 29 -169 126 -263 282 -276 129 -11 228 44
288 160 26 50 30 69 30 137 0 94 -23 152 -85 214 -84 84 -44 80 -716 83 -541
2 -597 1 -603 -14z"/>
<path d="M4925 2664 c-47 -40 -163 -92 -245 -109 -114 -24 -259 2 -360 64 -28
17 -59 31 -70 31 -21 0 -27 -15 -79 -223 -32 -131 -46 -159 -94 -184 -30 -17
-115 -18 -1522 -18 -1442 0 -1491 1 -1521 19 -45 27 -57 54 -99 226 -21 85
-42 161 -48 168 -15 19 -31 15 -95 -24 -75 -44 -230 -79 -307 -69 -80 11 -192
51 -257 90 -32 20 -65 34 -73 31 -13 -5 -15 -98 -15 -675 l0 -671 26 -17 c29
-19 250 -72 302 -73 41 0 65 36 86 130 9 36 27 97 41 135 15 39 51 156 81 260
68 238 69 240 113 267 l36 23 1730 0 c1647 0 1732 -1 1766 -18 48 -24 61 -51
115 -242 25 -88 63 -212 84 -275 21 -63 43 -137 49 -165 25 -110 40 -123 129
-112 69 9 223 55 252 76 20 14 27 31 33 77 4 32 6 338 5 679 -3 682 0 653 -63
599z"/>
<path d="M952 1777 c-16 -19 -32 -64 -46 -132 -7 -33 -32 -132 -55 -219 -23
-88 -41 -171 -39 -185 l3 -26 481 -3 c448 -2 482 -1 497 15 8 10 41 76 72 147
67 154 83 178 140 211 82 48 146 55 560 55 412 0 467 -6 552 -55 55 -33 71
-56 137 -209 30 -71 63 -137 72 -147 17 -18 38 -19 498 -17 l481 3 -1 40 c0
22 -17 103 -38 180 -21 77 -45 172 -53 210 -16 72 -37 124 -57 137 -6 4 -727
8 -1602 8 -1283 0 -1594 -2 -1602 -13z"/>
<path d="M2244 1324 c-10 -14 -18 -44 -18 -67 l-1 -42 335 0 335 0 3 35 c1 22
-5 47 -18 68 l-20 32 -300 0 -300 0 -16 -26z"/>
</g>
</svg>
