<svg id="Capa_1" enable-background="new 0 0 512 512" height="512" viewBox="0 0 512 512" width="512" xmlns="http://www.w3.org/2000/svg"><g><path d="m226.362 386.851c-.551-.119-1.163-.064-1.71-.19v125.339h60v-125.34c-.535.125-1.13.068-1.668.185-9.084 1.968-18.514 3.155-28.332 3.155-9.776 0-19.184-1.172-28.29-3.149z"/><path d="m149 255c0 42.979 25.752 81.079 65.596 97.09 6.116 2.651 12.594 4.631 19.243 5.945 19.728 3.856 41.409 1.928 59.185-5.784 40.224-16.172 65.976-54.272 65.976-97.251 0-34.834-17.095-66.665-45-86.133v86.133c0 5.01-2.505 9.697-6.68 12.48l-45 30c-5.039 3.369-11.602 3.369-16.641 0l-45-30c-4.175-2.783-6.68-7.471-6.68-12.48v-86.133c-27.904 19.468-44.999 51.299-44.999 86.133z"/><path d="m12.66 343.535 45 77.93c3.237 5.581 9.741 8.525 15.996 7.192l70.181-14.355c9.771 6.929 19.951 12.876 30.366 17.739l21.797 65.376v-122.093c-45.623-22.41-75-68.448-75-120.324 0-54.99 33.091-104.121 84.302-125.171 9.754-4.014 20.698 3.089 20.698 13.872v103.271l30 19.995 30-19.995v-103.271c0-10.864 11.083-17.9 20.698-13.872 51.211 21.05 84.302 70.181 84.302 125.171 0 51.755-29.249 97.7-75 120.302v122.139l21.738-65.385c10.444-4.863 20.625-10.811 30.425-17.754l70.181 14.355c6.255 1.289 12.744-1.597 15.996-7.192l45-77.93c3.223-5.596 2.52-12.627-1.772-17.446l-47.49-53.555c.57-5.771.922-11.601.922-17.534s-.352-11.763-.923-17.534l47.49-53.555c4.292-4.819 4.995-11.851 1.772-17.446l-45-77.93c-3.237-5.581-9.697-8.423-15.996-7.192l-70.181 14.355c-9.771-6.929-19.951-12.876-30.366-17.739l-22.573-67.705c-2.035-6.123-7.763-10.254-14.223-10.254h-90c-6.46 0-12.202 4.131-14.238 10.269l-22.5 67.676c-10.444 4.863-20.625 10.811-30.425 17.754l-70.181-14.356c-6.299-1.289-12.759 1.597-15.996 7.192l-45 77.93c-3.223 5.596-2.52 12.627 1.772 17.446l47.49 53.555c-.57 5.771-.922 11.601-.922 17.534s.352 11.763.923 17.534l-47.49 53.555c-4.292 4.819-4.995 11.85-1.773 17.446z"/></g></svg>