<?xml version="1.0" encoding="iso-8859-1"?>
<!-- Generator: Adobe Illustrator 21.0.0, SVG Export Plug-In . SVG Version: 6.00 Build 0)  -->
<svg xmlns="http://www.w3.org/2000/svg" xmlns:xlink="http://www.w3.org/1999/xlink" version="1.1" id="Capa_1" x="0px" y="0px" viewBox="0 0 512 512" style="enable-background:new 0 0 512 512;" xml:space="preserve" width="512" height="512">
<g>
	<path d="M211,161.145V94.088c-41.893,11.581-77.609,38.991-99.738,76.543l64.806,17.365C185.641,176.76,197.533,167.56,211,161.145   z"/>
	<path d="M256,361c-7.528,0-14.871-0.803-21.954-2.316l-40.742,53.206C213.126,419.846,234.496,424,256,424   c21.617,0,43.092-4.196,63.003-12.233l-40.848-53.126C271.01,360.181,263.6,361,256,361z"/>
	<path d="M88.007,257.574c0.335,36.24,12.224,70.96,33.855,99.579l40.742-53.204c-4.642-9.004-8.017-18.762-9.894-29.038   L88.007,257.574z"/>
	<path d="M256,241c-8.271,0-15,6.729-15,15s6.729,15,15,15c8.271,0,15-6.729,15-15S264.271,241,256,241z"/>
	<path d="M437.019,74.98C388.667,26.629,324.38,0,256,0S123.333,26.629,74.981,74.98C26.629,123.333,0,187.62,0,256   s26.629,132.667,74.981,181.02C123.333,485.371,187.62,512,256,512s132.667-26.629,181.019-74.98   C485.371,388.667,512,324.38,512,256S485.371,123.333,437.019,74.98z M400.778,391.049c-3.006,3.223-7.281,4.969-11.681,4.748   c-4.402-0.21-8.489-2.346-11.176-5.84l-46.718-60.76c-6.985,7.175-14.984,13.356-23.764,18.312l46.723,60.766   c2.686,3.493,3.7,7.989,2.774,12.297c-0.926,4.307-3.699,7.989-7.583,10.069C320.822,445.923,288.542,454,256,454   c-32.409,0-64.571-8.015-93.008-23.177c-3.887-2.073-6.667-5.75-7.602-10.055c-0.935-4.306,0.071-8.804,2.75-12.301l46.603-60.859   c-8.791-4.938-16.801-11.104-23.8-18.264l-46.6,60.854c-2.68,3.5-6.763,5.644-11.165,5.862c-4.397,0.212-8.677-1.51-11.691-4.727   C76.995,354.517,58,306.454,58,256c0-6.333,0.313-12.788,0.929-19.185c0.423-4.391,2.757-8.372,6.381-10.887   c3.625-2.515,8.17-3.307,12.432-2.164l73.995,19.827c1.203-10.172,3.863-19.902,7.77-28.976L85.47,194.778   c-4.259-1.142-7.801-4.1-9.683-8.087c-1.882-3.987-1.914-8.602-0.088-12.615C103.128,113.8,158.403,71.397,223.559,60.652   c4.345-0.715,8.788,0.513,12.146,3.362c3.358,2.851,5.294,7.032,5.294,11.438v76.624c4.901-0.704,9.908-1.076,15-1.076   c5.092,0,10.099,0.372,15,1.076V75.452c0-4.405,1.936-8.587,5.294-11.438c3.359-2.85,7.802-4.078,12.146-3.362   C353.599,71.398,408.874,113.8,436.3,174.077c1.826,4.013,1.794,8.627-0.088,12.614c-1.882,3.988-5.424,6.945-9.683,8.087   l-74.036,19.837c3.907,9.074,6.567,18.805,7.77,28.976l73.994-19.827c4.26-1.14,8.808-0.35,12.433,2.165s5.958,6.496,6.381,10.888   c0.616,6.4,0.928,12.854,0.928,19.183C454,306.314,435.099,354.275,400.778,391.049z"/>
	<path d="M301,94.088v67.057c13.467,6.415,25.36,15.614,34.933,26.85l64.806-17.365C378.611,133.079,342.895,105.669,301,94.088z"/>
	<path d="M349.493,303.768l40.844,53.12c21.505-28.567,33.323-63.188,33.656-99.313l-64.702,17.337   C357.427,285.117,354.086,294.814,349.493,303.768z"/>
	<path d="M256,181c-41.355,0-75,33.645-75,75s33.645,75,75,75c41.355,0,75-33.645,75-75S297.356,181,256,181z M256,301   c-24.813,0-45-20.187-45-45s20.187-45,45-45c24.813,0,45,20.187,45,45S280.813,301,256,301z"/>
</g>















</svg>
