<?xml version="1.0" encoding="utf-8"?>
<!-- Generator: Adobe Illustrator 21.1.0, SVG Export Plug-In . SVG Version: 6.00 Build 0)  -->
<svg version="1.1" id="Capa_1" xmlns="http://www.w3.org/2000/svg" xmlns:xlink="http://www.w3.org/1999/xlink" x="0px" y="0px"
	 viewBox="0 0 99.3 99.3" style="enable-background:new 0 0 99.3 99.3;" xml:space="preserve">
<g>
	<g>
		<path d="M24.8,54.3l-7.6,2.7h12C28.6,55.8,27.4,54.5,24.8,54.3z M70.9,44.4c-5.4-1.9-20.2-1.7-29-1.5c-4.3,0.1-8.6,1-12.6,2.6
			c-4.1,1.6-9.7,3.9-15,6.2c-2.7,1.2-1.8,5.2,1.1,5.2h0l9.1-3.4c2.8-1.1,5.6-2.4,8.2-3.9l0,0c2.9-1.7,6.1-2.6,9.4-2.5
			c6,0,16,0.2,21.9,0.4c1.1,0.1,2,0.6,2.5,1.5c0.5,0.9,0.5,2,0,3c-1.1,2-2.2,3.9-2.8,5h4.4l1.1-2.5c1-2.2,3.6-3.3,5.9-2.5l14.1,5h0
			c3.2,0,4-4.5,1-5.6C82.2,48.5,74,45.5,70.9,44.4z"/>
	</g>
</g>
<path d="M56.8,42.2H41.1v-3.9h4.6c0.9,0,1.9,0.2,2.7,0.5L56.8,42.2z"/>
</svg>
