<?xml version="1.0" encoding="utf-8"?>
<!-- Generator: Adobe Illustrator 21.1.0, SVG Export Plug-In . SVG Version: 6.00 Build 0)  -->
<svg version="1.1" id="Слой_1" xmlns="http://www.w3.org/2000/svg" xmlns:xlink="http://www.w3.org/1999/xlink" x="0px" y="0px"
	 viewBox="0 0 200 200" style="enable-background:new 0 0 200 200;" xml:space="preserve">
<path d="M189.5,133.4v5.1l-10.2,4.4l-5.1,2.2c-1.8,0.5-3.8,0.3-5.5-0.6c-6.3-3.3-14.6-7.8-23.6-12.7c-8.4-4.5-18.9-10.2-29.6-15.8
	c-2.2-1.2-3.2-3.7-2.4-6.1l1.2-3.6L87.5,90.6L28.2,68.2l-4.8-0.1c-9.7-4.3-12.8-6-12.8-6.6c0-0.1,0.1-0.8,0.2-1.4
	c0.2-1,0.3-1.1,2.4-1.5c1.2-0.2,3.2-0.5,4.6-0.7c1.3-0.2,3-0.3,3.8-0.4c1,0,20,6.1,62.5,20C117.4,88.6,120.3,89,120.7,89
	c0.5,0.1,1.2-1.6,4.2-10.2l1.4-3.8c0-0.1,0.1-0.2,0.1-0.3c1.1-2.9,1.7-4.9,2.4-6.3c0.9-1.5,2-2.1,4.5-2c0.3,0,0.6,0,0.9,0
	c0.2,0,0.3,0,0.5,0.1c0.3,0,0.7,0.1,1,0.1c0.1,0,0.2,0,0.3,0.1c3.3,0.5,8.9,1.7,19.4,4c11.6,2.5,21.1,4.6,21.1,4.6
	c0,0,0.2,0.4,0.4,0.7c0.3,0.4,0.7,9.2,1.5,35.3c0.2,6.6,0.4,12.7,0.6,18L189.5,133.4z"/>
</svg>
