<?xml version="1.0" encoding="utf-8"?>
<!-- Generator: Adobe Illustrator 21.1.0, SVG Export Plug-In . SVG Version: 6.00 Build 0)  -->
<svg version="1.1" id="Capa_1" xmlns="http://www.w3.org/2000/svg" xmlns:xlink="http://www.w3.org/1999/xlink" x="0px" y="0px"
	 viewBox="0 0 368 368" style="enable-background:new 0 0 368 368;" xml:space="preserve">
<path class="st0" d="M364.8,145.6l-64-48c-1.4-1-3.1-1.6-4.8-1.6H72c-1.7,0-3.4,0.6-4.8,1.6l-64,48c-2,1.5-3.2,3.9-3.2,6.4v80
	c0,3,1.7,5.8,4.4,7.2c2.7,1.3,6,1.1,8.4-0.8L64,200v56c0,8.8,7.2,16,16,16h32c8.8,0,16-7.2,16-16v-64h112v64c0,8.8,7.2,16,16,16h32
	c8.8,0,16-7.2,16-16v-56l51.2,38.4c1.4,1.1,3.1,1.6,4.8,1.6c1.2,0,2.5-0.3,3.6-0.8c2.7-1.4,4.4-4.1,4.4-7.2v-80
	C368,149.5,366.8,147.1,364.8,145.6z M112,256H80v-64h32V256z M288,256h-32v-64h32V256z M360,168h-8v-12l-58.7-44H74.7L16,156v12H8
	v-16l64-48h224l64,48V168z"/>
</svg>
