<?xml version="1.0" encoding="iso-8859-1"?>
<!-- Generator: Adobe Illustrator 19.0.0, SVG Export Plug-In . SVG Version: 6.00 Build 0)  -->
<svg version="1.1" id="Capa_1" xmlns="http://www.w3.org/2000/svg" xmlns:xlink="http://www.w3.org/1999/xlink" x="0px" y="0px"
	 viewBox="0 0 512 512" style="enable-background:new 0 0 512 512;" xml:space="preserve">
<g>
	<g>
		<g>
			<path d="M437.333,0c-41.167,0-74.667,33.5-74.667,74.667c0,5.25,0.57,10.363,1.607,15.31l-36.49,36.49l-25.742-8.581
				c-5.635-1.865-11.625,1.156-13.49,6.74c-1.865,5.594,1.156,11.635,6.74,13.49l128,42.667c1.125,0.375,2.26,0.552,3.375,0.552
				c4.469,0,8.625-2.823,10.115-7.292c1.865-5.594-1.156-11.635-6.74-13.49l-15.633-5.211l7.615-7.615
				c4.947,1.036,10.06,1.607,15.31,1.607c41.167,0,74.667-33.5,74.667-74.667C512,33.5,478.5,0,437.333,0z M437.333,106.667
				c-17.646,0-32-14.354-32-32c0-17.646,14.354-32,32-32c17.646,0,32,14.354,32,32C469.333,92.313,454.979,106.667,437.333,106.667z
				"/>
			<path d="M302.042,288.552l-16.758-5.586c0.815-2.017,1.217-4.171,0.706-6.352c-0.854-3.604-3.51-6.5-7.01-7.667l-64-21.333
				c-3.813-1.292-8.052-0.281-10.917,2.573l-4.279,4.279l-25.742-8.581c-5.625-1.865-11.625,1.156-13.49,6.74
				c-1.865,5.594,1.156,11.635,6.74,13.49l128,42.667c1.125,0.375,2.26,0.552,3.375,0.552c4.469,0,8.625-2.823,10.115-7.292
				C310.646,296.448,307.625,290.406,302.042,288.552z"/>
			<path d="M344.708,245.885l-16.758-5.586c0.815-2.017,1.217-4.171,0.706-6.352c-0.854-3.604-3.51-6.5-7.01-7.667l-64-21.333
				c-3.844-1.313-8.063-0.292-10.917,2.573l-4.279,4.279l-25.742-8.581c-5.615-1.885-11.625,1.156-13.49,6.74
				c-1.865,5.594,1.156,11.635,6.74,13.49l128,42.667c1.125,0.375,2.26,0.552,3.375,0.552c4.469,0,8.625-2.823,10.115-7.292
				C353.313,253.781,350.292,247.74,344.708,245.885z"/>
			<path d="M387.375,203.219l-16.758-5.586c0.815-2.017,1.217-4.171,0.706-6.352c-0.854-3.604-3.51-6.5-7.01-7.667l-64-21.333
				c-3.823-1.281-8.063-0.281-10.917,2.573l-4.279,4.279l-25.742-8.581c-5.646-1.896-11.635,1.146-13.49,6.74
				c-1.865,5.594,1.156,11.635,6.74,13.49l128,42.667c1.125,0.375,2.26,0.552,3.375,0.552c4.469,0,8.625-2.823,10.115-7.292
				C395.979,211.115,392.958,205.073,387.375,203.219z"/>
			<path d="M236.313,311.615l-64-21.333c-3.833-1.323-8.063-0.271-10.917,2.573L160,294.25l-13.792-13.792
				c-4.167-4.167-10.917-4.167-15.083,0l-53.333,53.333c-2.358,2.358-3.23,5.522-2.919,8.599C32.794,347.617,0,383.197,0,426.667
				C0,473.719,38.281,512,85.333,512c43.47,0,79.049-32.794,84.276-74.872c0.358,0.036,0.698,0.206,1.057,0.206
				c2.729,0,5.458-1.042,7.542-3.125l53.333-53.333c4.167-4.167,4.167-10.917,0-15.083L217.75,352l22.729-22.729
				c2.615-2.615,3.688-6.396,2.844-9.99C242.469,315.677,239.813,312.781,236.313,311.615z M85.333,469.333
				c-23.531,0-42.667-19.135-42.667-42.667S61.802,384,85.333,384S128,403.135,128,426.667S108.865,469.333,85.333,469.333z"/>
		</g>
	</g>
</g>
<g>
</g>
<g>
</g>
<g>
</g>
<g>
</g>
<g>
</g>
<g>
</g>
<g>
</g>
<g>
</g>
<g>
</g>
<g>
</g>
<g>
</g>
<g>
</g>
<g>
</g>
<g>
</g>
<g>
</g>
</svg>
