<?xml version="1.0"?>
<svg xmlns="http://www.w3.org/2000/svg" id="Layer_1" data-name="Layer 1" viewBox="0 0 512 512" width="512" height="512"><title>Front Glass</title><polygon points="238.35 324.072 248.359 356 263.733 356 252.342 319.716 238.35 324.072"/><path d="M30.1,186l24.1,170H233.684L222.9,321.593a7.09,7.09,0,0,1,4.578-8.862l7-2.2L194.286,182.694a7,7,0,1,1,13.356-4.195l40.184,127.845,7-2.188a7,7,0,0,1,5.337.493,7.077,7.077,0,0,1,3.44,4.149l14.81,47.2H457.794l24.1-169.96A871.014,871.014,0,0,0,30.1,186Z"/></svg>
