<svg height="512" viewBox="0 0 64 64" width="512" xmlns="http://www.w3.org/2000/svg"><g id="turbo"><path d="m22.39 24.32a4.018 4.018 0 0 1 .24-.46 9.592 9.592 0 0 0 -7.8-4.52 14 14 0 0 0 -1.7 5.08 8.949 8.949 0 0 1 3.82-1.18 11.683 11.683 0 0 1 5.44 1.08z"/><path d="m25.08 30.85a4.018 4.018 0 0 1 -.46-.24 9.592 9.592 0 0 0 -4.52 7.8 14 14 0 0 0 5.08 1.7 8.949 8.949 0 0 1 -1.18-3.82 11.683 11.683 0 0 1 1.08-5.44z"/><path d="m23.98 22.28a4.434 4.434 0 0 1 .42-.29 9.69 9.69 0 0 0 -1.51-4.87 9.8 9.8 0 0 0 -2.97-2.94 13.825 13.825 0 0 0 -3.81 3.29 11.485 11.485 0 0 1 3.69 1.15 11.8 11.8 0 0 1 4.18 3.66z"/><path d="m23.04 29.26c-.1-.14-.2-.28-.29-.42a9.662 9.662 0 0 0 -4.87 1.51 9.8 9.8 0 0 0 -2.94 2.97 14.107 14.107 0 0 0 3.28 3.81 11.426 11.426 0 0 1 1.16-3.69 11.709 11.709 0 0 1 3.66-4.18z"/><path d="m28.92 21.63a4.018 4.018 0 0 1 .46.24 9.592 9.592 0 0 0 4.52-7.8 14 14 0 0 0 -5.08-1.7 8.949 8.949 0 0 1 1.18 3.82 11.683 11.683 0 0 1 -1.08 5.44z"/><path d="m25.96 48.92c-1.16-.1-2.3.72-3.42.47l-1.31 2.63 12.06 3.51 2.37-5.62c-5.35-.55-9.46-.97-9.7-.99z"/><path d="m24 46.24h2v20h-2z" transform="matrix(.28 -.96 .96 .28 -35.99 64.493)"/><circle cx="27" cy="26.24" r="3"/><path d="m24.57 16.04a11.589 11.589 0 0 1 1.79 5.26c.17-.02.34-.04.52-.05a9.712 9.712 0 0 0 1.12-4.96 8.656 8.656 0 0 0 -1.55-4.02 13.916 13.916 0 0 0 -4.48.92 11.568 11.568 0 0 1 2.6 2.85z"/><path d="m29.43 36.44a11.586 11.586 0 0 1 -1.79-5.27 4.35 4.35 0 0 1 -.52.06 9.712 9.712 0 0 0 -1.12 4.96 8.656 8.656 0 0 0 1.55 4.02 13.916 13.916 0 0 0 4.48-.92 11.568 11.568 0 0 1 -2.6-2.85z"/><path d="m22.07 26.89a4.776 4.776 0 0 1 -.06-.53 9.687 9.687 0 0 0 -4.96-1.12 8.656 8.656 0 0 0 -4.02 1.55 13.916 13.916 0 0 0 .92 4.48 11.472 11.472 0 0 1 8.12-4.38z"/><path d="m52 52.68c.8.09 1.48.16 2 .21v-13.89h-2z"/><path d="m56 32h4v24h-4z"/><path d="m46 37h1.71a22.993 22.993 0 0 0 -19.17-32.95c-.52-.03-1.04-.05-1.56-.05a22.771 22.771 0 0 0 -15.7 6.21 23 23 0 0 0 13.84 39.71c.48.04 16.43 1.69 24.88 2.56v-13.48h-4zm-19 5.24a16 16 0 1 1 16-16 16.021 16.021 0 0 1 -16 16z"/><path d="m30.02 30.19a3.188 3.188 0 0 1 -.42.3 9.69 9.69 0 0 0 1.51 4.87 9.8 9.8 0 0 0 2.97 2.94 14.053 14.053 0 0 0 3.8-3.27 11.507 11.507 0 0 1 -7.86-4.84z"/><path d="m36.51 29.25a11.634 11.634 0 0 1 -4.9-1.09 4.018 4.018 0 0 1 -.24.46 9.592 9.592 0 0 0 7.8 4.52 14 14 0 0 0 1.7-5.08 8.949 8.949 0 0 1 -3.82 1.18c-.18.01-.36.01-.54.01z"/><path d="m31.93 25.6a4.35 4.35 0 0 1 .06.52 9.587 9.587 0 0 0 4.96 1.12 8.656 8.656 0 0 0 4.02-1.55 13.861 13.861 0 0 0 -.92-4.48 11.522 11.522 0 0 1 -8.12 4.39z"/><path d="m35.78 15.35a11.426 11.426 0 0 1 -1.16 3.69 11.8 11.8 0 0 1 -3.66 4.18c.1.13.2.28.29.42a9.635 9.635 0 0 0 4.87-1.51 9.8 9.8 0 0 0 2.94-2.97 14.107 14.107 0 0 0 -3.28-3.81z"/></g></svg>